<svg width="115" height="100" viewBox="0 0 115 100" fill="none" xmlns="http://www.w3.org/2000/svg">
<path d="M42.7493 76.982L23.8534 35.0626C23.3885 33.9162 23.3769 32.6387 23.8208 31.4843C24.2648 30.3298 25.1317 29.383 26.2493 28.8321L28.4464 27.942C29.8275 27.3728 31.3812 28.1179 32.3594 29.2357C33.0247 29.9943 33.8415 30.6084 34.7584 31.0395C35.6754 31.4705 36.6726 31.7091 37.6874 31.7402C38.7021 31.7713 39.7123 31.5943 40.6545 31.2202C41.5967 30.8462 42.4504 30.2833 43.1619 29.5669C43.9043 28.8232 44.4752 27.9294 44.8355 26.9468C45.1958 25.9642 45.3369 24.9162 45.2491 23.8746C45.1341 22.4515 45.6415 20.8991 46.9493 20.2936L49.0993 19.2949C50.3047 18.8019 51.6577 18.7974 52.8663 19.2824C54.075 19.7675 55.0424 20.7031 55.5599 21.8875L57.4339 26.424" stroke="#00AA80" stroke-linecap="round"/>
<path fill-rule="evenodd" clip-rule="evenodd" d="M35.6211 30.5404C34.6429 29.4226 33.0892 28.6775 31.7082 29.2467L29.511 30.1368C28.3935 30.6876 27.5265 31.6345 27.0825 32.789C26.6386 33.9434 26.6502 35.2209 27.1151 36.3673L43.0741 70.7846L44.3939 67.6905L59.7167 29.6858L60.043 29.0334L60.6957 27.7287L58.8216 23.1921C58.3041 22.0078 57.3367 21.0722 56.128 20.5871C54.9194 20.1021 53.5664 20.1066 52.361 20.5995L50.211 21.5983C48.9032 22.2037 48.3958 23.7562 48.5109 25.1793C48.5986 26.2209 48.4575 27.2689 48.0972 28.2515C47.737 29.2341 47.166 30.1279 46.4236 30.8716C45.7121 31.588 44.8584 32.1509 43.9162 32.5249C42.9741 32.899 41.9638 33.076 40.9491 33.0449C39.9344 33.0138 38.9371 32.7752 38.0202 32.3442C37.1032 31.9131 36.2864 31.299 35.6211 30.5404Z" fill="#00CC99"/>
<path d="M49.586 61.3137L51.5234 50.8192L51.911 48.7201L53.8485 38.2257" stroke="white" stroke-width="3" stroke-linecap="round" stroke-linejoin="round"/>
<path d="M45.3835 45.9928C44.0046 45.7789 42.6524 46.7903 42.3633 48.252C42.0742 49.7136 42.9576 51.0718 44.3365 51.2857C45.7154 51.4996 47.0675 50.4882 47.3566 49.0266C47.6457 47.565 46.7623 46.2067 45.3835 45.9928Z" stroke="white" stroke-width="3" stroke-linecap="round" stroke-linejoin="round"/>
<path d="M86.5564 37.9919C85.2862 37.43 83.8523 38.1739 82.9622 39.3081C82.9012 39.3879 82.8386 39.4642 82.7745 39.537C81.7903 40.689 80.4971 41.4787 79.0766 41.7954C77.656 42.1121 76.1794 41.9399 74.8541 41.3028C73.5287 40.6658 72.4211 39.596 71.6868 38.2435C70.9525 36.8911 70.6283 35.324 70.7598 33.7622C70.8801 32.3315 70.4134 30.7708 69.2105 30.1621L67.1222 29.106C65.985 28.5952 64.7075 28.5895 63.5664 29.0901C62.4253 29.5906 61.5126 30.557 61.0259 31.7801L45.6623 70.1382L43.3527 75.8246C42.8786 77.0541 42.8718 78.4362 43.3339 79.6711C43.796 80.906 44.6896 81.8941 45.8211 82.4213L67.1752 92.2593C68.3135 92.7732 69.5934 92.7807 70.7367 92.2799C71.8801 91.7792 72.7945 90.8108 73.2811 89.5852L90.9495 45.369C91.3897 44.1869 91.4014 42.8688 90.9822 41.6777C90.563 40.4867 89.7437 39.5105 88.688 38.9439L86.5564 37.9919Z" fill="#83F2D6"/>
<path d="M62.5449 26.2744C63.5563 25.8309 64.6862 25.8355 65.6943 26.2881L67.7617 27.335C68.695 27.8072 69.1524 29.0992 69.0391 30.4473C68.8996 32.1043 69.2427 33.7693 70.0244 35.209C70.8064 36.6491 71.9904 37.7957 73.415 38.4805C74.8404 39.1655 76.4317 39.3511 77.9629 39.0098C79.4937 38.6684 80.8802 37.8185 81.9316 36.5879L81.9307 36.5869C81.9995 36.5085 82.0669 36.4275 82.1318 36.3428L82.1328 36.3438C82.9117 35.3513 84.0213 34.8202 84.9482 35.1074L85.1318 35.1758L87.2344 36.1143C88.1712 36.6189 88.9086 37.4921 89.2881 38.5703C89.6685 39.6511 89.6572 40.8486 89.2578 41.9209L71.5938 86.126V86.127C71.1526 87.2378 70.3289 88.1041 69.3135 88.5488C68.3009 88.9923 67.1698 88.9857 66.1611 88.5312H66.1621L44.8076 78.6934C43.8032 78.2246 42.9978 77.3416 42.5791 76.2227C42.1609 75.105 42.1668 73.8525 42.5938 72.7393L44.9033 67.0527L44.9043 67.0508L60.2676 28.6924V28.6914C60.7087 27.5829 61.5315 26.7189 62.5449 26.2744Z" stroke="#00AA80"/>
<path d="M58.0876 67.6218L66.0732 60.6279L67.6704 59.2289L75.656 52.235" stroke="white" stroke-width="3" stroke-linecap="round" stroke-linejoin="round"/>
<path d="M64.367 52.9739C63.449 51.8626 61.8072 51.7101 60.7 52.6332C59.5929 53.5563 59.4395 55.2055 60.3576 56.3168C61.2756 57.428 62.9174 57.5806 64.0246 56.6574C65.1317 55.7343 65.2851 54.0851 64.367 52.9739Z" stroke="white" stroke-width="3" stroke-linecap="round" stroke-linejoin="round"/>
<path d="M73.7225 64.1457C72.8045 63.0345 71.1627 62.882 70.0555 63.8051C68.9483 64.7282 68.795 66.3774 69.713 67.4887C70.6311 68.5999 72.2728 68.7524 73.38 67.8293C74.4872 66.9062 74.6405 65.257 73.7225 64.1457Z" stroke="white" stroke-width="3" stroke-linecap="round" stroke-linejoin="round"/>
<path d="M32.4255 86.3709L31.5327 88.325C31.1988 89.0685 30.6948 89.7233 30.0615 90.2365C29.4281 90.7497 28.683 91.1071 27.8862 91.2798L25.7641 91.7469C25.6926 91.7622 25.6279 91.7996 25.579 91.854C25.5302 91.9083 25.4998 91.9767 25.4921 92.0493C25.4845 92.1219 25.5001 92.1951 25.5366 92.2584C25.5731 92.3217 25.6287 92.3718 25.6954 92.4015L27.6755 93.2977C28.4117 93.6316 29.0598 94.1325 29.5682 94.7607C30.0767 95.389 30.4315 96.1271 30.6044 96.9165L31.0693 99.0385C31.085 99.1098 31.1227 99.1744 31.1771 99.2231C31.2315 99.2717 31.2999 99.302 31.3725 99.3096C31.4452 99.3173 31.5184 99.3018 31.5817 99.2655C31.645 99.2292 31.6953 99.1738 31.7254 99.1073L32.6445 97.1559C32.9785 96.4202 33.4793 95.7723 34.1071 95.2636C34.735 94.7548 35.4727 94.3991 36.262 94.2247L38.3839 93.7588C38.4557 93.7438 38.521 93.7064 38.5701 93.652C38.6193 93.5975 38.65 93.5289 38.6576 93.456C38.6653 93.383 38.6496 93.3095 38.6127 93.2461C38.5759 93.1827 38.5199 93.1326 38.4527 93.103L36.5027 92.1845C35.7585 91.8508 35.1033 91.3467 34.5902 90.713C34.0771 90.0792 33.7204 89.3336 33.5492 88.5365L33.0842 86.4145C33.0666 86.3432 33.0267 86.2793 32.9704 86.2321C32.914 86.1849 32.8441 86.1568 32.7708 86.152C32.6974 86.1471 32.6244 86.1657 32.5623 86.2051C32.5003 86.2444 32.4523 86.3025 32.4255 86.3709Z" stroke="#E4E4E4" stroke-linecap="round" stroke-linejoin="round"/>
<path d="M18.2495 9.10118L17.9396 10.431C17.8253 10.9363 17.5939 11.4077 17.2639 11.8072C16.934 12.2067 16.5149 12.5231 16.0402 12.7311L14.777 13.2893C14.7345 13.3078 14.6988 13.3393 14.6752 13.3793C14.6517 13.4193 14.6413 13.4658 14.6457 13.512C14.6501 13.5582 14.6691 13.6018 14.6998 13.6366C14.7305 13.6715 14.7714 13.6957 14.8167 13.7058L16.1633 14.0148C16.6641 14.1301 17.131 14.3605 17.5269 14.6879C17.9229 15.0153 18.237 15.4305 18.4442 15.9005L19.0013 17.1639C19.02 17.2064 19.0517 17.2419 19.0917 17.2653C19.1317 17.2888 19.1782 17.2991 19.2244 17.2947C19.2706 17.2903 19.3142 17.2714 19.3491 17.2408C19.384 17.2102 19.4084 17.1694 19.4187 17.1242L19.7454 15.7927C19.8607 15.2923 20.091 14.8256 20.4181 14.4296C20.7451 14.0335 21.1599 13.7191 21.6296 13.511L22.8928 12.9535C22.9357 12.9351 22.9716 12.9036 22.9954 12.8635C23.0192 12.8234 23.0296 12.7768 23.0252 12.7304C23.0208 12.684 23.0017 12.6402 22.9708 12.6053C22.9399 12.5704 22.8986 12.5462 22.8531 12.5363L21.5224 12.2096C21.0167 12.0955 20.545 11.8639 20.1454 11.5337C19.7459 11.2035 19.4297 10.7839 19.2225 10.3088L18.6654 9.04538C18.6454 9.00315 18.6125 8.96837 18.5715 8.94606C18.5304 8.92376 18.4833 8.91508 18.437 8.9213C18.3907 8.92751 18.3476 8.94829 18.3139 8.98063C18.2802 9.01297 18.2576 9.05519 18.2495 9.10118Z" stroke="#E4E4E4" stroke-linecap="round" stroke-linejoin="round"/>
<path d="M111.942 63.11L110.687 63.6481C110.212 63.8553 109.695 63.9481 109.178 63.919C108.66 63.89 108.157 63.7399 107.708 63.4808L106.51 62.7941C106.47 62.7708 106.423 62.7608 106.377 62.7655C106.331 62.7702 106.287 62.7893 106.253 62.8203C106.218 62.8512 106.194 62.8923 106.184 62.9376C106.174 62.983 106.179 63.0303 106.198 63.0728L106.746 64.3403C106.95 64.8118 107.041 65.3244 107.011 65.8372C106.982 66.3499 106.833 66.8488 106.577 67.2941L105.889 68.4911C105.866 68.5314 105.856 68.5779 105.86 68.624C105.865 68.6702 105.885 68.7136 105.915 68.7482C105.946 68.7828 105.987 68.8068 106.033 68.8168C106.078 68.8268 106.125 68.8222 106.168 68.8038L107.435 68.2782C107.906 68.0747 108.419 67.9837 108.932 68.0125C109.445 68.0413 109.944 68.1891 110.39 68.4441L111.588 69.1313C111.628 69.1549 111.674 69.1651 111.721 69.1606C111.767 69.156 111.811 69.1368 111.846 69.1057C111.881 69.0747 111.905 69.0334 111.914 68.9878C111.924 68.9422 111.919 68.8947 111.9 68.8521L111.375 67.587C111.168 67.1121 111.075 66.595 111.105 66.0777C111.134 65.5603 111.285 65.0571 111.545 64.6089L112.234 63.4118C112.256 63.3707 112.265 63.3237 112.258 63.2774C112.252 63.2311 112.231 63.1881 112.199 63.1544C112.166 63.1208 112.124 63.0984 112.078 63.0904C112.032 63.0824 111.984 63.0893 111.942 63.11Z" stroke="#E4E4E4" stroke-linecap="round" stroke-linejoin="round"/>
<path d="M99.8729 13.0755L99.4391 15.965C99.2817 17.0622 98.8686 18.1072 98.2332 19.0156C97.5978 19.9241 96.7578 20.6707 95.7809 21.1953L93.1819 22.6017C93.0943 22.6485 93.0237 22.7218 92.9802 22.8111C92.9367 22.9005 92.9226 23.0012 92.9399 23.0991C92.9572 23.1969 93.005 23.2867 93.0765 23.3558C93.148 23.4248 93.2394 23.4694 93.3378 23.4834L96.2629 23.9124C97.3506 24.0728 98.3859 24.4847 99.2865 25.1153C100.187 25.746 100.928 26.5779 101.45 27.5451L102.854 30.1449C102.902 30.2323 102.975 30.3025 103.065 30.3458C103.154 30.389 103.255 30.4029 103.353 30.3857C103.45 30.3684 103.54 30.3207 103.61 30.2495C103.679 30.1783 103.724 30.087 103.738 29.9888L104.207 27.093C104.368 26.006 104.779 24.9712 105.409 24.0706C106.039 23.17 106.87 22.4284 107.836 21.9045L110.435 20.4995C110.524 20.453 110.595 20.3797 110.639 20.2901C110.683 20.2005 110.697 20.0993 110.68 20.001C110.662 19.9028 110.614 19.8126 110.542 19.7435C110.47 19.6744 110.378 19.6299 110.279 19.6164L107.385 19.1469C106.287 18.9898 105.241 18.5764 104.333 17.9403C103.424 17.3042 102.678 16.4632 102.155 15.4853L100.75 12.8855C100.701 12.7988 100.624 12.7302 100.533 12.6897C100.442 12.6491 100.34 12.6386 100.242 12.6598C100.144 12.681 100.056 12.7327 99.9896 12.8074C99.9232 12.8821 99.8823 12.976 99.8729 13.0755Z" stroke="#E4E4E4" stroke-linecap="round" stroke-linejoin="round"/>
<path d="M17.2026 80.0526C19.3769 79.3648 20.7763 78.0897 21.1429 76.4626L22.2131 71.7119C22.5796 70.0847 21.862 68.3332 20.1913 66.7852C18.581 65.2789 16.2571 64.1319 13.649 63.5449C11.0409 62.9579 8.44951 62.9986 6.34867 63.6697C4.17547 64.3525 2.77608 65.6276 2.40954 67.2547L1.33936 72.0055C0.972822 73.6326 1.69042 75.3842 3.35997 76.9371C4.97143 78.4385 7.29527 79.5855 9.90339 80.1725C12.5115 80.7595 15.1029 80.7188 17.2026 80.0526ZM4.42452 76.7836L5.29783 72.9068C6.73456 73.9831 8.56243 74.8239 10.5788 75.3266L9.68702 79.2856C7.64157 78.7732 5.80873 77.899 4.42452 76.7836ZM11.371 75.5049C13.4083 75.9146 15.4204 75.938 17.1799 75.5811L16.3066 79.4579C14.5775 79.8736 12.5469 79.8773 10.4792 79.4639L11.371 75.5049ZM20.3507 76.2843C20.0633 77.5601 18.9465 78.5878 17.1975 79.1977L18.061 75.3645C18.1312 75.3439 18.2034 75.3237 18.2728 75.3019C19.3438 74.9627 20.2263 74.4812 20.8912 73.8852L20.3507 76.2843ZM6.59477 64.4384C8.55863 63.8166 10.9952 63.7795 13.4707 64.3367C15.9461 64.8938 18.1316 65.9712 19.6393 67.3743C21.0886 68.7228 21.7215 70.1994 21.4209 71.5336C21.1204 72.8677 19.9154 73.9308 18.0278 74.5282C16.064 75.15 13.6224 75.186 11.1519 74.6299C8.68145 74.0739 6.49095 72.9954 4.98325 71.5923C3.53397 70.2438 2.90114 68.7672 3.20168 67.433C3.50222 66.0989 4.70716 65.0358 6.59477 64.4384ZM2.1315 72.1838L2.67194 69.7846C3.01608 70.6077 3.60795 71.421 4.43015 72.1864C4.48352 72.2358 4.54007 72.2849 4.59465 72.3336L3.73115 76.1669C2.41252 74.8666 1.84411 73.4595 2.1315 72.1838Z" fill="#E4E4E4"/>
<path d="M106.345 95.2219C108.291 93.691 109.225 91.8597 108.974 90.0658L108.243 84.8282C107.992 83.0344 106.592 81.5288 104.301 80.5948C102.088 79.68 99.287 79.4035 96.4116 79.8048C93.5362 80.2061 90.9182 81.2389 89.0401 82.7247C87.093 84.2501 86.1591 86.0814 86.4097 87.8753L87.1413 93.1128C87.3919 94.9067 88.7919 96.4123 91.0833 97.3517C93.2959 98.2611 96.0969 98.5376 98.9723 98.1363C101.848 97.735 104.466 96.7022 106.345 95.2219ZM92.1064 96.7884L91.5094 92.5144C93.3817 93.0585 95.5613 93.2137 97.8031 92.9531L98.4128 97.3178C96.1378 97.5797 93.9403 97.3924 92.1064 96.7884ZM98.6764 92.8312C100.904 92.4681 102.958 91.722 104.609 90.6861L105.206 94.9602C103.608 96.0443 101.546 96.8249 99.2861 97.1959L98.6764 92.8312ZM108.101 90.1877C108.297 91.5942 107.556 93.066 106.012 94.355L105.422 90.1289C105.485 90.0811 105.551 90.033 105.613 89.9843C106.572 89.2298 107.284 88.4028 107.731 87.5427L108.101 90.1877ZM89.5846 83.4118C91.3424 82.0285 93.8045 81.0586 96.5336 80.6777C99.2627 80.2968 101.896 80.5556 103.966 81.4047C105.955 82.2206 107.164 83.4792 107.369 84.9501C107.575 86.421 106.757 87.9624 105.068 89.2917C103.31 90.675 100.842 91.6457 98.1187 92.0258C95.3951 92.4059 92.7559 92.1479 90.6863 91.2988C88.6971 90.4828 87.4884 89.2243 87.283 87.7534C87.0775 86.2825 87.895 84.7411 89.5846 83.4118ZM88.0146 92.991L87.6451 90.346C88.3101 91.0508 89.223 91.6509 90.3517 92.1141C90.4249 92.144 90.5012 92.1723 90.5753 92.2009L91.1656 96.4269C89.3275 95.61 88.2111 94.3975 88.0146 92.991Z" fill="#E4E4E4"/>
<path d="M91.7801 9.42938C92.1998 7.82798 91.9584 6.47483 91.1005 5.61943L88.5958 3.1219C87.7379 2.2665 86.3836 2.02852 84.7851 2.45452C83.2356 2.85963 81.6305 3.84203 80.2594 5.21589C78.8882 6.58976 77.9093 8.19654 77.5078 9.74634C77.0855 11.3451 77.3269 12.6983 78.1848 13.5537L80.6895 16.0512C81.5474 16.9066 82.9017 17.1446 84.5028 16.7212C86.0497 16.3135 87.6548 15.3311 89.0259 13.9572C90.3971 12.5834 91.376 10.9766 91.7801 9.42938ZM84.8209 16.0081L82.777 13.9701C83.9949 13.5049 85.2198 12.7085 86.3099 11.6652L88.3971 13.7465C87.2899 14.8038 86.0426 15.5904 84.8209 16.0081ZM86.7263 11.2479C87.7673 10.1558 88.5612 8.92955 89.0235 7.71099L91.0675 9.74907C90.6531 10.9717 89.8687 12.2199 88.8136 13.3292L86.7263 11.2479ZM90.6841 6.0367C91.3567 6.70739 91.5555 7.79125 91.2528 9.1013L89.2318 7.08611C89.2463 7.03504 89.2619 6.98293 89.2754 6.93186C89.4818 6.14288 89.5278 5.41453 89.4192 4.77545L90.6841 6.0367ZM78.0756 9.89308C78.4543 8.44645 79.3754 6.93612 80.6768 5.63215C81.9782 4.32817 83.4869 3.40372 84.9333 3.02166C86.3234 2.65426 87.4759 2.83779 88.1793 3.53918C88.8827 4.24056 89.0692 5.39217 88.705 6.78252C88.3263 8.22915 87.4025 9.74208 86.1038 11.0435C84.805 12.3448 83.2936 13.2719 81.8473 13.6539C80.4572 14.0213 79.3047 13.8378 78.6012 13.1364C77.8978 12.435 77.7114 11.2834 78.0756 9.89308ZM81.106 15.6339L79.8411 14.3727C80.4802 14.4803 81.2093 14.432 81.9981 14.2237C82.0492 14.2101 82.1013 14.1944 82.1523 14.1797L84.1733 16.1949C82.8634 16.5008 81.7786 16.3046 81.106 15.6339Z" fill="#E4E4E4"/>
</svg>
