<svg width="442" height="203" viewBox="0 0 442 203" fill="none" xmlns="http://www.w3.org/2000/svg">
<g filter="url(#filter0_d_9669_184210)">
<g filter="url(#filter1_i_9669_184210)">
<path d="M51 76C51 101.957 72.0426 123 98 123C123.957 123 145 101.957 145 76C145 50.0426 123.957 29 98 29C72.0426 29 51 50.0426 51 76Z" fill="url(#paint0_linear_9669_184210)"/>
</g>
<path d="M94.5588 79.4484C96.3463 81.2336 98.7683 82.2378 101.295 82.241C102.129 82.2302 102.96 82.1239 103.77 81.9243C105.377 81.4756 106.843 80.6233 108.028 79.4484L110.285 77.1939L116.988 70.4675C118.245 69.1217 119.085 67.44 119.405 65.6264C119.725 63.8128 119.511 61.9452 118.791 60.2504C118.07 58.5556 116.873 57.1063 115.345 56.0784C113.817 55.0506 112.024 54.4882 110.182 54.4597C107.714 54.417 105.325 55.3319 103.516 57.0124L96.8134 63.7411" stroke="url(#paint1_linear_9669_184210)" stroke-width="6" stroke-linecap="round" stroke-linejoin="round"/>
<path d="M99.0376 88.4294L92.3019 95.1558C90.9445 96.3537 89.2741 97.1404 87.486 97.424C85.698 97.7075 83.8661 97.4762 82.2047 96.757C80.5433 96.0378 79.1209 94.8604 78.1039 93.3627C77.087 91.8649 76.5174 90.1085 76.4619 88.299C76.3953 85.8744 77.2538 83.5153 78.8631 81.7007L85.5988 74.9743L87.8557 72.7197C89.0397 71.5472 90.5036 70.6966 92.1086 70.2486C93.7265 69.8169 95.4294 69.8181 97.0466 70.2523C98.6637 70.6864 100.138 71.5381 101.322 72.7221" stroke="url(#paint2_linear_9669_184210)" stroke-width="6" stroke-linecap="round" stroke-linejoin="round"/>
</g>
<rect x="174" y="6" width="186" height="317" rx="24" fill="white"/>
<rect x="174" y="6" width="186" height="317" rx="24" stroke="#3B3B3B" stroke-width="12"/>
<path d="M252.852 29.3375H281.147" stroke="#3B3B3B" stroke-width="8" stroke-linecap="round" stroke-linejoin="round"/>
<path d="M280.677 66.1207L321.706 66.1207" stroke="#E4E4E4" stroke-width="6" stroke-linecap="round"/>
<path d="M198.618 137.172H338.118" stroke="#E4E4E4" stroke-width="4" stroke-linecap="round"/>
<path d="M280.677 79.7845L338.118 79.7845" stroke="#E4E4E4" stroke-width="4" stroke-linecap="round"/>
<path d="M198.618 150.836L302.559 150.836" stroke="#E4E4E4" stroke-width="4" stroke-linecap="round"/>
<rect x="199.618" y="53.4569" width="66.3824" height="66.319" rx="5" fill="white" stroke="#E4E4E4" stroke-width="2"/>
<path d="M230.524 107.195C242.245 108.416 252.751 100.053 253.991 88.5153C255.232 76.978 246.736 66.6354 235.016 65.4145C223.295 64.1937 212.789 72.5568 211.548 84.0941C210.308 95.6314 218.804 105.974 230.524 107.195Z" fill="#FFD09E" stroke="#000001" stroke-width="2" stroke-linecap="round" stroke-linejoin="round"/>
<path d="M235.02 66.8924L230.775 106.377" stroke="#000001" stroke-width="2" stroke-linecap="round" stroke-linejoin="round"/>
<path d="M215.503 98.0388C218.039 96.9492 220.219 95.2732 221.833 93.172C223.446 91.0707 224.439 88.6147 224.716 86.0403C224.993 83.4658 224.544 80.8597 223.413 78.4725C222.282 76.0853 220.507 73.9973 218.258 72.4094" fill="#FFD09E"/>
<path d="M215.503 98.0388C218.039 96.9492 220.219 95.2733 221.833 93.172C223.446 91.0707 224.439 88.6147 224.716 86.0403C224.993 83.4658 224.544 80.8597 223.413 78.4725C222.282 76.0853 220.507 73.9973 218.258 72.4094" stroke="#000001" stroke-width="2" stroke-linecap="round" stroke-linejoin="round"/>
<path d="M250.244 75.0862C247.706 76.1976 245.524 77.9039 243.907 80.041C242.291 82.1781 241.294 84.6742 241.013 87.2893C240.732 89.9043 241.176 92.5505 242.302 94.9733C243.428 97.3961 245.199 99.5142 247.445 101.124" fill="#FFD09E"/>
<path d="M250.244 75.0862C247.706 76.1976 245.524 77.9039 243.907 80.041C242.291 82.1781 241.294 84.6742 241.013 87.2893C240.732 89.9043 241.176 92.5505 242.302 94.9733C243.428 97.3961 245.199 99.5142 247.445 101.124" stroke="#000001" stroke-width="2" stroke-linecap="round" stroke-linejoin="round"/>
<path d="M223.235 178.164C223.235 172.127 228.129 167.233 234.166 167.233H299.834C305.871 167.233 310.765 172.127 310.765 178.164C310.765 184.201 305.871 189.095 299.834 189.095H234.166C228.129 189.095 223.235 184.201 223.235 178.164Z" fill="#00CC99"/>
<path d="M11.0187 106.259C12.4474 104.228 13.011 101.714 12.5855 99.2676C12.16 96.8217 10.7804 94.645 8.74999 93.2163C6.71962 91.7877 4.20487 91.2241 1.75897 91.6496C-0.686943 92.075 -2.86366 93.4547 -4.29233 95.4851L-20.4527 118.452C-26.1674 126.573 -28.4218 136.632 -26.7199 146.416C-25.018 156.199 -19.4993 164.906 -11.3778 170.621L-1.17042 177.803L-2.23199 177.056C2.83875 180.626 8.71658 182.88 14.8737 183.616C21.0308 184.353 27.2744 183.548 33.0439 181.275L35.1216 180.448C38.4329 179.126 50.8799 173.315 72.4627 163.015C74.663 161.965 76.3669 160.099 77.2121 157.812C78.0573 155.525 77.9771 152.999 76.9885 150.771C75.9335 148.398 74.1174 146.445 71.8277 145.221C69.538 143.997 66.9054 143.571 64.3466 144.012L51.5651 146.235M93.527 129.978L98.6307 133.569L93.527 129.978ZM56.855 73.6509L55.3425 64.9561L56.855 73.6509ZM40.9777 85.3708L35.874 81.7796L40.9777 85.3708Z" fill="#FFEED4"/>
<path d="M11.0187 106.259C12.4474 104.228 13.011 101.714 12.5855 99.2676C12.16 96.8217 10.7804 94.645 8.74999 93.2163C6.71962 91.7877 4.20488 91.2241 1.75897 91.6496C-0.686944 92.075 -2.86366 93.4547 -4.29233 95.4851L-20.4527 118.452C-26.1674 126.573 -28.4218 136.632 -26.7199 146.416C-25.018 156.199 -19.4993 164.906 -11.3778 170.621L-1.17043 177.803L-2.23199 177.056C2.83875 180.626 8.71658 182.88 14.8737 183.616C21.0308 184.353 27.2744 183.548 33.0439 181.276L35.1216 180.448C38.4329 179.126 50.8799 173.315 72.4627 163.015C74.663 161.965 76.3669 160.099 77.2121 157.812C78.0573 155.525 77.9771 152.999 76.9885 150.771C75.9335 148.398 74.1174 146.445 71.8277 145.221C69.538 143.997 66.9054 143.571 64.3466 144.012L51.5651 146.235M93.527 129.978L98.6307 133.569M56.855 73.6509L55.3425 64.9561M40.9777 85.3708L35.874 81.7796" stroke="#3B3B3B" stroke-width="4" stroke-linecap="round" stroke-linejoin="round"/>
<path d="M51.5307 146.482L82.0558 103.1C83.4845 101.07 84.0481 98.5554 83.6226 96.1094C83.1972 93.6635 81.8175 91.4868 79.7871 90.0582C77.7567 88.6295 75.242 88.0659 72.7961 88.4914C70.3502 88.9168 68.1734 90.2965 66.7448 92.3269L37.8013 133.199M37.8013 133.199L48.7888 117.845C50.2175 115.815 50.7811 113.3 50.3556 110.854C49.9301 108.408 48.5504 106.232 46.5201 104.803C44.4897 103.374 41.9749 102.811 39.529 103.236C37.0831 103.662 34.9064 105.041 33.4777 107.072L24.4997 119.831M24.4997 119.831C25.9284 117.801 31.7951 108.134 31.4533 105.184C31.1116 102.235 29.6482 100.562 27.6178 99.1331C25.5874 97.7044 23.0727 97.1408 20.6268 97.5663C18.1809 97.9918 16.0042 99.3714 14.5755 101.402L9.18869 109.057" fill="#FFEED4"/>
<path d="M51.5307 146.482L82.0558 103.1C83.4845 101.07 84.0481 98.5554 83.6226 96.1094C83.1972 93.6635 81.8175 91.4868 79.7871 90.0582C77.7567 88.6295 75.242 88.0659 72.7961 88.4914C70.3502 88.9168 68.1734 90.2965 66.7448 92.3269L37.8013 133.199L48.7888 117.845C50.2175 115.815 50.7811 113.3 50.3556 110.854C49.9301 108.408 48.5504 106.232 46.5201 104.803C44.4897 103.374 41.9749 102.811 39.529 103.236C37.0831 103.662 34.9064 105.041 33.4777 107.072L24.4997 119.831C25.9284 117.801 31.7951 108.134 31.4533 105.184C31.1116 102.235 29.6482 100.562 27.6178 99.1331C25.5874 97.7044 23.0727 97.1408 20.6268 97.5663C18.1809 97.9918 16.0042 99.3714 14.5755 101.402L9.18869 109.057" stroke="#3B3B3B" stroke-width="4" stroke-linecap="round" stroke-linejoin="round"/>
<g filter="url(#filter2_d_9669_184210)">
<g clip-path="url(#clip0_9669_184210)">
<g filter="url(#filter3_i_9669_184210)">
<path d="M330.04 115.307C325.6 140.882 342.732 165.214 368.307 169.655C393.882 174.095 418.214 156.962 422.654 131.388C427.095 105.813 409.962 81.4807 384.388 77.0402C358.813 72.5997 334.481 89.7324 330.04 115.307Z" fill="url(#paint3_linear_9669_184210)"/>
</g>
<g filter="url(#filter4_d_9669_184210)">
<mask id="mask0_9669_184210" style="mask-type:luminance" maskUnits="userSpaceOnUse" x="326" y="87" width="102" height="80">
<path d="M427.607 102.862L337.957 87.2965L326.893 151.015L416.544 166.581L427.607 102.862Z" fill="white"/>
</mask>
<g mask="url(#mask0_9669_184210)">
<path d="M377.12 115.192C376.775 109.899 374.104 106.817 369.109 105.95C366.482 105.494 363.866 105.924 361.261 107.239C358.655 108.552 356.43 110.499 354.586 113.08C352.74 115.66 351.565 118.411 351.058 121.333C350.425 124.976 350.869 128.074 352.39 130.628C353.91 133.181 356.279 134.738 359.498 135.296C362.42 135.804 365.004 135.489 367.25 134.353C369.499 133.217 371.165 131.413 372.249 128.94L362.084 127.175L365.373 117.669L390.082 121.959C387.818 128.459 385.048 133.42 381.769 136.842C378.493 140.264 374.66 142.741 370.271 144.271C365.884 145.799 361.129 146.118 356.004 145.228C349.4 144.082 344.42 141.297 341.065 136.874C337.708 132.451 336.571 127.129 337.652 120.905C338.601 115.441 340.774 110.583 344.173 106.331C347.575 102.08 351.843 98.9829 356.977 97.0381C362.114 95.0946 367.583 94.626 373.385 95.6334C383.505 97.3905 389.23 102.987 390.561 112.422L377.12 115.192Z" fill="white"/>
<mask id="mask1_9669_184210" style="mask-type:luminance" maskUnits="userSpaceOnUse" x="374" y="97" width="54" height="60">
<path d="M383.797 97.2911L427.264 104.838L418.345 156.208L374.878 148.661L383.797 97.2911Z" fill="white"/>
</mask>
<g mask="url(#mask1_9669_184210)">
<path d="M433.966 127.682C433.164 132.297 430.999 136.851 427.472 141.342C423.943 145.834 419.502 149.056 414.146 151.006C408.791 152.954 403.318 153.443 397.728 152.473C390.995 151.304 385.876 148.375 382.37 143.688C378.867 138.999 377.678 133.415 378.803 126.937C379.729 121.602 381.991 116.923 385.589 112.902C389.189 108.882 393.643 105.968 398.952 104.163C404.261 102.358 409.499 101.904 414.665 102.801C418.773 103.514 422.461 105.072 425.732 107.473C429.001 109.872 431.367 112.823 432.829 116.326C434.293 119.83 434.672 123.615 433.966 127.682ZM401.73 140.733C404.611 141.233 407.406 140.902 410.116 139.736C412.828 138.569 415.122 136.852 416.998 134.583C418.875 132.315 420.028 129.952 420.455 127.495C420.984 124.446 420.278 121.663 418.338 119.145C416.399 116.625 413.82 115.085 410.602 114.526C408.101 114.092 405.504 114.339 402.812 115.268C400.123 116.199 397.827 117.676 395.925 119.701C394.024 121.728 392.833 124.138 392.348 126.932C391.752 130.364 392.33 133.376 394.082 135.97C395.836 138.565 398.385 140.152 401.73 140.733Z" fill="white"/>
</g>
</g>
</g>
</g>
</g>
<defs>
<filter id="filter0_d_9669_184210" x="41" y="19" width="118" height="118" filterUnits="userSpaceOnUse" color-interpolation-filters="sRGB">
<feFlood flood-opacity="0" result="BackgroundImageFix"/>
<feColorMatrix in="SourceAlpha" type="matrix" values="0 0 0 0 0 0 0 0 0 0 0 0 0 0 0 0 0 0 127 0" result="hardAlpha"/>
<feOffset dx="2" dy="2"/>
<feGaussianBlur stdDeviation="6"/>
<feComposite in2="hardAlpha" operator="out"/>
<feColorMatrix type="matrix" values="0 0 0 0 0 0 0 0 0 0 0 0 0 0 0 0 0 0 0.25 0"/>
<feBlend mode="normal" in2="BackgroundImageFix" result="effect1_dropShadow_9669_184210"/>
<feBlend mode="normal" in="SourceGraphic" in2="effect1_dropShadow_9669_184210" result="shape"/>
</filter>
<filter id="filter1_i_9669_184210" x="51" y="29" width="94" height="94" filterUnits="userSpaceOnUse" color-interpolation-filters="sRGB">
<feFlood flood-opacity="0" result="BackgroundImageFix"/>
<feBlend mode="normal" in="SourceGraphic" in2="BackgroundImageFix" result="shape"/>
<feColorMatrix in="SourceAlpha" type="matrix" values="0 0 0 0 0 0 0 0 0 0 0 0 0 0 0 0 0 0 127 0" result="hardAlpha"/>
<feOffset/>
<feGaussianBlur stdDeviation="2"/>
<feComposite in2="hardAlpha" operator="arithmetic" k2="-1" k3="1"/>
<feColorMatrix type="matrix" values="0 0 0 0 1 0 0 0 0 1 0 0 0 0 1 0 0 0 1 0"/>
<feBlend mode="normal" in2="shape" result="effect1_innerShadow_9669_184210"/>
</filter>
<filter id="filter2_d_9669_184210" x="312" y="59" width="132.695" height="132.695" filterUnits="userSpaceOnUse" color-interpolation-filters="sRGB">
<feFlood flood-opacity="0" result="BackgroundImageFix"/>
<feColorMatrix in="SourceAlpha" type="matrix" values="0 0 0 0 0 0 0 0 0 0 0 0 0 0 0 0 0 0 127 0" result="hardAlpha"/>
<feOffset dx="2" dy="2"/>
<feGaussianBlur stdDeviation="6"/>
<feComposite in2="hardAlpha" operator="out"/>
<feColorMatrix type="matrix" values="0 0 0 0 0 0 0 0 0 0 0 0 0 0 0 0 0 0 0.25 0"/>
<feBlend mode="normal" in2="BackgroundImageFix" result="effect1_dropShadow_9669_184210"/>
<feBlend mode="normal" in="SourceGraphic" in2="effect1_dropShadow_9669_184210" result="shape"/>
</filter>
<filter id="filter3_i_9669_184210" x="329.34" y="76.3397" width="94.0154" height="94.0154" filterUnits="userSpaceOnUse" color-interpolation-filters="sRGB">
<feFlood flood-opacity="0" result="BackgroundImageFix"/>
<feBlend mode="normal" in="SourceGraphic" in2="BackgroundImageFix" result="shape"/>
<feColorMatrix in="SourceAlpha" type="matrix" values="0 0 0 0 0 0 0 0 0 0 0 0 0 0 0 0 0 0 127 0" result="hardAlpha"/>
<feOffset/>
<feGaussianBlur stdDeviation="2"/>
<feComposite in2="hardAlpha" operator="arithmetic" k2="-1" k3="1"/>
<feColorMatrix type="matrix" values="0 0 0 0 0.847059 0 0 0 0 0.972549 0 0 0 0 0.937255 0 0 0 1 0"/>
<feBlend mode="normal" in2="shape" result="effect1_innerShadow_9669_184210"/>
</filter>
<filter id="filter4_d_9669_184210" x="329.257" y="87.1177" width="114.007" height="81.8391" filterUnits="userSpaceOnUse" color-interpolation-filters="sRGB">
<feFlood flood-opacity="0" result="BackgroundImageFix"/>
<feColorMatrix in="SourceAlpha" type="matrix" values="0 0 0 0 0 0 0 0 0 0 0 0 0 0 0 0 0 0 127 0" result="hardAlpha"/>
<feOffset dx="4" dy="4"/>
<feGaussianBlur stdDeviation="6"/>
<feComposite in2="hardAlpha" operator="out"/>
<feColorMatrix type="matrix" values="0 0 0 0 0 0 0 0 0 0 0 0 0 0 0 0 0 0 0.1 0"/>
<feBlend mode="normal" in2="BackgroundImageFix" result="effect1_dropShadow_9669_184210"/>
<feBlend mode="normal" in="SourceGraphic" in2="effect1_dropShadow_9669_184210" result="shape"/>
</filter>
<linearGradient id="paint0_linear_9669_184210" x1="68.472" y1="40.2757" x2="126.534" y2="111.877" gradientUnits="userSpaceOnUse">
<stop offset="0.515441" stop-color="#F6F6F6"/>
<stop offset="1" stop-color="#E4E4E4"/>
</linearGradient>
<linearGradient id="paint1_linear_9669_184210" x1="96.5314" y1="48.0938" x2="111.219" y2="79.672" gradientUnits="userSpaceOnUse">
<stop stop-color="#4C4C4C"/>
<stop offset="0.524038" stop-color="#BCBCBC"/>
<stop offset="1" stop-color="#4C4C4C"/>
</linearGradient>
<linearGradient id="paint2_linear_9669_184210" x1="87.7188" y1="67.1876" x2="99.4688" y2="94.3595" gradientUnits="userSpaceOnUse">
<stop stop-color="#4C4C4C"/>
<stop offset="0.524038" stop-color="#BCBCBC"/>
<stop offset="1" stop-color="#4C4C4C"/>
</linearGradient>
<linearGradient id="paint3_linear_9669_184210" x1="353.366" y1="83.0984" x2="398.323" y2="163.577" gradientUnits="userSpaceOnUse">
<stop offset="0.515441" stop-color="#00CC99"/>
<stop offset="1" stop-color="#009F78"/>
</linearGradient>
<clipPath id="clip0_9669_184210">
<path d="M330.04 115.307C334.481 89.7324 358.813 72.5997 384.388 77.0402C409.962 81.4807 427.095 105.813 422.654 131.388C418.214 156.962 393.882 174.095 368.307 169.655C342.732 165.214 325.6 140.882 330.04 115.307Z" fill="white"/>
</clipPath>
</defs>
</svg>
