<svg width="552" height="90" viewBox="0 0 552 90" fill="none" xmlns="http://www.w3.org/2000/svg">
<g filter="url(#filter0_i_9669_163621)">
<rect x="171.5" width="64" height="64" rx="8" fill="url(#paint0_linear_9669_163621)"/>
<path d="M199.986 35.522C201.811 37.3452 204.285 38.3707 206.865 38.374C207.717 38.3629 208.565 38.2544 209.393 38.0505C211.034 37.5923 212.531 36.7219 213.741 35.522L216.046 33.2195L222.892 26.35C224.176 24.9756 225.033 23.258 225.36 21.4058C225.687 19.5537 225.469 17.6464 224.733 15.9155C223.997 14.1846 222.775 12.7045 221.214 11.6548C219.654 10.605 217.822 10.0308 215.942 10.0016C213.421 9.95799 210.981 10.8923 209.134 12.6086L202.288 19.4805" stroke="url(#paint1_linear_9669_163621)" stroke-width="5" stroke-linecap="round" stroke-linejoin="round"/>
<path d="M204.56 44.694L197.681 51.5635C196.294 52.787 194.589 53.5904 192.762 53.88C190.936 54.1696 189.065 53.9333 187.369 53.1988C185.672 52.4643 184.219 51.2619 183.181 49.7323C182.142 48.2026 181.56 46.4089 181.504 44.5608C181.436 42.0847 182.312 39.6754 183.956 37.8222L190.835 30.9527L193.14 28.6502C194.349 27.4527 195.844 26.584 197.483 26.1264C199.136 25.6855 200.875 25.6868 202.526 26.1302C204.178 26.5736 205.684 27.4434 206.893 28.6525" stroke="url(#paint2_linear_9669_163621)" stroke-width="5" stroke-linecap="round" stroke-linejoin="round"/>
</g>
<path d="M190.633 75.144C190.111 75.144 189.647 75.24 189.241 75.432C188.836 75.624 188.489 75.9013 188.201 76.264C187.924 76.6267 187.711 77.064 187.561 77.576C187.423 78.088 187.353 78.664 187.353 79.304C187.353 80.168 187.471 80.9093 187.705 81.528C187.94 82.136 188.297 82.6053 188.777 82.936C189.268 83.2667 189.881 83.432 190.617 83.432C191.108 83.432 191.577 83.384 192.025 83.288C192.484 83.1813 192.964 83.0427 193.465 82.872V84.616C192.996 84.808 192.521 84.9467 192.041 85.032C191.572 85.1173 191.028 85.16 190.409 85.16C189.236 85.16 188.265 84.92 187.497 84.44C186.729 83.9493 186.159 83.2667 185.785 82.392C185.412 81.5067 185.225 80.472 185.225 79.288C185.225 78.424 185.343 77.6347 185.577 76.92C185.823 76.2053 186.169 75.5867 186.617 75.064C187.076 74.5413 187.641 74.136 188.313 73.848C188.985 73.56 189.759 73.416 190.633 73.416C191.209 73.416 191.775 73.4853 192.329 73.624C192.895 73.752 193.423 73.9333 193.913 74.168L193.209 75.848C192.804 75.6667 192.383 75.5067 191.945 75.368C191.519 75.2187 191.081 75.144 190.633 75.144ZM203.477 80.648C203.477 81.3733 203.382 82.0133 203.19 82.568C202.998 83.1227 202.72 83.5973 202.358 83.992C202.006 84.376 201.568 84.6693 201.046 84.872C200.534 85.064 199.963 85.16 199.334 85.16C198.736 85.16 198.187 85.064 197.686 84.872C197.184 84.6693 196.747 84.376 196.374 83.992C196.011 83.5973 195.728 83.1227 195.526 82.568C195.323 82.0133 195.222 81.3733 195.222 80.648C195.222 79.688 195.387 78.8773 195.718 78.216C196.048 77.544 196.523 77.0373 197.142 76.696C197.771 76.344 198.512 76.168 199.366 76.168C200.176 76.168 200.886 76.344 201.494 76.696C202.112 77.0373 202.598 77.544 202.95 78.216C203.302 78.8773 203.477 79.688 203.477 80.648ZM197.286 80.648C197.286 81.256 197.355 81.7787 197.494 82.216C197.643 82.6427 197.867 82.968 198.166 83.192C198.475 83.416 198.87 83.528 199.35 83.528C199.84 83.528 200.235 83.416 200.534 83.192C200.843 82.968 201.067 82.6427 201.206 82.216C201.344 81.7787 201.414 81.256 201.414 80.648C201.414 80.0293 201.339 79.512 201.19 79.096C201.051 78.6693 200.827 78.3493 200.518 78.136C200.219 77.912 199.83 77.8 199.35 77.8C198.624 77.8 198.096 78.0453 197.766 78.536C197.446 79.0267 197.286 79.7307 197.286 80.648ZM210.122 76.168C211.135 76.168 211.951 76.5467 212.57 77.304C213.188 78.0507 213.498 79.1653 213.498 80.648C213.498 81.6293 213.354 82.456 213.066 83.128C212.778 83.8 212.378 84.3067 211.866 84.648C211.354 84.9893 210.756 85.16 210.074 85.16C209.658 85.16 209.29 85.1067 208.97 85C208.65 84.8827 208.378 84.7387 208.154 84.568C207.93 84.3867 207.738 84.1947 207.578 83.992H207.45C207.492 84.184 207.524 84.4027 207.546 84.648C207.567 84.8827 207.578 85.1067 207.578 85.32V88.84H205.562V76.328H207.194L207.482 77.48H207.578C207.738 77.2347 207.93 77.016 208.154 76.824C208.388 76.6213 208.666 76.4613 208.986 76.344C209.316 76.2267 209.695 76.168 210.122 76.168ZM209.546 77.8C209.076 77.8 208.698 77.896 208.41 78.088C208.122 78.2693 207.914 78.552 207.786 78.936C207.658 79.32 207.588 79.8 207.578 80.376V80.632C207.578 81.2507 207.636 81.7733 207.754 82.2C207.882 82.6267 208.09 82.952 208.378 83.176C208.676 83.4 209.076 83.512 209.578 83.512C210.004 83.512 210.351 83.3947 210.618 83.16C210.895 82.9253 211.098 82.5947 211.226 82.168C211.364 81.7307 211.434 81.2133 211.434 80.616C211.434 79.72 211.279 79.0267 210.97 78.536C210.671 78.0453 210.196 77.8 209.546 77.8ZM213.969 76.328H216.161L217.889 81.224C217.963 81.4373 218.027 81.6453 218.081 81.848C218.145 82.04 218.198 82.2373 218.241 82.44C218.283 82.6427 218.315 82.8453 218.337 83.048H218.401C218.443 82.7813 218.507 82.488 218.593 82.168C218.689 81.848 218.785 81.5333 218.881 81.224L220.545 76.328H222.721L219.025 86.152C218.811 86.7173 218.539 87.2027 218.209 87.608C217.889 88.0133 217.505 88.3173 217.057 88.52C216.619 88.7333 216.123 88.84 215.569 88.84C215.313 88.84 215.083 88.824 214.881 88.792C214.689 88.7707 214.518 88.744 214.369 88.712V87.112C214.486 87.1333 214.625 87.1547 214.785 87.176C214.955 87.1973 215.131 87.208 215.313 87.208C215.643 87.208 215.926 87.1387 216.161 87C216.406 86.872 216.609 86.6907 216.769 86.456C216.939 86.2213 217.078 85.96 217.185 85.672L217.441 84.968L213.969 76.328Z" fill="#3B3B3B"/>
<path d="M283.689 36.9395C284.275 36.3537 285.225 36.3537 285.811 36.9395L292.811 43.9395C293.396 44.5253 293.396 45.4748 292.811 46.0606L285.811 53.0606C285.225 53.6464 284.275 53.6464 283.689 53.0606C283.104 52.4748 283.104 51.5253 283.689 50.9395L288.13 46.4991H260.25C259.422 46.4991 258.75 45.8275 258.75 44.9991C258.75 44.1708 259.422 43.4991 260.25 43.4991H288.128L283.689 39.0606C283.104 38.4748 283.104 37.5253 283.689 36.9395Z" fill="#3B3B3B"/>
<g clip-path="url(#clip0_9669_163621)">
<g filter="url(#filter1_i_9669_163621)">
<path d="M372.5 0H324.5C320.082 0 316.5 3.58172 316.5 8V56C316.5 60.4183 320.082 64 324.5 64H372.5C376.918 64 380.5 60.4183 380.5 56V8C380.5 3.58172 376.918 0 372.5 0Z" fill="url(#paint3_linear_9669_163621)"/>
</g>
<g filter="url(#filter2_d_9669_163621)">
<mask id="mask0_9669_163621" style="mask-type:luminance" maskUnits="userSpaceOnUse" x="318" y="12" width="63" height="45">
<path d="M380.5 12.288H318.548V56.32H380.5V12.288Z" fill="white"/>
</mask>
<g mask="url(#mask0_9669_163621)">
<path d="M348.069 26.4394C347.221 22.9287 345.07 21.1727 341.618 21.1727C339.803 21.1727 338.098 21.7661 336.503 22.9514C334.909 24.1354 333.643 25.7007 332.706 27.6474C331.769 29.5927 331.301 31.5747 331.301 33.5941C331.301 36.1114 331.959 38.1381 333.277 39.6741C334.594 41.2101 336.365 41.9781 338.589 41.9781C340.608 41.9781 342.305 41.4661 343.679 40.4421C345.055 39.4181 345.963 38.0141 346.402 36.2287H339.378L340.477 29.4687H357.551C356.79 34.0927 355.509 37.7434 353.709 40.4207C351.909 43.0981 349.627 45.2061 346.861 46.7434C344.096 48.2794 340.943 49.0474 337.402 49.0474C332.838 49.0474 329.173 47.7594 326.407 45.1834C323.641 42.6074 322.258 39.1694 322.258 34.8687C322.258 31.0927 323.15 27.5807 324.935 24.3327C326.722 21.0847 329.224 18.5101 332.442 16.6074C335.661 14.7054 339.275 13.7541 343.285 13.7541C350.278 13.7541 354.771 16.8414 356.762 23.0154L348.069 26.4394Z" fill="white"/>
<mask id="mask1_9669_163621" style="mask-type:luminance" maskUnits="userSpaceOnUse" x="350" y="13" width="31" height="37">
<path d="M350.463 13.6533H380.5V49.152H350.463V13.6533Z" fill="white"/>
</mask>
<g mask="url(#mask1_9669_163621)">
<path d="M387.656 28.1967C387.656 31.3861 386.734 34.6927 384.891 38.1167C383.047 41.5407 380.443 44.2194 377.077 46.1514C373.712 48.0821 370.097 49.0474 366.235 49.0474C361.582 49.0474 357.807 47.6794 354.909 44.9434C352.013 42.2061 350.565 38.5987 350.565 34.1221C350.565 30.4354 351.537 27.0334 353.483 23.9167C355.429 20.8007 358.078 18.3274 361.429 16.4981C364.78 14.6687 368.241 13.7541 371.811 13.7541C374.649 13.7541 377.305 14.3694 379.779 15.5994C382.251 16.8281 384.182 18.5321 385.571 20.7114C386.961 22.8914 387.656 25.3861 387.656 28.1967ZM367.552 40.7061C369.543 40.7061 371.379 40.1581 373.061 39.0607C374.745 37.9621 376.083 36.5427 377.077 34.8021C378.073 33.0621 378.571 31.3427 378.571 29.6447C378.571 27.5381 377.773 25.7534 376.179 24.2901C374.584 22.8254 372.675 22.0927 370.451 22.0927C368.723 22.0927 367.009 22.5614 365.312 23.4981C363.616 24.4354 362.248 25.6941 361.208 27.2741C360.169 28.8547 359.651 30.6101 359.651 32.5407C359.651 34.9127 360.389 36.8661 361.867 38.4021C363.345 39.9381 365.241 40.7061 367.552 40.7061Z" fill="white"/>
</g>
</g>
</g>
</g>
<path d="M331.919 73.576C333.402 73.576 334.479 73.8853 335.151 74.504C335.834 75.1227 336.175 75.976 336.175 77.064C336.175 77.5547 336.101 78.024 335.951 78.472C335.802 78.9093 335.551 79.304 335.199 79.656C334.847 80.008 334.383 80.2853 333.807 80.488C333.242 80.6907 332.538 80.792 331.695 80.792H330.559V85H328.511V73.576H331.919ZM331.791 75.272H330.559V79.096H331.487C332.042 79.096 332.511 79.032 332.895 78.904C333.29 78.7653 333.589 78.552 333.791 78.264C333.994 77.976 334.095 77.6027 334.095 77.144C334.095 76.5147 333.909 76.0453 333.535 75.736C333.162 75.4267 332.581 75.272 331.791 75.272ZM341.682 76.168C342.802 76.168 343.65 76.4133 344.226 76.904C344.812 77.384 345.106 78.1413 345.106 79.176V85H343.682L343.282 83.8H343.218C342.972 84.1093 342.716 84.3707 342.45 84.584C342.194 84.7867 341.895 84.9307 341.554 85.016C341.223 85.112 340.818 85.16 340.338 85.16C339.826 85.16 339.362 85.064 338.946 84.872C338.54 84.68 338.22 84.3867 337.986 83.992C337.751 83.5867 337.634 83.08 337.634 82.472C337.634 81.576 337.959 80.904 338.61 80.456C339.271 79.9973 340.268 79.7467 341.602 79.704L343.106 79.656V79.224C343.106 78.6693 342.972 78.2747 342.706 78.04C342.439 77.8053 342.066 77.688 341.586 77.688C341.148 77.688 340.727 77.752 340.322 77.88C339.916 78.008 339.522 78.1573 339.138 78.328L338.498 76.92C338.924 76.696 339.41 76.5147 339.954 76.376C340.508 76.2373 341.084 76.168 341.682 76.168ZM342.05 80.936C341.164 80.968 340.551 81.1227 340.21 81.4C339.868 81.6667 339.698 82.0293 339.698 82.488C339.698 82.8933 339.82 83.1867 340.066 83.368C340.311 83.5493 340.626 83.64 341.01 83.64C341.596 83.64 342.092 83.4747 342.498 83.144C342.903 82.8027 343.106 82.3013 343.106 81.64V80.904L342.05 80.936ZM353.536 82.488C353.536 83.064 353.397 83.5547 353.12 83.96C352.843 84.3547 352.432 84.6533 351.888 84.856C351.355 85.0587 350.699 85.16 349.92 85.16C349.312 85.16 348.789 85.1173 348.352 85.032C347.915 84.9467 347.499 84.8133 347.104 84.632V82.92C347.531 83.1227 348.005 83.2933 348.528 83.432C349.051 83.5707 349.536 83.64 349.984 83.64C350.539 83.64 350.939 83.5547 351.184 83.384C351.429 83.2133 351.552 82.984 351.552 82.696C351.552 82.5253 351.504 82.3707 351.408 82.232C351.312 82.0933 351.125 81.9493 350.848 81.8C350.571 81.64 350.149 81.4427 349.584 81.208C349.029 80.984 348.565 80.76 348.192 80.536C347.829 80.312 347.552 80.0453 347.36 79.736C347.179 79.416 347.088 79.016 347.088 78.536C347.088 77.7573 347.397 77.1707 348.016 76.776C348.635 76.3707 349.451 76.168 350.464 76.168C350.997 76.168 351.499 76.2213 351.968 76.328C352.448 76.424 352.928 76.584 353.408 76.808L352.768 78.296C352.501 78.1787 352.235 78.0773 351.968 77.992C351.712 77.896 351.451 77.8213 351.184 77.768C350.928 77.7147 350.667 77.688 350.4 77.688C349.963 77.688 349.632 77.7573 349.408 77.896C349.184 78.024 349.072 78.2053 349.072 78.44C349.072 78.6213 349.125 78.7813 349.232 78.92C349.349 79.048 349.547 79.1813 349.824 79.32C350.112 79.448 350.517 79.6187 351.04 79.832C351.563 80.0347 352.005 80.248 352.368 80.472C352.741 80.6853 353.029 80.952 353.232 81.272C353.435 81.592 353.536 81.9973 353.536 82.488ZM358.836 83.544C359.092 83.544 359.337 83.5227 359.572 83.48C359.806 83.4267 360.025 83.368 360.228 83.304V84.808C360.014 84.904 359.737 84.984 359.396 85.048C359.054 85.1227 358.697 85.16 358.324 85.16C357.833 85.16 357.385 85.08 356.98 84.92C356.585 84.7493 356.265 84.4613 356.02 84.056C355.785 83.6507 355.668 83.0853 355.668 82.36V77.848H354.5V76.968L355.78 76.264L356.42 74.424H357.684V76.328H360.148V77.848H357.684V82.344C357.684 82.7493 357.79 83.0533 358.004 83.256C358.217 83.448 358.494 83.544 358.836 83.544ZM365.464 76.168C366.242 76.168 366.909 76.328 367.464 76.648C368.029 76.9573 368.466 77.4053 368.776 77.992C369.085 78.568 369.24 79.272 369.24 80.104V81.128H363.512C363.533 81.9173 363.752 82.5307 364.168 82.968C364.584 83.3947 365.16 83.608 365.896 83.608C366.461 83.608 366.962 83.5547 367.4 83.448C367.848 83.3307 368.306 83.1653 368.776 82.952V84.568C368.349 84.7707 367.906 84.92 367.448 85.016C366.989 85.112 366.44 85.16 365.8 85.16C364.957 85.16 364.205 85 363.544 84.68C362.893 84.3493 362.381 83.8533 362.008 83.192C361.645 82.5307 361.464 81.7093 361.464 80.728C361.464 79.736 361.629 78.904 361.96 78.232C362.301 77.5493 362.77 77.0373 363.368 76.696C363.965 76.344 364.664 76.168 365.464 76.168ZM365.464 77.656C364.93 77.656 364.493 77.832 364.152 78.184C363.821 78.5253 363.624 79.0373 363.56 79.72H367.288C367.288 79.3147 367.218 78.9573 367.08 78.648C366.952 78.3387 366.754 78.0987 366.488 77.928C366.221 77.7467 365.88 77.656 365.464 77.656Z" fill="#3B3B3B"/>
<defs>
<filter id="filter0_i_9669_163621" x="171.5" y="0" width="64" height="64" filterUnits="userSpaceOnUse" color-interpolation-filters="sRGB">
<feFlood flood-opacity="0" result="BackgroundImageFix"/>
<feBlend mode="normal" in="SourceGraphic" in2="BackgroundImageFix" result="shape"/>
<feColorMatrix in="SourceAlpha" type="matrix" values="0 0 0 0 0 0 0 0 0 0 0 0 0 0 0 0 0 0 127 0" result="hardAlpha"/>
<feOffset/>
<feGaussianBlur stdDeviation="2"/>
<feComposite in2="hardAlpha" operator="arithmetic" k2="-1" k3="1"/>
<feColorMatrix type="matrix" values="0 0 0 0 1 0 0 0 0 1 0 0 0 0 1 0 0 0 1 0"/>
<feBlend mode="normal" in2="shape" result="effect1_innerShadow_9669_163621"/>
</filter>
<filter id="filter1_i_9669_163621" x="316.5" y="0" width="64" height="64" filterUnits="userSpaceOnUse" color-interpolation-filters="sRGB">
<feFlood flood-opacity="0" result="BackgroundImageFix"/>
<feBlend mode="normal" in="SourceGraphic" in2="BackgroundImageFix" result="shape"/>
<feColorMatrix in="SourceAlpha" type="matrix" values="0 0 0 0 0 0 0 0 0 0 0 0 0 0 0 0 0 0 127 0" result="hardAlpha"/>
<feOffset/>
<feGaussianBlur stdDeviation="2"/>
<feComposite in2="hardAlpha" operator="arithmetic" k2="-1" k3="1"/>
<feColorMatrix type="matrix" values="0 0 0 0 0.847059 0 0 0 0 0.972549 0 0 0 0 0.937255 0 0 0 1 0"/>
<feBlend mode="normal" in2="shape" result="effect1_innerShadow_9669_163621"/>
</filter>
<filter id="filter2_d_9669_163621" x="314.258" y="5.75406" width="82.2419" height="59.2933" filterUnits="userSpaceOnUse" color-interpolation-filters="sRGB">
<feFlood flood-opacity="0" result="BackgroundImageFix"/>
<feColorMatrix in="SourceAlpha" type="matrix" values="0 0 0 0 0 0 0 0 0 0 0 0 0 0 0 0 0 0 127 0" result="hardAlpha"/>
<feOffset dx="4" dy="4"/>
<feGaussianBlur stdDeviation="6"/>
<feComposite in2="hardAlpha" operator="out"/>
<feColorMatrix type="matrix" values="0 0 0 0 0 0 0 0 0 0 0 0 0 0 0 0 0 0 0.1 0"/>
<feBlend mode="normal" in2="BackgroundImageFix" result="effect1_dropShadow_9669_163621"/>
<feBlend mode="normal" in="SourceGraphic" in2="effect1_dropShadow_9669_163621" result="shape"/>
</filter>
<linearGradient id="paint0_linear_9669_163621" x1="183.396" y1="7.67708" x2="222.927" y2="56.4271" gradientUnits="userSpaceOnUse">
<stop offset="0.515441" stop-color="#F6F6F6"/>
<stop offset="1" stop-color="#E4E4E4"/>
</linearGradient>
<linearGradient id="paint1_linear_9669_163621" x1="202" y1="3.50031" x2="217" y2="35.7503" gradientUnits="userSpaceOnUse">
<stop stop-color="#4C4C4C"/>
<stop offset="0.524038" stop-color="#BCBCBC"/>
<stop offset="1" stop-color="#4C4C4C"/>
</linearGradient>
<linearGradient id="paint2_linear_9669_163621" x1="193" y1="23.0003" x2="205" y2="50.7503" gradientUnits="userSpaceOnUse">
<stop stop-color="#4C4C4C"/>
<stop offset="0.524038" stop-color="#BCBCBC"/>
<stop offset="1" stop-color="#4C4C4C"/>
</linearGradient>
<linearGradient id="paint3_linear_9669_163621" x1="328.396" y1="7.67708" x2="367.927" y2="56.4271" gradientUnits="userSpaceOnUse">
<stop offset="0.515441" stop-color="#00CC99"/>
<stop offset="1" stop-color="#009F78"/>
</linearGradient>
<clipPath id="clip0_9669_163621">
<rect width="64" height="64" fill="white" transform="translate(316.5)"/>
</clipPath>
</defs>
</svg>
