<svg width="96" height="96" viewBox="0 0 96 96" fill="none" xmlns="http://www.w3.org/2000/svg">
<g clip-path="url(#clip0_9669_164683)">
<rect width="96" height="96" rx="8" fill="url(#paint0_linear_9669_164683)"/>
<rect x="14" y="15" width="68" height="116" rx="8" fill="white"/>
<rect x="14" y="15" width="68" height="116" rx="8" stroke="#3B3B3B" stroke-width="4"/>
<path d="M42.8278 23.5399H53.1721" stroke="#3B3B3B" stroke-width="4" stroke-linecap="round" stroke-linejoin="round"/>
<g filter="url(#filter0_d_9669_164683)">
<circle cx="17" cy="17" r="11" fill="#00AA80"/>
<path d="M13.716 22V20.782C14.3413 20.2873 14.9386 19.7927 15.508 19.298C16.0773 18.8033 16.5906 18.3133 17.048 17.828C17.5053 17.3427 17.8646 16.8667 18.126 16.4C18.3873 15.9333 18.518 15.4853 18.518 15.056C18.518 14.776 18.4666 14.5147 18.364 14.272C18.2613 14.0293 18.098 13.8333 17.874 13.684C17.6593 13.5347 17.37 13.46 17.006 13.46C16.6513 13.46 16.348 13.5393 16.096 13.698C15.8533 13.8567 15.6713 14.0713 15.55 14.342C15.4286 14.6033 15.368 14.902 15.368 15.238H13.744C13.7626 14.5287 13.9166 13.936 14.206 13.46C14.4953 12.984 14.8873 12.6293 15.382 12.396C15.8766 12.1533 16.432 12.032 17.048 12.032C17.7106 12.032 18.2753 12.1533 18.742 12.396C19.2086 12.6387 19.568 12.9793 19.82 13.418C20.072 13.8567 20.198 14.3747 20.198 14.972C20.198 15.4107 20.114 15.8447 19.946 16.274C19.7873 16.694 19.5633 17.1047 19.274 17.506C18.9846 17.898 18.658 18.2807 18.294 18.654C17.9393 19.018 17.5706 19.368 17.188 19.704C16.8053 20.0307 16.4366 20.334 16.082 20.614H20.464V22H13.716Z" fill="white"/>
</g>
<path d="M23 58H55" stroke="#E4E4E4" stroke-width="2" stroke-linecap="round"/>
<path d="M23 65H39" stroke="#E4E4E4" stroke-width="1.5" stroke-linecap="round"/>
<path d="M43 65L74 65" stroke="#E4E4E4" stroke-width="1.5" stroke-linecap="round"/>
<path d="M23 70L35 70" stroke="#E4E4E4" stroke-width="1.5" stroke-linecap="round"/>
<path d="M61 70L74 70" stroke="#E4E4E4" stroke-width="1.5" stroke-linecap="round"/>
<path d="M39 70L57 70" stroke="#E4E4E4" stroke-width="1.5" stroke-linecap="round"/>
<circle cx="35" cy="44" r="8" fill="url(#paint1_linear_9669_164683)"/>
<g filter="url(#filter1_d_9669_164683)">
<g clip-path="url(#clip1_9669_164683)">
<g filter="url(#filter2_i_9669_164683)">
<path d="M50.7371 40.7641C49.2254 49.4704 55.0579 57.7537 63.7641 59.2654C72.4704 60.777 80.7537 54.9446 82.2654 46.2383C83.777 37.532 77.9446 29.2487 69.2383 27.7371C60.532 26.2254 52.2487 32.0578 50.7371 40.7641Z" fill="url(#paint2_linear_9669_164683)"/>
</g>
<g filter="url(#filter3_d_9669_164683)">
<mask id="mask0_9669_164683" style="mask-type:luminance" maskUnits="userSpaceOnUse" x="49" y="31" width="35" height="28">
<path d="M83.9515 36.5276L53.4321 31.2286L49.6658 52.92L80.1852 58.219L83.9515 36.5276Z" fill="white"/>
</mask>
<g mask="url(#mask0_9669_164683)">
<path d="M66.7645 40.725C66.647 38.923 65.7377 37.874 64.0372 37.5787C63.1429 37.4234 62.2524 37.5699 61.3654 38.0175C60.4785 38.4643 59.721 39.1272 59.093 40.0061C58.4649 40.8842 58.0648 41.8206 57.8921 42.8154C57.6768 44.0555 57.8279 45.1102 58.3455 45.9796C58.8631 46.8489 59.6696 47.3787 60.7653 47.5689C61.76 47.7417 62.6397 47.6346 63.4044 47.2477C64.1699 46.8609 64.737 46.2469 65.1061 45.4049L61.6459 44.8042L62.7653 41.568L71.1768 43.0284C70.4062 45.2412 69.4631 46.9301 68.347 48.095C67.2316 49.26 65.9268 50.1033 64.4327 50.624C62.9394 51.1442 61.3206 51.2529 59.576 50.95C57.3276 50.5596 55.6325 49.6117 54.4902 48.1061C53.3476 46.6004 52.9605 44.7885 53.3284 42.6698C53.6514 40.8097 54.3912 39.1558 55.5485 37.7085C56.7065 36.2613 58.1593 35.2069 59.9073 34.5448C61.6559 33.8832 63.5176 33.7237 65.4928 34.0666C68.9379 34.6648 70.887 36.57 71.3399 39.7818L66.7645 40.725Z" fill="white"/>
<mask id="mask1_9669_164683" style="mask-type:luminance" maskUnits="userSpaceOnUse" x="66" y="34" width="18" height="21">
<path d="M69.0374 34.631L83.8347 37.2002L80.7983 54.6879L66.0011 52.1187L69.0374 34.631Z" fill="white"/>
</mask>
<g mask="url(#mask1_9669_164683)">
<path d="M86.116 44.9768C85.8432 46.548 85.1062 48.0981 83.9052 49.6271C82.704 51.1562 81.192 52.253 79.3689 52.917C77.5459 53.5802 75.6827 53.7466 73.7798 53.4162C71.4878 53.0182 69.7449 52.0214 68.5516 50.4257C67.3591 48.8295 66.9543 46.9286 67.3372 44.7233C67.6526 42.9071 68.4224 41.3143 69.6473 39.9454C70.8728 38.5768 72.3892 37.5849 74.1966 36.9704C76.0037 36.3558 77.7868 36.2012 79.5455 36.5066C80.9439 36.7494 82.1997 37.2797 83.3129 38.0972C84.4259 38.914 85.2313 39.9185 85.729 41.1109C86.2273 42.3038 86.3564 43.5922 86.116 44.9768ZM75.1422 49.4197C76.1229 49.59 77.0746 49.4771 77.997 49.0804C78.9203 48.6831 79.7011 48.0984 80.3397 47.3259C80.9788 46.5539 81.3712 45.7495 81.5165 44.913C81.6967 43.8752 81.4565 42.9278 80.7961 42.0706C80.1358 41.2126 79.2579 40.6884 78.1623 40.4981C77.311 40.3503 76.4269 40.4347 75.5106 40.7509C74.5949 41.0676 73.8134 41.5707 73.1659 42.2601C72.519 42.9499 72.1133 43.7703 71.9482 44.7214C71.7453 45.8899 71.9421 46.9153 72.5385 47.7984C73.1356 48.6815 74.0036 49.222 75.1422 49.4197Z" fill="white"/>
</g>
</g>
</g>
</g>
</g>
<rect x="19" y="77" width="59" height="10" rx="5" fill="#3B3B3B"/>
<path d="M25 82L54 82" stroke="white" stroke-width="1.5" stroke-linecap="round"/>
<path d="M59 82L71 82" stroke="white" stroke-width="1.5" stroke-linecap="round"/>
</g>
<defs>
<filter id="filter0_d_9669_164683" x="4" y="4" width="30" height="30" filterUnits="userSpaceOnUse" color-interpolation-filters="sRGB">
<feFlood flood-opacity="0" result="BackgroundImageFix"/>
<feColorMatrix in="SourceAlpha" type="matrix" values="0 0 0 0 0 0 0 0 0 0 0 0 0 0 0 0 0 0 127 0" result="hardAlpha"/>
<feOffset dx="2" dy="2"/>
<feGaussianBlur stdDeviation="2"/>
<feComposite in2="hardAlpha" operator="out"/>
<feColorMatrix type="matrix" values="0 0 0 0 0 0 0 0 0 0 0 0 0 0 0 0 0 0 0.25 0"/>
<feBlend mode="normal" in2="BackgroundImageFix" result="effect1_dropShadow_9669_164683"/>
<feBlend mode="normal" in="SourceGraphic" in2="effect1_dropShadow_9669_164683" result="shape"/>
</filter>
<filter id="filter1_d_9669_164683" x="46" y="23" width="45.0025" height="45.0025" filterUnits="userSpaceOnUse" color-interpolation-filters="sRGB">
<feFlood flood-opacity="0" result="BackgroundImageFix"/>
<feColorMatrix in="SourceAlpha" type="matrix" values="0 0 0 0 0 0 0 0 0 0 0 0 0 0 0 0 0 0 127 0" result="hardAlpha"/>
<feOffset dx="2" dy="2"/>
<feGaussianBlur stdDeviation="2"/>
<feComposite in2="hardAlpha" operator="out"/>
<feColorMatrix type="matrix" values="0 0 0 0 0 0 0 0 0 0 0 0 0 0 0 0 0 0 0.25 0"/>
<feBlend mode="normal" in2="BackgroundImageFix" result="effect1_dropShadow_9669_164683"/>
<feBlend mode="normal" in="SourceGraphic" in2="effect1_dropShadow_9669_164683" result="shape"/>
</filter>
<filter id="filter2_i_9669_164683" x="50.4986" y="27.4986" width="32.0052" height="32.0052" filterUnits="userSpaceOnUse" color-interpolation-filters="sRGB">
<feFlood flood-opacity="0" result="BackgroundImageFix"/>
<feBlend mode="normal" in="SourceGraphic" in2="BackgroundImageFix" result="shape"/>
<feColorMatrix in="SourceAlpha" type="matrix" values="0 0 0 0 0 0 0 0 0 0 0 0 0 0 0 0 0 0 127 0" result="hardAlpha"/>
<feOffset/>
<feGaussianBlur stdDeviation="2"/>
<feComposite in2="hardAlpha" operator="arithmetic" k2="-1" k3="1"/>
<feColorMatrix type="matrix" values="0 0 0 0 0.847059 0 0 0 0 0.972549 0 0 0 0 0.937255 0 0 0 1 0"/>
<feBlend mode="normal" in2="shape" result="effect1_innerShadow_9669_164683"/>
</filter>
<filter id="filter3_d_9669_164683" x="45.194" y="25.8911" width="54.6407" height="43.6899" filterUnits="userSpaceOnUse" color-interpolation-filters="sRGB">
<feFlood flood-opacity="0" result="BackgroundImageFix"/>
<feColorMatrix in="SourceAlpha" type="matrix" values="0 0 0 0 0 0 0 0 0 0 0 0 0 0 0 0 0 0 127 0" result="hardAlpha"/>
<feOffset dx="4" dy="4"/>
<feGaussianBlur stdDeviation="6"/>
<feComposite in2="hardAlpha" operator="out"/>
<feColorMatrix type="matrix" values="0 0 0 0 0 0 0 0 0 0 0 0 0 0 0 0 0 0 0.1 0"/>
<feBlend mode="normal" in2="BackgroundImageFix" result="effect1_dropShadow_9669_164683"/>
<feBlend mode="normal" in="SourceGraphic" in2="effect1_dropShadow_9669_164683" result="shape"/>
</filter>
<linearGradient id="paint0_linear_9669_164683" x1="48.0333" y1="-34.8319" x2="42.6257" y2="95.7775" gradientUnits="userSpaceOnUse">
<stop stop-color="#DFFFF7" stop-opacity="0"/>
<stop offset="0.385306" stop-color="#D8F8EF" stop-opacity="0.43"/>
<stop offset="0.784215" stop-color="#D8F8EF"/>
</linearGradient>
<linearGradient id="paint1_linear_9669_164683" x1="29.6667" y1="39.3333" x2="43" y2="52" gradientUnits="userSpaceOnUse">
<stop stop-color="#F6F6F6"/>
<stop offset="1" stop-color="#E4E4E4"/>
</linearGradient>
<linearGradient id="paint2_linear_9669_164683" x1="58.6778" y1="29.7995" x2="73.9822" y2="57.1964" gradientUnits="userSpaceOnUse">
<stop offset="0.515441" stop-color="#00CC99"/>
<stop offset="1" stop-color="#009F78"/>
</linearGradient>
<clipPath id="clip0_9669_164683">
<rect width="96" height="96" rx="8" fill="white"/>
</clipPath>
<clipPath id="clip1_9669_164683">
<path d="M50.7371 40.7641C52.2487 32.0578 60.532 26.2254 69.2383 27.7371C77.9446 29.2487 83.777 37.532 82.2654 46.2383C80.7537 54.9446 72.4704 60.777 63.7641 59.2654C55.0579 57.7537 49.2254 49.4704 50.7371 40.7641Z" fill="white"/>
</clipPath>
</defs>
</svg>
