<svg width="222" height="116" viewBox="0 0 222 116" fill="none" xmlns="http://www.w3.org/2000/svg">
<g clip-path="url(#clip0_9682_62022)">
<path d="M0 24C0 10.7452 10.7452 0 24 0H197.333C210.588 0 221.333 10.7452 221.333 24V91.6071C221.333 104.862 210.588 115.607 197.333 115.607H24C10.7452 115.607 0 104.862 0 91.6071V24Z" fill="url(#paint0_radial_9682_62022)"/>
<g opacity="0.8">
<path d="M154.339 84.2892L169.148 86.3706L178.403 63.5074L157.669 60.5934L159.334 48.7455C160.191 42.6439 160.999 36.8976 172.847 38.5628L181.733 39.8116L184.53 19.9071C182.635 19.381 175.423 17.7815 167.722 16.6992C151.639 14.4388 138.838 22.6496 136.304 40.6762L133.973 57.2632L116.201 54.7655L112.871 78.4613L130.643 80.959L123.566 131.313L147.262 134.643L154.339 84.2892Z" fill="white"/>
</g>
<path d="M39.936 48.6494C39.68 48.6494 39.456 48.628 39.264 48.5854C39.072 48.5534 38.9013 48.5054 38.752 48.4414V47.2254C38.9227 47.268 39.104 47.3054 39.296 47.3374C39.488 47.3694 39.6907 47.3854 39.904 47.3854C40.1707 47.3854 40.4213 47.332 40.656 47.2254C40.9013 47.1187 41.0987 46.932 41.248 46.6654C41.3973 46.3987 41.472 46.0254 41.472 45.5454V34.1854H42.912V45.4334C42.912 46.1694 42.7893 46.772 42.544 47.2414C42.2987 47.7214 41.952 48.0734 41.504 48.2974C41.056 48.532 40.5333 48.6494 39.936 48.6494ZM53.191 41.3054C53.191 42.02 53.095 42.6547 52.903 43.2094C52.7217 43.7534 52.455 44.2174 52.103 44.6014C51.7617 44.9854 51.3403 45.2787 50.839 45.4814C50.3483 45.6734 49.799 45.7694 49.191 45.7694C48.6257 45.7694 48.103 45.6734 47.623 45.4814C47.143 45.2787 46.727 44.9854 46.375 44.6014C46.023 44.2174 45.7457 43.7534 45.543 43.2094C45.351 42.6547 45.255 42.02 45.255 41.3054C45.255 40.356 45.415 39.556 45.735 38.9054C46.055 38.244 46.5137 37.7427 47.111 37.4014C47.7083 37.0494 48.4177 36.8734 49.239 36.8734C50.0177 36.8734 50.7003 37.0494 51.287 37.4014C51.8843 37.7427 52.3483 38.244 52.679 38.9054C53.0203 39.556 53.191 40.356 53.191 41.3054ZM46.711 41.3054C46.711 41.9774 46.7963 42.564 46.967 43.0654C47.1483 43.556 47.4257 43.9347 47.799 44.2014C48.1723 44.468 48.647 44.6014 49.223 44.6014C49.799 44.6014 50.2737 44.468 50.647 44.2014C51.0203 43.9347 51.2923 43.556 51.463 43.0654C51.6443 42.564 51.735 41.9774 51.735 41.3054C51.735 40.6227 51.6443 40.0414 51.463 39.5614C51.2817 39.0814 51.0043 38.7134 50.631 38.4574C50.2683 38.1907 49.7937 38.0574 49.207 38.0574C48.3323 38.0574 47.6977 38.3454 47.303 38.9214C46.9083 39.4974 46.711 40.292 46.711 41.3054ZM56.8305 37.0334V45.6094H55.4225V37.0334H56.8305ZM56.1425 33.8174C56.3558 33.8174 56.5425 33.892 56.7025 34.0414C56.8732 34.18 56.9585 34.404 56.9585 34.7134C56.9585 35.012 56.8732 35.236 56.7025 35.3854C56.5425 35.5347 56.3558 35.6094 56.1425 35.6094C55.9078 35.6094 55.7105 35.5347 55.5505 35.3854C55.3905 35.236 55.3105 35.012 55.3105 34.7134C55.3105 34.404 55.3905 34.18 55.5505 34.0414C55.7105 33.892 55.9078 33.8174 56.1425 33.8174ZM63.6755 36.8734C64.6995 36.8734 65.4728 37.124 65.9955 37.6254C66.5182 38.116 66.7795 38.916 66.7795 40.0254V45.6094H65.3875V40.1214C65.3875 39.428 65.2328 38.9107 64.9235 38.5694C64.6142 38.228 64.1288 38.0574 63.4675 38.0574C62.5182 38.0574 61.8622 38.324 61.4995 38.8574C61.1368 39.3907 60.9555 40.1587 60.9555 41.1614V45.6094H59.5475V37.0334H60.6835L60.8915 38.2014H60.9715C61.1635 37.9027 61.3982 37.6574 61.6755 37.4654C61.9635 37.2627 62.2782 37.1134 62.6195 37.0174C62.9608 36.9214 63.3128 36.8734 63.6755 36.8734ZM82.4744 41.5774C82.4744 42.3667 82.3144 43.0814 81.9944 43.7214C81.6744 44.3507 81.1837 44.852 80.5224 45.2254C79.8717 45.588 79.0397 45.7694 78.0264 45.7694C76.6077 45.7694 75.525 45.3854 74.7784 44.6174C74.0424 43.8387 73.6744 42.8147 73.6744 41.5454V34.1854H75.1144V41.5934C75.1144 42.5214 75.3597 43.2414 75.8504 43.7534C76.3517 44.2654 77.1037 44.5214 78.1064 44.5214C78.7997 44.5214 79.3597 44.3987 79.7864 44.1534C80.2237 43.8974 80.5437 43.5507 80.7464 43.1134C80.949 42.6654 81.0504 42.1534 81.0504 41.5774V34.1854H82.4744V41.5774ZM90.8815 43.2414C90.8815 43.796 90.7428 44.26 90.4655 44.6334C90.1882 45.0067 89.7935 45.2894 89.2815 45.4814C88.7695 45.6734 88.1615 45.7694 87.4575 45.7694C86.8602 45.7694 86.3428 45.7214 85.9055 45.6254C85.4788 45.5294 85.1002 45.396 84.7695 45.2254V43.9454C85.1108 44.116 85.5215 44.276 86.0015 44.4254C86.4922 44.564 86.9882 44.6334 87.4895 44.6334C88.2042 44.6334 88.7215 44.5214 89.0415 44.2974C89.3615 44.0627 89.5215 43.7534 89.5215 43.3694C89.5215 43.156 89.4628 42.964 89.3455 42.7934C89.2282 42.6227 89.0148 42.452 88.7055 42.2814C88.4068 42.1107 87.9748 41.9187 87.4095 41.7054C86.8548 41.492 86.3802 41.2787 85.9855 41.0654C85.5908 40.852 85.2868 40.596 85.0735 40.2974C84.8602 39.9987 84.7535 39.6147 84.7535 39.1454C84.7535 38.42 85.0468 37.86 85.6335 37.4654C86.2308 37.0707 87.0095 36.8734 87.9695 36.8734C88.4922 36.8734 88.9775 36.9267 89.4255 37.0334C89.8842 37.1294 90.3108 37.268 90.7055 37.4494L90.2255 38.5694C89.9908 38.4627 89.7402 38.372 89.4735 38.2974C89.2175 38.212 88.9562 38.148 88.6895 38.1054C88.4228 38.052 88.1508 38.0254 87.8735 38.0254C87.2975 38.0254 86.8548 38.1214 86.5455 38.3134C86.2468 38.4947 86.0975 38.7454 86.0975 39.0654C86.0975 39.3 86.1668 39.5027 86.3055 39.6734C86.4442 39.8334 86.6735 39.9934 86.9935 40.1534C87.3242 40.3027 87.7615 40.484 88.3055 40.6974C88.8495 40.9 89.3135 41.108 89.6975 41.3214C90.0815 41.5347 90.3748 41.796 90.5775 42.1054C90.7802 42.404 90.8815 42.7827 90.8815 43.2414ZM104.566 41.3054C104.566 42.02 104.47 42.6547 104.278 43.2094C104.097 43.7534 103.83 44.2174 103.478 44.6014C103.137 44.9854 102.715 45.2787 102.214 45.4814C101.723 45.6734 101.174 45.7694 100.566 45.7694C100.001 45.7694 99.478 45.6734 98.998 45.4814C98.518 45.2787 98.102 44.9854 97.75 44.6014C97.398 44.2174 97.1207 43.7534 96.918 43.2094C96.726 42.6547 96.63 42.02 96.63 41.3054C96.63 40.356 96.79 39.556 97.11 38.9054C97.43 38.244 97.8887 37.7427 98.486 37.4014C99.0833 37.0494 99.7927 36.8734 100.614 36.8734C101.393 36.8734 102.075 37.0494 102.662 37.4014C103.259 37.7427 103.723 38.244 104.054 38.9054C104.395 39.556 104.566 40.356 104.566 41.3054ZM98.086 41.3054C98.086 41.9774 98.1713 42.564 98.342 43.0654C98.5233 43.556 98.8007 43.9347 99.174 44.2014C99.5473 44.468 100.022 44.6014 100.598 44.6014C101.174 44.6014 101.649 44.468 102.022 44.2014C102.395 43.9347 102.667 43.556 102.838 43.0654C103.019 42.564 103.11 41.9774 103.11 41.3054C103.11 40.6227 103.019 40.0414 102.838 39.5614C102.657 39.0814 102.379 38.7134 102.006 38.4574C101.643 38.1907 101.169 38.0574 100.582 38.0574C99.7073 38.0574 99.0727 38.3454 98.678 38.9214C98.2833 39.4974 98.086 40.292 98.086 41.3054ZM110.926 36.8734C111.95 36.8734 112.723 37.124 113.246 37.6254C113.768 38.116 114.03 38.916 114.03 40.0254V45.6094H112.638V40.1214C112.638 39.428 112.483 38.9107 112.174 38.5694C111.864 38.228 111.379 38.0574 110.718 38.0574C109.768 38.0574 109.112 38.324 108.75 38.8574C108.387 39.3907 108.206 40.1587 108.206 41.1614V45.6094H106.798V37.0334H107.934L108.142 38.2014H108.222C108.414 37.9027 108.648 37.6574 108.926 37.4654C109.214 37.2627 109.528 37.1134 109.87 37.0174C110.211 36.9214 110.563 36.8734 110.926 36.8734Z" fill="#3B3B3B"/>
<path d="M45.256 76.6094H42.232V59.4734H51.952V62.0414H45.256V67.0814H51.496V69.6494H45.256V76.6094ZM60.0421 63.3614C61.7221 63.3614 62.9941 63.7294 63.8581 64.4654C64.7381 65.1854 65.1781 66.3214 65.1781 67.8734V76.6094H63.0421L62.4421 74.8094H62.3461C61.9781 75.2734 61.5941 75.6654 61.1941 75.9854C60.8101 76.2894 60.3621 76.5054 59.8501 76.6334C59.3541 76.7774 58.7461 76.8494 58.0261 76.8494C57.2581 76.8494 56.5621 76.7054 55.9381 76.4174C55.3301 76.1294 54.8501 75.6894 54.4981 75.0974C54.1461 74.4894 53.9701 73.7294 53.9701 72.8174C53.9701 71.4734 54.4581 70.4654 55.4341 69.7934C56.4261 69.1054 57.9221 68.7294 59.9221 68.6654L62.1781 68.5934V67.9454C62.1781 67.1134 61.9781 66.5214 61.5781 66.1694C61.1781 65.8174 60.6181 65.6414 59.8981 65.6414C59.2421 65.6414 58.6101 65.7374 58.0021 65.9294C57.3941 66.1214 56.8021 66.3454 56.2261 66.6014L55.2661 64.4894C55.9061 64.1534 56.6341 63.8814 57.4501 63.6734C58.2821 63.4654 59.1461 63.3614 60.0421 63.3614ZM60.5941 70.5134C59.2661 70.5614 58.3461 70.7934 57.8341 71.2094C57.3221 71.6094 57.0661 72.1534 57.0661 72.8414C57.0661 73.4494 57.2501 73.8894 57.6181 74.1614C57.9861 74.4334 58.4581 74.5694 59.0341 74.5694C59.9141 74.5694 60.6581 74.3214 61.2661 73.8254C61.8741 73.3134 62.1781 72.5614 62.1781 71.5694V70.4654L60.5941 70.5134ZM74.2234 76.8494C72.9914 76.8494 71.9194 76.6174 71.0074 76.1534C70.1114 75.6734 69.4154 74.9454 68.9194 73.9694C68.4394 72.9774 68.1994 71.7134 68.1994 70.1774C68.1994 68.5774 68.4634 67.2814 68.9914 66.2894C69.5354 65.2814 70.2794 64.5454 71.2234 64.0814C72.1674 63.6014 73.2474 63.3614 74.4634 63.3614C75.2794 63.3614 76.0074 63.4414 76.6474 63.6014C77.2874 63.7614 77.8314 63.9534 78.2794 64.1774L77.3914 66.5534C76.8954 66.3614 76.3994 66.2014 75.9034 66.0734C75.4074 65.9294 74.9274 65.8574 74.4634 65.8574C73.7434 65.8574 73.1434 66.0174 72.6634 66.3374C72.1994 66.6574 71.8554 67.1374 71.6314 67.7774C71.4074 68.4014 71.2954 69.1934 71.2954 70.1534C71.2954 71.0814 71.4074 71.8574 71.6314 72.4814C71.8714 73.1054 72.2234 73.5774 72.6874 73.8974C73.1514 74.2014 73.7274 74.3534 74.4154 74.3534C75.1514 74.3534 75.7994 74.2654 76.3594 74.0894C76.9194 73.9134 77.4474 73.6734 77.9434 73.3694V75.9854C77.4474 76.2894 76.9114 76.5054 76.3354 76.6334C75.7754 76.7774 75.0714 76.8494 74.2234 76.8494ZM86.2229 63.3614C87.3909 63.3614 88.3909 63.6014 89.2229 64.0814C90.0709 64.5454 90.7269 65.2174 91.1909 66.0974C91.6549 66.9614 91.8869 68.0174 91.8869 69.2654V70.8014H83.2949C83.3269 71.9854 83.6549 72.9054 84.2789 73.5614C84.9029 74.2014 85.7669 74.5214 86.8709 74.5214C87.7189 74.5214 88.4709 74.4414 89.1269 74.2814C89.7989 74.1054 90.4869 73.8574 91.1909 73.5374V75.9614C90.5509 76.2654 89.8869 76.4894 89.1989 76.6334C88.5109 76.7774 87.6869 76.8494 86.7269 76.8494C85.4629 76.8494 84.3349 76.6094 83.3429 76.1294C82.3669 75.6334 81.5989 74.8894 81.0389 73.8974C80.4949 72.9054 80.2229 71.6734 80.2229 70.2014C80.2229 68.7134 80.4709 67.4654 80.9669 66.4574C81.4789 65.4334 82.1829 64.6654 83.0789 64.1534C83.9749 63.6254 85.0229 63.3614 86.2229 63.3614ZM86.2229 65.5934C85.4229 65.5934 84.7669 65.8574 84.2549 66.3854C83.7589 66.8974 83.4629 67.6654 83.3669 68.6894H88.9589C88.9589 68.0814 88.8549 67.5454 88.6469 67.0814C88.4549 66.6174 88.1589 66.2574 87.7589 66.0014C87.3589 65.7294 86.8469 65.5934 86.2229 65.5934ZM97.9602 62.6894C97.9602 63.2014 97.9442 63.6974 97.9122 64.1774C97.8802 64.6574 97.8482 65.0334 97.8162 65.3054H97.9602C98.3122 64.7614 98.7922 64.3054 99.4002 63.9374C100.008 63.5534 100.8 63.3614 101.776 63.3614C103.296 63.3614 104.52 63.9294 105.448 65.0654C106.376 66.2014 106.84 67.8734 106.84 70.0814C106.84 71.5694 106.624 72.8174 106.192 73.8254C105.776 74.8334 105.176 75.5934 104.392 76.1054C103.624 76.6014 102.728 76.8494 101.704 76.8494C100.728 76.8494 99.9442 76.6734 99.3522 76.3214C98.7762 75.9694 98.3122 75.5614 97.9602 75.0974H97.7442L97.1922 76.6094H94.9362V58.3694H97.9602V62.6894ZM100.912 65.8094C100.176 65.8094 99.5922 65.9534 99.1602 66.2414C98.7442 66.5294 98.4402 66.9694 98.2482 67.5614C98.0562 68.1534 97.9602 68.9054 97.9602 69.8174V70.0814C97.9602 71.4734 98.1682 72.5374 98.5842 73.2734C99.0162 74.0094 99.8082 74.3774 100.96 74.3774C101.856 74.3774 102.544 74.0094 103.024 73.2734C103.504 72.5214 103.744 71.4494 103.744 70.0574C103.744 68.6494 103.496 67.5934 103 66.8894C102.52 66.1694 101.824 65.8094 100.912 65.8094ZM121.576 70.0814C121.576 71.1694 121.432 72.1294 121.144 72.9614C120.856 73.7934 120.44 74.5054 119.896 75.0974C119.368 75.6734 118.712 76.1134 117.928 76.4174C117.16 76.7054 116.304 76.8494 115.36 76.8494C114.464 76.8494 113.64 76.7054 112.888 76.4174C112.136 76.1134 111.48 75.6734 110.92 75.0974C110.376 74.5054 109.952 73.7934 109.648 72.9614C109.344 72.1294 109.192 71.1694 109.192 70.0814C109.192 68.6414 109.44 67.4254 109.936 66.4334C110.432 65.4254 111.144 64.6654 112.072 64.1534C113.016 63.6254 114.128 63.3614 115.408 63.3614C116.624 63.3614 117.688 63.6254 118.6 64.1534C119.528 64.6654 120.256 65.4254 120.784 66.4334C121.312 67.4254 121.576 68.6414 121.576 70.0814ZM112.288 70.0814C112.288 70.9934 112.392 71.7774 112.6 72.4334C112.824 73.0734 113.16 73.5614 113.608 73.8974C114.072 74.2334 114.664 74.4014 115.384 74.4014C116.12 74.4014 116.712 74.2334 117.16 73.8974C117.624 73.5614 117.96 73.0734 118.168 72.4334C118.376 71.7774 118.48 70.9934 118.48 70.0814C118.48 69.1534 118.368 68.3774 118.144 67.7534C117.936 67.1134 117.6 66.6334 117.136 66.3134C116.688 65.9774 116.104 65.8094 115.384 65.8094C114.296 65.8094 113.504 66.1774 113.008 66.9134C112.528 67.6494 112.288 68.7054 112.288 70.0814ZM136.318 70.0814C136.318 71.1694 136.174 72.1294 135.886 72.9614C135.598 73.7934 135.182 74.5054 134.638 75.0974C134.11 75.6734 133.454 76.1134 132.67 76.4174C131.902 76.7054 131.046 76.8494 130.102 76.8494C129.206 76.8494 128.382 76.7054 127.63 76.4174C126.878 76.1134 126.222 75.6734 125.662 75.0974C125.118 74.5054 124.694 73.7934 124.39 72.9614C124.086 72.1294 123.934 71.1694 123.934 70.0814C123.934 68.6414 124.182 67.4254 124.678 66.4334C125.174 65.4254 125.886 64.6654 126.814 64.1534C127.758 63.6254 128.87 63.3614 130.15 63.3614C131.366 63.3614 132.43 63.6254 133.342 64.1534C134.27 64.6654 134.998 65.4254 135.526 66.4334C136.054 67.4254 136.318 68.6414 136.318 70.0814ZM127.03 70.0814C127.03 70.9934 127.134 71.7774 127.342 72.4334C127.566 73.0734 127.902 73.5614 128.35 73.8974C128.814 74.2334 129.406 74.4014 130.126 74.4014C130.862 74.4014 131.454 74.2334 131.902 73.8974C132.366 73.5614 132.702 73.0734 132.91 72.4334C133.118 71.7774 133.222 70.9934 133.222 70.0814C133.222 69.1534 133.11 68.3774 132.886 67.7534C132.678 67.1134 132.342 66.6334 131.878 66.3134C131.43 65.9774 130.846 65.8094 130.126 65.8094C129.038 65.8094 128.246 66.1774 127.75 66.9134C127.27 67.6494 127.03 68.7054 127.03 70.0814ZM142.444 67.0334C142.444 67.4494 142.428 67.8894 142.396 68.3534C142.364 68.8014 142.332 69.2414 142.3 69.6734H142.372C142.5 69.4814 142.652 69.2734 142.828 69.0494C143.004 68.8094 143.18 68.5774 143.356 68.3534C143.548 68.1134 143.732 67.8974 143.908 67.7054L147.748 63.6014H151.18L145.972 69.2174L151.516 76.6094H147.988L143.956 71.0414L142.444 72.2894V76.6094H139.444V58.3694H142.444V67.0334Z" fill="#3B3B3B"/>
</g>
<path d="M24 0.5H197.333C210.312 0.5 220.833 11.0213 220.833 24V91.6074C220.833 104.586 210.312 115.107 197.333 115.107H24C11.0214 115.107 0.500153 104.586 0.5 91.6074V24C0.5 11.0213 11.0213 0.5 24 0.5Z" stroke="#3B3B3B"/>
<defs>
<radialGradient id="paint0_radial_9682_62022" cx="0" cy="0" r="1" gradientTransform="matrix(166.693 45.1447 45.61 156.362 54.2783 57.3095)" gradientUnits="userSpaceOnUse">
<stop offset="0.14" stop-color="white"/>
<stop offset="0.86" stop-color="#1877F2"/>
</radialGradient>
<clipPath id="clip0_9682_62022">
<path d="M0 24C0 10.7452 10.7452 0 24 0H197.333C210.588 0 221.333 10.7452 221.333 24V91.6071C221.333 104.862 210.588 115.607 197.333 115.607H24C10.7452 115.607 0 104.862 0 91.6071V24Z" fill="white"/>
</clipPath>
</defs>
</svg>
