<svg width="222" height="116" viewBox="0 0 222 116" fill="none" xmlns="http://www.w3.org/2000/svg">
<g clip-path="url(#clip0_9682_62094)">
<path d="M0 24C0 10.7452 10.7452 0 24 0H197.333C210.588 0 221.333 10.7452 221.333 24V91.6071C221.333 104.862 210.588 115.607 197.333 115.607H24C10.7452 115.607 0 104.862 0 91.6071V24Z" fill="url(#paint0_radial_9682_62094)"/>
<g opacity="0.8">
<path d="M122.325 12.1916C126.564 14.319 130.504 16.9974 134.042 20.1572C139.759 19.5203 145.533 19.6093 151.228 20.4219C157.11 21.2486 162.682 22.7808 167.809 24.8969C172.079 22.8369 176.603 21.35 181.262 20.4747C185.588 19.651 191.79 18.2029 194.742 22.5625C196.742 25.5257 196.715 30.0164 196.662 33.4403C196.609 37.2627 196.033 42.1717 194.107 46.8545C198 53.6662 199.838 61.397 198.715 69.3825C197.015 81.4792 188.987 91.0616 178.267 96.9733C173.113 99.7703 167.556 101.753 161.795 102.85C162.655 105.931 162.909 109.241 162.435 112.611L159.937 130.383C159.717 131.954 158.881 133.373 157.614 134.328C156.347 135.283 154.752 135.695 153.181 135.475L117.637 130.479C116.066 130.258 114.647 129.422 113.692 128.155C112.737 126.888 112.325 125.294 112.546 123.723L113.371 117.852C107.616 117.75 102.958 116.467 99.1641 114.188C95.1977 111.806 92.649 108.621 90.8124 105.656C89.0683 102.85 87.5776 96.8653 84.4269 95.2989C83.7232 94.9493 83.0952 94.4646 82.5788 93.8723C82.0624 93.28 81.6678 92.5918 81.4174 91.847C80.9117 90.3428 81.0242 88.6993 81.7302 87.2781C82.4362 85.8569 83.6779 84.7743 85.1821 84.2686C86.6863 83.7629 88.3298 83.8754 89.751 84.5814C93.5115 86.451 95.6829 89.6559 97.1209 92.1898C99.4482 96.2623 101.084 101.385 105.317 103.932C107.061 104.98 109.708 105.878 114.043 105.895L115.06 105.832C115.527 102.611 116.646 99.5181 118.349 96.7439C113.114 94.1012 108.319 90.6641 104.135 86.5547C95.46 77.9172 90.3834 66.4991 92.0843 54.3965C93.2049 46.4229 97.0952 39.503 102.703 34.0327C102.141 29.0002 102.937 24.1102 103.94 20.4151L104.001 20.1941C104.918 16.8072 105.992 12.82 108.785 10.4821C112.824 7.10496 118.392 10.2132 122.318 12.1967L122.325 12.1916Z" fill="white"/>
</g>
<path d="M39.936 48.6494C39.68 48.6494 39.456 48.628 39.264 48.5854C39.072 48.5534 38.9013 48.5054 38.752 48.4414V47.2254C38.9227 47.268 39.104 47.3054 39.296 47.3374C39.488 47.3694 39.6907 47.3854 39.904 47.3854C40.1707 47.3854 40.4213 47.332 40.656 47.2254C40.9013 47.1187 41.0987 46.932 41.248 46.6654C41.3973 46.3987 41.472 46.0254 41.472 45.5454V34.1854H42.912V45.4334C42.912 46.1694 42.7893 46.772 42.544 47.2414C42.2987 47.7214 41.952 48.0734 41.504 48.2974C41.056 48.532 40.5333 48.6494 39.936 48.6494ZM53.191 41.3054C53.191 42.02 53.095 42.6547 52.903 43.2094C52.7217 43.7534 52.455 44.2174 52.103 44.6014C51.7617 44.9854 51.3403 45.2787 50.839 45.4814C50.3483 45.6734 49.799 45.7694 49.191 45.7694C48.6257 45.7694 48.103 45.6734 47.623 45.4814C47.143 45.2787 46.727 44.9854 46.375 44.6014C46.023 44.2174 45.7457 43.7534 45.543 43.2094C45.351 42.6547 45.255 42.02 45.255 41.3054C45.255 40.356 45.415 39.556 45.735 38.9054C46.055 38.244 46.5137 37.7427 47.111 37.4014C47.7083 37.0494 48.4177 36.8734 49.239 36.8734C50.0177 36.8734 50.7003 37.0494 51.287 37.4014C51.8843 37.7427 52.3483 38.244 52.679 38.9054C53.0203 39.556 53.191 40.356 53.191 41.3054ZM46.711 41.3054C46.711 41.9774 46.7963 42.564 46.967 43.0654C47.1483 43.556 47.4257 43.9347 47.799 44.2014C48.1723 44.468 48.647 44.6014 49.223 44.6014C49.799 44.6014 50.2737 44.468 50.647 44.2014C51.0203 43.9347 51.2923 43.556 51.463 43.0654C51.6443 42.564 51.735 41.9774 51.735 41.3054C51.735 40.6227 51.6443 40.0414 51.463 39.5614C51.2817 39.0814 51.0043 38.7134 50.631 38.4574C50.2683 38.1907 49.7937 38.0574 49.207 38.0574C48.3323 38.0574 47.6977 38.3454 47.303 38.9214C46.9083 39.4974 46.711 40.292 46.711 41.3054ZM56.8305 37.0334V45.6094H55.4225V37.0334H56.8305ZM56.1425 33.8174C56.3558 33.8174 56.5425 33.892 56.7025 34.0414C56.8732 34.18 56.9585 34.404 56.9585 34.7134C56.9585 35.012 56.8732 35.236 56.7025 35.3854C56.5425 35.5347 56.3558 35.6094 56.1425 35.6094C55.9078 35.6094 55.7105 35.5347 55.5505 35.3854C55.3905 35.236 55.3105 35.012 55.3105 34.7134C55.3105 34.404 55.3905 34.18 55.5505 34.0414C55.7105 33.892 55.9078 33.8174 56.1425 33.8174ZM63.6755 36.8734C64.6995 36.8734 65.4728 37.124 65.9955 37.6254C66.5182 38.116 66.7795 38.916 66.7795 40.0254V45.6094H65.3875V40.1214C65.3875 39.428 65.2328 38.9107 64.9235 38.5694C64.6142 38.228 64.1288 38.0574 63.4675 38.0574C62.5182 38.0574 61.8622 38.324 61.4995 38.8574C61.1368 39.3907 60.9555 40.1587 60.9555 41.1614V45.6094H59.5475V37.0334H60.6835L60.8915 38.2014H60.9715C61.1635 37.9027 61.3982 37.6574 61.6755 37.4654C61.9635 37.2627 62.2782 37.1134 62.6195 37.0174C62.9608 36.9214 63.3128 36.8734 63.6755 36.8734ZM82.4744 41.5774C82.4744 42.3667 82.3144 43.0814 81.9944 43.7214C81.6744 44.3507 81.1837 44.852 80.5224 45.2254C79.8717 45.588 79.0397 45.7694 78.0264 45.7694C76.6077 45.7694 75.525 45.3854 74.7784 44.6174C74.0424 43.8387 73.6744 42.8147 73.6744 41.5454V34.1854H75.1144V41.5934C75.1144 42.5214 75.3597 43.2414 75.8504 43.7534C76.3517 44.2654 77.1037 44.5214 78.1064 44.5214C78.7997 44.5214 79.3597 44.3987 79.7864 44.1534C80.2237 43.8974 80.5437 43.5507 80.7464 43.1134C80.949 42.6654 81.0504 42.1534 81.0504 41.5774V34.1854H82.4744V41.5774ZM90.8815 43.2414C90.8815 43.796 90.7428 44.26 90.4655 44.6334C90.1882 45.0067 89.7935 45.2894 89.2815 45.4814C88.7695 45.6734 88.1615 45.7694 87.4575 45.7694C86.8602 45.7694 86.3428 45.7214 85.9055 45.6254C85.4788 45.5294 85.1002 45.396 84.7695 45.2254V43.9454C85.1108 44.116 85.5215 44.276 86.0015 44.4254C86.4922 44.564 86.9882 44.6334 87.4895 44.6334C88.2042 44.6334 88.7215 44.5214 89.0415 44.2974C89.3615 44.0627 89.5215 43.7534 89.5215 43.3694C89.5215 43.156 89.4628 42.964 89.3455 42.7934C89.2282 42.6227 89.0148 42.452 88.7055 42.2814C88.4068 42.1107 87.9748 41.9187 87.4095 41.7054C86.8548 41.492 86.3802 41.2787 85.9855 41.0654C85.5908 40.852 85.2868 40.596 85.0735 40.2974C84.8602 39.9987 84.7535 39.6147 84.7535 39.1454C84.7535 38.42 85.0468 37.86 85.6335 37.4654C86.2308 37.0707 87.0095 36.8734 87.9695 36.8734C88.4922 36.8734 88.9775 36.9267 89.4255 37.0334C89.8842 37.1294 90.3108 37.268 90.7055 37.4494L90.2255 38.5694C89.9908 38.4627 89.7402 38.372 89.4735 38.2974C89.2175 38.212 88.9562 38.148 88.6895 38.1054C88.4228 38.052 88.1508 38.0254 87.8735 38.0254C87.2975 38.0254 86.8548 38.1214 86.5455 38.3134C86.2468 38.4947 86.0975 38.7454 86.0975 39.0654C86.0975 39.3 86.1668 39.5027 86.3055 39.6734C86.4442 39.8334 86.6735 39.9934 86.9935 40.1534C87.3242 40.3027 87.7615 40.484 88.3055 40.6974C88.8495 40.9 89.3135 41.108 89.6975 41.3214C90.0815 41.5347 90.3748 41.796 90.5775 42.1054C90.7802 42.404 90.8815 42.7827 90.8815 43.2414ZM104.566 41.3054C104.566 42.02 104.47 42.6547 104.278 43.2094C104.097 43.7534 103.83 44.2174 103.478 44.6014C103.137 44.9854 102.715 45.2787 102.214 45.4814C101.723 45.6734 101.174 45.7694 100.566 45.7694C100.001 45.7694 99.478 45.6734 98.998 45.4814C98.518 45.2787 98.102 44.9854 97.75 44.6014C97.398 44.2174 97.1207 43.7534 96.918 43.2094C96.726 42.6547 96.63 42.02 96.63 41.3054C96.63 40.356 96.79 39.556 97.11 38.9054C97.43 38.244 97.8887 37.7427 98.486 37.4014C99.0833 37.0494 99.7927 36.8734 100.614 36.8734C101.393 36.8734 102.075 37.0494 102.662 37.4014C103.259 37.7427 103.723 38.244 104.054 38.9054C104.395 39.556 104.566 40.356 104.566 41.3054ZM98.086 41.3054C98.086 41.9774 98.1713 42.564 98.342 43.0654C98.5233 43.556 98.8007 43.9347 99.174 44.2014C99.5473 44.468 100.022 44.6014 100.598 44.6014C101.174 44.6014 101.649 44.468 102.022 44.2014C102.395 43.9347 102.667 43.556 102.838 43.0654C103.019 42.564 103.11 41.9774 103.11 41.3054C103.11 40.6227 103.019 40.0414 102.838 39.5614C102.657 39.0814 102.379 38.7134 102.006 38.4574C101.643 38.1907 101.169 38.0574 100.582 38.0574C99.7073 38.0574 99.0727 38.3454 98.678 38.9214C98.2833 39.4974 98.086 40.292 98.086 41.3054ZM110.926 36.8734C111.95 36.8734 112.723 37.124 113.246 37.6254C113.768 38.116 114.03 38.916 114.03 40.0254V45.6094H112.638V40.1214C112.638 39.428 112.483 38.9107 112.174 38.5694C111.864 38.228 111.379 38.0574 110.718 38.0574C109.768 38.0574 109.112 38.324 108.75 38.8574C108.387 39.3907 108.206 40.1587 108.206 41.1614V45.6094H106.798V37.0334H107.934L108.142 38.2014H108.222C108.414 37.9027 108.648 37.6574 108.926 37.4654C109.214 37.2627 109.528 37.1134 109.87 37.0174C110.211 36.9214 110.563 36.8734 110.926 36.8734Z" fill="#3B3B3B"/>
<path d="M49.072 67.2014H55.552V75.9134C54.64 76.2174 53.704 76.4494 52.744 76.6094C51.784 76.7694 50.696 76.8494 49.48 76.8494C47.752 76.8494 46.288 76.5054 45.088 75.8174C43.888 75.1294 42.976 74.1294 42.352 72.8174C41.728 71.5054 41.416 69.9054 41.416 68.0174C41.416 66.2254 41.768 64.6734 42.472 63.3614C43.176 62.0494 44.184 61.0334 45.496 60.3134C46.824 59.5934 48.44 59.2334 50.344 59.2334C51.272 59.2334 52.168 59.3294 53.032 59.5214C53.912 59.6974 54.712 59.9454 55.432 60.2654L54.376 62.7854C53.832 62.5134 53.2 62.2894 52.48 62.1134C51.776 61.9214 51.04 61.8254 50.272 61.8254C49.104 61.8254 48.096 62.0814 47.248 62.5934C46.4 63.1054 45.744 63.8334 45.28 64.7774C44.832 65.7054 44.608 66.8014 44.608 68.0654C44.608 69.2814 44.784 70.3614 45.136 71.3054C45.488 72.2334 46.048 72.9614 46.816 73.4894C47.584 74.0014 48.584 74.2574 49.816 74.2574C50.232 74.2574 50.592 74.2414 50.896 74.2094C51.216 74.1774 51.504 74.1374 51.76 74.0894C52.032 74.0414 52.288 73.9934 52.528 73.9454V69.8174H49.072V67.2014ZM62.3821 63.6014V76.6094H59.3581V63.6014H62.3821ZM60.8701 58.5854C61.3181 58.5854 61.7101 58.7054 62.0461 58.9454C62.3821 59.1694 62.5501 59.5774 62.5501 60.1694C62.5501 60.7454 62.3821 61.1614 62.0461 61.4174C61.7101 61.6574 61.3181 61.7774 60.8701 61.7774C60.4061 61.7774 60.0061 61.6574 59.6701 61.4174C59.3501 61.1614 59.1901 60.7454 59.1901 60.1694C59.1901 59.5774 59.3501 59.1694 59.6701 58.9454C60.0061 58.7054 60.4061 58.5854 60.8701 58.5854ZM71.2887 74.4254C71.6727 74.4254 72.0407 74.3934 72.3927 74.3294C72.7447 74.2494 73.0727 74.1614 73.3767 74.0654V76.3214C73.0567 76.4654 72.6407 76.5854 72.1287 76.6814C71.6167 76.7934 71.0807 76.8494 70.5207 76.8494C69.7847 76.8494 69.1127 76.7294 68.5047 76.4894C67.9127 76.2334 67.4327 75.8014 67.0647 75.1934C66.7127 74.5854 66.5367 73.7374 66.5367 72.6494V65.8814H64.7847V64.5614L66.7047 63.5054L67.6647 60.7454H69.5607V63.6014H73.2567V65.8814H69.5607V72.6254C69.5607 73.2334 69.7207 73.6894 70.0407 73.9934C70.3607 74.2814 70.7767 74.4254 71.2887 74.4254ZM89.9667 76.6094H86.8947V69.0014H79.3587V76.6094H76.2867V59.4734H79.3587V66.3854H86.8947V59.4734H89.9667V76.6094ZM105.683 63.6014V76.6094H103.307L102.899 74.9294H102.755C102.483 75.3774 102.131 75.7454 101.699 76.0334C101.267 76.3054 100.795 76.5054 100.283 76.6334C99.7713 76.7774 99.2433 76.8494 98.6993 76.8494C97.7393 76.8494 96.9073 76.6814 96.2033 76.3454C95.4993 76.0094 94.9633 75.4974 94.5953 74.8094C94.2273 74.1054 94.0433 73.2014 94.0433 72.0974V63.6014H97.0673V71.4974C97.0673 72.4574 97.2593 73.1854 97.6433 73.6814C98.0273 74.1614 98.6353 74.4014 99.4673 74.4014C100.283 74.4014 100.923 74.2334 101.387 73.8974C101.851 73.5454 102.179 73.0414 102.371 72.3854C102.563 71.7294 102.659 70.9214 102.659 69.9614V63.6014H105.683ZM112.562 62.6894C112.562 63.2014 112.546 63.6974 112.514 64.1774C112.482 64.6574 112.45 65.0334 112.418 65.3054H112.562C112.914 64.7614 113.394 64.3054 114.002 63.9374C114.61 63.5534 115.402 63.3614 116.378 63.3614C117.898 63.3614 119.122 63.9294 120.05 65.0654C120.978 66.2014 121.442 67.8734 121.442 70.0814C121.442 71.5694 121.226 72.8174 120.794 73.8254C120.378 74.8334 119.778 75.5934 118.994 76.1054C118.226 76.6014 117.33 76.8494 116.306 76.8494C115.33 76.8494 114.546 76.6734 113.954 76.3214C113.378 75.9694 112.914 75.5614 112.562 75.0974H112.346L111.794 76.6094H109.538V58.3694H112.562V62.6894ZM115.514 65.8094C114.778 65.8094 114.194 65.9534 113.762 66.2414C113.346 66.5294 113.042 66.9694 112.85 67.5614C112.658 68.1534 112.562 68.9054 112.562 69.8174V70.0814C112.562 71.4734 112.77 72.5374 113.186 73.2734C113.618 74.0094 114.41 74.3774 115.562 74.3774C116.458 74.3774 117.146 74.0094 117.626 73.2734C118.106 72.5214 118.346 71.4494 118.346 70.0574C118.346 68.6494 118.098 67.5934 117.602 66.8894C117.122 66.1694 116.426 65.8094 115.514 65.8094Z" fill="#3B3B3B"/>
</g>
<path d="M24 0.5H197.333C210.312 0.5 220.833 11.0213 220.833 24V91.6074C220.833 104.586 210.312 115.107 197.333 115.107H24C11.0214 115.107 0.500153 104.586 0.5 91.6074V24C0.5 11.0213 11.0213 0.5 24 0.5Z" stroke="#3B3B3B"/>
<defs>
<radialGradient id="paint0_radial_9682_62094" cx="0" cy="0" r="1" gradientTransform="matrix(166.693 45.1447 45.61 156.362 54.2783 57.3095)" gradientUnits="userSpaceOnUse">
<stop offset="0.14" stop-color="white"/>
<stop offset="0.86" stop-color="#974EFD"/>
</radialGradient>
<clipPath id="clip0_9682_62094">
<path d="M0 24C0 10.7452 10.7452 0 24 0H197.333C210.588 0 221.333 10.7452 221.333 24V91.6071C221.333 104.862 210.588 115.607 197.333 115.607H24C10.7452 115.607 0 104.862 0 91.6071V24Z" fill="white"/>
</clipPath>
</defs>
</svg>
