<svg width="222" height="116" viewBox="0 0 222 116" fill="none" xmlns="http://www.w3.org/2000/svg">
<g clip-path="url(#clip0_9682_62040)">
<path d="M0 24C0 10.7452 10.7452 0 24 0H197.333C210.588 0 221.333 10.7452 221.333 24V91.6071C221.333 104.862 210.588 115.607 197.333 115.607H24C10.7452 115.607 0 104.862 0 91.6071V24Z" fill="url(#paint0_radial_9682_62040)"/>
<g opacity="0.8">
<path fill-rule="evenodd" clip-rule="evenodd" d="M150.396 26.3412C155.461 27.053 160.638 27.9135 165.643 28.8344L171.551 29.9547L177.196 31.0924L182.477 32.2031L187.293 33.2666C192.522 34.4116 197.179 37.3649 200.444 41.6064C203.709 45.8479 205.372 51.1055 205.142 56.4532L205.025 59.0042L204.711 64.4574C204.341 70.102 203.793 76.2351 202.975 82.0583C202.156 87.8815 200.992 93.9281 199.793 99.4561L198.591 104.784L198 107.269C196.748 112.474 193.698 117.07 189.389 120.247C185.081 123.424 179.789 124.979 174.446 124.637L169.536 124.327L164.153 123.945L158.406 123.482L152.419 122.93C147.292 122.435 142.176 121.833 137.075 121.124C131.976 120.399 126.892 119.568 121.827 118.631L115.92 117.511L110.274 116.373L104.994 115.256L100.177 114.199C94.9486 113.054 90.2916 110.101 87.0266 105.859C83.7616 101.618 82.0981 96.36 82.3289 91.0123L82.4458 88.4613L82.7592 83.0081C83.1262 77.1222 83.7055 71.2514 84.4958 65.4072C85.3142 59.5839 86.4781 53.5374 87.6779 48.0094L88.8798 42.6811L89.4706 40.1967C90.7223 34.9935 93.7697 30.3987 98.0761 27.2214C102.383 24.0441 107.672 22.488 113.013 22.8272L117.93 23.1316L123.312 23.5195L129.058 23.9827L135.046 24.5343C140.174 25.0299 145.292 25.6323 150.396 26.3412ZM133.906 57.7021L129.868 86.4332C129.484 89.1701 132.206 91.2924 134.767 90.263L161.667 79.3941C162.252 79.1586 162.765 78.7729 163.153 78.2761C163.542 77.7792 163.793 77.1887 163.881 76.564C163.968 75.9393 163.89 75.3025 163.653 74.7178C163.417 74.133 163.03 73.621 162.532 73.2332L139.67 55.3768C139.173 54.9888 138.583 54.7384 137.959 54.6508C137.335 54.5632 136.699 54.6415 136.115 54.8777C135.53 55.114 135.018 55.5 134.631 55.9968C134.243 56.4936 133.993 57.0838 133.905 57.708L133.906 57.7021Z" fill="white"/>
</g>
<path d="M39.936 48.6494C39.68 48.6494 39.456 48.628 39.264 48.5854C39.072 48.5534 38.9013 48.5054 38.752 48.4414V47.2254C38.9227 47.268 39.104 47.3054 39.296 47.3374C39.488 47.3694 39.6907 47.3854 39.904 47.3854C40.1707 47.3854 40.4213 47.332 40.656 47.2254C40.9013 47.1187 41.0987 46.932 41.248 46.6654C41.3973 46.3987 41.472 46.0254 41.472 45.5454V34.1854H42.912V45.4334C42.912 46.1694 42.7893 46.772 42.544 47.2414C42.2987 47.7214 41.952 48.0734 41.504 48.2974C41.056 48.532 40.5333 48.6494 39.936 48.6494ZM53.191 41.3054C53.191 42.02 53.095 42.6547 52.903 43.2094C52.7217 43.7534 52.455 44.2174 52.103 44.6014C51.7617 44.9854 51.3403 45.2787 50.839 45.4814C50.3483 45.6734 49.799 45.7694 49.191 45.7694C48.6257 45.7694 48.103 45.6734 47.623 45.4814C47.143 45.2787 46.727 44.9854 46.375 44.6014C46.023 44.2174 45.7457 43.7534 45.543 43.2094C45.351 42.6547 45.255 42.02 45.255 41.3054C45.255 40.356 45.415 39.556 45.735 38.9054C46.055 38.244 46.5137 37.7427 47.111 37.4014C47.7083 37.0494 48.4177 36.8734 49.239 36.8734C50.0177 36.8734 50.7003 37.0494 51.287 37.4014C51.8843 37.7427 52.3483 38.244 52.679 38.9054C53.0203 39.556 53.191 40.356 53.191 41.3054ZM46.711 41.3054C46.711 41.9774 46.7963 42.564 46.967 43.0654C47.1483 43.556 47.4257 43.9347 47.799 44.2014C48.1723 44.468 48.647 44.6014 49.223 44.6014C49.799 44.6014 50.2737 44.468 50.647 44.2014C51.0203 43.9347 51.2923 43.556 51.463 43.0654C51.6443 42.564 51.735 41.9774 51.735 41.3054C51.735 40.6227 51.6443 40.0414 51.463 39.5614C51.2817 39.0814 51.0043 38.7134 50.631 38.4574C50.2683 38.1907 49.7937 38.0574 49.207 38.0574C48.3323 38.0574 47.6977 38.3454 47.303 38.9214C46.9083 39.4974 46.711 40.292 46.711 41.3054ZM56.8305 37.0334V45.6094H55.4225V37.0334H56.8305ZM56.1425 33.8174C56.3558 33.8174 56.5425 33.892 56.7025 34.0414C56.8732 34.18 56.9585 34.404 56.9585 34.7134C56.9585 35.012 56.8732 35.236 56.7025 35.3854C56.5425 35.5347 56.3558 35.6094 56.1425 35.6094C55.9078 35.6094 55.7105 35.5347 55.5505 35.3854C55.3905 35.236 55.3105 35.012 55.3105 34.7134C55.3105 34.404 55.3905 34.18 55.5505 34.0414C55.7105 33.892 55.9078 33.8174 56.1425 33.8174ZM63.6755 36.8734C64.6995 36.8734 65.4728 37.124 65.9955 37.6254C66.5182 38.116 66.7795 38.916 66.7795 40.0254V45.6094H65.3875V40.1214C65.3875 39.428 65.2328 38.9107 64.9235 38.5694C64.6142 38.228 64.1288 38.0574 63.4675 38.0574C62.5182 38.0574 61.8622 38.324 61.4995 38.8574C61.1368 39.3907 60.9555 40.1587 60.9555 41.1614V45.6094H59.5475V37.0334H60.6835L60.8915 38.2014H60.9715C61.1635 37.9027 61.3982 37.6574 61.6755 37.4654C61.9635 37.2627 62.2782 37.1134 62.6195 37.0174C62.9608 36.9214 63.3128 36.8734 63.6755 36.8734ZM82.4744 41.5774C82.4744 42.3667 82.3144 43.0814 81.9944 43.7214C81.6744 44.3507 81.1837 44.852 80.5224 45.2254C79.8717 45.588 79.0397 45.7694 78.0264 45.7694C76.6077 45.7694 75.525 45.3854 74.7784 44.6174C74.0424 43.8387 73.6744 42.8147 73.6744 41.5454V34.1854H75.1144V41.5934C75.1144 42.5214 75.3597 43.2414 75.8504 43.7534C76.3517 44.2654 77.1037 44.5214 78.1064 44.5214C78.7997 44.5214 79.3597 44.3987 79.7864 44.1534C80.2237 43.8974 80.5437 43.5507 80.7464 43.1134C80.949 42.6654 81.0504 42.1534 81.0504 41.5774V34.1854H82.4744V41.5774ZM90.8815 43.2414C90.8815 43.796 90.7428 44.26 90.4655 44.6334C90.1882 45.0067 89.7935 45.2894 89.2815 45.4814C88.7695 45.6734 88.1615 45.7694 87.4575 45.7694C86.8602 45.7694 86.3428 45.7214 85.9055 45.6254C85.4788 45.5294 85.1002 45.396 84.7695 45.2254V43.9454C85.1108 44.116 85.5215 44.276 86.0015 44.4254C86.4922 44.564 86.9882 44.6334 87.4895 44.6334C88.2042 44.6334 88.7215 44.5214 89.0415 44.2974C89.3615 44.0627 89.5215 43.7534 89.5215 43.3694C89.5215 43.156 89.4628 42.964 89.3455 42.7934C89.2282 42.6227 89.0148 42.452 88.7055 42.2814C88.4068 42.1107 87.9748 41.9187 87.4095 41.7054C86.8548 41.492 86.3802 41.2787 85.9855 41.0654C85.5908 40.852 85.2868 40.596 85.0735 40.2974C84.8602 39.9987 84.7535 39.6147 84.7535 39.1454C84.7535 38.42 85.0468 37.86 85.6335 37.4654C86.2308 37.0707 87.0095 36.8734 87.9695 36.8734C88.4922 36.8734 88.9775 36.9267 89.4255 37.0334C89.8842 37.1294 90.3108 37.268 90.7055 37.4494L90.2255 38.5694C89.9908 38.4627 89.7402 38.372 89.4735 38.2974C89.2175 38.212 88.9562 38.148 88.6895 38.1054C88.4228 38.052 88.1508 38.0254 87.8735 38.0254C87.2975 38.0254 86.8548 38.1214 86.5455 38.3134C86.2468 38.4947 86.0975 38.7454 86.0975 39.0654C86.0975 39.3 86.1668 39.5027 86.3055 39.6734C86.4442 39.8334 86.6735 39.9934 86.9935 40.1534C87.3242 40.3027 87.7615 40.484 88.3055 40.6974C88.8495 40.9 89.3135 41.108 89.6975 41.3214C90.0815 41.5347 90.3748 41.796 90.5775 42.1054C90.7802 42.404 90.8815 42.7827 90.8815 43.2414ZM104.566 41.3054C104.566 42.02 104.47 42.6547 104.278 43.2094C104.097 43.7534 103.83 44.2174 103.478 44.6014C103.137 44.9854 102.715 45.2787 102.214 45.4814C101.723 45.6734 101.174 45.7694 100.566 45.7694C100.001 45.7694 99.478 45.6734 98.998 45.4814C98.518 45.2787 98.102 44.9854 97.75 44.6014C97.398 44.2174 97.1207 43.7534 96.918 43.2094C96.726 42.6547 96.63 42.02 96.63 41.3054C96.63 40.356 96.79 39.556 97.11 38.9054C97.43 38.244 97.8887 37.7427 98.486 37.4014C99.0833 37.0494 99.7927 36.8734 100.614 36.8734C101.393 36.8734 102.075 37.0494 102.662 37.4014C103.259 37.7427 103.723 38.244 104.054 38.9054C104.395 39.556 104.566 40.356 104.566 41.3054ZM98.086 41.3054C98.086 41.9774 98.1713 42.564 98.342 43.0654C98.5233 43.556 98.8007 43.9347 99.174 44.2014C99.5473 44.468 100.022 44.6014 100.598 44.6014C101.174 44.6014 101.649 44.468 102.022 44.2014C102.395 43.9347 102.667 43.556 102.838 43.0654C103.019 42.564 103.11 41.9774 103.11 41.3054C103.11 40.6227 103.019 40.0414 102.838 39.5614C102.657 39.0814 102.379 38.7134 102.006 38.4574C101.643 38.1907 101.169 38.0574 100.582 38.0574C99.7073 38.0574 99.0727 38.3454 98.678 38.9214C98.2833 39.4974 98.086 40.292 98.086 41.3054ZM110.926 36.8734C111.95 36.8734 112.723 37.124 113.246 37.6254C113.768 38.116 114.03 38.916 114.03 40.0254V45.6094H112.638V40.1214C112.638 39.428 112.483 38.9107 112.174 38.5694C111.864 38.228 111.379 38.0574 110.718 38.0574C109.768 38.0574 109.112 38.324 108.75 38.8574C108.387 39.3907 108.206 40.1587 108.206 41.1614V45.6094H106.798V37.0334H107.934L108.142 38.2014H108.222C108.414 37.9027 108.648 37.6574 108.926 37.4654C109.214 37.2627 109.528 37.1134 109.87 37.0174C110.211 36.9214 110.563 36.8734 110.926 36.8734Z" fill="#3B3B3B"/>
<path d="M47.224 67.0334L51.136 59.4734H54.448L48.76 69.9374V76.6094H45.688V70.0574L40 59.4734H43.336L47.224 67.0334ZM66.8022 70.0814C66.8022 71.1694 66.6582 72.1294 66.3702 72.9614C66.0822 73.7934 65.6662 74.5054 65.1222 75.0974C64.5942 75.6734 63.9382 76.1134 63.1542 76.4174C62.3862 76.7054 61.5302 76.8494 60.5862 76.8494C59.6902 76.8494 58.8662 76.7054 58.1142 76.4174C57.3622 76.1134 56.7062 75.6734 56.1462 75.0974C55.6022 74.5054 55.1782 73.7934 54.8742 72.9614C54.5702 72.1294 54.4182 71.1694 54.4182 70.0814C54.4182 68.6414 54.6662 67.4254 55.1622 66.4334C55.6582 65.4254 56.3702 64.6654 57.2982 64.1534C58.2422 63.6254 59.3542 63.3614 60.6342 63.3614C61.8502 63.3614 62.9142 63.6254 63.8262 64.1534C64.7542 64.6654 65.4822 65.4254 66.0102 66.4334C66.5382 67.4254 66.8022 68.6414 66.8022 70.0814ZM57.5142 70.0814C57.5142 70.9934 57.6182 71.7774 57.8262 72.4334C58.0502 73.0734 58.3862 73.5614 58.8342 73.8974C59.2982 74.2334 59.8902 74.4014 60.6102 74.4014C61.3462 74.4014 61.9382 74.2334 62.3862 73.8974C62.8502 73.5614 63.1862 73.0734 63.3942 72.4334C63.6022 71.7774 63.7062 70.9934 63.7062 70.0814C63.7062 69.1534 63.5942 68.3774 63.3702 67.7534C63.1622 67.1134 62.8262 66.6334 62.3622 66.3134C61.9142 65.9774 61.3302 65.8094 60.6102 65.8094C59.5222 65.8094 58.7302 66.1774 58.2342 66.9134C57.7542 67.6494 57.5142 68.7054 57.5142 70.0814ZM81.4724 63.6014V76.6094H79.0964L78.6884 74.9294H78.5444C78.2724 75.3774 77.9204 75.7454 77.4884 76.0334C77.0564 76.3054 76.5844 76.5054 76.0724 76.6334C75.5604 76.7774 75.0324 76.8494 74.4884 76.8494C73.5284 76.8494 72.6964 76.6814 71.9924 76.3454C71.2884 76.0094 70.7524 75.4974 70.3844 74.8094C70.0164 74.1054 69.8324 73.2014 69.8324 72.0974V63.6014H72.8564V71.4974C72.8564 72.4574 73.0484 73.1854 73.4324 73.6814C73.8164 74.1614 74.4244 74.4014 75.2564 74.4014C76.0724 74.4014 76.7124 74.2334 77.1764 73.8974C77.6404 73.5454 77.9684 73.0414 78.1604 72.3854C78.3524 71.7294 78.4484 70.9214 78.4484 69.9614V63.6014H81.4724ZM91.7588 76.6094H88.6868V62.0654H83.7668V59.4734H96.6788V62.0654H91.7588V76.6094ZM109.363 63.6014V76.6094H106.987L106.579 74.9294H106.435C106.163 75.3774 105.811 75.7454 105.379 76.0334C104.947 76.3054 104.475 76.5054 103.963 76.6334C103.451 76.7774 102.923 76.8494 102.379 76.8494C101.419 76.8494 100.587 76.6814 99.883 76.3454C99.179 76.0094 98.643 75.4974 98.275 74.8094C97.907 74.1054 97.723 73.2014 97.723 72.0974V63.6014H100.747V71.4974C100.747 72.4574 100.939 73.1854 101.323 73.6814C101.707 74.1614 102.315 74.4014 103.147 74.4014C103.963 74.4014 104.603 74.2334 105.067 73.8974C105.531 73.5454 105.859 73.0414 106.051 72.3854C106.243 71.7294 106.339 70.9214 106.339 69.9614V63.6014H109.363ZM116.241 62.6894C116.241 63.2014 116.225 63.6974 116.193 64.1774C116.161 64.6574 116.129 65.0334 116.097 65.3054H116.241C116.593 64.7614 117.073 64.3054 117.681 63.9374C118.289 63.5534 119.081 63.3614 120.057 63.3614C121.577 63.3614 122.801 63.9294 123.729 65.0654C124.657 66.2014 125.121 67.8734 125.121 70.0814C125.121 71.5694 124.905 72.8174 124.473 73.8254C124.057 74.8334 123.457 75.5934 122.673 76.1054C121.905 76.6014 121.009 76.8494 119.985 76.8494C119.009 76.8494 118.225 76.6734 117.633 76.3214C117.057 75.9694 116.593 75.5614 116.241 75.0974H116.025L115.473 76.6094H113.217V58.3694H116.241V62.6894ZM119.193 65.8094C118.457 65.8094 117.873 65.9534 117.441 66.2414C117.025 66.5294 116.721 66.9694 116.529 67.5614C116.337 68.1534 116.241 68.9054 116.241 69.8174V70.0814C116.241 71.4734 116.449 72.5374 116.865 73.2734C117.297 74.0094 118.089 74.3774 119.241 74.3774C120.137 74.3774 120.825 74.0094 121.305 73.2734C121.785 72.5214 122.025 71.4494 122.025 70.0574C122.025 68.6494 121.777 67.5934 121.281 66.8894C120.801 66.1694 120.105 65.8094 119.193 65.8094ZM133.473 63.3614C134.641 63.3614 135.641 63.6014 136.473 64.0814C137.321 64.5454 137.977 65.2174 138.441 66.0974C138.905 66.9614 139.137 68.0174 139.137 69.2654V70.8014H130.545C130.577 71.9854 130.905 72.9054 131.529 73.5614C132.153 74.2014 133.017 74.5214 134.121 74.5214C134.969 74.5214 135.721 74.4414 136.377 74.2814C137.049 74.1054 137.737 73.8574 138.441 73.5374V75.9614C137.801 76.2654 137.137 76.4894 136.449 76.6334C135.761 76.7774 134.937 76.8494 133.977 76.8494C132.713 76.8494 131.585 76.6094 130.593 76.1294C129.617 75.6334 128.849 74.8894 128.289 73.8974C127.745 72.9054 127.473 71.6734 127.473 70.2014C127.473 68.7134 127.721 67.4654 128.217 66.4574C128.729 65.4334 129.433 64.6654 130.329 64.1534C131.225 63.6254 132.273 63.3614 133.473 63.3614ZM133.473 65.5934C132.673 65.5934 132.017 65.8574 131.505 66.3854C131.009 66.8974 130.713 67.6654 130.617 68.6894H136.209C136.209 68.0814 136.105 67.5454 135.897 67.0814C135.705 66.6174 135.409 66.2574 135.009 66.0014C134.609 65.7294 134.097 65.5934 133.473 65.5934Z" fill="#3B3B3B"/>
</g>
<path d="M24 0.5H197.333C210.312 0.5 220.833 11.0213 220.833 24V91.6074C220.833 104.586 210.312 115.107 197.333 115.107H24C11.0214 115.107 0.500153 104.586 0.5 91.6074V24C0.5 11.0213 11.0213 0.5 24 0.5Z" stroke="#3B3B3B"/>
<defs>
<radialGradient id="paint0_radial_9682_62040" cx="0" cy="0" r="1" gradientTransform="matrix(166.693 45.1447 45.61 156.362 54.2783 57.3095)" gradientUnits="userSpaceOnUse">
<stop offset="0.14" stop-color="white"/>
<stop offset="0.86" stop-color="#FF0033"/>
</radialGradient>
<clipPath id="clip0_9682_62040">
<path d="M0 24C0 10.7452 10.7452 0 24 0H197.333C210.588 0 221.333 10.7452 221.333 24V91.6071C221.333 104.862 210.588 115.607 197.333 115.607H24C10.7452 115.607 0 104.862 0 91.6071V24Z" fill="white"/>
</clipPath>
</defs>
</svg>
