<svg width="96" height="96" viewBox="0 0 96 96" fill="none" xmlns="http://www.w3.org/2000/svg">
<g clip-path="url(#clip0_9669_164748)">
<rect width="96" height="96" rx="8" fill="url(#paint0_linear_9669_164748)"/>
<rect x="14" y="15" width="68" height="116" rx="8" fill="white"/>
<rect x="14" y="15" width="68" height="116" rx="8" stroke="#3B3B3B" stroke-width="4"/>
<path d="M42.8278 23.5399H53.1721" stroke="#3B3B3B" stroke-width="4" stroke-linecap="round" stroke-linejoin="round"/>
<g filter="url(#filter0_d_9669_164748)">
<circle cx="17" cy="17" r="11" fill="#00AA80"/>
<path d="M16.9816 22.168C16.3469 22.168 15.7682 22.056 15.2456 21.832C14.7229 21.5987 14.3029 21.2487 13.9856 20.782C13.6776 20.306 13.5142 19.7087 13.4956 18.99H15.1476C15.1569 19.3167 15.2316 19.6153 15.3716 19.886C15.5209 20.1473 15.7309 20.3573 16.0016 20.516C16.2722 20.6653 16.5989 20.74 16.9816 20.74C17.3456 20.74 17.6536 20.67 17.9056 20.53C18.1669 20.39 18.3629 20.1987 18.4936 19.956C18.6242 19.7133 18.6896 19.4427 18.6896 19.144C18.6896 18.78 18.6009 18.4813 18.4236 18.248C18.2462 18.0053 18.0036 17.8233 17.6956 17.702C17.3876 17.5807 17.0376 17.52 16.6456 17.52H15.9176V16.134H16.6456C17.1589 16.134 17.5789 16.0173 17.9056 15.784C18.2322 15.5413 18.3956 15.1913 18.3956 14.734C18.3956 14.3513 18.2696 14.0433 18.0176 13.81C17.7749 13.5767 17.4249 13.46 16.9676 13.46C16.4916 13.46 16.1136 13.6 15.8336 13.88C15.5629 14.16 15.4136 14.5053 15.3856 14.916H13.7336C13.7616 14.328 13.9109 13.8193 14.1816 13.39C14.4616 12.9513 14.8396 12.6153 15.3156 12.382C15.7916 12.1487 16.3469 12.032 16.9816 12.032C17.6442 12.032 18.2042 12.1487 18.6616 12.382C19.1189 12.6153 19.4642 12.928 19.6976 13.32C19.9402 13.712 20.0616 14.1413 20.0616 14.608C20.0616 14.972 19.9916 15.3033 19.8516 15.602C19.7116 15.9007 19.5202 16.1527 19.2776 16.358C19.0442 16.554 18.7689 16.6987 18.4516 16.792C18.8156 16.8667 19.1376 17.0113 19.4176 17.226C19.7069 17.4407 19.9309 17.716 20.0896 18.052C20.2576 18.3787 20.3416 18.7613 20.3416 19.2C20.3416 19.732 20.2109 20.2267 19.9496 20.684C19.6976 21.132 19.3196 21.4913 18.8156 21.762C18.3209 22.0327 17.7096 22.168 16.9816 22.168Z" fill="white"/>
</g>
<path d="M53 37L68 37" stroke="#E4E4E4" stroke-width="2" stroke-linecap="round"/>
<path d="M23 63H74" stroke="#E4E4E4" stroke-width="1.5" stroke-linecap="round"/>
<path d="M53 42L74 42" stroke="#E4E4E4" stroke-width="1.5" stroke-linecap="round"/>
<path d="M23 68L61 68" stroke="#E4E4E4" stroke-width="1.5" stroke-linecap="round"/>
<rect x="23.5" y="32.5" width="24" height="24" rx="3.5" fill="white" stroke="#E4E4E4"/>
<path d="M34.6648 52.0303C38.9496 52.4771 42.7908 49.4168 43.2442 45.1949C43.6976 40.973 40.5917 37.1884 36.3068 36.7416C32.0219 36.2949 28.1808 39.3552 27.7273 43.577C27.2739 47.7989 30.3799 51.5836 34.6648 52.0303Z" fill="#FFD09E" stroke="#000001" stroke-linecap="round" stroke-linejoin="round"/>
<path d="M36.3082 37.2824L34.7564 51.7312" stroke="#000001" stroke-linecap="round" stroke-linejoin="round"/>
<path d="M29.1732 48.6798C30.1004 48.2811 30.8973 47.6678 31.4872 46.8989C32.0771 46.1299 32.4402 45.2312 32.5415 44.2892C32.6425 43.3471 32.4784 42.3934 32.0649 41.5199C31.6514 40.6463 31.0025 39.8823 30.1805 39.3012" fill="#FFD09E"/>
<path d="M29.1732 48.6798C30.1004 48.2811 30.8973 47.6678 31.4872 46.8989C32.0771 46.1299 32.4402 45.2312 32.5415 44.2892C32.6425 43.3471 32.4784 42.3934 32.0649 41.5199C31.6514 40.6463 31.0025 39.8823 30.1805 39.3012" stroke="#000001" stroke-linecap="round" stroke-linejoin="round"/>
<path d="M41.874 40.2808C40.9462 40.6875 40.1485 41.3118 39.5575 42.0939C38.9664 42.8759 38.602 43.7893 38.4993 44.7462C38.3965 45.7032 38.5588 46.6715 38.9706 47.558C39.3824 48.4446 40.0298 49.2197 40.8506 49.8087" fill="#FFD09E"/>
<path d="M41.874 40.2808C40.9462 40.6875 40.1485 41.3118 39.5575 42.0939C38.9664 42.8759 38.602 43.7893 38.4993 44.7462C38.3965 45.7032 38.5588 46.6715 38.9706 47.558C39.3824 48.4446 40.0298 49.2197 40.8506 49.8087" stroke="#000001" stroke-linecap="round" stroke-linejoin="round"/>
<rect x="32" y="74" width="32" height="8" rx="4" fill="#00CC99"/>
<rect x="22" y="89" width="16" height="16" rx="2" fill="#E4E4E4"/>
<rect x="58" y="89" width="16" height="16" rx="2" fill="#E4E4E4"/>
<rect x="40" y="89" width="16" height="16" rx="2" fill="#E4E4E4"/>
</g>
<defs>
<filter id="filter0_d_9669_164748" x="4" y="4" width="30" height="30" filterUnits="userSpaceOnUse" color-interpolation-filters="sRGB">
<feFlood flood-opacity="0" result="BackgroundImageFix"/>
<feColorMatrix in="SourceAlpha" type="matrix" values="0 0 0 0 0 0 0 0 0 0 0 0 0 0 0 0 0 0 127 0" result="hardAlpha"/>
<feOffset dx="2" dy="2"/>
<feGaussianBlur stdDeviation="2"/>
<feComposite in2="hardAlpha" operator="out"/>
<feColorMatrix type="matrix" values="0 0 0 0 0 0 0 0 0 0 0 0 0 0 0 0 0 0 0.25 0"/>
<feBlend mode="normal" in2="BackgroundImageFix" result="effect1_dropShadow_9669_164748"/>
<feBlend mode="normal" in="SourceGraphic" in2="effect1_dropShadow_9669_164748" result="shape"/>
</filter>
<linearGradient id="paint0_linear_9669_164748" x1="48.0333" y1="-34.8319" x2="42.6257" y2="95.7775" gradientUnits="userSpaceOnUse">
<stop stop-color="#DFFFF7" stop-opacity="0"/>
<stop offset="0.385306" stop-color="#D8F8EF" stop-opacity="0.43"/>
<stop offset="0.784215" stop-color="#D8F8EF"/>
</linearGradient>
<clipPath id="clip0_9669_164748">
<rect width="96" height="96" rx="8" fill="white"/>
</clipPath>
</defs>
</svg>
