<svg preserveAspectRatio="none" width="100%" height="100%" overflow="visible" style="display: block;" viewBox="0 0 14 13.9584" fill="none" xmlns="http://www.w3.org/2000/svg">
<g id="Group">
<path id="Union" d="M11 10.9584C11.276 10.9584 11.4998 11.1824 11.5 11.4584C11.5 11.8561 11.6583 12.2377 11.9395 12.5189C12.2207 12.8002 12.6022 12.9584 13 12.9584H13.5C13.776 12.9584 13.9998 13.1824 14 13.4584C14 13.7345 13.7761 13.9584 13.5 13.9584H13C12.337 13.9584 11.7012 13.6948 11.2324 13.226C11.1473 13.1408 11.0713 13.0479 11 12.9525C10.9287 13.048 10.8528 13.1408 10.7676 13.226C10.2987 13.6948 9.66304 13.9584 9 13.9584C8.337 13.9584 7.70123 13.6948 7.23242 13.226C7.14726 13.1408 7.07125 13.0479 7 12.9525C6.92871 13.048 6.85279 13.1408 6.76758 13.226C6.29874 13.6948 5.66304 13.9584 5 13.9584C4.337 13.9584 3.70123 13.6948 3.23242 13.226C3.14726 13.1408 3.07125 13.0479 3 12.9525C2.92871 13.048 2.85279 13.1408 2.76758 13.226C2.29874 13.6948 1.66304 13.9584 1 13.9584H0.5C0.223914 13.9583 0 13.7345 0 13.4584C0.000203395 13.1825 0.224039 12.9585 0.5 12.9584H1C1.39783 12.9584 1.77924 12.8003 2.06055 12.5189C2.34177 12.2377 2.5 11.8562 2.5 11.4584C2.5002 11.1825 2.72404 10.9585 3 10.9584C3.27602 10.9584 3.4998 11.1824 3.5 11.4584C3.5 11.8561 3.6583 12.2377 3.93945 12.5189C4.22073 12.8002 4.60222 12.9584 5 12.9584C5.39783 12.9584 5.77924 12.8003 6.06055 12.5189C6.34177 12.2377 6.5 11.8562 6.5 11.4584C6.5002 11.1825 6.72404 10.9585 7 10.9584C7.27602 10.9584 7.4998 11.1824 7.5 11.4584C7.5 11.8561 7.6583 12.2377 7.93945 12.5189C8.22073 12.8002 8.60222 12.9584 9 12.9584C9.39783 12.9584 9.77924 12.8003 10.0605 12.5189C10.3418 12.2377 10.5 11.8562 10.5 11.4584C10.5002 11.1825 10.724 10.9585 11 10.9584ZM5.66309 0.0580084C6.43683 -0.0943474 7.23998 0.0560686 7.90625 0.47793C8.38879 0.783536 8.77106 1.21588 9.01953 1.72109C9.54254 1.48431 10.1215 1.38624 10.7002 1.44473C11.4953 1.52511 12.2333 1.89352 12.7764 2.47988C12.9638 2.68243 12.9524 2.99834 12.75 3.18594C12.5474 3.37326 12.2305 3.36095 12.043 3.15859C11.6655 2.75116 11.1522 2.49571 10.5996 2.43984C10.3805 2.41771 10.1614 2.42797 9.94824 2.46816C10.2543 2.69208 10.5186 2.97317 10.7246 3.3002C11.1463 3.96966 11.2921 4.77676 11.1299 5.55117C11.0732 5.82144 10.8074 5.99453 10.5371 5.93789C10.2671 5.88106 10.0938 5.61621 10.1504 5.34609C10.2594 4.82569 10.1622 4.28332 9.87891 3.8334C9.62881 3.43645 9.25082 3.13822 8.81055 2.98672C8.27995 3.30545 7.85437 3.85449 7.54688 4.59902C7.25411 5.30804 7.07966 6.16596 7.01953 7.09023C7.46639 7.18625 7.90256 7.33334 8.31836 7.52969C9.11801 7.90743 9.8249 8.45801 10.3867 9.14102C10.5618 9.35419 10.5313 9.66973 10.3184 9.84512C10.1052 10.0204 9.78973 9.98972 9.61426 9.77676C9.14622 9.20773 8.55779 8.74869 7.8916 8.43398C7.22547 8.11939 6.49742 7.95653 5.76074 7.95645C5.02409 7.95645 4.29603 8.1195 3.62988 8.43398C2.96358 8.74868 2.37436 9.20766 1.90625 9.77676C1.7309 9.9896 1.41628 10.02 1.20312 9.84512C0.989857 9.6697 0.959348 9.35428 1.13477 9.14102C1.69662 8.45807 2.40248 7.90737 3.20215 7.52969C4.00196 7.15199 4.87623 6.95645 5.76074 6.95645C5.84943 6.95645 5.93796 6.95935 6.02637 6.96328C6.09575 5.98001 6.28642 5.0335 6.62305 4.21816C6.85911 3.64649 7.17284 3.12613 7.57617 2.70547C7.33635 2.70406 7.09586 2.73503 6.8623 2.80313C6.30432 2.96584 5.82066 3.31838 5.49414 3.79922C5.33906 4.0277 5.02731 4.08712 4.79883 3.93203C4.57078 3.77684 4.51108 3.46601 4.66602 3.2377C5.12317 2.56421 5.80155 2.071 6.58301 1.84316C6.99043 1.72444 7.41241 1.6847 7.8291 1.71719C7.69749 1.56571 7.54346 1.43282 7.37109 1.32363C6.92117 1.03874 6.37896 0.936594 5.85645 1.03945C5.58581 1.09252 5.32308 0.916423 5.26953 0.645899C5.21621 0.375092 5.39237 0.111538 5.66309 0.0580084Z" fill="currentColor"/>
</g>
</svg>
