<svg preserveAspectRatio="none" width="100%" height="100%" overflow="visible" style="display: block;" viewBox="0 0 14.0004 14.0088" fill="none" xmlns="http://www.w3.org/2000/svg">
<g id="Group">
<path id="Union" d="M2.87783 5.31152C3.65861 5.00984 4.50831 4.93136 5.33095 5.08594C6.15356 5.24059 6.91709 5.62196 7.53505 6.18652C7.97012 6.58408 8.31905 7.06293 8.56825 7.5918C8.83791 7.41315 9.13166 7.27142 9.44228 7.17285C9.99305 6.9981 10.5785 6.96274 11.1464 7.06934C11.7142 7.17596 12.2473 7.42069 12.6972 7.7832C13.1468 8.14567 13.4997 8.61447 13.7245 9.14648C13.9492 9.67862 14.0389 10.2588 13.9852 10.834C13.9315 11.4092 13.7364 11.963 13.4169 12.4443C13.0974 12.9257 12.6634 13.3208 12.1542 13.5938C11.6452 13.8665 11.0764 14.0091 10.4989 14.0088H4.49794C3.66105 14.0084 2.84017 13.7748 2.1288 13.334C1.41754 12.8931 0.843297 12.2619 0.470598 11.5127C0.0979641 10.7633 -0.0582448 9.92414 0.0194266 9.09082C0.0972173 8.25739 0.406108 7.46156 0.911028 6.79395C1.41595 6.12647 2.09715 5.61323 2.87783 5.31152ZM5.14638 6.06934C4.50648 5.94906 3.84552 6.00947 3.23818 6.24414C2.63102 6.4788 2.10158 6.87834 1.70888 7.39746C1.31618 7.91671 1.07602 8.53539 1.01552 9.18359C0.955094 9.83175 1.07627 10.4845 1.36611 11.0674C1.656 11.6501 2.10295 12.1405 2.65615 12.4834C3.20951 12.8263 3.84791 13.0086 4.49892 13.0088H10.4989C10.9116 13.0091 11.3178 12.9068 11.6815 12.7119C12.0452 12.517 12.3557 12.2353 12.5839 11.8916C12.8121 11.5478 12.9517 11.1521 12.9901 10.7412C13.0285 10.3304 12.9641 9.91621 12.8036 9.53613C12.643 9.156 12.3905 8.82148 12.0692 8.5625C11.7479 8.30354 11.3674 8.12792 10.9618 8.05176C10.5563 7.97565 10.1383 8.00125 9.74501 8.12598C9.35159 8.25081 8.99448 8.47147 8.70693 8.76758C8.58257 8.89527 8.39932 8.9468 8.22646 8.90332C8.05335 8.8596 7.91586 8.72642 7.86708 8.55469C7.68965 7.9285 7.3407 7.36385 6.86025 6.9248C6.37965 6.4858 5.78609 6.18961 5.14638 6.06934ZM4.65712 2.89551C6.175 2.38009 7.82087 2.38013 9.33876 2.89551C9.6002 2.98428 9.73996 3.26785 9.65126 3.5293C9.56233 3.79054 9.27883 3.93054 9.01747 3.8418C7.70824 3.39727 6.28864 3.39734 4.97939 3.8418C4.71807 3.93039 4.43349 3.79051 4.34462 3.5293C4.25612 3.26811 4.39614 2.98449 4.65712 2.89551ZM7.454 0.0117188C8.56045 0.0671769 9.64986 0.316271 10.6727 0.748047C10.9272 0.855436 11.0467 1.14891 10.9393 1.40332C10.8319 1.65752 10.5384 1.77626 10.2841 1.66895C9.36864 1.28253 8.39344 1.06029 7.40322 1.01074L6.97841 1C5.84294 1 4.71884 1.22737 3.67275 1.66895C3.41844 1.77625 3.12495 1.65752 3.01747 1.40332C2.91009 1.14892 3.02968 0.85544 3.28408 0.748047C4.45324 0.254523 5.70935 2.23144e-06 6.97841 0L7.454 0.0117188Z" fill="currentColor"/>
</g>
</svg>
