<svg preserveAspectRatio="none" width="100%" height="100%" overflow="visible" style="display: block;" viewBox="0 0 24 24" fill="none" xmlns="http://www.w3.org/2000/svg">
<g clip-path="url(#clip_education_book)">
<path d="M21.1182 0.381236C21.4292 0.337198 21.7463 0.359874 22.0479 0.447642C22.3495 0.53545 22.6294 0.686891 22.8682 0.891001L23.0411 1.05604C23.2047 1.22994 23.3392 1.42997 23.4395 1.64784C23.5732 1.93822 23.6426 2.25393 23.6426 2.57362V16.3705C23.6459 16.9179 23.447 17.4479 23.083 17.8568C22.7217 18.2628 22.2232 18.5198 21.6836 18.5824L21.6846 18.5834C18.1004 19.0695 14.8021 20.8044 12.3702 23.4818C12.3174 23.5398 12.2527 23.5823 12.1827 23.6098L12.1807 23.6117C12.1706 23.6156 12.1597 23.6173 12.1495 23.6205C12.1367 23.6245 12.1243 23.6293 12.1114 23.6322C12.1023 23.6343 12.0931 23.6355 12.084 23.6371C12.0701 23.6395 12.0562 23.6427 12.042 23.6439H11.958C11.9442 23.6428 11.9307 23.6394 11.917 23.6371C11.9073 23.6355 11.8974 23.6344 11.8877 23.6322C11.8748 23.6292 11.8623 23.6245 11.8496 23.6205C11.8397 23.6173 11.8292 23.6155 11.8194 23.6117C11.8183 23.6113 11.8175 23.6102 11.8164 23.6098C11.7467 23.5823 11.6825 23.5396 11.6299 23.4818C9.20078 20.8074 5.90764 19.0728 2.32817 18.5844C1.78438 18.5242 1.28188 18.2654 0.918009 17.8568C0.554079 17.4479 0.354148 16.9179 0.357462 16.3705V2.57362C0.357477 2.25397 0.426917 1.9382 0.560587 1.64784C0.694373 1.35736 0.889823 1.09887 1.13285 0.891001L1.31938 0.748423C1.51276 0.615825 1.72611 0.513477 1.95219 0.447642C2.1782 0.38187 2.41325 0.352674 2.6475 0.360728L2.88188 0.381236L2.8936 0.383189C6.3661 0.959571 9.55538 2.6361 12 5.15565C14.4447 2.63614 17.634 0.95956 21.1065 0.383189L21.1182 0.381236ZM21.2608 1.37049C17.8989 1.93062 14.8206 3.58975 12.5 6.08143V21.9223C14.9819 19.575 18.1443 18.0541 21.5498 17.5922L21.5625 17.5912C21.8608 17.5581 22.1365 17.4159 22.336 17.1918C22.5354 16.9677 22.6443 16.6773 22.6426 16.3773V2.57362C22.6426 2.39829 22.6046 2.22506 22.5313 2.06581C22.4579 1.90653 22.3511 1.76475 22.2178 1.65077C22.087 1.539 21.9338 1.45671 21.7686 1.40858C21.6039 1.36063 21.4306 1.34676 21.2608 1.37049ZM2.73832 1.37049C2.56895 1.347 2.39569 1.36081 2.23149 1.40858C2.06639 1.45673 1.91301 1.53905 1.78227 1.65077C1.64902 1.76475 1.54215 1.90655 1.46879 2.06581C1.39546 2.22505 1.35748 2.3983 1.35746 2.57362V16.3773C1.35576 16.6773 1.46561 16.9677 1.66508 17.1918C1.83959 17.3877 2.07216 17.5212 2.32719 17.5736L2.43852 17.5912L2.45024 17.5922C5.85541 18.0541 9.01835 19.5744 11.5 21.9213V6.08143C9.17929 3.58959 6.10055 1.93045 2.73832 1.37049Z" fill="currentColor"/>
</g>
<defs>
<clipPath id="clip_education_book">
<rect width="24" height="24" fill="white"/>
</clipPath>
</defs>
</svg>
