<svg preserveAspectRatio="none" width="100%" height="100%" overflow="visible" style="display: block;" viewBox="0 0 14 9" fill="none" xmlns="http://www.w3.org/2000/svg">
<g id="Group">
<path id="Union" d="M7.5 0C8.32843 0 9 0.671573 9 1.5V5.5C9 6.32843 8.32843 7 7.5 7H5V8H6.5C6.77614 8 7 8.22386 7 8.5C7 8.77614 6.77614 9 6.5 9H2.5C2.22386 9 2 8.77614 2 8.5C2 8.22386 2.22386 8 2.5 8H4V7H1.5C0.671573 7 0 6.32843 0 5.5V1.5C0 0.671573 0.671573 0 1.5 0H7.5ZM12.5 0C12.8978 0 13.2792 0.158149 13.5605 0.439453C13.8419 0.720757 14 1.10217 14 1.5V7.5C14 7.89783 13.8419 8.27924 13.5605 8.56055C13.2792 8.84185 12.8978 9 12.5 9H9C8.72386 9 8.5 8.77614 8.5 8.5C8.5 8.22386 8.72386 8 9 8H12.5C12.6326 8 12.7597 7.94728 12.8535 7.85352C12.9473 7.75975 13 7.63261 13 7.5V1.5C13 1.36739 12.9473 1.24025 12.8535 1.14648C12.7597 1.05272 12.6326 1 12.5 1H11C10.7239 1 10.5 0.776142 10.5 0.5C10.5 0.223858 10.7239 0 11 0H12.5ZM1.5 1C1.22386 1 1 1.22386 1 1.5V5.5C1 5.77614 1.22386 6 1.5 6H7.5C7.77614 6 8 5.77614 8 5.5V1.5C8 1.22386 7.77614 1 7.5 1H1.5Z" fill="currentColor"/>
</g>
</svg>
