<svg preserveAspectRatio="none" width="100%" height="100%" overflow="visible" style="display: block;" viewBox="0 0 14 14" fill="none" xmlns="http://www.w3.org/2000/svg">
<g id="Group">
<path id="Union" d="M12.5 0C13.3284 0 14 0.671573 14 1.5V12.5C14 13.3284 13.3284 14 12.5 14H1.5C0.671573 14 0 13.3284 0 12.5V1.5C0 0.671573 0.671573 0 1.5 0H12.5ZM1 12.5C1 12.7761 1.22386 13 1.5 13H12.5C12.7761 13 13 12.7761 13 12.5V4H1V12.5ZM7.66699 6.07617C8.11512 5.85212 8.59094 5.82979 9.01855 5.95801C9.85561 6.20913 10.4999 7.02988 10.5 8C10.4999 9.26534 9.55751 10.1459 8.77734 10.666C8.37207 10.9362 7.97031 11.1369 7.67188 11.2695C7.52198 11.3362 7.39596 11.3859 7.30664 11.4199C7.26205 11.4369 7.22641 11.45 7.20117 11.459C7.18856 11.4635 7.17814 11.4672 7.1709 11.4697C7.16746 11.4709 7.16424 11.4719 7.16211 11.4727L7.16016 11.4736H7.1582V11.4746C7.05559 11.5088 6.94441 11.5088 6.8418 11.4746V11.4736H6.83984L6.83789 11.4727C6.83576 11.4719 6.83254 11.4709 6.8291 11.4697C6.82186 11.4672 6.81144 11.4635 6.79883 11.459C6.77359 11.45 6.73795 11.4369 6.69336 11.4199C6.60404 11.3859 6.47802 11.3362 6.32812 11.2695C6.02969 11.1369 5.62793 10.9362 5.22266 10.666C4.44249 10.1459 3.50006 9.26534 3.5 8C3.50005 7.02988 4.14439 6.20913 4.98145 5.95801C5.40906 5.82979 5.88488 5.85212 6.33301 6.07617C6.57658 6.19797 6.79957 6.37529 7 6.60352C7.20043 6.37529 7.42342 6.19797 7.66699 6.07617ZM8.73145 6.91602C8.53417 6.85684 8.32224 6.86673 8.11426 6.9707C7.90346 7.07611 7.66025 7.29771 7.44727 7.72363C7.36255 7.89297 7.18935 8 7 8C6.81065 8 6.63745 7.89297 6.55273 7.72363C6.33975 7.29771 6.09654 7.07611 5.88574 6.9707C5.67776 6.86673 5.46583 6.85684 5.26855 6.91602C4.85569 7.03989 4.50005 7.47025 4.5 8C4.50006 8.7345 5.05761 9.35415 5.77734 9.83398C6.12199 10.0637 6.47035 10.2381 6.73438 10.3555C6.83893 10.4019 6.92985 10.4373 7 10.4648C7.07015 10.4373 7.16107 10.4019 7.26562 10.3555C7.52965 10.2381 7.87801 10.0637 8.22266 9.83398C8.94239 9.35415 9.49994 8.7345 9.5 8C9.49995 7.47025 9.14431 7.03989 8.73145 6.91602ZM1.5 1C1.22386 1 1 1.22386 1 1.5V3H13V1.5C13 1.22386 12.7761 1 12.5 1H1.5Z" fill="currentColor"/>
</g>
</svg>
