<svg preserveAspectRatio="none" width="100%" height="100%" overflow="visible" style="display: block;" viewBox="0 0 14 14" fill="none" xmlns="http://www.w3.org/2000/svg">
<g id="Group">
<path id="Union" d="M7.00781 0.000978411C7.58487 -0.00718438 8.15831 0.0959427 8.69531 0.307619C9.23731 0.5213 9.73165 0.840055 10.1504 1.24512C10.5692 1.65028 10.9042 2.13422 11.1357 2.66895C11.3673 3.2038 11.4912 3.77957 11.5 4.36231V5H12.5C12.8978 5 13.2792 5.15815 13.5605 5.43945C13.8417 5.72074 14 6.10226 14 6.5V8.5C13.9999 8.8977 13.8418 9.27933 13.5605 9.56055C13.2793 9.84174 12.8977 10 12.5 10H11.5V10.25C11.4999 10.9129 11.2363 11.5488 10.7676 12.0176C10.4028 12.3822 9.93654 12.6202 9.43555 12.709C9.35608 13.0004 9.20461 13.27 8.9873 13.4873C8.65913 13.8154 8.21404 14 7.75 14H6.25C5.78596 14 5.34087 13.8154 5.0127 13.4873C4.68459 13.1592 4.5001 12.714 4.5 12.25C4.5 11.786 4.68462 11.3409 5.0127 11.0127C5.34088 10.6845 5.78587 10.5 6.25 10.5H7.75C8.21413 10.5 8.65912 10.6845 8.9873 11.0127C9.17972 11.2052 9.32088 11.4383 9.40625 11.6914C9.65112 11.6224 9.87741 11.4936 10.0605 11.3105C10.3418 11.0293 10.4999 10.6477 10.5 10.25V4.37695C10.4932 3.92585 10.397 3.48045 10.2178 3.06641C10.0385 2.65238 9.77933 2.27758 9.45508 1.96387C9.13082 1.6502 8.74784 1.40373 8.32812 1.23828C7.90833 1.07281 7.45995 0.991913 7.00879 1L7 0.500002L6.99121 1C6.54005 0.991913 6.09167 1.07281 5.67188 1.23828C5.25216 1.40373 4.86918 1.6502 4.54492 1.96387C4.22067 2.27758 3.96148 2.65238 3.78223 3.06641C3.60301 3.48045 3.50685 3.92585 3.5 4.37695V9C3.4999 9.26509 3.39448 9.51958 3.20703 9.70703C3.01951 9.89446 2.76513 10 2.5 10H1.5C1.10226 10 0.72074 9.84174 0.439453 9.56055C0.158235 9.27933 9.6517e-05 8.8977 0 8.5V6.5C0 6.10226 0.158263 5.72074 0.439453 5.43945C0.720757 5.15815 1.10218 5 1.5 5H2.5V4.36231L2.50879 4.14356C2.54157 3.63589 2.66174 3.13681 2.86426 2.66895C3.09577 2.13422 3.43083 1.65028 3.84961 1.24512C4.26835 0.840055 4.76269 0.5213 5.30469 0.307619C5.84139 0.0960621 6.41449 -0.00705253 6.99121 0.000978411V1.84847e-06C6.99413 -5.04546e-05 6.99708 0.00102493 7 0.000978411C7.00292 0.00102493 7.00587 -5.04546e-05 7.00879 1.84847e-06L7.00781 0.000978411ZM6.25 11.5C6.05109 11.5 5.86038 11.5791 5.71973 11.7197C5.57919 11.8604 5.5 12.0512 5.5 12.25C5.5001 12.4488 5.57916 12.6397 5.71973 12.7803C5.86036 12.9208 6.05117 13 6.25 13H7.75C7.94883 13 8.13964 12.9208 8.28027 12.7803C8.42084 12.6397 8.4999 12.4488 8.5 12.25C8.5 12.0512 8.42081 11.8604 8.28027 11.7197C8.13962 11.5791 7.94891 11.5 7.75 11.5H6.25ZM1.5 6C1.36739 6 1.24025 6.05272 1.14648 6.14649C1.05283 6.24024 1 6.36748 1 6.5V8.5C1.0001 8.63248 1.0528 8.75984 1.14648 8.85352C1.24024 8.94717 1.36748 9 1.5 9H2.5V6H1.5ZM11.5 9H12.5C12.6325 9 12.7598 8.94717 12.8535 8.85352C12.9472 8.75983 12.9999 8.63248 13 8.5V6.5C13 6.36748 12.9472 6.24024 12.8535 6.14649C12.7597 6.05272 12.6326 6 12.5 6H11.5V9Z" fill="currentColor"/>
</g>
</svg>
