<svg preserveAspectRatio="none" width="100%" height="100%" overflow="visible" style="display: block;" viewBox="0 0 13.9394 13.9394" fill="none" xmlns="http://www.w3.org/2000/svg">
<g id="Group">
<path id="Union" d="M0.146447 0.146447C0.341709 -0.0488155 0.658216 -0.0488155 0.853478 0.146447L2.46188 1.75485C2.47589 1.75246 2.48971 1.74876 2.50387 1.74703V1.74508L6.34371 1.15524L6.37789 1.15133C6.47362 1.14338 6.57043 1.15202 6.66305 1.17574L6.75485 1.20406L6.84176 1.24313C6.92364 1.2851 6.99776 1.34127 7.06246 1.40719L7.06344 1.40621L13.5732 7.91598L13.6562 8.00777C13.8382 8.23009 13.9394 8.50995 13.9394 8.79977C13.9394 9.13093 13.8072 9.44824 13.5732 9.68258L13.2197 9.33004L13.5732 9.68356L9.68356 13.5732H9.68258C9.44825 13.8072 9.13091 13.9394 8.79977 13.9394C8.50997 13.9393 8.23007 13.8382 8.00777 13.6562L7.91598 13.5732L1.40621 7.06344L1.40719 7.06246C1.31855 6.97546 1.24819 6.87104 1.20406 6.75485C1.15869 6.63508 1.14074 6.50553 1.15133 6.37789L1.15524 6.34371L1.74508 2.50387H1.74703C1.74876 2.48971 1.75246 2.47589 1.75485 2.46188L0.146447 0.853478C-0.0488155 0.658216 -0.0488155 0.341709 0.146447 0.146447ZM3.33492 2.62789L4.35348 3.64645C4.5487 3.84171 4.54873 4.15823 4.35348 4.35348C4.15823 4.54873 3.84171 4.5487 3.64645 4.35348L2.62789 3.33492L2.15719 6.40035L8.62301 12.8662L8.6611 12.8974C8.70171 12.9244 8.75029 12.9393 8.79977 12.9394C8.86593 12.9394 8.92969 12.9129 8.97652 12.8662L12.8662 8.97652C12.9129 8.92968 12.9394 8.86595 12.9394 8.79977C12.9394 8.75026 12.9244 8.70173 12.8974 8.6611L12.8662 8.62301L6.40035 2.15719L3.33492 2.62789Z" fill="currentColor"/>
</g>
</svg>
