<svg width="105" height="105" viewBox="0 0 105 105" fill="none" xmlns="http://www.w3.org/2000/svg">
<path d="M0 52.5C0 81.494 23.506 105 52.5 105C81.494 105 105 81.494 105 52.5C105 23.506 81.494 0 52.5 0C23.506 0 0 23.5037 0 52.5Z" fill="url(#paint0_linear_8638_10024)"/>
<g filter="url(#filter0_i_8638_10024)">
<path fill-rule="evenodd" clip-rule="evenodd" d="M52.4993 93.3337C29.9477 93.3337 11.666 75.052 11.666 52.5003C11.666 29.9487 29.9477 11.667 52.4993 11.667C75.051 11.667 93.3327 29.9487 93.3327 52.5003C93.3327 75.052 75.051 93.3337 52.4993 93.3337ZM46.666 25.562C47.5943 25.562 48.4845 25.9307 49.1409 26.5871C49.7973 27.2435 50.166 28.1337 50.166 29.062V32.5713C51.3257 32.5667 52.5063 32.5643 53.666 32.5643V29.062C53.666 28.1337 54.0348 27.2435 54.6911 26.5871C55.3475 25.9307 56.2378 25.562 57.166 25.562C58.0943 25.562 58.9845 25.9307 59.6409 26.5871C60.2973 27.2435 60.666 28.1337 60.666 29.062V33.6587C61.3582 33.9387 62.0225 34.2739 62.6587 34.6643C65.0807 36.1693 67.0453 38.5983 67.5073 41.9327C67.7284 43.5274 67.7158 45.1459 67.47 46.737C67.2832 47.9955 66.8588 49.2071 66.2193 50.307C68.8163 51.525 71.061 53.6367 71.894 57.0083C72.16 58.0817 72.3327 59.267 72.3327 60.5387C72.3327 61.892 72.1367 63.152 71.8427 64.2767C70.3727 69.8883 64.9827 71.9603 60.666 72.203V75.7287C60.666 76.6569 60.2973 77.5472 59.6409 78.2035C58.9845 78.8599 58.0943 79.2287 57.166 79.2287C56.2378 79.2287 55.3475 78.8599 54.6911 78.2035C54.0348 77.5472 53.666 76.6569 53.666 75.7287V72.217L50.166 72.2007V75.7287C50.166 76.6569 49.7973 77.5472 49.1409 78.2035C48.4845 78.8599 47.5943 79.2287 46.666 79.2287C45.7378 79.2287 44.8475 78.8599 44.1911 78.2035C43.5348 77.5472 43.166 76.6569 43.166 75.7287V72.154L41.276 72.1423C40.7829 72.2053 40.2821 72.1625 39.8069 72.0168C39.3316 71.8711 38.8929 71.6259 38.5198 71.2974C38.1467 70.9689 37.8479 70.5647 37.6432 70.1118C37.4385 69.6588 37.3327 69.1674 37.3327 68.6703V36.062C37.3327 35.5568 37.4421 35.0576 37.6534 34.5987C37.8646 34.1398 38.1727 33.7321 38.5564 33.4035C38.9402 33.075 39.3905 32.8334 39.8765 32.6954C40.3624 32.5574 40.8725 32.5262 41.3717 32.604L43.166 32.597V29.062C43.166 28.1337 43.5348 27.2435 44.1911 26.5871C44.8475 25.9307 45.7378 25.562 46.666 25.562ZM44.3327 65.1587L45.406 65.168C49.4893 65.1983 55.2457 65.238 59.8237 65.2263C62.99 65.2193 64.7097 63.88 65.069 62.508C65.2416 61.8657 65.3302 61.2037 65.3327 60.5387C65.3303 59.9139 65.252 59.2918 65.0993 58.686C64.7493 57.2813 62.976 55.9 59.6627 55.8953C55.1243 55.8907 49.3493 55.9117 45.2987 55.9257L44.3327 55.928V65.1587ZM54.8 39.562C56.4333 39.562 57.9267 39.9657 58.965 40.612C59.9403 41.2187 60.4443 41.9653 60.575 42.894C60.7023 43.8158 60.6945 44.7512 60.5517 45.6707C60.3043 47.2713 58.4633 48.8977 55.0053 48.8953C52.2567 48.8953 49.1673 48.872 46.5353 48.8487L44.3327 48.8323V39.5923H44.4143C47.3403 39.5807 51.4097 39.5643 54.8 39.562Z" fill="url(#paint1_linear_8638_10024)"/>
</g>
<defs>
<filter id="filter0_i_8638_10024" x="11.666" y="11.667" width="81.666" height="82.667" filterUnits="userSpaceOnUse" color-interpolation-filters="sRGB">
<feFlood flood-opacity="0" result="BackgroundImageFix"/>
<feBlend mode="normal" in="SourceGraphic" in2="BackgroundImageFix" result="shape"/>
<feColorMatrix in="SourceAlpha" type="matrix" values="0 0 0 0 0 0 0 0 0 0 0 0 0 0 0 0 0 0 127 0" result="hardAlpha"/>
<feOffset dy="1"/>
<feGaussianBlur stdDeviation="1"/>
<feComposite in2="hardAlpha" operator="arithmetic" k2="-1" k3="1"/>
<feColorMatrix type="matrix" values="0 0 0 0 0 0 0 0 0 0 0 0 0 0 0 0 0 0 0.2 0"/>
<feBlend mode="normal" in2="shape" result="effect1_innerShadow_8638_10024"/>
</filter>
<linearGradient id="paint0_linear_8638_10024" x1="85.1667" y1="17.3952" x2="-15.1667" y2="106.062" gradientUnits="userSpaceOnUse">
<stop stop-color="#DFFFF7"/>
<stop offset="1" stop-color="#00CC99"/>
</linearGradient>
<linearGradient id="paint1_linear_8638_10024" x1="57.166" y1="36.0622" x2="64.166" y2="124.729" gradientUnits="userSpaceOnUse">
<stop stop-color="#00CC99"/>
<stop offset="1" stop-color="#00926E"/>
</linearGradient>
</defs>
</svg>
