<svg width="30" height="30" viewBox="0 0 30 30" fill="none" xmlns="http://www.w3.org/2000/svg">
<path d="M0 15C0 23.284 6.716 30 15 30C23.284 30 30 23.284 30 15C30 6.716 23.284 0 15 0C6.716 0 0 6.71533 0 15Z" fill="url(#paint0_linear_8638_9396)"/>
<g filter="url(#filter0_i_8638_9396)">
<path fill-rule="evenodd" clip-rule="evenodd" d="M15.0007 26.6663C8.55732 26.6663 3.33398 21.443 3.33398 14.9997C3.33398 8.55634 8.55732 3.33301 15.0007 3.33301C21.444 3.33301 26.6673 8.55634 26.6673 14.9997C26.6673 21.443 21.444 26.6663 15.0007 26.6663ZM13.334 7.30301C13.5992 7.30301 13.8536 7.40836 14.0411 7.5959C14.2286 7.78344 14.334 8.03779 14.334 8.30301V9.30567C14.6653 9.30434 15.0027 9.30367 15.334 9.30367V8.30301C15.334 8.03779 15.4393 7.78344 15.6269 7.5959C15.8144 7.40836 16.0688 7.30301 16.334 7.30301C16.5992 7.30301 16.8536 7.40836 17.0411 7.5959C17.2286 7.78344 17.334 8.03779 17.334 8.30301V9.61634C17.5318 9.69634 17.7215 9.79212 17.9033 9.90367C18.5953 10.3337 19.1567 11.0277 19.2887 11.9803C19.3518 12.436 19.3482 12.8984 19.278 13.353C19.2246 13.7126 19.1034 14.0587 18.9207 14.373C19.6627 14.721 20.304 15.3243 20.542 16.2877C20.618 16.5943 20.6673 16.933 20.6673 17.2963C20.6673 17.683 20.6113 18.043 20.5273 18.3643C20.1073 19.9677 18.5673 20.5597 17.334 20.629V21.6363C17.334 21.9016 17.2286 22.1559 17.0411 22.3434C16.8536 22.531 16.5992 22.6363 16.334 22.6363C16.0688 22.6363 15.8144 22.531 15.6269 22.3434C15.4393 22.1559 15.334 21.9016 15.334 21.6363V20.633L14.334 20.6283V21.6363C14.334 21.9016 14.2286 22.1559 14.0411 22.3434C13.8536 22.531 13.5992 22.6363 13.334 22.6363C13.0688 22.6363 12.8144 22.531 12.6269 22.3434C12.4393 22.1559 12.334 21.9016 12.334 21.6363V20.615L11.794 20.6117C11.6531 20.6297 11.51 20.6174 11.3742 20.5758C11.2384 20.5342 11.1131 20.4641 11.0065 20.3703C10.8999 20.2764 10.8145 20.1609 10.756 20.0315C10.6976 19.9021 10.6673 19.7617 10.6673 19.6197V10.303C10.6673 10.1587 10.6986 10.016 10.7589 9.88493C10.8193 9.75382 10.9073 9.63732 11.017 9.54345C11.1266 9.44958 11.2553 9.38056 11.3941 9.34112C11.533 9.30169 11.6787 9.29278 11.8213 9.31501L12.334 9.31301V8.30301C12.334 8.03779 12.4393 7.78344 12.6269 7.5959C12.8144 7.40836 13.0688 7.30301 13.334 7.30301ZM12.6673 18.6163L12.974 18.619C14.1407 18.6277 15.7853 18.639 17.0933 18.6357C17.998 18.6337 18.4893 18.251 18.592 17.859C18.6413 17.6755 18.6666 17.4864 18.6673 17.2963C18.6667 17.1178 18.6443 16.9401 18.6007 16.767C18.5007 16.3657 17.994 15.971 17.0473 15.9697C15.7507 15.9683 14.1007 15.9743 12.9433 15.9783L12.6673 15.979V18.6163ZM15.658 11.303C16.1247 11.303 16.5513 11.4183 16.848 11.603C17.1267 11.7763 17.2707 11.9897 17.308 12.255C17.3444 12.5184 17.3421 12.7856 17.3013 13.0483C17.2307 13.5057 16.7047 13.9703 15.7167 13.9697C14.9313 13.9697 14.0487 13.963 13.2967 13.9563L12.6673 13.9517V11.3117H12.6907C13.5267 11.3083 14.6893 11.3037 15.658 11.303Z" fill="url(#paint1_linear_8638_9396)"/>
</g>
<defs>
<filter id="filter0_i_8638_9396" x="3.33398" y="3.33301" width="23.334" height="24.333" filterUnits="userSpaceOnUse" color-interpolation-filters="sRGB">
<feFlood flood-opacity="0" result="BackgroundImageFix"/>
<feBlend mode="normal" in="SourceGraphic" in2="BackgroundImageFix" result="shape"/>
<feColorMatrix in="SourceAlpha" type="matrix" values="0 0 0 0 0 0 0 0 0 0 0 0 0 0 0 0 0 0 127 0" result="hardAlpha"/>
<feOffset dy="1"/>
<feGaussianBlur stdDeviation="1"/>
<feComposite in2="hardAlpha" operator="arithmetic" k2="-1" k3="1"/>
<feColorMatrix type="matrix" values="0 0 0 0 0 0 0 0 0 0 0 0 0 0 0 0 0 0 0.2 0"/>
<feBlend mode="normal" in2="shape" result="effect1_innerShadow_8638_9396"/>
</filter>
<linearGradient id="paint0_linear_8638_9396" x1="24.3333" y1="4.97005" x2="-4.33333" y2="30.3034" gradientUnits="userSpaceOnUse">
<stop stop-color="white"/>
<stop offset="1" stop-color="#DEDDDD"/>
</linearGradient>
<linearGradient id="paint1_linear_8638_9396" x1="16.334" y1="10.3031" x2="18.334" y2="35.6364" gradientUnits="userSpaceOnUse">
<stop stop-color="#EBEBEB"/>
<stop offset="1" stop-color="#ABA8A8"/>
</linearGradient>
</defs>
</svg>
