<svg width="495" height="303" viewBox="0 0 495 303" fill="none" xmlns="http://www.w3.org/2000/svg">
<g filter="url(#filter0_d_20_610)">
<g clip-path="url(#clip0_20_610)">
<path d="M22.9 34.9C22.9 26.0635 30.0635 18.9 38.9 18.9H455.9C464.737 18.9 471.9 26.0635 471.9 34.9V259.9C471.9 268.737 464.737 275.9 455.9 275.9H38.9C30.0635 275.9 22.9 268.737 22.9 259.9V34.9Z" fill="#00B14F"/>
<path d="M22.9 34.9C22.9 26.0635 30.0635 18.9 38.9 18.9H455.9C464.737 18.9 471.9 26.0635 471.9 34.9V259.9C471.9 268.737 464.737 275.9 455.9 275.9H38.9C30.0635 275.9 22.9 268.737 22.9 259.9V34.9Z" fill="url(#paint0_radial_20_610)"/>
<g clip-path="url(#clip1_20_610)">
<path d="M400.233 520.827C550.087 520.827 671.567 399.353 671.567 249.506C671.567 99.6598 550.087 -21.8148 400.233 -21.8148C250.38 -21.8148 128.9 99.6598 128.9 249.506C128.9 399.353 250.38 520.827 400.233 520.827Z" fill="white" fill-opacity="0.1"/>
<path d="M476.093 557.296C625.946 557.296 747.426 435.822 747.426 285.975C747.426 136.129 625.946 14.6539 476.093 14.6539C326.239 14.6539 204.759 136.129 204.759 285.975C204.759 435.822 326.239 557.296 476.093 557.296Z" fill="white" fill-opacity="0.2"/>
<path d="M550.487 618.562C700.341 618.562 821.821 497.087 821.821 347.241C821.821 197.394 700.341 75.9196 550.487 75.9196C400.634 75.9196 279.154 197.394 279.154 347.241C279.154 497.087 400.634 618.562 550.487 618.562Z" fill="white" fill-opacity="0.4"/>
</g>
</g>
</g>
<defs>
<filter id="filter0_d_20_610" x="2.47955e-05" y="2.47955e-05" width="494.8" height="302.8" filterUnits="userSpaceOnUse" color-interpolation-filters="sRGB">
<feFlood flood-opacity="0" result="BackgroundImageFix"/>
<feColorMatrix in="SourceAlpha" type="matrix" values="0 0 0 0 0 0 0 0 0 0 0 0 0 0 0 0 0 0 127 0" result="hardAlpha"/>
<feOffset dy="4"/>
<feGaussianBlur stdDeviation="11.45"/>
<feColorMatrix type="matrix" values="0 0 0 0 0 0 0 0 0 0 0 0 0 0 0 0 0 0 0.05 0"/>
<feBlend mode="normal" in2="BackgroundImageFix" result="effect1_dropShadow_20_610"/>
<feBlend mode="normal" in="SourceGraphic" in2="effect1_dropShadow_20_610" result="shape"/>
</filter>
<radialGradient id="paint0_radial_20_610" cx="0" cy="0" r="1" gradientTransform="matrix(-479.301 244.808 -477.557 -249.853 465.796 59.9393)" gradientUnits="userSpaceOnUse">
<stop stop-color="#9FFD88"/>
<stop offset="0.470937" stop-color="white"/>
</radialGradient>
<clipPath id="clip0_20_610">
<path d="M22.9 34.9C22.9 26.0635 30.0635 18.9 38.9 18.9H455.9C464.737 18.9 471.9 26.0635 471.9 34.9V259.9C471.9 268.737 464.737 275.9 455.9 275.9H38.9C30.0635 275.9 22.9 268.737 22.9 259.9V34.9Z" fill="white"/>
</clipPath>
<clipPath id="clip1_20_610">
<rect width="407" height="318" fill="white" transform="translate(128.9 5.90002)"/>
</clipPath>
</defs>
</svg>
