<svg preserveAspectRatio="none" width="100%" height="100%" overflow="visible" style="display: block;" viewBox="0 0 134 134" fill="none" xmlns="http://www.w3.org/2000/svg">
<g id="Group">
<path id="Vector" d="M109.743 133.834H16.4244V37.262C16.4244 16.7156 32.9973 0 53.3682 0H72.7989C93.1698 0 109.743 16.7156 109.743 37.262V133.834Z" fill="var(--fill-0, #E4E4E4)"/>
<path id="Vector_2" d="M90.3122 133.834H16.4245V37.2619C16.4042 29.389 18.8759 21.7151 23.4799 15.3575C23.6495 15.1242 23.8189 14.8939 23.9934 14.6662C26.2203 11.7202 28.8704 9.12584 31.8562 6.96855C32.0249 6.84472 32.1943 6.72308 32.3661 6.60145C34.8646 4.85758 37.5672 3.432 40.4125 2.35716C40.5815 2.29262 40.7535 2.22792 40.9256 2.16575C43.4989 1.23935 46.1665 0.604735 48.879 0.273613C49.0465 0.250469 49.2199 0.232394 49.3924 0.214148C52.0357 -0.0709162 54.7017 -0.0709162 57.345 0.214148C57.5172 0.232225 57.6899 0.25047 57.8599 0.273784C60.5717 0.605004 63.2385 1.23962 65.8112 2.16592C65.9832 2.22792 66.1554 2.29262 66.3247 2.35749C69.1351 3.4187 71.8061 4.82296 74.2782 6.53894C74.4499 6.6572 74.6217 6.77951 74.791 6.90115C76.4646 8.10612 78.0366 9.44853 79.491 10.9147C80.6574 12.0906 81.7443 13.3442 82.7443 14.6668C82.9184 14.8939 83.0875 15.1242 83.257 15.3571C87.8612 21.7148 90.333 29.3889 90.3127 37.2619L90.3122 133.834Z" fill="var(--fill-0, #EF476F)"/>
<path id="Vector_3" d="M84.3048 66.7882C86.564 66.7882 88.3954 64.941 88.3954 62.6623C88.3954 60.3837 86.564 58.5365 84.3048 58.5365C82.0456 58.5365 80.2142 60.3837 80.2142 62.6623C80.2142 64.941 82.0456 66.7882 84.3048 66.7882Z" fill="var(--fill-0, #83F2D6)"/>
<path id="Vector_4" d="M133.784 134H0.215398C0.0964752 134 0 133.862 0 133.693C0 133.524 0.0964752 133.386 0.215398 133.386H133.784C133.903 133.386 134 133.523 134 133.693C134 133.863 133.904 134 133.784 134Z" fill="var(--fill-0, #3B3B3B)"/>
<path id="Vector_5" d="M69.9856 105.855H36.7491C36.3114 105.858 35.8906 105.685 35.579 105.375C35.2675 105.064 35.0906 104.642 35.0872 104.201V29.3751C35.0906 28.9337 35.2675 28.5116 35.579 28.2015C35.8905 27.8914 36.3112 27.7185 36.7489 27.7209H69.9856C70.4233 27.7185 70.8441 27.8914 71.1556 28.2015C71.4671 28.5116 71.644 28.9337 71.6474 29.3751V104.201C71.644 104.642 71.4671 105.064 71.1555 105.375C70.844 105.685 70.4233 105.858 69.9856 105.855Z" fill="var(--fill-0, #EAF4FF)"/>
<path id="Vector_6" d="M71.6475 51.9323H35.0872V52.4481H71.6475V51.9323Z" fill="var(--fill-0, #0064D6)"/>
<path id="Vector_7" d="M71.7756 81.3581H35.2153V81.8739H71.7756V81.3581Z" fill="var(--fill-0, #0064D6)"/>
<path id="Vector_8" d="M47.1031 27.7212H46.5917V106.113H47.1031V27.7212Z" fill="var(--fill-0, #0064D6)"/>
<path id="Vector_9" d="M59.8883 27.7212H59.3769V106.113H59.8883V27.7212Z" fill="var(--fill-0, #0064D6)"/>
</g>
</svg>
