<svg width="233" height="238" viewBox="0 0 233 238" fill="none" xmlns="http://www.w3.org/2000/svg">
<circle cx="117.744" cy="115.222" r="115.222" fill="#E6F7ED"/>
<path d="M7.76758 142.207L7.80469 142.316L7.91211 142.359L11.9258 143.964L7.91211 145.568L7.80469 145.611L7.76758 145.721L6.30273 149.992L4.83887 145.721L4.80176 145.611L4.69434 145.568L0.679688 143.964L4.69434 142.359L4.80176 142.316L4.83887 142.207L6.30273 137.935L7.76758 142.207Z" stroke="#00612B" stroke-width="0.504255"/>
<path d="M93.7909 16.1367L95.2891 20.5534L99.3378 22.1878L95.2891 23.8221L93.7909 28.2388L92.2928 23.8221L88.2441 22.1878L92.2928 20.5534L93.7909 16.1367Z" fill="#00B14F"/>
<path d="M217.492 122.266C217.889 121.648 218.792 121.648 219.189 122.266L220.177 123.803C220.45 124.228 220.873 124.536 221.362 124.664L223.129 125.128C223.839 125.315 224.118 126.174 223.653 126.742L222.496 128.155C222.176 128.546 222.015 129.044 222.044 129.549L222.148 131.372C222.191 132.105 221.46 132.637 220.775 132.37L219.073 131.707C218.602 131.524 218.08 131.524 217.609 131.707L215.906 132.37C215.222 132.636 214.492 132.105 214.534 131.372L214.639 129.549C214.668 129.044 214.506 128.546 214.186 128.155L213.029 126.742C212.564 126.174 212.843 125.314 213.554 125.128L215.32 124.664C215.809 124.536 216.232 124.228 216.505 123.803L217.492 122.266Z" stroke="#004A21" stroke-width="1.00851"/>
<path d="M50.9297 223.57C60.215 220.165 80.37 216.725 86.7078 230.21C94.6301 247.067 50.163 229.444 82.6189 211.055C115.075 192.666 116.608 234.808 103.064 225.358C89.5189 215.908 99.7413 190.879 126.064 189.602" stroke="black" stroke-width="1.00851"/>
<path d="M171.445 43.5049C175.816 45.8581 185.665 48.0432 190.103 37.9581C195.65 25.3517 193.38 43.5049 204.978 43.5049C216.576 43.5049 208.004 21.3177 218.593 37.9581" stroke="black" stroke-width="1.00851"/>
<circle cx="140.182" cy="45.3817" r="4.03404" fill="#00B14F"/>
<path d="M112.388 50.7422C116.148 50.7424 119.597 52.8343 121.333 56.1699L127.048 67.1494H180.998C186.568 67.1497 191.083 71.6649 191.083 77.2344V81.0352H50.5332C45.6776 81.0352 41.5108 84.4955 40.6191 89.2686L33.9414 125.015V60.8271C33.9414 55.2573 38.4565 50.7422 44.0264 50.7422H112.388Z" fill="#00B14F"/>
<path d="M43.0176 91.4778C43.8921 86.6854 48.0673 83.2031 52.9389 83.2031H195.66C201.955 83.2031 206.711 88.9062 205.581 95.0987L191.963 169.728C191.088 174.521 186.913 178.003 182.042 178.003H39.3205C33.0257 178.003 28.2692 172.3 29.3992 166.108L43.0176 91.4778Z" fill="url(#paint0_linear_384_38641)"/>
<circle cx="175.078" cy="166.172" r="28.6563" fill="#656565"/>
<path d="M203.734 166.172C203.734 150.345 190.905 137.516 175.078 137.516C159.252 137.516 146.422 150.345 146.422 166.172C146.422 170.489 147.376 174.582 149.086 178.254" stroke="black" stroke-width="1.00851"/>
<path d="M174.812 149.832C175.699 149.832 176.418 150.552 176.418 151.439V164.294H189.273C190.161 164.294 190.88 165.013 190.88 165.9C190.88 166.788 190.161 167.508 189.273 167.508H176.418V180.363C176.418 181.251 175.699 181.97 174.812 181.97C173.924 181.97 173.204 181.251 173.204 180.363V167.508H160.35C159.462 167.508 158.742 166.788 158.742 165.9C158.742 165.013 159.462 164.294 160.35 164.294H173.204V151.439C173.204 150.552 173.924 149.832 174.812 149.832Z" fill="white"/>
<line x1="45.3828" y1="51.4332" x2="114.466" y2="51.4332" stroke="black" stroke-width="1.00851"/>
<defs>
<linearGradient id="paint0_linear_384_38641" x1="122.705" y1="83.2031" x2="122.705" y2="178.003" gradientUnits="userSpaceOnUse">
<stop stop-color="#54CB89"/>
<stop offset="1" stop-color="#00B14F"/>
</linearGradient>
</defs>
</svg>
