<svg width="696" height="173" viewBox="0 0 696 173" fill="none" xmlns="http://www.w3.org/2000/svg" preserveAspectRatio="none">
  <g clip-path="url(#clip0_profile_banner)">
    <rect width="696" height="173" rx="24" fill="#00CC99" />
    <rect width="696" height="173" rx="24" fill="url(#paint0_radial_profile_banner)" />
    <rect width="696" height="173" rx="24" fill="url(#paint1_linear_profile_banner)" />
    <g clip-path="url(#clip1_profile_banner)">
      <path
        d="M603 339.5C705.725 339.5 789 256.225 789 153.5C789 50.775 705.725 -32.5 603 -32.5C500.275 -32.5 417 50.775 417 153.5C417 256.225 500.275 339.5 603 339.5Z"
        fill="white"
        fill-opacity="0.1"
      />
      <path
        d="M655 364.5C757.725 364.5 841 281.225 841 178.5C841 75.775 757.725 -7.5 655 -7.5C552.275 -7.5 469 75.775 469 178.5C469 281.225 552.275 364.5 655 364.5Z"
        fill="white"
        fill-opacity="0.2"
      />
      <path
        d="M706 406.5C808.725 406.5 892 323.225 892 220.5C892 117.775 808.725 34.5 706 34.5C603.275 34.5 520 117.775 520 220.5C520 323.225 603.275 406.5 706 406.5Z"
        fill="white"
        fill-opacity="0.4"
      />
    </g>
  </g>
  <defs>
    <radialGradient
      id="paint0_radial_profile_banner"
      cx="0"
      cy="0"
      r="1"
      gradientTransform="matrix(-742.97 164.793 -740.267 -168.189 686.538 27.6257)"
      gradientUnits="userSpaceOnUse"
    >
      <stop stop-color="#00CC99" />
      <stop offset="0.470937" stop-color="white" />
    </radialGradient>
    <linearGradient
      id="paint1_linear_profile_banner"
      x1="-26.284"
      y1="0"
      x2="51.8972"
      y2="225.912"
      gradientUnits="userSpaceOnUse"
    >
      <stop stop-color="#0064D6" />
      <stop offset="1" stop-color="#00CC99" stop-opacity="0" />
    </linearGradient>
    <clipPath id="clip0_profile_banner">
      <rect width="696" height="173" rx="24" fill="white" />
    </clipPath>
    <clipPath id="clip1_profile_banner">
      <rect width="279" height="218" fill="white" transform="translate(417 -13.5)" />
    </clipPath>
  </defs>
</svg>
