<svg width="402" height="307" viewBox="0 0 402 307" fill="none" xmlns="http://www.w3.org/2000/svg">
<g filter="url(#filter0_d_9678_161514)">
<path d="M376.65 258.477C376.65 269.317 367.862 278.105 357.022 278.105H43.6287C32.7881 278.105 24 269.317 24 258.477V39.6287C24 28.7881 32.7881 20 43.6287 20H357.022C367.862 20 376.65 28.7881 376.65 39.6287V258.477Z" fill="#E4E4E4"/>
<g filter="url(#filter1_d_9678_161514)">
<g clip-path="url(#clip0_9678_161514)">
<path d="M37.1484 55.2232C37.1484 47.7944 37.1484 44.08 38.5942 41.2426C39.8659 38.7467 41.8951 36.7175 44.391 35.4457C47.2284 34 50.9428 34 58.3717 34H342.55C349.979 34 353.693 34 356.531 35.4457C359.027 36.7175 361.056 38.7467 362.327 41.2426C363.773 44.08 363.773 47.7944 363.773 55.2232V242.024C363.773 249.453 363.773 253.167 362.327 256.005C361.056 258.501 359.027 260.53 356.531 261.802C353.693 263.247 349.979 263.247 342.55 263.247H58.3717C50.9428 263.247 47.2284 263.247 44.391 261.802C41.8951 260.53 39.8659 258.501 38.5942 256.005C37.1484 253.167 37.1484 249.453 37.1484 242.024V55.2232Z" fill="#00AA80"/>
<g clip-path="url(#clip1_9678_161514)">
<path d="M90.0328 46.7969H51.6328V85.1969H90.0328V46.7969Z" fill="white"/>
<path d="M90.0328 46.7969H51.6328V85.1969H90.0328V46.7969Z" fill="white"/>
<mask id="mask0_9678_161514" style="mask-type:luminance" maskUnits="userSpaceOnUse" x="55" y="56" width="32" height="23">
<path d="M86.8354 56.1406H55.8594V78.1566H86.8354V56.1406Z" fill="white"/>
</mask>
<g mask="url(#mask0_9678_161514)">
<path d="M70.6163 63.2099C70.1923 61.4545 69.1169 60.5765 67.3909 60.5765C66.4833 60.5765 65.6309 60.8732 64.8336 61.4659C64.0363 62.0579 63.4033 62.8405 62.9349 63.8139C62.4663 64.7865 62.2323 65.7775 62.2323 66.7872C62.2323 68.0459 62.5616 69.0592 63.2203 69.8272C63.8789 70.5952 64.7643 70.9792 65.8763 70.9792C66.8859 70.9792 67.7343 70.7232 68.4216 70.2112C69.1096 69.6992 69.5633 68.9972 69.7829 68.1045H66.2709L66.8203 64.7245H75.3576C74.9769 67.0365 74.3366 68.8619 73.4363 70.2005C72.5366 71.5392 71.3953 72.5932 70.0123 73.3619C68.6299 74.1299 67.0536 74.5139 65.2829 74.5139C63.0009 74.5139 61.1686 73.8699 59.7856 72.5819C58.4023 71.2939 57.7109 69.5749 57.7109 67.4245C57.7109 65.5365 58.1569 63.7805 59.0496 62.1565C59.9429 60.5325 61.1939 59.2452 62.8029 58.2939C64.4126 57.3429 66.2196 56.8672 68.2243 56.8672C71.7209 56.8672 73.9673 58.4109 74.9629 61.4979L70.6163 63.2099Z" fill="#00AA80"/>
<mask id="mask1_9678_161514" style="mask-type:luminance" maskUnits="userSpaceOnUse" x="71" y="56" width="16" height="19">
<path d="M71.8125 56.8203H86.8312V74.5696H71.8125V56.8203Z" fill="white"/>
</mask>
<g mask="url(#mask1_9678_161514)">
<path d="M90.4125 64.0885C90.4125 65.6832 89.9515 67.3365 89.0299 69.0485C88.1079 70.7605 86.8059 72.0999 85.1232 73.0659C83.4405 74.0312 81.6332 74.5139 79.7019 74.5139C77.3755 74.5139 75.4879 73.8299 74.0392 72.4619C72.5912 71.0932 71.8672 69.2895 71.8672 67.0512C71.8672 65.2079 72.3532 63.5069 73.3259 61.9485C74.2992 60.3905 75.6235 59.1539 77.2992 58.2392C78.9745 57.3245 80.7049 56.8672 82.4899 56.8672C83.9092 56.8672 85.2372 57.1749 86.4739 57.7899C87.7102 58.4042 88.6755 59.2562 89.3699 60.3459C90.0649 61.4359 90.4125 62.6832 90.4125 64.0885ZM80.3605 70.3432C81.3559 70.3432 82.2742 70.0692 83.1152 69.5205C83.9569 68.9712 84.6262 68.2615 85.1232 67.3912C85.6209 66.5212 85.8699 65.6615 85.8699 64.8125C85.8699 63.7592 85.4712 62.8669 84.6739 62.1352C83.8765 61.4029 82.9219 61.0365 81.8099 61.0365C80.9459 61.0365 80.0892 61.2709 79.2405 61.7392C78.3925 62.2079 77.7085 62.8372 77.1885 63.6272C76.6692 64.4175 76.4099 65.2952 76.4099 66.2605C76.4099 67.4465 76.7792 68.4232 77.5179 69.1912C78.2572 69.9592 79.2049 70.3432 80.3605 70.3432Z" fill="#00AA80"/>
</g>
</g>
</g>
<path d="M307.852 60.3722L304.58 73H302.087L300.088 65.7487C300.041 65.5719 299.988 65.3537 299.929 65.0943C299.87 64.835 299.805 64.5697 299.734 64.2985C299.675 64.0155 299.622 63.7561 299.575 63.5203C299.528 63.2727 299.499 63.0899 299.487 62.972C299.475 63.0899 299.446 63.2727 299.398 63.5203C299.351 63.7561 299.298 64.0155 299.239 64.2985C299.18 64.5697 299.121 64.8408 299.062 65.112C299.003 65.3714 298.944 65.5955 298.885 65.7841L296.94 73H294.429L291.174 60.3722H293.438L295.171 67.5704C295.23 67.8062 295.289 68.0656 295.348 68.3486C295.407 68.6198 295.466 68.9027 295.525 69.1975C295.584 69.4805 295.637 69.7635 295.684 70.0464C295.731 70.3176 295.767 70.5593 295.79 70.7716C295.814 70.5475 295.849 70.2999 295.897 70.0287C295.944 69.7458 295.997 69.4628 296.056 69.1798C296.115 68.8851 296.174 68.608 296.233 68.3486C296.292 68.0774 296.35 67.8475 296.409 67.6588L298.39 60.3722H300.583L302.6 67.6765C302.658 67.8769 302.717 68.1128 302.776 68.3839C302.847 68.6433 302.912 68.9204 302.971 69.2152C303.03 69.4982 303.077 69.7752 303.112 70.0464C303.16 70.3176 303.201 70.5593 303.236 70.7716C303.272 70.4768 303.319 70.1408 303.378 69.7635C303.448 69.3862 303.525 69.003 303.608 68.6139C303.702 68.2248 303.785 67.8769 303.855 67.5704L305.588 60.3722H307.852ZM312.85 63.2373C314.088 63.2373 315.026 63.5085 315.662 64.0509C316.311 64.5815 316.635 65.4186 316.635 66.5623V73H315.061L314.619 71.6735H314.548C314.277 72.0155 313.994 72.3043 313.699 72.5402C313.416 72.7642 313.086 72.9234 312.709 73.0177C312.343 73.1238 311.895 73.1769 311.365 73.1769C310.799 73.1769 310.286 73.0707 309.826 72.8585C309.378 72.6463 309.024 72.322 308.765 71.8858C308.505 71.4377 308.376 70.8777 308.376 70.2056C308.376 69.2152 308.735 68.4724 309.455 67.9772C310.186 67.4702 311.288 67.1931 312.762 67.1459L314.424 67.0929V66.6153C314.424 66.0022 314.277 65.566 313.982 65.3066C313.687 65.0472 313.275 64.9175 312.744 64.9175C312.261 64.9175 311.795 64.9882 311.347 65.1297C310.899 65.2712 310.463 65.4363 310.038 65.6249L309.331 64.0686C309.802 63.821 310.339 63.6205 310.94 63.4672C311.553 63.314 312.19 63.2373 312.85 63.2373ZM313.257 68.5078C312.278 68.5431 311.6 68.7141 311.223 69.0206C310.846 69.3154 310.657 69.7163 310.657 70.2233C310.657 70.6713 310.793 70.9956 311.064 71.196C311.335 71.3965 311.683 71.4967 312.107 71.4967C312.756 71.4967 313.304 71.3139 313.752 70.9484C314.2 70.5711 314.424 70.017 314.424 69.2859V68.4724L313.257 68.5078ZM321.656 73H319.428V59.5586H321.656V73ZM326.734 73H324.505V59.5586H326.734V73ZM333.439 63.2373C334.299 63.2373 335.036 63.4142 335.649 63.7679C336.274 64.1098 336.758 64.605 337.1 65.2535C337.442 65.8902 337.613 66.6684 337.613 67.5881V68.72H331.281C331.305 69.5925 331.546 70.2705 332.006 70.7539C332.466 71.2255 333.103 71.4613 333.916 71.4613C334.541 71.4613 335.095 71.4024 335.579 71.2845C336.074 71.1548 336.581 70.972 337.1 70.7362V72.5225C336.628 72.7465 336.139 72.9116 335.632 73.0177C335.125 73.1238 334.518 73.1769 333.81 73.1769C332.879 73.1769 332.047 73 331.316 72.6463C330.597 72.2808 330.031 71.7325 329.619 71.0015C329.218 70.2705 329.017 69.3626 329.017 68.2778C329.017 67.1813 329.2 66.2616 329.565 65.5188C329.943 64.7642 330.462 64.1983 331.122 63.821C331.782 63.4319 332.554 63.2373 333.439 63.2373ZM333.439 64.8821C332.849 64.8821 332.366 65.0767 331.988 65.4658C331.623 65.8431 331.405 66.409 331.334 67.1636H335.455C335.455 66.7156 335.378 66.3206 335.225 65.9786C335.084 65.6367 334.865 65.3714 334.571 65.1828C334.276 64.9823 333.899 64.8821 333.439 64.8821ZM343.574 71.3906C343.857 71.3906 344.128 71.367 344.387 71.3198C344.647 71.2609 344.888 71.196 345.112 71.1253V72.7878C344.877 72.8939 344.57 72.9823 344.193 73.0531C343.815 73.1356 343.42 73.1769 343.008 73.1769C342.465 73.1769 341.97 73.0884 341.522 72.9116C341.086 72.7229 340.732 72.4046 340.461 71.9565C340.202 71.5085 340.072 70.8836 340.072 70.0818V65.0943H338.781V64.1216L340.196 63.3434L340.903 61.3095H342.3V63.4142H345.024V65.0943H342.3V70.0641C342.3 70.5122 342.418 70.8482 342.654 71.0722C342.89 71.2845 343.196 71.3906 343.574 71.3906Z" fill="white"/>
</g>
</g>
<mask id="mask2_9678_161514" style="mask-type:alpha" maskUnits="userSpaceOnUse" x="24" y="103" width="353" height="175">
<path d="M376.323 257.699C376.323 268.54 367.535 277.328 356.695 277.328H43.9569C33.1162 277.328 24.3281 268.54 24.3281 257.699V122.957C24.3281 112.116 33.1162 103.328 43.9568 103.328H137.29C146.002 103.328 153.379 110.423 161.224 114.21C163.532 115.325 166.121 115.949 168.856 115.949H231.793C234.528 115.949 237.117 115.325 239.425 114.21C247.271 110.423 254.647 103.328 263.359 103.328H356.695C367.535 103.328 376.323 112.116 376.323 122.957V257.699Z" fill="white"/>
</mask>
<g mask="url(#mask2_9678_161514)">
<foreignObject x="7.99427" y="86.9943" width="385.121" height="206.715"><div xmlns="http://www.w3.org/1999/xhtml" style="backdrop-filter:blur(8.17px);clip-path:url(#bgblur_2_9678_161514_clip_path);height:100%;width:100%"></div></foreignObject><rect data-figma-bg-blur-radius="16.3339" x="24.3281" y="103.328" width="352.452" height="174.043" fill="white" fill-opacity="0.2"/>
<g filter="url(#filter3_f_9678_161514)">
<ellipse cx="76.1829" cy="142.091" rx="85.4719" ry="65.0835" fill="white" fill-opacity="0.4"/>
</g>
<g filter="url(#filter4_f_9678_161514)">
<ellipse cx="261.053" cy="244.099" rx="138.772" ry="105.669" fill="#E4E4E4" fill-opacity="0.8"/>
</g>
<g filter="url(#filter5_f_9678_161514)">
<ellipse cx="86.7462" cy="255.429" rx="122.926" ry="70.2024" fill="white" fill-opacity="0.92"/>
</g>
<g filter="url(#filter6_f_9678_161514)">
<circle cx="199.784" cy="207.901" r="207.682" fill="url(#paint0_linear_9678_161514)" fill-opacity="0.4" style="mix-blend-mode:overlay"/>
</g>
<g filter="url(#filter7_f_9678_161514)">
<ellipse cx="92.7116" cy="73.3288" rx="92.7116" ry="73.3288" transform="matrix(0.979813 0.199914 -0.331937 0.943302 271.648 2.44531)" fill="#E4E4E4" fill-opacity="0.65"/>
</g>
</g>
</g>
<defs>
<filter id="filter0_d_9678_161514" x="0" y="0" width="401.305" height="306.109" filterUnits="userSpaceOnUse" color-interpolation-filters="sRGB">
<feFlood flood-opacity="0" result="BackgroundImageFix"/>
<feColorMatrix in="SourceAlpha" type="matrix" values="0 0 0 0 0 0 0 0 0 0 0 0 0 0 0 0 0 0 127 0" result="hardAlpha"/>
<feOffset dy="4"/>
<feGaussianBlur stdDeviation="12"/>
<feComposite in2="hardAlpha" operator="out"/>
<feColorMatrix type="matrix" values="0 0 0 0 0 0 0 0 0 0 0 0 0 0 0 0 0 0 0.15 0"/>
<feBlend mode="normal" in2="BackgroundImageFix" result="effect1_dropShadow_9678_161514"/>
<feBlend mode="normal" in="SourceGraphic" in2="effect1_dropShadow_9678_161514" result="shape"/>
</filter>
<filter id="filter1_d_9678_161514" x="36.1484" y="28" width="334.625" height="237.25" filterUnits="userSpaceOnUse" color-interpolation-filters="sRGB">
<feFlood flood-opacity="0" result="BackgroundImageFix"/>
<feColorMatrix in="SourceAlpha" type="matrix" values="0 0 0 0 0 0 0 0 0 0 0 0 0 0 0 0 0 0 127 0" result="hardAlpha"/>
<feOffset dx="3" dy="-2"/>
<feGaussianBlur stdDeviation="2"/>
<feComposite in2="hardAlpha" operator="out"/>
<feColorMatrix type="matrix" values="0 0 0 0 0 0 0 0 0 0 0 0 0 0 0 0 0 0 0.05 0"/>
<feBlend mode="normal" in2="BackgroundImageFix" result="effect1_dropShadow_9678_161514"/>
<feBlend mode="normal" in="SourceGraphic" in2="effect1_dropShadow_9678_161514" result="shape"/>
</filter>
<clipPath id="bgblur_2_9678_161514_clip_path" transform="translate(-7.99427 -86.9943)"><rect x="24.3281" y="103.328" width="352.452" height="174.043"/>
</clipPath><filter id="filter3_f_9678_161514" x="-123.626" y="-37.3292" width="399.619" height="358.838" filterUnits="userSpaceOnUse" color-interpolation-filters="sRGB">
<feFlood flood-opacity="0" result="BackgroundImageFix"/>
<feBlend mode="normal" in="SourceGraphic" in2="BackgroundImageFix" result="shape"/>
<feGaussianBlur stdDeviation="57.1685" result="effect1_foregroundBlur_9678_161514"/>
</filter>
<filter id="filter4_f_9678_161514" x="43.8787" y="60.0272" width="434.352" height="368.141" filterUnits="userSpaceOnUse" color-interpolation-filters="sRGB">
<feFlood flood-opacity="0" result="BackgroundImageFix"/>
<feBlend mode="normal" in="SourceGraphic" in2="BackgroundImageFix" result="shape"/>
<feGaussianBlur stdDeviation="39.2013" result="effect1_foregroundBlur_9678_161514"/>
</filter>
<filter id="filter5_f_9678_161514" x="-117.849" y="103.557" width="409.19" height="303.745" filterUnits="userSpaceOnUse" color-interpolation-filters="sRGB">
<feFlood flood-opacity="0" result="BackgroundImageFix"/>
<feBlend mode="normal" in="SourceGraphic" in2="BackgroundImageFix" result="shape"/>
<feGaussianBlur stdDeviation="40.8346" result="effect1_foregroundBlur_9678_161514"/>
</filter>
<filter id="filter6_f_9678_161514" x="-128.769" y="-120.652" width="657.108" height="657.108" filterUnits="userSpaceOnUse" color-interpolation-filters="sRGB">
<feFlood flood-opacity="0" result="BackgroundImageFix"/>
<feBlend mode="normal" in="SourceGraphic" in2="BackgroundImageFix" result="shape"/>
<feGaussianBlur stdDeviation="60.4353" result="effect1_foregroundBlur_9678_161514"/>
</filter>
<filter id="filter7_f_9678_161514" x="162.409" y="-63.1458" width="351.479" height="306.596" filterUnits="userSpaceOnUse" color-interpolation-filters="sRGB">
<feFlood flood-opacity="0" result="BackgroundImageFix"/>
<feBlend mode="normal" in="SourceGraphic" in2="BackgroundImageFix" result="shape"/>
<feGaussianBlur stdDeviation="40.8346" result="effect1_foregroundBlur_9678_161514"/>
</filter>
<linearGradient id="paint0_linear_9678_161514" x1="194.366" y1="142.629" x2="224.064" y2="316.559" gradientUnits="userSpaceOnUse">
<stop stop-color="white"/>
<stop offset="0.5625" stop-color="white" stop-opacity="0"/>
<stop offset="1" stop-color="white" stop-opacity="0"/>
</linearGradient>
<clipPath id="clip0_9678_161514">
<path d="M37.1484 55.2232C37.1484 47.7944 37.1484 44.08 38.5942 41.2426C39.8659 38.7467 41.8951 36.7175 44.391 35.4457C47.2284 34 50.9428 34 58.3717 34H342.55C349.979 34 353.693 34 356.531 35.4457C359.027 36.7175 361.056 38.7467 362.327 41.2426C363.773 44.08 363.773 47.7944 363.773 55.2232V242.024C363.773 249.453 363.773 253.167 362.327 256.005C361.056 258.501 359.027 260.53 356.531 261.802C353.693 263.247 349.979 263.247 342.55 263.247H58.3717C50.9428 263.247 47.2284 263.247 44.391 261.802C41.8951 260.53 39.8659 258.501 38.5942 256.005C37.1484 253.167 37.1484 249.453 37.1484 242.024V55.2232Z" fill="white"/>
</clipPath>
<clipPath id="clip1_9678_161514">
<rect x="54.8359" y="50" width="32" height="32" rx="8" fill="white"/>
</clipPath>
</defs>
</svg>
