<svg preserveAspectRatio="none" width="100%" height="100%" overflow="visible" style="display: block;" viewBox="0 0 126.622 153" fill="none" xmlns="http://www.w3.org/2000/svg">
<g id="Document">
<path id="Vector" d="M126.531 139.936C126.531 147.162 119.781 153 111.44 153H15.1527C6.81847 153 0.0609759 147.159 0.0609759 139.936V22.1423C0.0609759 14.9402 6.82598 9.07329 15.1527 9.07329H111.44C119.786 9.07329 126.531 14.9307 126.531 22.1423V139.936Z" fill="var(--fill-0, #CBCACA)"/>
<path id="Vector_2" d="M126.622 136.284C126.622 143.809 119.864 149.897 111.512 149.897H15.1098C6.76559 149.897 0 143.804 0 136.284V13.6037C0 6.10285 6.77311 0 15.1098 0H111.512C119.869 0 126.622 6.09537 126.622 13.6037V136.284Z" fill="var(--fill-0, #F1F0F0)"/>
<path id="Vector_3" d="M19.051 32.9665H104.824C110.589 32.9665 110.589 24.9224 104.824 24.9224H19.051C13.2927 24.9224 13.2927 32.9665 19.051 32.9665ZM19.051 49.2915H104.824C110.589 49.2915 110.589 41.2573 104.824 41.2573H19.051C13.2927 41.2573 13.2927 49.2915 19.051 49.2915ZM19.051 65.9852H104.824C110.589 65.9852 110.589 57.9511 104.824 57.9511H19.051C13.2927 57.9511 13.2927 65.9852 19.051 65.9852ZM19.051 82.3026H104.824C110.589 82.3026 110.589 74.261 104.824 74.261H19.051C13.2927 74.261 13.2927 82.3026 19.051 82.3026ZM19.051 141.355H58.5169C64.2827 141.355 64.2827 133.308 58.5169 133.308H19.051C13.2927 133.308 13.2927 141.355 19.051 141.355Z" fill="var(--fill-0, #3B3B3B)"/>
</g>
</svg>
