<svg width="970" height="494" viewBox="0 0 970 494" fill="none" xmlns="http://www.w3.org/2000/svg">
<g filter="url(#filter0_d_9678_160448)">
<g clip-path="url(#clip0_9678_160448)">
<path d="M22.8984 34.8984C22.8984 26.0619 30.0619 18.8984 38.8984 18.8984H930.898C939.735 18.8984 946.898 26.0619 946.898 34.8984V450.898C946.898 459.735 939.735 466.898 930.898 466.898H38.8985C30.0619 466.898 22.8984 459.735 22.8984 450.898V34.8984Z" fill="url(#paint0_radial_9678_160448)"/>
<path d="M22.8984 34.8984C22.8984 26.0619 30.0619 18.8984 38.8984 18.8984H930.898C939.735 18.8984 946.898 26.0619 946.898 34.8984V450.898C946.898 459.735 939.735 466.898 930.898 466.898H38.8985C30.0619 466.898 22.8984 459.735 22.8984 450.898V34.8984Z" fill="url(#paint1_radial_9678_160448)" fill-opacity="0.3"/>
<g clip-path="url(#clip1_9678_160448)">
<path d="M875.232 520.822C1025.09 520.822 1146.57 399.347 1146.57 249.501C1146.57 99.6543 1025.09 -21.8203 875.232 -21.8203C725.379 -21.8203 603.898 99.6543 603.898 249.501C603.898 399.347 725.379 520.822 875.232 520.822Z" fill="white" fill-opacity="0.1"/>
<path d="M951.091 557.291C1100.94 557.291 1222.42 435.816 1222.42 285.97C1222.42 136.123 1100.94 14.6484 951.091 14.6484C801.238 14.6484 679.758 136.123 679.758 285.97C679.758 435.816 801.238 557.291 951.091 557.291Z" fill="white" fill-opacity="0.2"/>
<path d="M1025.48 618.556C1175.34 618.556 1296.82 497.082 1296.82 347.235C1296.82 197.389 1175.34 75.9141 1025.48 75.9141C875.629 75.9141 754.148 197.389 754.148 347.235C754.148 497.082 875.629 618.556 1025.48 618.556Z" fill="white" fill-opacity="0.4"/>
</g>
<ellipse opacity="0.4" cx="133.574" cy="7.36389" rx="133.574" ry="7.36389" transform="matrix(-1 0 0 1 971.047 408.852)" fill="#C4C4C4"/>
<path d="M739.846 236.836H952.5V416.22H739.846V236.836Z" fill="#FFEE97"/>
<path d="M824.081 236.836H868.289V416.22H824.081V236.836Z" fill="#FF7A3F"/>
<path d="M872.529 136.673C872.529 136.673 907.692 86.8821 932.113 111.616C956.535 136.35 939.692 187.585 901.451 172.262C863.211 156.94 872.529 136.673 872.529 136.673Z" fill="#FF5F18"/>
<path d="M869.203 135.683C869.203 135.683 867.605 74.6852 833.586 81.6029C799.567 88.5206 785.111 140.511 825.409 149.048C865.707 157.585 869.203 135.683 869.203 135.683Z" fill="#FF5F18"/>
<path d="M864.857 155.978C855.331 153.074 849.963 142.958 852.866 133.383C855.77 123.809 865.845 118.401 875.37 121.305C884.895 124.208 890.264 134.324 887.36 143.899C884.457 153.474 874.382 158.882 864.857 155.978Z" fill="#FF7A3F"/>
<path d="M767.926 121.95L970.721 183.753C977.852 185.926 981.871 193.496 979.697 200.662L972.409 224.692C970.235 231.858 962.692 235.905 955.561 233.732L752.766 171.929C745.635 169.756 741.616 162.185 743.79 155.019L751.078 130.99C753.252 123.824 760.795 119.777 767.926 121.95Z" fill="#FFEE97"/>
<path d="M848.159 146.373L890.477 159.273L875.311 209.289L832.993 196.388L848.159 146.373Z" fill="#FF7A3F"/>
<ellipse opacity="0.4" cx="115" cy="7" rx="115" ry="7" transform="matrix(-1 0 0 1 1015.9 425.828)" fill="#C4C4C4"/>
<path d="M967.962 431.828H833.834C831.753 431.844 829.688 431.498 827.759 430.81C825.83 430.121 824.074 429.104 822.593 427.816C821.112 426.528 819.935 424.994 819.129 423.304C818.324 421.614 817.905 419.8 817.898 417.967V332.16L899.97 311.828L983.898 332.16V417.967C983.898 425.582 976.806 431.828 967.962 431.828Z" fill="#ACDDFA"/>
<path d="M983.898 265.256C983.898 242.889 953.377 231.508 935.11 246.994L900.898 276.042L866.695 246.994C848.42 231.435 817.898 242.889 817.898 265.256C817.898 273.141 825.119 279.486 834.061 279.486L900.898 293.828L967.736 279.486C972.028 279.46 976.134 277.95 979.161 275.285C982.188 272.619 983.891 269.015 983.898 265.256Z" fill="#EF476F"/>
<path d="M984.915 285.828H810.875C805.375 285.828 800.898 289.771 800.898 294.647V323.009C800.898 327.885 805.375 331.828 810.882 331.828H984.915C990.422 331.828 994.898 327.885 994.898 323.009V294.647C994.898 289.771 990.422 285.828 984.915 285.828Z" fill="#93D1F6"/>
<path d="M898.937 250.828C886.21 250.828 875.898 260.012 875.898 271.341V431.828H921.898V271.341C921.975 260.012 911.671 250.828 898.937 250.828Z" fill="#F67694"/>
</g>
</g>
<defs>
<filter id="filter0_d_9678_160448" x="-0.00156212" y="-0.00156212" width="969.8" height="493.8" filterUnits="userSpaceOnUse" color-interpolation-filters="sRGB">
<feFlood flood-opacity="0" result="BackgroundImageFix"/>
<feColorMatrix in="SourceAlpha" type="matrix" values="0 0 0 0 0 0 0 0 0 0 0 0 0 0 0 0 0 0 127 0" result="hardAlpha"/>
<feOffset dy="4"/>
<feGaussianBlur stdDeviation="11.45"/>
<feColorMatrix type="matrix" values="0 0 0 0 0 0 0 0 0 0 0 0 0 0 0 0 0 0 0.05 0"/>
<feBlend mode="normal" in2="BackgroundImageFix" result="effect1_dropShadow_9678_160448"/>
<feBlend mode="normal" in="SourceGraphic" in2="effect1_dropShadow_9678_160448" result="shape"/>
</filter>
<radialGradient id="paint0_radial_9678_160448" cx="0" cy="0" r="1" gradientTransform="matrix(-924 448 -948.434 -371.977 946.898 18.8984)" gradientUnits="userSpaceOnUse">
<stop stop-color="#00CC99"/>
<stop offset="0.218201" stop-color="#80E6CC"/>
<stop offset="0.512347" stop-color="white"/>
</radialGradient>
<radialGradient id="paint1_radial_9678_160448" cx="0" cy="0" r="1" gradientTransform="matrix(-1.46203 -290.807 387.529 -2.58549 134.5 466.898)" gradientUnits="userSpaceOnUse">
<stop offset="0.0192526" stop-color="#00CC99"/>
<stop offset="1" stop-color="white"/>
</radialGradient>
<clipPath id="clip0_9678_160448">
<path d="M22.8984 34.8984C22.8984 26.0619 30.0619 18.8984 38.8984 18.8984H930.898C939.735 18.8984 946.898 26.0619 946.898 34.8984V450.898C946.898 459.735 939.735 466.898 930.898 466.898H38.8985C30.0619 466.898 22.8984 459.735 22.8984 450.898V34.8984Z" fill="white"/>
</clipPath>
<clipPath id="clip1_9678_160448">
<rect width="407" height="318" fill="white" transform="translate(603.898 5.89844)"/>
</clipPath>
</defs>
</svg>
