<svg width="18" height="18" viewBox="0 0 18 18" fill="none" xmlns="http://www.w3.org/2000/svg">
<rect width="18" height="18" rx="6" fill="#3B99FC"/>
<path d="M3.6842 6.10975C6.6192 3.29675 11.3792 3.29675 14.3142 6.10975L14.6672 6.44875C14.702 6.48148 14.7298 6.52099 14.7487 6.56484C14.7677 6.6087 14.7775 6.65597 14.7775 6.70375C14.7775 6.75153 14.7677 6.7988 14.7487 6.84266C14.7298 6.88651 14.702 6.92602 14.6672 6.95875L13.4592 8.11675C13.4232 8.15064 13.3756 8.16952 13.3262 8.16952C13.2768 8.16952 13.2292 8.15064 13.1932 8.11675L12.7072 7.65075C10.6592 5.68775 7.3392 5.68775 5.2912 7.65075L4.7712 8.14875C4.73521 8.18264 4.68764 8.20152 4.6382 8.20152C4.58876 8.20152 4.54119 8.18264 4.5052 8.14875L3.2962 6.99175C3.26139 6.95902 3.23365 6.91951 3.21469 6.87566C3.19572 6.8318 3.18594 6.78453 3.18594 6.73675C3.18594 6.68897 3.19572 6.6417 3.21469 6.59784C3.23365 6.55399 3.26139 6.51448 3.2962 6.48175L3.6842 6.10975ZM16.8142 8.50575L17.8892 9.53575C17.924 9.56848 17.9518 9.60799 17.9707 9.65184C17.9897 9.6957 17.9995 9.74297 17.9995 9.79075C17.9995 9.83853 17.9897 9.8858 17.9707 9.92966C17.9518 9.97351 17.924 10.013 17.8892 10.0457L13.0392 14.6938C12.9671 14.7608 12.8722 14.7981 12.7737 14.7981C12.6752 14.7981 12.5804 14.7608 12.5082 14.6938L9.0652 11.3947C9.04726 11.3781 9.02368 11.3688 8.9992 11.3688C8.97472 11.3688 8.95114 11.3781 8.9332 11.3947L5.4912 14.6947C5.419 14.7621 5.32394 14.7995 5.2252 14.7995C5.12647 14.7995 5.03141 14.7621 4.9592 14.6947L0.109201 10.0448C0.0747049 10.012 0.0472318 9.97266 0.0284572 9.92899C0.00968253 9.88532 0 9.83828 0 9.79075C0 9.74322 0.00968253 9.69618 0.0284572 9.65251C0.0472318 9.60884 0.0747049 9.56945 0.109201 9.53675L1.1852 8.50575C1.25702 8.43803 1.35199 8.40031 1.4507 8.40031C1.54941 8.40031 1.64439 8.43803 1.7162 8.50575L5.1582 11.8047C5.1762 11.8217 5.19998 11.8311 5.2247 11.8311C5.24942 11.8311 5.27321 11.8217 5.2912 11.8047L8.7332 8.50475C8.80507 8.43674 8.90026 8.39884 8.9992 8.39884C9.09815 8.39884 9.19333 8.43674 9.2652 8.50475L12.7072 11.8047C12.7252 11.8217 12.749 11.8311 12.7737 11.8311C12.7984 11.8311 12.8222 11.8217 12.8402 11.8047L16.2822 8.50475C16.3544 8.43769 16.4492 8.40042 16.5477 8.40042C16.6462 8.40042 16.741 8.43769 16.8132 8.50475" fill="white"/>
</svg>
