<svg width="24" height="24" viewBox="0 0 24 24" fill="none" xmlns="http://www.w3.org/2000/svg">
<path d="M12 0C8.81812 0 5.76375 1.26506 3.51562 3.51469C1.2652 5.76522 0.000643966 8.81734 0 12C0 15.1813 1.26562 18.2357 3.51562 20.4853C5.76375 22.7349 8.81812 24 12 24C15.1819 24 18.2362 22.7349 20.4844 20.4853C22.7344 18.2357 24 15.1813 24 12C24 8.81869 22.7344 5.76431 20.4844 3.51469C18.2362 1.26506 15.1819 0 12 0Z" fill="url(#paint0_linear_9664_124064)"/>
<path d="M5.43477 11.876C8.93352 10.352 11.266 9.34723 12.4323 8.86173C15.766 7.47554 16.4579 7.23479 16.9098 7.22663C17.0091 7.22504 17.2304 7.2496 17.3748 7.36632C17.4948 7.46476 17.5285 7.59788 17.5454 7.69135C17.5604 7.78473 17.581 7.99754 17.5641 8.16367C17.3841 10.0612 16.6023 14.6658 16.2048 16.7911C16.0379 17.6904 15.706 17.9919 15.3854 18.0213C14.6879 18.0854 14.1591 17.5608 13.4841 17.1185C12.4285 16.426 11.8323 15.9952 10.8066 15.3196C9.62165 14.5389 10.3904 14.1097 11.0654 13.4084C11.2416 13.2249 14.3129 10.432 14.371 10.1787C14.3785 10.147 14.386 10.0289 14.3148 9.96666C14.2454 9.90423 14.1423 9.9256 14.0673 9.94248C13.9604 9.96648 12.2748 11.0817 9.00477 13.288C8.52665 13.6169 8.09352 13.7772 7.70352 13.7688C7.27602 13.7596 6.45102 13.5265 5.8379 13.3274C5.0879 13.0831 4.48977 12.9539 4.54227 12.539C4.56852 12.323 4.86665 12.1019 5.43477 11.876Z" fill="white"/>
<defs>
<linearGradient id="paint0_linear_9664_124064" x1="1200" y1="0" x2="1200" y2="2400" gradientUnits="userSpaceOnUse">
<stop stop-color="#2AABEE"/>
<stop offset="1" stop-color="#229ED9"/>
</linearGradient>
</defs>
</svg>
