<svg width="222" height="116" viewBox="0 0 222 116" fill="none" xmlns="http://www.w3.org/2000/svg">
<g clip-path="url(#clip0_9682_62102)">
<path d="M0 24C0 10.7452 10.7452 0 24 0H197.333C210.588 0 221.333 10.7452 221.333 24V91.6071C221.333 104.862 210.588 115.607 197.333 115.607H24C10.7452 115.607 0 104.862 0 91.6071V24Z" fill="url(#paint0_radial_9682_62102)"/>
<g opacity="0.8">
<path d="M148.28 37.5231L136.791 61.7666L145.775 65.2591C156.736 43.1218 162.393 30.2812 162.743 26.7375C163.036 23.7755 162.192 22.0968 160.211 21.7013C157.24 21.1081 153.263 26.382 148.28 37.5231ZM119.506 87.3612L121.396 94.8581C123.544 93.0217 125.57 91.6193 127.474 90.6508L124.936 89.6993L121.981 88.5429L119.506 87.3612ZM103.706 11.7156C103.193 16.8991 105.975 31.5049 112.05 55.533C112.988 55.181 114.292 55.1715 115.96 55.5046C116.742 55.6607 118.684 56.1832 121.785 57.072L115.079 27.3354C112.32 14.9185 109.69 8.46032 107.188 7.96079C106.197 7.76306 105.395 8.07496 104.783 8.89651C104.17 9.71806 103.811 10.6578 103.706 11.7156ZM91.5707 70.7003C91.3823 72.6045 92.4133 76.0195 94.6637 80.9456C96.9141 85.8716 99.5764 90.5293 102.651 94.9186C105.725 99.3079 108.148 101.679 109.921 102.033C110.651 102.179 111.349 101.968 112.017 101.4C112.684 100.832 113.055 100.178 113.128 99.4374C113.254 98.168 112.687 95.3039 111.427 90.8453C110.916 89.0175 110.271 86.9468 109.489 84.6334C108.708 82.32 107.703 79.7191 106.474 76.8308C105.244 73.9424 103.853 71.4803 102.301 69.4443C100.748 67.4083 99.2153 66.2394 97.7035 65.9376C96.6609 65.7295 95.4043 66.2068 93.9337 67.3695C92.463 68.5322 91.6754 69.6425 91.5707 70.7003ZM76.586 94.8123C76.3714 96.9809 76.7509 99.8614 77.7245 103.454C80.0414 111.737 84.2304 118.695 90.2916 124.328C96.3528 129.961 103.476 133.594 111.66 135.228C123.494 137.591 133.896 135.082 142.866 127.704C151.674 120.347 156.753 109.845 158.103 96.1991C158.328 93.9247 158.478 92.1476 158.551 90.8678C158.625 89.588 158.487 87.8885 158.139 85.7693C157.79 83.6501 157.142 82.0104 156.193 80.8502C153.53 77.6757 148.215 74.5785 140.247 71.5585C132.28 68.5386 125.298 66.4303 119.303 65.2335C117.374 64.8484 116.068 64.8843 115.385 65.3413C114.734 65.4808 114.329 66.344 114.172 67.9308C113.994 69.7291 114.398 71.4278 115.382 73.0267C116.367 74.6257 117.709 75.9723 119.408 77.0666C121.108 78.161 123.066 79.1857 125.284 80.1409C127.502 81.0961 129.753 81.8555 132.036 82.4192C134.319 82.9829 136.524 83.531 138.651 84.0635C140.778 84.5959 142.603 84.9602 144.125 85.1562L145.924 85.5152C147.175 85.765 148.168 86.4756 148.902 87.6471C149.585 88.8081 149.936 90.3615 149.956 92.3073C148.35 93.4969 145.706 94.4254 142.025 95.093C138.73 95.6218 136.186 96.3544 134.392 97.2908C130.815 99.0578 127.689 101.508 125.013 104.642C122.337 107.775 120.819 111.167 120.458 114.816C120.296 116.456 120.546 118.893 121.21 122.127C121.873 125.36 122.126 127.771 121.969 129.358L121.641 130.263C121.369 130.856 121.228 131.205 121.218 131.311C114.128 129.356 110.888 122.884 111.497 111.895C111.069 111.917 109.995 111.757 108.275 111.413C108.343 111.805 108.34 112.37 108.267 113.111C107.989 115.914 106.699 118.07 104.397 119.579C102.095 121.088 99.5362 121.562 96.7211 121C92.4464 120.147 88.3105 117.217 84.3137 112.212C80.3168 107.208 78.5303 102.563 78.9542 98.2786C79.1321 96.4803 80.1676 94.8801 82.0606 93.478C84.4365 97.4043 85.8016 99.7264 86.1558 100.444C89.6256 106.747 92.8202 110.189 95.7396 110.772C96.3651 110.897 97.0781 110.81 97.8785 110.511C98.6789 110.212 99.1105 109.746 99.1733 109.111C99.3512 107.313 97.4499 103.023 93.4693 96.241C89.4887 89.4593 86.7425 85.9176 85.2308 85.6158C82.9891 85.1683 81.0481 85.9809 79.4077 88.0536C77.7673 90.1264 76.8267 92.3793 76.586 94.8123ZM67.6009 93.7468C68.1295 88.4046 69.6638 84.3151 72.2038 81.478C74.7438 78.641 78.532 77.024 83.5684 76.6271C82.496 72.4216 82.0383 69.5255 82.1953 67.9388C82.5197 64.6594 84.4316 61.724 87.9308 59.1323C91.43 56.5407 94.7696 55.5623 97.9496 56.1972C99.4614 56.499 101.247 57.2599 103.306 58.48C97.226 32.3474 94.461 16.5042 95.0104 10.9505C95.4291 6.71913 96.8393 3.48124 99.2409 1.23686C101.643 -1.00752 104.876 -1.72383 108.943 -0.912092C115.772 0.451218 122.723 17.5076 129.796 50.257C130.02 51.2186 130.168 51.8685 130.241 52.2067C130.637 51.4228 131.601 49.4713 133.133 46.352C134.664 43.2326 136.108 40.3251 137.464 37.6294C138.821 34.9337 140.562 31.8428 142.688 28.3567C144.814 24.8706 146.817 21.9534 148.697 19.6049C150.577 17.2565 152.641 15.3357 154.889 13.8427C157.136 12.3496 159.225 11.7956 161.153 12.1807C164.855 12.9196 167.646 14.7982 169.527 17.8166C171.408 20.835 172.157 24.2748 171.775 28.136C171.21 33.8483 165.626 47.5664 155.025 69.2901C158.126 70.7183 160.625 72.4578 162.522 74.5085C164.419 76.5593 165.74 78.9265 166.484 81.6102C167.229 84.2938 167.662 86.9018 167.784 89.4342C167.905 91.9665 167.798 94.9252 167.463 98.3104C166.678 106.244 164.721 113.405 161.59 119.791C158.46 126.178 154.43 131.442 149.502 135.582C144.574 139.722 138.682 142.591 131.825 144.189C124.969 145.787 117.579 145.795 109.655 144.213C103.868 143.058 98.1657 140.787 92.5468 137.4C85.0776 132.834 78.8538 126.427 73.8754 118.179C68.897 109.93 66.8055 101.786 67.6009 93.7468Z" fill="white"/>
</g>
<path d="M39.936 48.6494C39.68 48.6494 39.456 48.628 39.264 48.5854C39.072 48.5534 38.9013 48.5054 38.752 48.4414V47.2254C38.9227 47.268 39.104 47.3054 39.296 47.3374C39.488 47.3694 39.6907 47.3854 39.904 47.3854C40.1707 47.3854 40.4213 47.332 40.656 47.2254C40.9013 47.1187 41.0987 46.932 41.248 46.6654C41.3973 46.3987 41.472 46.0254 41.472 45.5454V34.1854H42.912V45.4334C42.912 46.1694 42.7893 46.772 42.544 47.2414C42.2987 47.7214 41.952 48.0734 41.504 48.2974C41.056 48.532 40.5333 48.6494 39.936 48.6494ZM53.191 41.3054C53.191 42.02 53.095 42.6547 52.903 43.2094C52.7217 43.7534 52.455 44.2174 52.103 44.6014C51.7617 44.9854 51.3403 45.2787 50.839 45.4814C50.3483 45.6734 49.799 45.7694 49.191 45.7694C48.6257 45.7694 48.103 45.6734 47.623 45.4814C47.143 45.2787 46.727 44.9854 46.375 44.6014C46.023 44.2174 45.7457 43.7534 45.543 43.2094C45.351 42.6547 45.255 42.02 45.255 41.3054C45.255 40.356 45.415 39.556 45.735 38.9054C46.055 38.244 46.5137 37.7427 47.111 37.4014C47.7083 37.0494 48.4177 36.8734 49.239 36.8734C50.0177 36.8734 50.7003 37.0494 51.287 37.4014C51.8843 37.7427 52.3483 38.244 52.679 38.9054C53.0203 39.556 53.191 40.356 53.191 41.3054ZM46.711 41.3054C46.711 41.9774 46.7963 42.564 46.967 43.0654C47.1483 43.556 47.4257 43.9347 47.799 44.2014C48.1723 44.468 48.647 44.6014 49.223 44.6014C49.799 44.6014 50.2737 44.468 50.647 44.2014C51.0203 43.9347 51.2923 43.556 51.463 43.0654C51.6443 42.564 51.735 41.9774 51.735 41.3054C51.735 40.6227 51.6443 40.0414 51.463 39.5614C51.2817 39.0814 51.0043 38.7134 50.631 38.4574C50.2683 38.1907 49.7937 38.0574 49.207 38.0574C48.3323 38.0574 47.6977 38.3454 47.303 38.9214C46.9083 39.4974 46.711 40.292 46.711 41.3054ZM56.8305 37.0334V45.6094H55.4225V37.0334H56.8305ZM56.1425 33.8174C56.3558 33.8174 56.5425 33.892 56.7025 34.0414C56.8732 34.18 56.9585 34.404 56.9585 34.7134C56.9585 35.012 56.8732 35.236 56.7025 35.3854C56.5425 35.5347 56.3558 35.6094 56.1425 35.6094C55.9078 35.6094 55.7105 35.5347 55.5505 35.3854C55.3905 35.236 55.3105 35.012 55.3105 34.7134C55.3105 34.404 55.3905 34.18 55.5505 34.0414C55.7105 33.892 55.9078 33.8174 56.1425 33.8174ZM63.6755 36.8734C64.6995 36.8734 65.4728 37.124 65.9955 37.6254C66.5182 38.116 66.7795 38.916 66.7795 40.0254V45.6094H65.3875V40.1214C65.3875 39.428 65.2328 38.9107 64.9235 38.5694C64.6142 38.228 64.1288 38.0574 63.4675 38.0574C62.5182 38.0574 61.8622 38.324 61.4995 38.8574C61.1368 39.3907 60.9555 40.1587 60.9555 41.1614V45.6094H59.5475V37.0334H60.6835L60.8915 38.2014H60.9715C61.1635 37.9027 61.3982 37.6574 61.6755 37.4654C61.9635 37.2627 62.2782 37.1134 62.6195 37.0174C62.9608 36.9214 63.3128 36.8734 63.6755 36.8734ZM82.4744 41.5774C82.4744 42.3667 82.3144 43.0814 81.9944 43.7214C81.6744 44.3507 81.1837 44.852 80.5224 45.2254C79.8717 45.588 79.0397 45.7694 78.0264 45.7694C76.6077 45.7694 75.525 45.3854 74.7784 44.6174C74.0424 43.8387 73.6744 42.8147 73.6744 41.5454V34.1854H75.1144V41.5934C75.1144 42.5214 75.3597 43.2414 75.8504 43.7534C76.3517 44.2654 77.1037 44.5214 78.1064 44.5214C78.7997 44.5214 79.3597 44.3987 79.7864 44.1534C80.2237 43.8974 80.5437 43.5507 80.7464 43.1134C80.949 42.6654 81.0504 42.1534 81.0504 41.5774V34.1854H82.4744V41.5774ZM90.8815 43.2414C90.8815 43.796 90.7428 44.26 90.4655 44.6334C90.1882 45.0067 89.7935 45.2894 89.2815 45.4814C88.7695 45.6734 88.1615 45.7694 87.4575 45.7694C86.8602 45.7694 86.3428 45.7214 85.9055 45.6254C85.4788 45.5294 85.1002 45.396 84.7695 45.2254V43.9454C85.1108 44.116 85.5215 44.276 86.0015 44.4254C86.4922 44.564 86.9882 44.6334 87.4895 44.6334C88.2042 44.6334 88.7215 44.5214 89.0415 44.2974C89.3615 44.0627 89.5215 43.7534 89.5215 43.3694C89.5215 43.156 89.4628 42.964 89.3455 42.7934C89.2282 42.6227 89.0148 42.452 88.7055 42.2814C88.4068 42.1107 87.9748 41.9187 87.4095 41.7054C86.8548 41.492 86.3802 41.2787 85.9855 41.0654C85.5908 40.852 85.2868 40.596 85.0735 40.2974C84.8602 39.9987 84.7535 39.6147 84.7535 39.1454C84.7535 38.42 85.0468 37.86 85.6335 37.4654C86.2308 37.0707 87.0095 36.8734 87.9695 36.8734C88.4922 36.8734 88.9775 36.9267 89.4255 37.0334C89.8842 37.1294 90.3108 37.268 90.7055 37.4494L90.2255 38.5694C89.9908 38.4627 89.7402 38.372 89.4735 38.2974C89.2175 38.212 88.9562 38.148 88.6895 38.1054C88.4228 38.052 88.1508 38.0254 87.8735 38.0254C87.2975 38.0254 86.8548 38.1214 86.5455 38.3134C86.2468 38.4947 86.0975 38.7454 86.0975 39.0654C86.0975 39.3 86.1668 39.5027 86.3055 39.6734C86.4442 39.8334 86.6735 39.9934 86.9935 40.1534C87.3242 40.3027 87.7615 40.484 88.3055 40.6974C88.8495 40.9 89.3135 41.108 89.6975 41.3214C90.0815 41.5347 90.3748 41.796 90.5775 42.1054C90.7802 42.404 90.8815 42.7827 90.8815 43.2414ZM104.566 41.3054C104.566 42.02 104.47 42.6547 104.278 43.2094C104.097 43.7534 103.83 44.2174 103.478 44.6014C103.137 44.9854 102.715 45.2787 102.214 45.4814C101.723 45.6734 101.174 45.7694 100.566 45.7694C100.001 45.7694 99.478 45.6734 98.998 45.4814C98.518 45.2787 98.102 44.9854 97.75 44.6014C97.398 44.2174 97.1207 43.7534 96.918 43.2094C96.726 42.6547 96.63 42.02 96.63 41.3054C96.63 40.356 96.79 39.556 97.11 38.9054C97.43 38.244 97.8887 37.7427 98.486 37.4014C99.0833 37.0494 99.7927 36.8734 100.614 36.8734C101.393 36.8734 102.075 37.0494 102.662 37.4014C103.259 37.7427 103.723 38.244 104.054 38.9054C104.395 39.556 104.566 40.356 104.566 41.3054ZM98.086 41.3054C98.086 41.9774 98.1713 42.564 98.342 43.0654C98.5233 43.556 98.8007 43.9347 99.174 44.2014C99.5473 44.468 100.022 44.6014 100.598 44.6014C101.174 44.6014 101.649 44.468 102.022 44.2014C102.395 43.9347 102.667 43.556 102.838 43.0654C103.019 42.564 103.11 41.9774 103.11 41.3054C103.11 40.6227 103.019 40.0414 102.838 39.5614C102.657 39.0814 102.379 38.7134 102.006 38.4574C101.643 38.1907 101.169 38.0574 100.582 38.0574C99.7073 38.0574 99.0727 38.3454 98.678 38.9214C98.2833 39.4974 98.086 40.292 98.086 41.3054ZM110.926 36.8734C111.95 36.8734 112.723 37.124 113.246 37.6254C113.768 38.116 114.03 38.916 114.03 40.0254V45.6094H112.638V40.1214C112.638 39.428 112.483 38.9107 112.174 38.5694C111.864 38.228 111.379 38.0574 110.718 38.0574C109.768 38.0574 109.112 38.324 108.75 38.8574C108.387 39.3907 108.206 40.1587 108.206 41.1614V45.6094H106.798V37.0334H107.934L108.142 38.2014H108.222C108.414 37.9027 108.648 37.6574 108.926 37.4654C109.214 37.2627 109.528 37.1134 109.87 37.0174C110.211 36.9214 110.563 36.8734 110.926 36.8734Z" fill="#3B3B3B"/>
<path d="M52.816 76.6094L51.256 72.0734H44.8L43.264 76.6094H40L46.288 59.4014H49.792L56.08 76.6094H52.816ZM48.976 65.0174C48.912 64.7934 48.816 64.4894 48.688 64.1054C48.56 63.7214 48.432 63.3294 48.304 62.9294C48.192 62.5134 48.104 62.1694 48.04 61.8974C47.96 62.2174 47.856 62.5854 47.728 63.0014C47.616 63.4174 47.504 63.8094 47.392 64.1774C47.296 64.5454 47.216 64.8254 47.152 65.0174L45.64 69.4334H50.464L48.976 65.0174ZM65.0056 63.3614C66.4616 63.3614 67.5976 63.7374 68.4136 64.4894C69.2456 65.2414 69.6616 66.4574 69.6616 68.1374V76.6094H66.6376V68.7374C66.6376 67.7614 66.4456 67.0334 66.0616 66.5534C65.6776 66.0574 65.0696 65.8094 64.2376 65.8094C63.0216 65.8094 62.1896 66.1934 61.7416 66.9614C61.2936 67.7134 61.0696 68.8094 61.0696 70.2494V76.6094H58.0456V63.6014H60.3736L60.8056 65.3054H60.9736C61.2616 64.8574 61.6136 64.4894 62.0296 64.2014C62.4456 63.9134 62.9096 63.7054 63.4216 63.5774C63.9336 63.4334 64.4616 63.3614 65.0056 63.3614ZM77.812 63.3614C78.628 63.3614 79.364 63.5214 80.02 63.8414C80.676 64.1614 81.228 64.6414 81.676 65.2814H81.796L82.084 63.6014H84.604V76.7054C84.604 77.9374 84.372 78.9694 83.908 79.8014C83.444 80.6494 82.748 81.2894 81.82 81.7214C80.892 82.1534 79.732 82.3694 78.34 82.3694C77.412 82.3694 76.556 82.3054 75.772 82.1774C74.988 82.0654 74.244 81.8654 73.54 81.5774V79.0814C74.036 79.2894 74.548 79.4654 75.076 79.6094C75.62 79.7694 76.18 79.8894 76.756 79.9694C77.332 80.0494 77.924 80.0894 78.532 80.0894C79.524 80.0894 80.276 79.8094 80.788 79.2494C81.316 78.6894 81.58 77.8894 81.58 76.8494V76.5134C81.58 76.2734 81.588 75.9934 81.604 75.6734C81.636 75.3534 81.66 75.0974 81.676 74.9054H81.58C81.132 75.5774 80.588 76.0734 79.948 76.3934C79.308 76.6974 78.572 76.8494 77.74 76.8494C76.156 76.8494 74.916 76.2574 74.02 75.0734C73.124 73.8894 72.676 72.2414 72.676 70.1294C72.676 68.7054 72.876 67.4894 73.276 66.4814C73.692 65.4734 74.284 64.7054 75.052 64.1774C75.82 63.6334 76.74 63.3614 77.812 63.3614ZM78.604 65.8334C77.996 65.8334 77.476 66.0014 77.044 66.3374C76.628 66.6574 76.308 67.1374 76.084 67.7774C75.876 68.4174 75.772 69.2174 75.772 70.1774C75.772 71.5854 76.012 72.6494 76.492 73.3694C76.972 74.0894 77.692 74.4494 78.652 74.4494C79.196 74.4494 79.66 74.3854 80.044 74.2574C80.428 74.1134 80.74 73.8894 80.98 73.5854C81.236 73.2654 81.428 72.8654 81.556 72.3854C81.684 71.8894 81.748 71.2974 81.748 70.6094V70.1534C81.748 69.1134 81.636 68.2814 81.412 67.6574C81.188 67.0174 80.844 66.5534 80.38 66.2654C79.932 65.9774 79.34 65.8334 78.604 65.8334ZM93.6994 63.3614C94.8674 63.3614 95.8674 63.6014 96.6994 64.0814C97.5474 64.5454 98.2034 65.2174 98.6674 66.0974C99.1314 66.9614 99.3634 68.0174 99.3634 69.2654V70.8014H90.7714C90.8034 71.9854 91.1314 72.9054 91.7554 73.5614C92.3794 74.2014 93.2434 74.5214 94.3474 74.5214C95.1954 74.5214 95.9474 74.4414 96.6034 74.2814C97.2754 74.1054 97.9634 73.8574 98.6674 73.5374V75.9614C98.0274 76.2654 97.3634 76.4894 96.6754 76.6334C95.9874 76.7774 95.1634 76.8494 94.2034 76.8494C92.9394 76.8494 91.8114 76.6094 90.8194 76.1294C89.8434 75.6334 89.0754 74.8894 88.5154 73.8974C87.9714 72.9054 87.6994 71.6734 87.6994 70.2014C87.6994 68.7134 87.9474 67.4654 88.4434 66.4574C88.9554 65.4334 89.6594 64.6654 90.5554 64.1534C91.4514 63.6254 92.4994 63.3614 93.6994 63.3614ZM93.6994 65.5934C92.8994 65.5934 92.2434 65.8574 91.7314 66.3854C91.2354 66.8974 90.9394 67.6654 90.8434 68.6894H96.4354C96.4354 68.0814 96.3314 67.5454 96.1234 67.0814C95.9314 66.6174 95.6354 66.2574 95.2354 66.0014C94.8354 65.7294 94.3234 65.5934 93.6994 65.5934ZM105.437 76.6094H102.413V58.3694H105.437V76.6094ZM115.826 76.6094V59.4734H118.898V74.0174H126.05V76.6094H115.826ZM131.757 63.6014V76.6094H128.733V63.6014H131.757ZM130.245 58.5854C130.693 58.5854 131.085 58.7054 131.421 58.9454C131.757 59.1694 131.925 59.5774 131.925 60.1694C131.925 60.7454 131.757 61.1614 131.421 61.4174C131.085 61.6574 130.693 61.7774 130.245 61.7774C129.781 61.7774 129.381 61.6574 129.045 61.4174C128.725 61.1614 128.565 60.7454 128.565 60.1694C128.565 59.5774 128.725 59.1694 129.045 58.9454C129.381 58.7054 129.781 58.5854 130.245 58.5854ZM144.48 72.8414C144.48 73.7054 144.272 74.4414 143.856 75.0494C143.44 75.6414 142.824 76.0894 142.008 76.3934C141.208 76.6974 140.224 76.8494 139.056 76.8494C138.144 76.8494 137.36 76.7854 136.704 76.6574C136.048 76.5294 135.424 76.3294 134.832 76.0574V73.4894C135.472 73.7934 136.184 74.0494 136.968 74.2574C137.752 74.4654 138.48 74.5694 139.152 74.5694C139.984 74.5694 140.584 74.4414 140.952 74.1854C141.32 73.9294 141.504 73.5854 141.504 73.1534C141.504 72.8974 141.432 72.6654 141.288 72.4574C141.144 72.2494 140.864 72.0334 140.448 71.8094C140.032 71.5694 139.4 71.2734 138.552 70.9214C137.72 70.5854 137.024 70.2494 136.464 69.9134C135.92 69.5774 135.504 69.1774 135.216 68.7134C134.944 68.2334 134.808 67.6334 134.808 66.9134C134.808 65.7454 135.272 64.8654 136.2 64.2734C137.128 63.6654 138.352 63.3614 139.872 63.3614C140.672 63.3614 141.424 63.4414 142.128 63.6014C142.848 63.7454 143.568 63.9854 144.288 64.3214L143.328 66.5534C142.928 66.3774 142.528 66.2254 142.128 66.0974C141.744 65.9534 141.352 65.8414 140.952 65.7614C140.568 65.6814 140.176 65.6414 139.776 65.6414C139.12 65.6414 138.624 65.7454 138.288 65.9534C137.952 66.1454 137.784 66.4174 137.784 66.7694C137.784 67.0414 137.864 67.2814 138.024 67.4894C138.2 67.6814 138.496 67.8814 138.912 68.0894C139.344 68.2814 139.952 68.5374 140.736 68.8574C141.52 69.1614 142.184 69.4814 142.728 69.8174C143.288 70.1374 143.72 70.5374 144.024 71.0174C144.328 71.4974 144.48 72.1054 144.48 72.8414ZM152.429 74.4254C152.813 74.4254 153.181 74.3934 153.533 74.3294C153.885 74.2494 154.213 74.1614 154.517 74.0654V76.3214C154.197 76.4654 153.781 76.5854 153.269 76.6814C152.757 76.7934 152.221 76.8494 151.661 76.8494C150.925 76.8494 150.253 76.7294 149.645 76.4894C149.053 76.2334 148.573 75.8014 148.205 75.1934C147.853 74.5854 147.677 73.7374 147.677 72.6494V65.8814H145.925V64.5614L147.845 63.5054L148.805 60.7454H150.701V63.6014H154.397V65.8814H150.701V72.6254C150.701 73.2334 150.861 73.6894 151.181 73.9934C151.501 74.2814 151.917 74.4254 152.429 74.4254Z" fill="#3B3B3B"/>
</g>
<path d="M24 0.5H197.333C210.312 0.5 220.833 11.0213 220.833 24V91.6074C220.833 104.586 210.312 115.107 197.333 115.107H24C11.0214 115.107 0.500153 104.586 0.5 91.6074V24C0.5 11.0213 11.0213 0.5 24 0.5Z" stroke="#3B3B3B"/>
<defs>
<radialGradient id="paint0_radial_9682_62102" cx="0" cy="0" r="1" gradientTransform="matrix(166.693 45.1447 45.61 156.362 54.2783 57.3095)" gradientUnits="userSpaceOnUse">
<stop offset="0.14" stop-color="white"/>
<stop offset="0.86" stop-color="#001D23"/>
</radialGradient>
<clipPath id="clip0_9682_62102">
<path d="M0 24C0 10.7452 10.7452 0 24 0H197.333C210.588 0 221.333 10.7452 221.333 24V91.6071C221.333 104.862 210.588 115.607 197.333 115.607H24C10.7452 115.607 0 104.862 0 91.6071V24Z" fill="white"/>
</clipPath>
</defs>
</svg>
