<svg width="222" height="116" viewBox="0 0 222 116" fill="none" xmlns="http://www.w3.org/2000/svg">
<g clip-path="url(#clip0_9682_62075)">
<path d="M0 24C0 10.7452 10.7452 0 24 0H197.333C210.588 0 221.333 10.7452 221.333 24V91.6071C221.333 104.862 210.588 115.607 197.333 115.607H24C10.7452 115.607 0 104.862 0 91.6071V24Z" fill="url(#paint0_radial_9682_62075)"/>
<g opacity="0.8">
<path d="M210.607 10.6407L96.8492 -5.34686C93.0832 -5.86182 89.2663 -4.86711 86.2307 -2.57958C83.195 -0.292055 81.1868 3.10278 80.6437 6.86483L64.6562 120.622C64.1412 124.388 65.1359 128.205 67.4234 131.241C69.711 134.277 73.1058 136.285 76.8679 136.828L190.625 152.815C194.391 153.33 198.208 152.336 201.244 150.048C204.28 147.761 206.288 144.366 206.831 140.604L222.818 26.8462C223.333 23.0802 222.339 19.2633 220.051 16.2277C217.764 13.192 214.369 11.1838 210.607 10.6407ZM112.344 84.2102C113.741 85.1011 115.299 85.7081 116.93 85.9965C118.561 86.2849 120.233 86.2491 121.85 85.8911C123.467 85.5331 124.998 84.86 126.355 83.9101C127.712 82.9603 128.868 81.7523 129.758 80.3554L139.595 81.7378C129.935 105.983 93.603 96.3464 97.2359 70.4973C100.872 44.6259 138.453 45.3769 141.052 71.3679L131.216 69.9855C128.719 61.5427 118.554 58.175 111.527 63.4897C104.482 68.7746 104.912 79.4822 112.344 84.2102ZM178.841 98.6528C176.754 100.003 174.444 100.972 172.019 101.518C168.561 102.328 164.959 102.288 161.521 101.403C158.082 100.517 154.909 98.8115 152.273 96.4321L151.954 98.698L142.997 97.4392L151.798 34.8201L160.684 36.069L157.263 60.4119C160.739 58.7169 164.594 57.9492 168.454 58.1835L170.049 58.4077C190.28 61.2056 196.045 87.6869 178.838 98.6478L178.841 98.6528ZM179.824 82.0862C179.623 83.7467 179.092 85.3504 178.264 86.8035C177.435 88.2566 176.325 89.5299 174.999 90.5492C173.673 91.5684 172.157 92.313 170.539 92.7394C168.922 93.1658 167.236 93.2656 165.579 93.0328C163.923 92.8 162.33 92.2394 160.892 91.3836C159.455 90.5279 158.203 89.3942 157.209 88.0489C156.215 86.7036 155.499 85.1736 155.103 83.5485C154.707 81.9233 154.64 80.2355 154.904 78.5838C157.533 62.3891 181.738 65.7909 179.824 82.0862Z" fill="white"/>
</g>
<path d="M39.936 48.6494C39.68 48.6494 39.456 48.628 39.264 48.5854C39.072 48.5534 38.9013 48.5054 38.752 48.4414V47.2254C38.9227 47.268 39.104 47.3054 39.296 47.3374C39.488 47.3694 39.6907 47.3854 39.904 47.3854C40.1707 47.3854 40.4213 47.332 40.656 47.2254C40.9013 47.1187 41.0987 46.932 41.248 46.6654C41.3973 46.3987 41.472 46.0254 41.472 45.5454V34.1854H42.912V45.4334C42.912 46.1694 42.7893 46.772 42.544 47.2414C42.2987 47.7214 41.952 48.0734 41.504 48.2974C41.056 48.532 40.5333 48.6494 39.936 48.6494ZM53.191 41.3054C53.191 42.02 53.095 42.6547 52.903 43.2094C52.7217 43.7534 52.455 44.2174 52.103 44.6014C51.7617 44.9854 51.3403 45.2787 50.839 45.4814C50.3483 45.6734 49.799 45.7694 49.191 45.7694C48.6257 45.7694 48.103 45.6734 47.623 45.4814C47.143 45.2787 46.727 44.9854 46.375 44.6014C46.023 44.2174 45.7457 43.7534 45.543 43.2094C45.351 42.6547 45.255 42.02 45.255 41.3054C45.255 40.356 45.415 39.556 45.735 38.9054C46.055 38.244 46.5137 37.7427 47.111 37.4014C47.7083 37.0494 48.4177 36.8734 49.239 36.8734C50.0177 36.8734 50.7003 37.0494 51.287 37.4014C51.8843 37.7427 52.3483 38.244 52.679 38.9054C53.0203 39.556 53.191 40.356 53.191 41.3054ZM46.711 41.3054C46.711 41.9774 46.7963 42.564 46.967 43.0654C47.1483 43.556 47.4257 43.9347 47.799 44.2014C48.1723 44.468 48.647 44.6014 49.223 44.6014C49.799 44.6014 50.2737 44.468 50.647 44.2014C51.0203 43.9347 51.2923 43.556 51.463 43.0654C51.6443 42.564 51.735 41.9774 51.735 41.3054C51.735 40.6227 51.6443 40.0414 51.463 39.5614C51.2817 39.0814 51.0043 38.7134 50.631 38.4574C50.2683 38.1907 49.7937 38.0574 49.207 38.0574C48.3323 38.0574 47.6977 38.3454 47.303 38.9214C46.9083 39.4974 46.711 40.292 46.711 41.3054ZM56.8305 37.0334V45.6094H55.4225V37.0334H56.8305ZM56.1425 33.8174C56.3558 33.8174 56.5425 33.892 56.7025 34.0414C56.8732 34.18 56.9585 34.404 56.9585 34.7134C56.9585 35.012 56.8732 35.236 56.7025 35.3854C56.5425 35.5347 56.3558 35.6094 56.1425 35.6094C55.9078 35.6094 55.7105 35.5347 55.5505 35.3854C55.3905 35.236 55.3105 35.012 55.3105 34.7134C55.3105 34.404 55.3905 34.18 55.5505 34.0414C55.7105 33.892 55.9078 33.8174 56.1425 33.8174ZM63.6755 36.8734C64.6995 36.8734 65.4728 37.124 65.9955 37.6254C66.5182 38.116 66.7795 38.916 66.7795 40.0254V45.6094H65.3875V40.1214C65.3875 39.428 65.2328 38.9107 64.9235 38.5694C64.6142 38.228 64.1288 38.0574 63.4675 38.0574C62.5182 38.0574 61.8622 38.324 61.4995 38.8574C61.1368 39.3907 60.9555 40.1587 60.9555 41.1614V45.6094H59.5475V37.0334H60.6835L60.8915 38.2014H60.9715C61.1635 37.9027 61.3982 37.6574 61.6755 37.4654C61.9635 37.2627 62.2782 37.1134 62.6195 37.0174C62.9608 36.9214 63.3128 36.8734 63.6755 36.8734ZM82.4744 41.5774C82.4744 42.3667 82.3144 43.0814 81.9944 43.7214C81.6744 44.3507 81.1837 44.852 80.5224 45.2254C79.8717 45.588 79.0397 45.7694 78.0264 45.7694C76.6077 45.7694 75.525 45.3854 74.7784 44.6174C74.0424 43.8387 73.6744 42.8147 73.6744 41.5454V34.1854H75.1144V41.5934C75.1144 42.5214 75.3597 43.2414 75.8504 43.7534C76.3517 44.2654 77.1037 44.5214 78.1064 44.5214C78.7997 44.5214 79.3597 44.3987 79.7864 44.1534C80.2237 43.8974 80.5437 43.5507 80.7464 43.1134C80.949 42.6654 81.0504 42.1534 81.0504 41.5774V34.1854H82.4744V41.5774ZM90.8815 43.2414C90.8815 43.796 90.7428 44.26 90.4655 44.6334C90.1882 45.0067 89.7935 45.2894 89.2815 45.4814C88.7695 45.6734 88.1615 45.7694 87.4575 45.7694C86.8602 45.7694 86.3428 45.7214 85.9055 45.6254C85.4788 45.5294 85.1002 45.396 84.7695 45.2254V43.9454C85.1108 44.116 85.5215 44.276 86.0015 44.4254C86.4922 44.564 86.9882 44.6334 87.4895 44.6334C88.2042 44.6334 88.7215 44.5214 89.0415 44.2974C89.3615 44.0627 89.5215 43.7534 89.5215 43.3694C89.5215 43.156 89.4628 42.964 89.3455 42.7934C89.2282 42.6227 89.0148 42.452 88.7055 42.2814C88.4068 42.1107 87.9748 41.9187 87.4095 41.7054C86.8548 41.492 86.3802 41.2787 85.9855 41.0654C85.5908 40.852 85.2868 40.596 85.0735 40.2974C84.8602 39.9987 84.7535 39.6147 84.7535 39.1454C84.7535 38.42 85.0468 37.86 85.6335 37.4654C86.2308 37.0707 87.0095 36.8734 87.9695 36.8734C88.4922 36.8734 88.9775 36.9267 89.4255 37.0334C89.8842 37.1294 90.3108 37.268 90.7055 37.4494L90.2255 38.5694C89.9908 38.4627 89.7402 38.372 89.4735 38.2974C89.2175 38.212 88.9562 38.148 88.6895 38.1054C88.4228 38.052 88.1508 38.0254 87.8735 38.0254C87.2975 38.0254 86.8548 38.1214 86.5455 38.3134C86.2468 38.4947 86.0975 38.7454 86.0975 39.0654C86.0975 39.3 86.1668 39.5027 86.3055 39.6734C86.4442 39.8334 86.6735 39.9934 86.9935 40.1534C87.3242 40.3027 87.7615 40.484 88.3055 40.6974C88.8495 40.9 89.3135 41.108 89.6975 41.3214C90.0815 41.5347 90.3748 41.796 90.5775 42.1054C90.7802 42.404 90.8815 42.7827 90.8815 43.2414ZM104.566 41.3054C104.566 42.02 104.47 42.6547 104.278 43.2094C104.097 43.7534 103.83 44.2174 103.478 44.6014C103.137 44.9854 102.715 45.2787 102.214 45.4814C101.723 45.6734 101.174 45.7694 100.566 45.7694C100.001 45.7694 99.478 45.6734 98.998 45.4814C98.518 45.2787 98.102 44.9854 97.75 44.6014C97.398 44.2174 97.1207 43.7534 96.918 43.2094C96.726 42.6547 96.63 42.02 96.63 41.3054C96.63 40.356 96.79 39.556 97.11 38.9054C97.43 38.244 97.8887 37.7427 98.486 37.4014C99.0833 37.0494 99.7927 36.8734 100.614 36.8734C101.393 36.8734 102.075 37.0494 102.662 37.4014C103.259 37.7427 103.723 38.244 104.054 38.9054C104.395 39.556 104.566 40.356 104.566 41.3054ZM98.086 41.3054C98.086 41.9774 98.1713 42.564 98.342 43.0654C98.5233 43.556 98.8007 43.9347 99.174 44.2014C99.5473 44.468 100.022 44.6014 100.598 44.6014C101.174 44.6014 101.649 44.468 102.022 44.2014C102.395 43.9347 102.667 43.556 102.838 43.0654C103.019 42.564 103.11 41.9774 103.11 41.3054C103.11 40.6227 103.019 40.0414 102.838 39.5614C102.657 39.0814 102.379 38.7134 102.006 38.4574C101.643 38.1907 101.169 38.0574 100.582 38.0574C99.7073 38.0574 99.0727 38.3454 98.678 38.9214C98.2833 39.4974 98.086 40.292 98.086 41.3054ZM110.926 36.8734C111.95 36.8734 112.723 37.124 113.246 37.6254C113.768 38.116 114.03 38.916 114.03 40.0254V45.6094H112.638V40.1214C112.638 39.428 112.483 38.9107 112.174 38.5694C111.864 38.228 111.379 38.0574 110.718 38.0574C109.768 38.0574 109.112 38.324 108.75 38.8574C108.387 39.3907 108.206 40.1587 108.206 41.1614V45.6094H106.798V37.0334H107.934L108.142 38.2014H108.222C108.414 37.9027 108.648 37.6574 108.926 37.4654C109.214 37.2627 109.528 37.1134 109.87 37.0174C110.211 36.9214 110.563 36.8734 110.926 36.8734Z" fill="#3B3B3B"/>
<path d="M49.528 61.8254C48.744 61.8254 48.048 61.9694 47.44 62.2574C46.832 62.5454 46.312 62.9614 45.88 63.5054C45.464 64.0494 45.144 64.7054 44.92 65.4734C44.712 66.2414 44.608 67.1054 44.608 68.0654C44.608 69.3614 44.784 70.4734 45.136 71.4014C45.488 72.3134 46.024 73.0174 46.744 73.5134C47.48 74.0094 48.4 74.2574 49.504 74.2574C50.24 74.2574 50.944 74.1854 51.616 74.0414C52.304 73.8814 53.024 73.6734 53.776 73.4174V76.0334C53.072 76.3214 52.36 76.5294 51.64 76.6574C50.936 76.7854 50.12 76.8494 49.192 76.8494C47.432 76.8494 45.976 76.4894 44.824 75.7694C43.672 75.0334 42.816 74.0094 42.256 72.6974C41.696 71.3694 41.416 69.8174 41.416 68.0414C41.416 66.7454 41.592 65.5614 41.944 64.4894C42.312 63.4174 42.832 62.4894 43.504 61.7054C44.192 60.9214 45.04 60.3134 46.048 59.8814C47.056 59.4494 48.216 59.2334 49.528 59.2334C50.392 59.2334 51.24 59.3374 52.072 59.5454C52.92 59.7374 53.712 60.0094 54.448 60.3614L53.392 62.8814C52.784 62.6094 52.152 62.3694 51.496 62.1614C50.856 61.9374 50.2 61.8254 49.528 61.8254ZM63.9944 63.3614C64.1864 63.3614 64.4104 63.3694 64.6664 63.3854C64.9224 63.4014 65.1384 63.4334 65.3144 63.4814L65.0504 66.2894C64.9064 66.2574 64.7144 66.2334 64.4744 66.2174C64.2504 66.1854 64.0504 66.1694 63.8744 66.1694C63.3944 66.1694 62.9304 66.2494 62.4824 66.4094C62.0504 66.5534 61.6584 66.7774 61.3064 67.0814C60.9704 67.3694 60.6984 67.7454 60.4904 68.2094C60.2984 68.6734 60.2024 69.2254 60.2024 69.8654V76.6094H57.1784V63.6014H59.5064L59.9384 65.8574H60.0824C60.3384 65.3934 60.6584 64.9774 61.0424 64.6094C61.4264 64.2254 61.8664 63.9214 62.3624 63.6974C62.8744 63.4734 63.4184 63.3614 63.9944 63.3614ZM79.2693 63.6014V76.6094H76.8933L76.4853 74.9294H76.3413C76.0693 75.3774 75.7173 75.7454 75.2853 76.0334C74.8533 76.3054 74.3813 76.5054 73.8693 76.6334C73.3573 76.7774 72.8293 76.8494 72.2853 76.8494C71.3253 76.8494 70.4933 76.6814 69.7893 76.3454C69.0853 76.0094 68.5493 75.4974 68.1813 74.8094C67.8133 74.1054 67.6293 73.2014 67.6293 72.0974V63.6014H70.6533V71.4974C70.6533 72.4574 70.8453 73.1854 71.2293 73.6814C71.6133 74.1614 72.2213 74.4014 73.0533 74.4014C73.8693 74.4014 74.5093 74.2334 74.9733 73.8974C75.4373 73.5454 75.7653 73.0414 75.9573 72.3854C76.1493 71.7294 76.2453 70.9214 76.2453 69.9614V63.6014H79.2693ZM90.0837 63.3614C91.5397 63.3614 92.6757 63.7374 93.4917 64.4894C94.3237 65.2414 94.7397 66.4574 94.7397 68.1374V76.6094H91.7157V68.7374C91.7157 67.7614 91.5237 67.0334 91.1397 66.5534C90.7557 66.0574 90.1477 65.8094 89.3157 65.8094C88.0997 65.8094 87.2677 66.1934 86.8197 66.9614C86.3717 67.7134 86.1477 68.8094 86.1477 70.2494V76.6094H83.1237V63.6014H85.4517L85.8837 65.3054H86.0517C86.3397 64.8574 86.6917 64.4894 87.1077 64.2014C87.5237 63.9134 87.9877 63.7054 88.4997 63.5774C89.0117 63.4334 89.5397 63.3614 90.0837 63.3614ZM103.778 76.8494C102.546 76.8494 101.474 76.6174 100.562 76.1534C99.6661 75.6734 98.9701 74.9454 98.4741 73.9694C97.9941 72.9774 97.7541 71.7134 97.7541 70.1774C97.7541 68.5774 98.0181 67.2814 98.5461 66.2894C99.0901 65.2814 99.8341 64.5454 100.778 64.0814C101.722 63.6014 102.802 63.3614 104.018 63.3614C104.834 63.3614 105.562 63.4414 106.202 63.6014C106.842 63.7614 107.386 63.9534 107.834 64.1774L106.946 66.5534C106.45 66.3614 105.954 66.2014 105.458 66.0734C104.962 65.9294 104.482 65.8574 104.018 65.8574C103.298 65.8574 102.698 66.0174 102.218 66.3374C101.754 66.6574 101.41 67.1374 101.186 67.7774C100.962 68.4014 100.85 69.1934 100.85 70.1534C100.85 71.0814 100.962 71.8574 101.186 72.4814C101.426 73.1054 101.778 73.5774 102.242 73.8974C102.706 74.2014 103.282 74.3534 103.97 74.3534C104.706 74.3534 105.354 74.2654 105.914 74.0894C106.474 73.9134 107.002 73.6734 107.498 73.3694V75.9854C107.002 76.2894 106.466 76.5054 105.89 76.6334C105.33 76.7774 104.626 76.8494 103.778 76.8494ZM113.57 62.7134C113.57 63.2254 113.546 63.7294 113.498 64.2254C113.466 64.7054 113.434 65.0654 113.402 65.3054H113.594C113.866 64.8574 114.202 64.4974 114.602 64.2254C115.002 63.9374 115.442 63.7214 115.922 63.5774C116.418 63.4334 116.93 63.3614 117.458 63.3614C118.434 63.3614 119.274 63.5294 119.978 63.8654C120.682 64.2014 121.218 64.7214 121.586 65.4254C121.97 66.1134 122.162 67.0174 122.162 68.1374V76.6094H119.138V68.7374C119.138 67.7454 118.946 67.0094 118.562 66.5294C118.178 66.0494 117.57 65.8094 116.738 65.8094C115.938 65.8094 115.306 65.9854 114.842 66.3374C114.378 66.6734 114.05 67.1774 113.858 67.8494C113.666 68.5054 113.57 69.3134 113.57 70.2734V76.6094H110.546V58.3694H113.57V62.7134ZM137.626 59.4734C139.114 59.4734 140.362 59.6174 141.37 59.9054C142.378 60.1774 143.13 60.6254 143.626 61.2494C144.138 61.8734 144.394 62.7134 144.394 63.7694C144.394 64.4254 144.282 65.0174 144.058 65.5454C143.834 66.0734 143.506 66.5054 143.074 66.8414C142.658 67.1774 142.138 67.4014 141.514 67.5134V67.6334C142.154 67.7454 142.722 67.9534 143.218 68.2574C143.73 68.5454 144.13 68.9694 144.418 69.5294C144.722 70.0734 144.874 70.7934 144.874 71.6894C144.874 72.7294 144.626 73.6174 144.13 74.3534C143.634 75.0894 142.922 75.6494 141.994 76.0334C141.082 76.4174 139.994 76.6094 138.73 76.6094H132.466V59.4734H137.626ZM138.034 66.4574C139.25 66.4574 140.082 66.2654 140.53 65.8814C140.994 65.4974 141.226 64.9294 141.226 64.1774C141.226 63.4094 140.954 62.8574 140.41 62.5214C139.866 62.1854 138.994 62.0174 137.794 62.0174H135.538V66.4574H138.034ZM135.538 68.9294V74.0414H138.322C139.57 74.0414 140.434 73.8014 140.914 73.3214C141.41 72.8414 141.658 72.2014 141.658 71.4014C141.658 70.8894 141.554 70.4494 141.346 70.0814C141.138 69.7134 140.778 69.4334 140.266 69.2414C139.754 69.0334 139.058 68.9294 138.178 68.9294H135.538ZM153.3 63.3614C154.98 63.3614 156.252 63.7294 157.116 64.4654C157.996 65.1854 158.436 66.3214 158.436 67.8734V76.6094H156.3L155.7 74.8094H155.604C155.236 75.2734 154.852 75.6654 154.452 75.9854C154.068 76.2894 153.62 76.5054 153.108 76.6334C152.612 76.7774 152.004 76.8494 151.284 76.8494C150.516 76.8494 149.82 76.7054 149.196 76.4174C148.588 76.1294 148.108 75.6894 147.756 75.0974C147.404 74.4894 147.228 73.7294 147.228 72.8174C147.228 71.4734 147.716 70.4654 148.692 69.7934C149.684 69.1054 151.18 68.7294 153.18 68.6654L155.436 68.5934V67.9454C155.436 67.1134 155.236 66.5214 154.836 66.1694C154.436 65.8174 153.876 65.6414 153.156 65.6414C152.5 65.6414 151.868 65.7374 151.26 65.9294C150.652 66.1214 150.06 66.3454 149.484 66.6014L148.524 64.4894C149.164 64.1534 149.892 63.8814 150.708 63.6734C151.54 63.4654 152.404 63.3614 153.3 63.3614ZM153.852 70.5134C152.524 70.5614 151.604 70.7934 151.092 71.2094C150.58 71.6094 150.324 72.1534 150.324 72.8414C150.324 73.4494 150.508 73.8894 150.876 74.1614C151.244 74.4334 151.716 74.5694 152.292 74.5694C153.172 74.5694 153.916 74.3214 154.524 73.8254C155.132 73.3134 155.436 72.5614 155.436 71.5694V70.4654L153.852 70.5134ZM171.081 72.8414C171.081 73.7054 170.873 74.4414 170.457 75.0494C170.041 75.6414 169.425 76.0894 168.609 76.3934C167.809 76.6974 166.825 76.8494 165.657 76.8494C164.745 76.8494 163.961 76.7854 163.305 76.6574C162.649 76.5294 162.025 76.3294 161.433 76.0574V73.4894C162.073 73.7934 162.785 74.0494 163.569 74.2574C164.353 74.4654 165.081 74.5694 165.753 74.5694C166.585 74.5694 167.185 74.4414 167.553 74.1854C167.921 73.9294 168.105 73.5854 168.105 73.1534C168.105 72.8974 168.033 72.6654 167.889 72.4574C167.745 72.2494 167.465 72.0334 167.049 71.8094C166.633 71.5694 166.001 71.2734 165.153 70.9214C164.321 70.5854 163.625 70.2494 163.065 69.9134C162.521 69.5774 162.105 69.1774 161.817 68.7134C161.545 68.2334 161.409 67.6334 161.409 66.9134C161.409 65.7454 161.873 64.8654 162.801 64.2734C163.729 63.6654 164.953 63.3614 166.473 63.3614C167.273 63.3614 168.025 63.4414 168.729 63.6014C169.449 63.7454 170.169 63.9854 170.889 64.3214L169.929 66.5534C169.529 66.3774 169.129 66.2254 168.729 66.0974C168.345 65.9534 167.953 65.8414 167.553 65.7614C167.169 65.6814 166.777 65.6414 166.377 65.6414C165.721 65.6414 165.225 65.7454 164.889 65.9534C164.553 66.1454 164.385 66.4174 164.385 66.7694C164.385 67.0414 164.465 67.2814 164.625 67.4894C164.801 67.6814 165.097 67.8814 165.513 68.0894C165.945 68.2814 166.553 68.5374 167.337 68.8574C168.121 69.1614 168.785 69.4814 169.329 69.8174C169.889 70.1374 170.321 70.5374 170.625 71.0174C170.929 71.4974 171.081 72.1054 171.081 72.8414ZM179.223 63.3614C180.391 63.3614 181.391 63.6014 182.223 64.0814C183.071 64.5454 183.727 65.2174 184.191 66.0974C184.655 66.9614 184.887 68.0174 184.887 69.2654V70.8014H176.295C176.327 71.9854 176.655 72.9054 177.279 73.5614C177.903 74.2014 178.767 74.5214 179.871 74.5214C180.719 74.5214 181.471 74.4414 182.127 74.2814C182.799 74.1054 183.487 73.8574 184.191 73.5374V75.9614C183.551 76.2654 182.887 76.4894 182.199 76.6334C181.511 76.7774 180.687 76.8494 179.727 76.8494C178.463 76.8494 177.335 76.6094 176.343 76.1294C175.367 75.6334 174.599 74.8894 174.039 73.8974C173.495 72.9054 173.223 71.6734 173.223 70.2014C173.223 68.7134 173.471 67.4654 173.967 66.4574C174.479 65.4334 175.183 64.6654 176.079 64.1534C176.975 63.6254 178.023 63.3614 179.223 63.3614ZM179.223 65.5934C178.423 65.5934 177.767 65.8574 177.255 66.3854C176.759 66.8974 176.463 67.6654 176.367 68.6894H181.959C181.959 68.0814 181.855 67.5454 181.647 67.0814C181.455 66.6174 181.159 66.2574 180.759 66.0014C180.359 65.7294 179.847 65.5934 179.223 65.5934Z" fill="#3B3B3B"/>
</g>
<path d="M24 0.5H197.333C210.312 0.5 220.833 11.0213 220.833 24V91.6074C220.833 104.586 210.312 115.107 197.333 115.107H24C11.0214 115.107 0.500153 104.586 0.5 91.6074V24C0.5 11.0213 11.0213 0.5 24 0.5Z" stroke="#3B3B3B"/>
<defs>
<radialGradient id="paint0_radial_9682_62075" cx="0" cy="0" r="1" gradientTransform="matrix(166.693 45.1447 45.61 156.362 54.2783 57.3095)" gradientUnits="userSpaceOnUse">
<stop offset="0.14" stop-color="white"/>
<stop offset="0.86" stop-color="#0060FE"/>
</radialGradient>
<clipPath id="clip0_9682_62075">
<path d="M0 24C0 10.7452 10.7452 0 24 0H197.333C210.588 0 221.333 10.7452 221.333 24V91.6071C221.333 104.862 210.588 115.607 197.333 115.607H24C10.7452 115.607 0 104.862 0 91.6071V24Z" fill="white"/>
</clipPath>
</defs>
</svg>
