<svg width="222" height="116" viewBox="0 0 222 116" fill="none" xmlns="http://www.w3.org/2000/svg">
<g clip-path="url(#clip0_9682_62081)">
<path d="M0 24C0 10.7452 10.7452 0 24 0H197.333C210.588 0 221.333 10.7452 221.333 24V91.6071C221.333 104.862 210.588 115.607 197.333 115.607H24C10.7452 115.607 0 104.862 0 91.6071V24Z" fill="url(#paint0_radial_9682_62081)"/>
<g opacity="0.8">
<path d="M192.361 40.2734C184.999 35.4933 176.843 31.6286 168.173 28.8395C168.017 28.8198 167.859 28.8627 167.734 28.959C166.393 30.764 164.791 33.1365 163.686 34.9748C154.461 32.2294 144.876 30.8823 135.252 30.9786C134.705 28.8479 133.811 26.185 132.96 24.0719C132.918 23.9451 132.748 23.8609 132.57 23.8359C123.468 24.1273 114.622 25.6025 106.168 28.1597C106.109 28.1514 106.041 28.2023 105.973 28.2532C86.4719 50.0991 78.732 72.9335 77.6602 96.4634C77.6436 96.5819 77.6862 96.7087 77.7963 96.7846C87.3604 106.103 96.9428 112.282 106.632 116.846C106.801 116.93 106.987 116.896 107.063 116.785C109.89 113.86 112.506 110.724 114.85 107.369C115.002 107.148 114.917 106.895 114.688 106.802C111.495 105.024 108.512 103.035 105.622 100.816C105.402 100.664 105.452 100.309 105.655 100.156C106.373 99.7738 107.099 99.3322 107.818 98.9499C107.953 98.8481 108.13 98.8731 108.241 98.9489C127.312 111.114 149.29 114.202 170.738 107.732C170.865 107.69 171.043 107.715 171.145 107.85C171.721 108.475 172.306 109.04 172.883 109.665C173.095 109.876 173.045 110.231 172.732 110.308C169.394 111.712 165.927 112.735 162.368 113.563C162.122 113.589 162.021 113.877 162.056 114.063C163.443 117.943 165.093 121.679 166.946 125.262C167.115 125.346 167.284 125.43 167.47 125.396C178.101 123.688 189.015 120.389 200.777 114.068C200.904 114.026 200.98 113.916 200.997 113.797C207.375 87.3281 203.716 63.0729 192.582 40.4252C192.531 40.3576 192.48 40.2901 192.361 40.2734ZM120.703 88.0748C114.601 87.2173 110.298 80.8735 111.272 73.9425C112.246 67.0115 118.013 62.0831 124.233 62.9573C130.512 63.8398 134.689 70.2261 133.664 77.0896C132.69 84.0206 126.923 88.949 120.703 88.0748ZM161.993 93.8777C155.891 93.0202 151.588 86.6765 152.562 79.7454C153.536 72.8144 159.303 67.886 165.523 68.7602C171.802 69.6427 175.979 76.0291 174.954 82.8925C173.98 89.8235 168.272 94.7603 161.993 93.8777Z" fill="white"/>
</g>
<path d="M39.936 48.6494C39.68 48.6494 39.456 48.628 39.264 48.5854C39.072 48.5534 38.9013 48.5054 38.752 48.4414V47.2254C38.9227 47.268 39.104 47.3054 39.296 47.3374C39.488 47.3694 39.6907 47.3854 39.904 47.3854C40.1707 47.3854 40.4213 47.332 40.656 47.2254C40.9013 47.1187 41.0987 46.932 41.248 46.6654C41.3973 46.3987 41.472 46.0254 41.472 45.5454V34.1854H42.912V45.4334C42.912 46.1694 42.7893 46.772 42.544 47.2414C42.2987 47.7214 41.952 48.0734 41.504 48.2974C41.056 48.532 40.5333 48.6494 39.936 48.6494ZM53.191 41.3054C53.191 42.02 53.095 42.6547 52.903 43.2094C52.7217 43.7534 52.455 44.2174 52.103 44.6014C51.7617 44.9854 51.3403 45.2787 50.839 45.4814C50.3483 45.6734 49.799 45.7694 49.191 45.7694C48.6257 45.7694 48.103 45.6734 47.623 45.4814C47.143 45.2787 46.727 44.9854 46.375 44.6014C46.023 44.2174 45.7457 43.7534 45.543 43.2094C45.351 42.6547 45.255 42.02 45.255 41.3054C45.255 40.356 45.415 39.556 45.735 38.9054C46.055 38.244 46.5137 37.7427 47.111 37.4014C47.7083 37.0494 48.4177 36.8734 49.239 36.8734C50.0177 36.8734 50.7003 37.0494 51.287 37.4014C51.8843 37.7427 52.3483 38.244 52.679 38.9054C53.0203 39.556 53.191 40.356 53.191 41.3054ZM46.711 41.3054C46.711 41.9774 46.7963 42.564 46.967 43.0654C47.1483 43.556 47.4257 43.9347 47.799 44.2014C48.1723 44.468 48.647 44.6014 49.223 44.6014C49.799 44.6014 50.2737 44.468 50.647 44.2014C51.0203 43.9347 51.2923 43.556 51.463 43.0654C51.6443 42.564 51.735 41.9774 51.735 41.3054C51.735 40.6227 51.6443 40.0414 51.463 39.5614C51.2817 39.0814 51.0043 38.7134 50.631 38.4574C50.2683 38.1907 49.7937 38.0574 49.207 38.0574C48.3323 38.0574 47.6977 38.3454 47.303 38.9214C46.9083 39.4974 46.711 40.292 46.711 41.3054ZM56.8305 37.0334V45.6094H55.4225V37.0334H56.8305ZM56.1425 33.8174C56.3558 33.8174 56.5425 33.892 56.7025 34.0414C56.8732 34.18 56.9585 34.404 56.9585 34.7134C56.9585 35.012 56.8732 35.236 56.7025 35.3854C56.5425 35.5347 56.3558 35.6094 56.1425 35.6094C55.9078 35.6094 55.7105 35.5347 55.5505 35.3854C55.3905 35.236 55.3105 35.012 55.3105 34.7134C55.3105 34.404 55.3905 34.18 55.5505 34.0414C55.7105 33.892 55.9078 33.8174 56.1425 33.8174ZM63.6755 36.8734C64.6995 36.8734 65.4728 37.124 65.9955 37.6254C66.5182 38.116 66.7795 38.916 66.7795 40.0254V45.6094H65.3875V40.1214C65.3875 39.428 65.2328 38.9107 64.9235 38.5694C64.6142 38.228 64.1288 38.0574 63.4675 38.0574C62.5182 38.0574 61.8622 38.324 61.4995 38.8574C61.1368 39.3907 60.9555 40.1587 60.9555 41.1614V45.6094H59.5475V37.0334H60.6835L60.8915 38.2014H60.9715C61.1635 37.9027 61.3982 37.6574 61.6755 37.4654C61.9635 37.2627 62.2782 37.1134 62.6195 37.0174C62.9608 36.9214 63.3128 36.8734 63.6755 36.8734ZM82.4744 41.5774C82.4744 42.3667 82.3144 43.0814 81.9944 43.7214C81.6744 44.3507 81.1837 44.852 80.5224 45.2254C79.8717 45.588 79.0397 45.7694 78.0264 45.7694C76.6077 45.7694 75.525 45.3854 74.7784 44.6174C74.0424 43.8387 73.6744 42.8147 73.6744 41.5454V34.1854H75.1144V41.5934C75.1144 42.5214 75.3597 43.2414 75.8504 43.7534C76.3517 44.2654 77.1037 44.5214 78.1064 44.5214C78.7997 44.5214 79.3597 44.3987 79.7864 44.1534C80.2237 43.8974 80.5437 43.5507 80.7464 43.1134C80.949 42.6654 81.0504 42.1534 81.0504 41.5774V34.1854H82.4744V41.5774ZM90.8815 43.2414C90.8815 43.796 90.7428 44.26 90.4655 44.6334C90.1882 45.0067 89.7935 45.2894 89.2815 45.4814C88.7695 45.6734 88.1615 45.7694 87.4575 45.7694C86.8602 45.7694 86.3428 45.7214 85.9055 45.6254C85.4788 45.5294 85.1002 45.396 84.7695 45.2254V43.9454C85.1108 44.116 85.5215 44.276 86.0015 44.4254C86.4922 44.564 86.9882 44.6334 87.4895 44.6334C88.2042 44.6334 88.7215 44.5214 89.0415 44.2974C89.3615 44.0627 89.5215 43.7534 89.5215 43.3694C89.5215 43.156 89.4628 42.964 89.3455 42.7934C89.2282 42.6227 89.0148 42.452 88.7055 42.2814C88.4068 42.1107 87.9748 41.9187 87.4095 41.7054C86.8548 41.492 86.3802 41.2787 85.9855 41.0654C85.5908 40.852 85.2868 40.596 85.0735 40.2974C84.8602 39.9987 84.7535 39.6147 84.7535 39.1454C84.7535 38.42 85.0468 37.86 85.6335 37.4654C86.2308 37.0707 87.0095 36.8734 87.9695 36.8734C88.4922 36.8734 88.9775 36.9267 89.4255 37.0334C89.8842 37.1294 90.3108 37.268 90.7055 37.4494L90.2255 38.5694C89.9908 38.4627 89.7402 38.372 89.4735 38.2974C89.2175 38.212 88.9562 38.148 88.6895 38.1054C88.4228 38.052 88.1508 38.0254 87.8735 38.0254C87.2975 38.0254 86.8548 38.1214 86.5455 38.3134C86.2468 38.4947 86.0975 38.7454 86.0975 39.0654C86.0975 39.3 86.1668 39.5027 86.3055 39.6734C86.4442 39.8334 86.6735 39.9934 86.9935 40.1534C87.3242 40.3027 87.7615 40.484 88.3055 40.6974C88.8495 40.9 89.3135 41.108 89.6975 41.3214C90.0815 41.5347 90.3748 41.796 90.5775 42.1054C90.7802 42.404 90.8815 42.7827 90.8815 43.2414ZM104.566 41.3054C104.566 42.02 104.47 42.6547 104.278 43.2094C104.097 43.7534 103.83 44.2174 103.478 44.6014C103.137 44.9854 102.715 45.2787 102.214 45.4814C101.723 45.6734 101.174 45.7694 100.566 45.7694C100.001 45.7694 99.478 45.6734 98.998 45.4814C98.518 45.2787 98.102 44.9854 97.75 44.6014C97.398 44.2174 97.1207 43.7534 96.918 43.2094C96.726 42.6547 96.63 42.02 96.63 41.3054C96.63 40.356 96.79 39.556 97.11 38.9054C97.43 38.244 97.8887 37.7427 98.486 37.4014C99.0833 37.0494 99.7927 36.8734 100.614 36.8734C101.393 36.8734 102.075 37.0494 102.662 37.4014C103.259 37.7427 103.723 38.244 104.054 38.9054C104.395 39.556 104.566 40.356 104.566 41.3054ZM98.086 41.3054C98.086 41.9774 98.1713 42.564 98.342 43.0654C98.5233 43.556 98.8007 43.9347 99.174 44.2014C99.5473 44.468 100.022 44.6014 100.598 44.6014C101.174 44.6014 101.649 44.468 102.022 44.2014C102.395 43.9347 102.667 43.556 102.838 43.0654C103.019 42.564 103.11 41.9774 103.11 41.3054C103.11 40.6227 103.019 40.0414 102.838 39.5614C102.657 39.0814 102.379 38.7134 102.006 38.4574C101.643 38.1907 101.169 38.0574 100.582 38.0574C99.7073 38.0574 99.0727 38.3454 98.678 38.9214C98.2833 39.4974 98.086 40.292 98.086 41.3054ZM110.926 36.8734C111.95 36.8734 112.723 37.124 113.246 37.6254C113.768 38.116 114.03 38.916 114.03 40.0254V45.6094H112.638V40.1214C112.638 39.428 112.483 38.9107 112.174 38.5694C111.864 38.228 111.379 38.0574 110.718 38.0574C109.768 38.0574 109.112 38.324 108.75 38.8574C108.387 39.3907 108.206 40.1587 108.206 41.1614V45.6094H106.798V37.0334H107.934L108.142 38.2014H108.222C108.414 37.9027 108.648 37.6574 108.926 37.4654C109.214 37.2627 109.528 37.1134 109.87 37.0174C110.211 36.9214 110.563 36.8734 110.926 36.8734Z" fill="#3B3B3B"/>
<path d="M56.248 67.8734C56.248 69.7934 55.88 71.4014 55.144 72.6974C54.424 73.9934 53.376 74.9694 52 75.6254C50.64 76.2814 48.992 76.6094 47.056 76.6094H42.232V59.4734H47.56C49.336 59.4734 50.872 59.7934 52.168 60.4334C53.464 61.0734 54.464 62.0174 55.168 63.2654C55.888 64.4974 56.248 66.0334 56.248 67.8734ZM53.032 67.9694C53.032 66.6094 52.824 65.4894 52.408 64.6094C51.992 63.7294 51.376 63.0814 50.56 62.6654C49.744 62.2334 48.744 62.0174 47.56 62.0174H45.304V74.0414H47.152C49.136 74.0414 50.608 73.5374 51.568 72.5294C52.544 71.5054 53.032 69.9854 53.032 67.9694ZM62.6399 63.6014V76.6094H59.6159V63.6014H62.6399ZM61.1279 58.5854C61.5759 58.5854 61.9679 58.7054 62.3039 58.9454C62.6399 59.1694 62.8079 59.5774 62.8079 60.1694C62.8079 60.7454 62.6399 61.1614 62.3039 61.4174C61.9679 61.6574 61.5759 61.7774 61.1279 61.7774C60.6639 61.7774 60.2639 61.6574 59.9279 61.4174C59.6079 61.1614 59.4479 60.7454 59.4479 60.1694C59.4479 59.5774 59.6079 59.1694 59.9279 58.9454C60.2639 58.7054 60.6639 58.5854 61.1279 58.5854ZM75.3625 72.8414C75.3625 73.7054 75.1545 74.4414 74.7385 75.0494C74.3225 75.6414 73.7065 76.0894 72.8905 76.3934C72.0905 76.6974 71.1065 76.8494 69.9385 76.8494C69.0265 76.8494 68.2425 76.7854 67.5865 76.6574C66.9305 76.5294 66.3065 76.3294 65.7145 76.0574V73.4894C66.3545 73.7934 67.0665 74.0494 67.8505 74.2574C68.6345 74.4654 69.3625 74.5694 70.0345 74.5694C70.8665 74.5694 71.4665 74.4414 71.8345 74.1854C72.2025 73.9294 72.3865 73.5854 72.3865 73.1534C72.3865 72.8974 72.3145 72.6654 72.1705 72.4574C72.0265 72.2494 71.7465 72.0334 71.3305 71.8094C70.9145 71.5694 70.2825 71.2734 69.4345 70.9214C68.6025 70.5854 67.9065 70.2494 67.3465 69.9134C66.8025 69.5774 66.3865 69.1774 66.0985 68.7134C65.8265 68.2334 65.6905 67.6334 65.6905 66.9134C65.6905 65.7454 66.1545 64.8654 67.0825 64.2734C68.0105 63.6654 69.2345 63.3614 70.7545 63.3614C71.5545 63.3614 72.3065 63.4414 73.0105 63.6014C73.7305 63.7454 74.4505 63.9854 75.1705 64.3214L74.2105 66.5534C73.8105 66.3774 73.4105 66.2254 73.0105 66.0974C72.6265 65.9534 72.2345 65.8414 71.8345 65.7614C71.4505 65.6814 71.0585 65.6414 70.6585 65.6414C70.0025 65.6414 69.5065 65.7454 69.1705 65.9534C68.8345 66.1454 68.6665 66.4174 68.6665 66.7694C68.6665 67.0414 68.7465 67.2814 68.9065 67.4894C69.0825 67.6814 69.3785 67.8814 69.7945 68.0894C70.2265 68.2814 70.8345 68.5374 71.6185 68.8574C72.4025 69.1614 73.0665 69.4814 73.6105 69.8174C74.1705 70.1374 74.6025 70.5374 74.9065 71.0174C75.2105 71.4974 75.3625 72.1054 75.3625 72.8414ZM83.5281 76.8494C82.2961 76.8494 81.2241 76.6174 80.3121 76.1534C79.4161 75.6734 78.7201 74.9454 78.2241 73.9694C77.7441 72.9774 77.5041 71.7134 77.5041 70.1774C77.5041 68.5774 77.7681 67.2814 78.2961 66.2894C78.8401 65.2814 79.5841 64.5454 80.5281 64.0814C81.4721 63.6014 82.5521 63.3614 83.7681 63.3614C84.5841 63.3614 85.3121 63.4414 85.9521 63.6014C86.5921 63.7614 87.1361 63.9534 87.5841 64.1774L86.6961 66.5534C86.2001 66.3614 85.7041 66.2014 85.2081 66.0734C84.7121 65.9294 84.2321 65.8574 83.7681 65.8574C83.0481 65.8574 82.4481 66.0174 81.9681 66.3374C81.5041 66.6574 81.1601 67.1374 80.9361 67.7774C80.7121 68.4014 80.6001 69.1934 80.6001 70.1534C80.6001 71.0814 80.7121 71.8574 80.9361 72.4814C81.1761 73.1054 81.5281 73.5774 81.9921 73.8974C82.4561 74.2014 83.0321 74.3534 83.7201 74.3534C84.4561 74.3534 85.1041 74.2654 85.6641 74.0894C86.2241 73.9134 86.7521 73.6734 87.2481 73.3694V75.9854C86.7521 76.2894 86.2161 76.5054 85.6401 76.6334C85.0801 76.7774 84.3761 76.8494 83.5281 76.8494ZM101.912 70.0814C101.912 71.1694 101.768 72.1294 101.48 72.9614C101.192 73.7934 100.776 74.5054 100.232 75.0974C99.7036 75.6734 99.0476 76.1134 98.2636 76.4174C97.4956 76.7054 96.6396 76.8494 95.6956 76.8494C94.7996 76.8494 93.9756 76.7054 93.2236 76.4174C92.4716 76.1134 91.8156 75.6734 91.2556 75.0974C90.7116 74.5054 90.2876 73.7934 89.9836 72.9614C89.6796 72.1294 89.5276 71.1694 89.5276 70.0814C89.5276 68.6414 89.7756 67.4254 90.2716 66.4334C90.7676 65.4254 91.4796 64.6654 92.4076 64.1534C93.3516 63.6254 94.4636 63.3614 95.7436 63.3614C96.9596 63.3614 98.0236 63.6254 98.9356 64.1534C99.8636 64.6654 100.592 65.4254 101.12 66.4334C101.648 67.4254 101.912 68.6414 101.912 70.0814ZM92.6236 70.0814C92.6236 70.9934 92.7276 71.7774 92.9356 72.4334C93.1596 73.0734 93.4956 73.5614 93.9436 73.8974C94.4076 74.2334 94.9996 74.4014 95.7196 74.4014C96.4556 74.4014 97.0476 74.2334 97.4956 73.8974C97.9596 73.5614 98.2956 73.0734 98.5036 72.4334C98.7116 71.7774 98.8156 70.9934 98.8156 70.0814C98.8156 69.1534 98.7036 68.3774 98.4796 67.7534C98.2716 67.1134 97.9356 66.6334 97.4716 66.3134C97.0236 65.9774 96.4396 65.8094 95.7196 65.8094C94.6316 65.8094 93.8396 66.1774 93.3436 66.9134C92.8636 67.6494 92.6236 68.7054 92.6236 70.0814ZM111.854 63.3614C112.046 63.3614 112.27 63.3694 112.526 63.3854C112.782 63.4014 112.998 63.4334 113.174 63.4814L112.91 66.2894C112.766 66.2574 112.574 66.2334 112.334 66.2174C112.11 66.1854 111.91 66.1694 111.734 66.1694C111.254 66.1694 110.79 66.2494 110.342 66.4094C109.91 66.5534 109.518 66.7774 109.166 67.0814C108.83 67.3694 108.558 67.7454 108.35 68.2094C108.158 68.6734 108.062 69.2254 108.062 69.8654V76.6094H105.038V63.6014H107.366L107.798 65.8574H107.942C108.198 65.3934 108.518 64.9774 108.902 64.6094C109.286 64.2254 109.726 63.9214 110.222 63.6974C110.734 63.4734 111.278 63.3614 111.854 63.3614ZM119.412 76.8494C117.908 76.8494 116.684 76.2894 115.74 75.1694C114.812 74.0334 114.348 72.3534 114.348 70.1294C114.348 67.9054 114.82 66.2254 115.764 65.0894C116.708 63.9374 117.948 63.3614 119.484 63.3614C120.124 63.3614 120.684 63.4494 121.164 63.6254C121.66 63.7854 122.084 64.0094 122.436 64.2974C122.788 64.5854 123.084 64.9054 123.324 65.2574H123.468C123.42 65.0334 123.372 64.6894 123.324 64.2254C123.276 63.7614 123.252 63.3294 123.252 62.9294V58.3694H126.276V76.6094H123.924L123.372 74.9054H123.252C123.012 75.2574 122.716 75.5854 122.364 75.8894C122.012 76.1774 121.596 76.4094 121.116 76.5854C120.636 76.7614 120.068 76.8494 119.412 76.8494ZM120.324 74.4014C121.444 74.4014 122.236 74.0814 122.7 73.4414C123.164 72.8014 123.396 71.8334 123.396 70.5374V70.1534C123.396 68.7454 123.172 67.6734 122.724 66.9374C122.292 66.2014 121.476 65.8334 120.276 65.8334C119.364 65.8334 118.66 66.2174 118.164 66.9854C117.668 67.7374 117.42 68.8014 117.42 70.1774C117.42 71.5534 117.668 72.6014 118.164 73.3214C118.66 74.0414 119.38 74.4014 120.324 74.4014Z" fill="#3B3B3B"/>
</g>
<path d="M24 0.5H197.333C210.312 0.5 220.833 11.0213 220.833 24V91.6074C220.833 104.586 210.312 115.107 197.333 115.107H24C11.0214 115.107 0.500153 104.586 0.5 91.6074V24C0.5 11.0213 11.0213 0.5 24 0.5Z" stroke="#3B3B3B"/>
<defs>
<radialGradient id="paint0_radial_9682_62081" cx="0" cy="0" r="1" gradientTransform="matrix(166.693 45.1447 45.61 156.362 54.2783 57.3095)" gradientUnits="userSpaceOnUse">
<stop offset="0.14" stop-color="white"/>
<stop offset="0.86" stop-color="#5865F2"/>
</radialGradient>
<clipPath id="clip0_9682_62081">
<path d="M0 24C0 10.7452 10.7452 0 24 0H197.333C210.588 0 221.333 10.7452 221.333 24V91.6071C221.333 104.862 210.588 115.607 197.333 115.607H24C10.7452 115.607 0 104.862 0 91.6071V24Z" fill="white"/>
</clipPath>
</defs>
</svg>
