<svg width="222" height="116" viewBox="0 0 222 116" fill="none" xmlns="http://www.w3.org/2000/svg">
<g clip-path="url(#clip0_9682_62028)">
<path d="M0 24C0 10.7452 10.7452 0 24 0H197.333C210.588 0 221.333 10.7452 221.333 24V91.6071C221.333 104.862 210.588 115.607 197.333 115.607H24C10.7452 115.607 0 104.862 0 91.6071V24Z" fill="url(#paint0_linear_9682_62028)"/>
<path d="M0 24C0 10.7452 10.7452 0 24 0H197.333C210.588 0 221.333 10.7452 221.333 24V91.6071C221.333 104.862 210.588 115.607 197.333 115.607H24C10.7452 115.607 0 104.862 0 91.6071V24Z" fill="url(#paint1_radial_9682_62028)"/>
<path d="M0 24C0 10.7452 10.7452 0 24 0H197.333C210.588 0 221.333 10.7452 221.333 24V91.6071C221.333 104.862 210.588 115.607 197.333 115.607H24C10.7452 115.607 0 104.862 0 91.6071V24Z" fill="url(#paint2_radial_9682_62028)"/>
<g opacity="0.8">
<path d="M146.341 55.2273C136.15 53.795 126.665 60.9428 125.233 71.1339C123.8 81.3249 130.948 90.8104 141.139 92.2427C151.33 93.6749 160.816 86.5271 162.248 76.336C163.68 66.145 156.532 56.6595 146.341 55.2273ZM199.25 81.5363C200.327 73.8722 201.463 66.2872 202.108 58.5765C202.927 49.6301 202.008 41.459 196.423 34.0479C190.827 26.6211 183.237 23.5015 174.412 21.8222C166.808 20.3147 159.204 19.3167 151.554 18.2416C143.889 17.1645 136.305 16.0277 128.594 15.3829C119.647 14.5645 111.476 15.4832 104.065 21.0679C96.6384 26.6644 93.5188 34.2538 91.8395 43.0793C90.332 50.6829 89.334 58.2873 88.2589 65.9375C87.1837 73.5878 86.045 81.1866 85.4002 88.8973C84.5818 97.8437 85.5006 106.015 91.0852 113.426C96.6817 120.853 104.271 123.972 113.097 125.652C120.7 127.159 128.305 128.157 135.955 129.232C143.619 130.309 151.204 131.446 158.915 132.091C167.861 132.909 176.032 131.991 183.443 126.406C190.87 120.809 193.99 113.22 195.669 104.395C197.188 96.8068 198.172 89.2004 199.25 81.5363ZM139.738 102.212C123.98 99.9968 113.049 85.4914 115.264 69.7328C117.478 53.9742 131.984 43.0436 147.742 45.2584C163.501 47.4731 174.432 61.9785 172.217 77.7371C170.002 93.4957 155.497 104.426 139.738 102.212ZM176.615 54.9087C172.935 54.3916 170.382 51.0028 170.899 47.3234C171.416 43.6441 174.805 41.0905 178.484 41.6076C182.163 42.1247 184.717 45.5135 184.2 49.1928C184.078 50.0666 183.785 50.9079 183.338 51.6683C182.891 52.4288 182.298 53.0935 181.593 53.6245C180.888 54.1554 180.086 54.5422 179.232 54.7625C178.377 54.9829 177.488 55.0326 176.615 54.9087Z" fill="white"/>
</g>
<path d="M39.936 48.6494C39.68 48.6494 39.456 48.628 39.264 48.5854C39.072 48.5534 38.9013 48.5054 38.752 48.4414V47.2254C38.9227 47.268 39.104 47.3054 39.296 47.3374C39.488 47.3694 39.6907 47.3854 39.904 47.3854C40.1707 47.3854 40.4213 47.332 40.656 47.2254C40.9013 47.1187 41.0987 46.932 41.248 46.6654C41.3973 46.3987 41.472 46.0254 41.472 45.5454V34.1854H42.912V45.4334C42.912 46.1694 42.7893 46.772 42.544 47.2414C42.2987 47.7214 41.952 48.0734 41.504 48.2974C41.056 48.532 40.5333 48.6494 39.936 48.6494ZM53.191 41.3054C53.191 42.02 53.095 42.6547 52.903 43.2094C52.7217 43.7534 52.455 44.2174 52.103 44.6014C51.7617 44.9854 51.3403 45.2787 50.839 45.4814C50.3483 45.6734 49.799 45.7694 49.191 45.7694C48.6257 45.7694 48.103 45.6734 47.623 45.4814C47.143 45.2787 46.727 44.9854 46.375 44.6014C46.023 44.2174 45.7457 43.7534 45.543 43.2094C45.351 42.6547 45.255 42.02 45.255 41.3054C45.255 40.356 45.415 39.556 45.735 38.9054C46.055 38.244 46.5137 37.7427 47.111 37.4014C47.7083 37.0494 48.4177 36.8734 49.239 36.8734C50.0177 36.8734 50.7003 37.0494 51.287 37.4014C51.8843 37.7427 52.3483 38.244 52.679 38.9054C53.0203 39.556 53.191 40.356 53.191 41.3054ZM46.711 41.3054C46.711 41.9774 46.7963 42.564 46.967 43.0654C47.1483 43.556 47.4257 43.9347 47.799 44.2014C48.1723 44.468 48.647 44.6014 49.223 44.6014C49.799 44.6014 50.2737 44.468 50.647 44.2014C51.0203 43.9347 51.2923 43.556 51.463 43.0654C51.6443 42.564 51.735 41.9774 51.735 41.3054C51.735 40.6227 51.6443 40.0414 51.463 39.5614C51.2817 39.0814 51.0043 38.7134 50.631 38.4574C50.2683 38.1907 49.7937 38.0574 49.207 38.0574C48.3323 38.0574 47.6977 38.3454 47.303 38.9214C46.9083 39.4974 46.711 40.292 46.711 41.3054ZM56.8305 37.0334V45.6094H55.4225V37.0334H56.8305ZM56.1425 33.8174C56.3558 33.8174 56.5425 33.892 56.7025 34.0414C56.8732 34.18 56.9585 34.404 56.9585 34.7134C56.9585 35.012 56.8732 35.236 56.7025 35.3854C56.5425 35.5347 56.3558 35.6094 56.1425 35.6094C55.9078 35.6094 55.7105 35.5347 55.5505 35.3854C55.3905 35.236 55.3105 35.012 55.3105 34.7134C55.3105 34.404 55.3905 34.18 55.5505 34.0414C55.7105 33.892 55.9078 33.8174 56.1425 33.8174ZM63.6755 36.8734C64.6995 36.8734 65.4728 37.124 65.9955 37.6254C66.5182 38.116 66.7795 38.916 66.7795 40.0254V45.6094H65.3875V40.1214C65.3875 39.428 65.2328 38.9107 64.9235 38.5694C64.6142 38.228 64.1288 38.0574 63.4675 38.0574C62.5182 38.0574 61.8622 38.324 61.4995 38.8574C61.1368 39.3907 60.9555 40.1587 60.9555 41.1614V45.6094H59.5475V37.0334H60.6835L60.8915 38.2014H60.9715C61.1635 37.9027 61.3982 37.6574 61.6755 37.4654C61.9635 37.2627 62.2782 37.1134 62.6195 37.0174C62.9608 36.9214 63.3128 36.8734 63.6755 36.8734ZM82.4744 41.5774C82.4744 42.3667 82.3144 43.0814 81.9944 43.7214C81.6744 44.3507 81.1837 44.852 80.5224 45.2254C79.8717 45.588 79.0397 45.7694 78.0264 45.7694C76.6077 45.7694 75.525 45.3854 74.7784 44.6174C74.0424 43.8387 73.6744 42.8147 73.6744 41.5454V34.1854H75.1144V41.5934C75.1144 42.5214 75.3597 43.2414 75.8504 43.7534C76.3517 44.2654 77.1037 44.5214 78.1064 44.5214C78.7997 44.5214 79.3597 44.3987 79.7864 44.1534C80.2237 43.8974 80.5437 43.5507 80.7464 43.1134C80.949 42.6654 81.0504 42.1534 81.0504 41.5774V34.1854H82.4744V41.5774ZM90.8815 43.2414C90.8815 43.796 90.7428 44.26 90.4655 44.6334C90.1882 45.0067 89.7935 45.2894 89.2815 45.4814C88.7695 45.6734 88.1615 45.7694 87.4575 45.7694C86.8602 45.7694 86.3428 45.7214 85.9055 45.6254C85.4788 45.5294 85.1002 45.396 84.7695 45.2254V43.9454C85.1108 44.116 85.5215 44.276 86.0015 44.4254C86.4922 44.564 86.9882 44.6334 87.4895 44.6334C88.2042 44.6334 88.7215 44.5214 89.0415 44.2974C89.3615 44.0627 89.5215 43.7534 89.5215 43.3694C89.5215 43.156 89.4628 42.964 89.3455 42.7934C89.2282 42.6227 89.0148 42.452 88.7055 42.2814C88.4068 42.1107 87.9748 41.9187 87.4095 41.7054C86.8548 41.492 86.3802 41.2787 85.9855 41.0654C85.5908 40.852 85.2868 40.596 85.0735 40.2974C84.8602 39.9987 84.7535 39.6147 84.7535 39.1454C84.7535 38.42 85.0468 37.86 85.6335 37.4654C86.2308 37.0707 87.0095 36.8734 87.9695 36.8734C88.4922 36.8734 88.9775 36.9267 89.4255 37.0334C89.8842 37.1294 90.3108 37.268 90.7055 37.4494L90.2255 38.5694C89.9908 38.4627 89.7402 38.372 89.4735 38.2974C89.2175 38.212 88.9562 38.148 88.6895 38.1054C88.4228 38.052 88.1508 38.0254 87.8735 38.0254C87.2975 38.0254 86.8548 38.1214 86.5455 38.3134C86.2468 38.4947 86.0975 38.7454 86.0975 39.0654C86.0975 39.3 86.1668 39.5027 86.3055 39.6734C86.4442 39.8334 86.6735 39.9934 86.9935 40.1534C87.3242 40.3027 87.7615 40.484 88.3055 40.6974C88.8495 40.9 89.3135 41.108 89.6975 41.3214C90.0815 41.5347 90.3748 41.796 90.5775 42.1054C90.7802 42.404 90.8815 42.7827 90.8815 43.2414ZM104.566 41.3054C104.566 42.02 104.47 42.6547 104.278 43.2094C104.097 43.7534 103.83 44.2174 103.478 44.6014C103.137 44.9854 102.715 45.2787 102.214 45.4814C101.723 45.6734 101.174 45.7694 100.566 45.7694C100.001 45.7694 99.478 45.6734 98.998 45.4814C98.518 45.2787 98.102 44.9854 97.75 44.6014C97.398 44.2174 97.1207 43.7534 96.918 43.2094C96.726 42.6547 96.63 42.02 96.63 41.3054C96.63 40.356 96.79 39.556 97.11 38.9054C97.43 38.244 97.8887 37.7427 98.486 37.4014C99.0833 37.0494 99.7927 36.8734 100.614 36.8734C101.393 36.8734 102.075 37.0494 102.662 37.4014C103.259 37.7427 103.723 38.244 104.054 38.9054C104.395 39.556 104.566 40.356 104.566 41.3054ZM98.086 41.3054C98.086 41.9774 98.1713 42.564 98.342 43.0654C98.5233 43.556 98.8007 43.9347 99.174 44.2014C99.5473 44.468 100.022 44.6014 100.598 44.6014C101.174 44.6014 101.649 44.468 102.022 44.2014C102.395 43.9347 102.667 43.556 102.838 43.0654C103.019 42.564 103.11 41.9774 103.11 41.3054C103.11 40.6227 103.019 40.0414 102.838 39.5614C102.657 39.0814 102.379 38.7134 102.006 38.4574C101.643 38.1907 101.169 38.0574 100.582 38.0574C99.7073 38.0574 99.0727 38.3454 98.678 38.9214C98.2833 39.4974 98.086 40.292 98.086 41.3054ZM110.926 36.8734C111.95 36.8734 112.723 37.124 113.246 37.6254C113.768 38.116 114.03 38.916 114.03 40.0254V45.6094H112.638V40.1214C112.638 39.428 112.483 38.9107 112.174 38.5694C111.864 38.228 111.379 38.0574 110.718 38.0574C109.768 38.0574 109.112 38.324 108.75 38.8574C108.387 39.3907 108.206 40.1587 108.206 41.1614V45.6094H106.798V37.0334H107.934L108.142 38.2014H108.222C108.414 37.9027 108.648 37.6574 108.926 37.4654C109.214 37.2627 109.528 37.1134 109.87 37.0174C110.211 36.9214 110.563 36.8734 110.926 36.8734Z" fill="#3B3B3B"/>
<path d="M48.04 76.6094H40.84V74.8574L42.904 74.0894V62.0174L40.84 61.2254V59.4734H48.04V61.2254L45.976 62.0174V74.0894L48.04 74.8574V76.6094ZM57.7868 63.3614C59.2428 63.3614 60.3788 63.7374 61.1948 64.4894C62.0268 65.2414 62.4428 66.4574 62.4428 68.1374V76.6094H59.4188V68.7374C59.4188 67.7614 59.2268 67.0334 58.8428 66.5534C58.4588 66.0574 57.8508 65.8094 57.0188 65.8094C55.8028 65.8094 54.9708 66.1934 54.5228 66.9614C54.0748 67.7134 53.8508 68.8094 53.8508 70.2494V76.6094H50.8268V63.6014H53.1548L53.5868 65.3054H53.7548C54.0428 64.8574 54.3948 64.4894 54.8108 64.2014C55.2268 63.9134 55.6908 63.7054 56.2028 63.5774C56.7148 63.4334 57.2428 63.3614 57.7868 63.3614ZM75.0813 72.8414C75.0813 73.7054 74.8733 74.4414 74.4573 75.0494C74.0413 75.6414 73.4253 76.0894 72.6093 76.3934C71.8093 76.6974 70.8253 76.8494 69.6573 76.8494C68.7453 76.8494 67.9613 76.7854 67.3053 76.6574C66.6493 76.5294 66.0253 76.3294 65.4333 76.0574V73.4894C66.0733 73.7934 66.7853 74.0494 67.5693 74.2574C68.3533 74.4654 69.0813 74.5694 69.7533 74.5694C70.5853 74.5694 71.1853 74.4414 71.5533 74.1854C71.9213 73.9294 72.1053 73.5854 72.1053 73.1534C72.1053 72.8974 72.0333 72.6654 71.8893 72.4574C71.7453 72.2494 71.4653 72.0334 71.0493 71.8094C70.6333 71.5694 70.0013 71.2734 69.1533 70.9214C68.3213 70.5854 67.6253 70.2494 67.0653 69.9134C66.5213 69.5774 66.1053 69.1774 65.8173 68.7134C65.5453 68.2334 65.4093 67.6334 65.4093 66.9134C65.4093 65.7454 65.8733 64.8654 66.8013 64.2734C67.7293 63.6654 68.9533 63.3614 70.4733 63.3614C71.2733 63.3614 72.0253 63.4414 72.7293 63.6014C73.4493 63.7454 74.1693 63.9854 74.8893 64.3214L73.9293 66.5534C73.5293 66.3774 73.1293 66.2254 72.7293 66.0974C72.3453 65.9534 71.9533 65.8414 71.5533 65.7614C71.1693 65.6814 70.7773 65.6414 70.3773 65.6414C69.7213 65.6414 69.2253 65.7454 68.8893 65.9534C68.5533 66.1454 68.3853 66.4174 68.3853 66.7694C68.3853 67.0414 68.4653 67.2814 68.6253 67.4894C68.8013 67.6814 69.0973 67.8814 69.5133 68.0894C69.9453 68.2814 70.5533 68.5374 71.3372 68.8574C72.1213 69.1614 72.7853 69.4814 73.3293 69.8174C73.8893 70.1374 74.3213 70.5374 74.6253 71.0174C74.9293 71.4974 75.0813 72.1054 75.0813 72.8414ZM83.0309 74.4254C83.4149 74.4254 83.7829 74.3934 84.1349 74.3294C84.4869 74.2494 84.8149 74.1614 85.1189 74.0654V76.3214C84.7989 76.4654 84.3829 76.5854 83.8709 76.6814C83.3589 76.7934 82.8229 76.8494 82.2629 76.8494C81.5269 76.8494 80.8549 76.7294 80.2469 76.4894C79.6549 76.2334 79.1749 75.8014 78.8069 75.1934C78.4549 74.5854 78.2789 73.7374 78.2789 72.6494V65.8814H76.5269V64.5614L78.4469 63.5054L79.4069 60.7454H81.3029V63.6014H84.9989V65.8814H81.3029V72.6254C81.3029 73.2334 81.4629 73.6894 81.7829 73.9934C82.1029 74.2814 82.5189 74.4254 83.0309 74.4254ZM92.9249 63.3614C94.6049 63.3614 95.8769 63.7294 96.7409 64.4654C97.6209 65.1854 98.0609 66.3214 98.0609 67.8734V76.6094H95.9249L95.3249 74.8094H95.2289C94.8609 75.2734 94.4769 75.6654 94.0769 75.9854C93.6929 76.2894 93.2449 76.5054 92.7329 76.6334C92.2369 76.7774 91.6289 76.8494 90.9089 76.8494C90.1409 76.8494 89.4449 76.7054 88.8209 76.4174C88.2129 76.1294 87.7329 75.6894 87.3809 75.0974C87.0289 74.4894 86.8529 73.7294 86.8529 72.8174C86.8529 71.4734 87.3409 70.4654 88.3169 69.7934C89.3089 69.1054 90.8049 68.7294 92.8049 68.6654L95.0609 68.5934V67.9454C95.0609 67.1134 94.8609 66.5214 94.4609 66.1694C94.0609 65.8174 93.5009 65.6414 92.7809 65.6414C92.1249 65.6414 91.4929 65.7374 90.8849 65.9294C90.2769 66.1214 89.6849 66.3454 89.1089 66.6014L88.1489 64.4894C88.7889 64.1534 89.5169 63.8814 90.3329 63.6734C91.1649 63.4654 92.0289 63.3614 92.9249 63.3614ZM93.4769 70.5134C92.1489 70.5614 91.2289 70.7934 90.7169 71.2094C90.2049 71.6094 89.9489 72.1534 89.9489 72.8414C89.9489 73.4494 90.1329 73.8894 90.5009 74.1614C90.8689 74.4334 91.3409 74.5694 91.9169 74.5694C92.7969 74.5694 93.5409 74.3214 94.1489 73.8254C94.7569 73.3134 95.0609 72.5614 95.0609 71.5694V70.4654L93.4769 70.5134ZM106.218 63.3614C107.034 63.3614 107.77 63.5214 108.426 63.8414C109.082 64.1614 109.634 64.6414 110.082 65.2814H110.202L110.49 63.6014H113.01V76.7054C113.01 77.9374 112.778 78.9694 112.314 79.8014C111.85 80.6494 111.154 81.2894 110.226 81.7214C109.298 82.1534 108.138 82.3694 106.746 82.3694C105.818 82.3694 104.962 82.3054 104.178 82.1774C103.394 82.0654 102.65 81.8654 101.946 81.5774V79.0814C102.442 79.2894 102.954 79.4654 103.482 79.6094C104.026 79.7694 104.586 79.8894 105.162 79.9694C105.738 80.0494 106.33 80.0894 106.938 80.0894C107.93 80.0894 108.682 79.8094 109.194 79.2494C109.722 78.6894 109.986 77.8894 109.986 76.8494V76.5134C109.986 76.2734 109.994 75.9934 110.01 75.6734C110.042 75.3534 110.066 75.0974 110.082 74.9054H109.986C109.538 75.5774 108.994 76.0734 108.354 76.3934C107.714 76.6974 106.978 76.8494 106.146 76.8494C104.562 76.8494 103.322 76.2574 102.426 75.0734C101.53 73.8894 101.082 72.2414 101.082 70.1294C101.082 68.7054 101.282 67.4894 101.682 66.4814C102.098 65.4734 102.69 64.7054 103.458 64.1774C104.226 63.6334 105.146 63.3614 106.218 63.3614ZM107.01 65.8334C106.402 65.8334 105.882 66.0014 105.45 66.3374C105.034 66.6574 104.714 67.1374 104.49 67.7774C104.282 68.4174 104.178 69.2174 104.178 70.1774C104.178 71.5854 104.418 72.6494 104.898 73.3694C105.378 74.0894 106.098 74.4494 107.058 74.4494C107.602 74.4494 108.066 74.3854 108.45 74.2574C108.834 74.1134 109.146 73.8894 109.386 73.5854C109.642 73.2654 109.834 72.8654 109.962 72.3854C110.09 71.8894 110.154 71.2974 110.154 70.6094V70.1534C110.154 69.1134 110.042 68.2814 109.818 67.6574C109.594 67.0174 109.25 66.5534 108.786 66.2654C108.338 65.9774 107.746 65.8334 107.01 65.8334ZM123.69 63.3614C123.882 63.3614 124.106 63.3694 124.362 63.3854C124.618 63.4014 124.834 63.4334 125.01 63.4814L124.746 66.2894C124.602 66.2574 124.41 66.2334 124.17 66.2174C123.946 66.1854 123.746 66.1694 123.57 66.1694C123.09 66.1694 122.626 66.2494 122.178 66.4094C121.746 66.5534 121.354 66.7774 121.002 67.0814C120.666 67.3694 120.394 67.7454 120.186 68.2094C119.994 68.6734 119.898 69.2254 119.898 69.8654V76.6094H116.874V63.6014H119.202L119.634 65.8574H119.778C120.034 65.3934 120.354 64.9774 120.738 64.6094C121.122 64.2254 121.562 63.9214 122.058 63.6974C122.57 63.4734 123.114 63.3614 123.69 63.3614ZM132.136 63.3614C133.816 63.3614 135.088 63.7294 135.952 64.4654C136.832 65.1854 137.272 66.3214 137.272 67.8734V76.6094H135.136L134.536 74.8094H134.44C134.072 75.2734 133.688 75.6654 133.288 75.9854C132.904 76.2894 132.456 76.5054 131.944 76.6334C131.448 76.7774 130.84 76.8494 130.12 76.8494C129.352 76.8494 128.656 76.7054 128.032 76.4174C127.424 76.1294 126.944 75.6894 126.592 75.0974C126.24 74.4894 126.064 73.7294 126.064 72.8174C126.064 71.4734 126.552 70.4654 127.528 69.7934C128.52 69.1054 130.016 68.7294 132.016 68.6654L134.272 68.5934V67.9454C134.272 67.1134 134.072 66.5214 133.672 66.1694C133.272 65.8174 132.712 65.6414 131.992 65.6414C131.336 65.6414 130.704 65.7374 130.096 65.9294C129.488 66.1214 128.896 66.3454 128.32 66.6014L127.36 64.4894C128 64.1534 128.728 63.8814 129.544 63.6734C130.376 63.4654 131.24 63.3614 132.136 63.3614ZM132.688 70.5134C131.36 70.5614 130.44 70.7934 129.928 71.2094C129.416 71.6094 129.16 72.1534 129.16 72.8414C129.16 73.4494 129.344 73.8894 129.712 74.1614C130.08 74.4334 130.552 74.5694 131.128 74.5694C132.008 74.5694 132.752 74.3214 133.36 73.8254C133.968 73.3134 134.272 72.5614 134.272 71.5694V70.4654L132.688 70.5134ZM155.965 63.3614C157.437 63.3614 158.541 63.7374 159.277 64.4894C160.029 65.2414 160.405 66.4574 160.405 68.1374V76.6094H157.381V68.7134C157.381 67.7534 157.205 67.0334 156.853 66.5534C156.501 66.0574 155.941 65.8094 155.173 65.8094C154.117 65.8094 153.365 66.1534 152.917 66.8414C152.469 67.5294 152.245 68.5294 152.245 69.8414V76.6094H149.221V68.7134C149.221 68.0734 149.141 67.5374 148.981 67.1054C148.821 66.6734 148.573 66.3534 148.237 66.1454C147.917 65.9214 147.501 65.8094 146.989 65.8094C146.269 65.8094 145.693 65.9854 145.261 66.3374C144.829 66.6734 144.525 67.1694 144.349 67.8254C144.173 68.4814 144.085 69.2894 144.085 70.2494V76.6094H141.061V63.6014H143.389L143.821 65.3054H143.989C144.261 64.8574 144.589 64.4894 144.973 64.2014C145.373 63.9134 145.813 63.7054 146.293 63.5774C146.789 63.4334 147.285 63.3614 147.781 63.3614C148.757 63.3614 149.581 63.5294 150.253 63.8654C150.925 64.1854 151.429 64.6894 151.765 65.3774H152.005C152.405 64.6734 152.965 64.1614 153.685 63.8414C154.421 63.5214 155.181 63.3614 155.965 63.3614Z" fill="#3B3B3B"/>
</g>
<path d="M24 0.5H197.333C210.312 0.5 220.833 11.0213 220.833 24V91.6074C220.833 104.586 210.312 115.107 197.333 115.107H24C11.0214 115.107 0.500153 104.586 0.5 91.6074V24C0.5 11.0213 11.0213 0.5 24 0.5Z" stroke="#3B3B3B"/>
<defs>
<linearGradient id="paint0_linear_9682_62028" x1="191.196" y1="8.39881" x2="36.5595" y2="110.667" gradientUnits="userSpaceOnUse">
<stop stop-color="#C838AB"/>
<stop offset="0.5" stop-color="#F65050"/>
<stop offset="1" stop-color="#FFDD56"/>
</linearGradient>
<radialGradient id="paint1_radial_9682_62028" cx="0" cy="0" r="1" gradientUnits="userSpaceOnUse" gradientTransform="translate(36.5595 -16.7976) rotate(73.3438) scale(125.827 240.9)">
<stop offset="0.298077" stop-color="#5A56CA"/>
<stop offset="1" stop-color="white" stop-opacity="0"/>
</radialGradient>
<radialGradient id="paint2_radial_9682_62028" cx="0" cy="0" r="1" gradientTransform="matrix(166.693 45.1447 45.61 156.362 54.2783 57.3095)" gradientUnits="userSpaceOnUse">
<stop offset="0.14" stop-color="white" stop-opacity="0.9"/>
<stop offset="0.86" stop-color="#AE37AB" stop-opacity="0"/>
</radialGradient>
<clipPath id="clip0_9682_62028">
<path d="M0 24C0 10.7452 10.7452 0 24 0H197.333C210.588 0 221.333 10.7452 221.333 24V91.6071C221.333 104.862 210.588 115.607 197.333 115.607H24C10.7452 115.607 0 104.862 0 91.6071V24Z" fill="white"/>
</clipPath>
</defs>
</svg>
