<svg width="222" height="116" viewBox="0 0 222 116" fill="none" xmlns="http://www.w3.org/2000/svg">
<g clip-path="url(#clip0_9682_62034)">
<path d="M0 24C0 10.7452 10.7452 0 24 0H197.333C210.588 0 221.333 10.7452 221.333 24V91.6071C221.333 104.862 210.588 115.607 197.333 115.607H24C10.7452 115.607 0 104.862 0 91.6071V24Z" fill="url(#paint0_radial_9682_62034)"/>
<g opacity="0.8">
<path d="M189.131 67.2045C189.635 67.2578 190.123 67.412 190.567 67.6579C191.01 67.9039 191.4 68.2366 191.712 68.6363C192.024 69.0359 192.252 69.4943 192.383 69.9841C192.515 70.4738 192.546 70.985 192.475 71.4872C192.405 71.9893 192.234 72.4721 191.973 72.9067C191.711 73.3414 191.366 73.719 190.955 74.0172C190.545 74.3153 190.079 74.5278 189.585 74.642C189.091 74.7563 188.579 74.7699 188.08 74.682L177.688 73.2215L176.751 79.886L187.143 81.3465C187.652 81.3928 188.145 81.5418 188.594 81.7846C189.043 82.0274 189.438 82.3588 189.755 82.7588C190.072 83.1589 190.305 83.6191 190.438 84.1116C190.572 84.6042 190.605 85.1188 190.534 85.6242C190.462 86.1296 190.29 86.6154 190.025 87.052C189.761 87.4886 189.41 87.8669 188.995 88.164C188.58 88.4611 188.109 88.6709 187.611 88.7805C187.112 88.8901 186.597 88.8974 186.095 88.8018L171.98 86.818C170.994 86.6758 170.104 86.1488 169.505 85.3523C168.907 84.5558 168.648 83.5546 168.785 82.5677L172.757 54.3105C173.046 52.2534 174.949 50.7992 177.002 51.0877L191.144 53.0752C192.096 53.2596 192.941 53.8034 193.504 54.5938C194.066 55.3842 194.303 56.3607 194.165 57.321C194.027 58.2812 193.525 59.1517 192.763 59.7519C192.001 60.3521 191.037 60.6362 190.071 60.5452L179.679 59.0847L178.743 65.7491L189.131 67.2045ZM163.81 81.8639C163.663 82.8523 163.131 83.7426 162.331 84.3411C161.531 84.9396 160.526 85.198 159.537 85.0601C158.95 84.9835 158.389 84.7713 157.899 84.4405C157.408 84.1097 157.001 83.6693 156.71 83.1541L145.013 61.4527L142.564 78.8735C142.425 79.8621 141.899 80.7551 141.102 81.3559C140.305 81.9567 139.301 82.2162 138.313 82.0773C137.324 81.9383 136.431 81.4123 135.83 80.615C135.229 79.8177 134.97 78.8144 135.109 77.8257L139.08 49.5685C139.304 47.9735 140.55 46.6896 142.123 46.3897C142.513 46.3149 142.912 46.3052 143.305 46.361C144.46 46.5234 145.439 47.2997 146.03 48.2799L157.837 70.042L160.295 52.5501C160.584 50.493 162.488 49.0389 164.549 49.3286C166.611 49.6183 168.062 51.5439 167.773 53.601L163.81 81.8639ZM129.795 77.0834C129.651 78.0738 129.12 78.9667 128.319 79.5666C127.518 80.1665 126.512 80.4245 125.521 80.284C124.538 80.1376 123.653 79.6092 123.058 78.8137C122.463 78.0182 122.207 77.0201 122.344 76.0362L126.315 47.779C126.604 45.7219 128.508 44.2677 130.569 44.5575C132.631 44.8472 134.059 46.7697 133.77 48.8268L129.795 77.0834ZM114.667 78.7586L100.525 76.771C99.5351 76.6296 98.6412 76.1034 98.0372 75.3068C97.4332 74.5102 97.1678 73.5075 97.2988 72.5164L101.27 44.2592C101.559 42.2021 103.485 40.751 105.546 41.0408C107.608 41.3305 109.037 43.253 108.748 45.3101L105.3 69.8396L115.714 71.3033C116.703 71.4422 117.596 71.9682 118.197 72.7655C118.798 73.5628 119.057 74.5662 118.918 75.5548C118.779 76.5434 118.253 77.4364 117.456 78.0372C116.659 78.638 115.655 78.8975 114.667 78.7586ZM216.228 73.7222C220.7 41.9062 192.425 11.5274 153.251 6.02192C114.078 0.516438 78.525 21.9248 74.0535 53.7408C70.0466 82.2513 91.9841 109.687 125.5 119.023C127.746 119.833 130.745 121.319 131.282 123.401C131.747 125.279 131.107 127.998 130.612 129.845L128.79 135.746C128.26 137.489 126.369 142.56 134.455 140.439C142.564 138.321 178.832 122.042 196.17 106.963C207.946 97.2234 214.442 86.4291 216.228 73.7222Z" fill="white"/>
</g>
<path d="M39.936 48.6494C39.68 48.6494 39.456 48.628 39.264 48.5854C39.072 48.5534 38.9013 48.5054 38.752 48.4414V47.2254C38.9227 47.268 39.104 47.3054 39.296 47.3374C39.488 47.3694 39.6907 47.3854 39.904 47.3854C40.1707 47.3854 40.4213 47.332 40.656 47.2254C40.9013 47.1187 41.0987 46.932 41.248 46.6654C41.3973 46.3987 41.472 46.0254 41.472 45.5454V34.1854H42.912V45.4334C42.912 46.1694 42.7893 46.772 42.544 47.2414C42.2987 47.7214 41.952 48.0734 41.504 48.2974C41.056 48.532 40.5333 48.6494 39.936 48.6494ZM53.191 41.3054C53.191 42.02 53.095 42.6547 52.903 43.2094C52.7217 43.7534 52.455 44.2174 52.103 44.6014C51.7617 44.9854 51.3403 45.2787 50.839 45.4814C50.3483 45.6734 49.799 45.7694 49.191 45.7694C48.6257 45.7694 48.103 45.6734 47.623 45.4814C47.143 45.2787 46.727 44.9854 46.375 44.6014C46.023 44.2174 45.7457 43.7534 45.543 43.2094C45.351 42.6547 45.255 42.02 45.255 41.3054C45.255 40.356 45.415 39.556 45.735 38.9054C46.055 38.244 46.5137 37.7427 47.111 37.4014C47.7083 37.0494 48.4177 36.8734 49.239 36.8734C50.0177 36.8734 50.7003 37.0494 51.287 37.4014C51.8843 37.7427 52.3483 38.244 52.679 38.9054C53.0203 39.556 53.191 40.356 53.191 41.3054ZM46.711 41.3054C46.711 41.9774 46.7963 42.564 46.967 43.0654C47.1483 43.556 47.4257 43.9347 47.799 44.2014C48.1723 44.468 48.647 44.6014 49.223 44.6014C49.799 44.6014 50.2737 44.468 50.647 44.2014C51.0203 43.9347 51.2923 43.556 51.463 43.0654C51.6443 42.564 51.735 41.9774 51.735 41.3054C51.735 40.6227 51.6443 40.0414 51.463 39.5614C51.2817 39.0814 51.0043 38.7134 50.631 38.4574C50.2683 38.1907 49.7937 38.0574 49.207 38.0574C48.3323 38.0574 47.6977 38.3454 47.303 38.9214C46.9083 39.4974 46.711 40.292 46.711 41.3054ZM56.8305 37.0334V45.6094H55.4225V37.0334H56.8305ZM56.1425 33.8174C56.3558 33.8174 56.5425 33.892 56.7025 34.0414C56.8732 34.18 56.9585 34.404 56.9585 34.7134C56.9585 35.012 56.8732 35.236 56.7025 35.3854C56.5425 35.5347 56.3558 35.6094 56.1425 35.6094C55.9078 35.6094 55.7105 35.5347 55.5505 35.3854C55.3905 35.236 55.3105 35.012 55.3105 34.7134C55.3105 34.404 55.3905 34.18 55.5505 34.0414C55.7105 33.892 55.9078 33.8174 56.1425 33.8174ZM63.6755 36.8734C64.6995 36.8734 65.4728 37.124 65.9955 37.6254C66.5182 38.116 66.7795 38.916 66.7795 40.0254V45.6094H65.3875V40.1214C65.3875 39.428 65.2328 38.9107 64.9235 38.5694C64.6142 38.228 64.1288 38.0574 63.4675 38.0574C62.5182 38.0574 61.8622 38.324 61.4995 38.8574C61.1368 39.3907 60.9555 40.1587 60.9555 41.1614V45.6094H59.5475V37.0334H60.6835L60.8915 38.2014H60.9715C61.1635 37.9027 61.3982 37.6574 61.6755 37.4654C61.9635 37.2627 62.2782 37.1134 62.6195 37.0174C62.9608 36.9214 63.3128 36.8734 63.6755 36.8734ZM82.4744 41.5774C82.4744 42.3667 82.3144 43.0814 81.9944 43.7214C81.6744 44.3507 81.1837 44.852 80.5224 45.2254C79.8717 45.588 79.0397 45.7694 78.0264 45.7694C76.6077 45.7694 75.525 45.3854 74.7784 44.6174C74.0424 43.8387 73.6744 42.8147 73.6744 41.5454V34.1854H75.1144V41.5934C75.1144 42.5214 75.3597 43.2414 75.8504 43.7534C76.3517 44.2654 77.1037 44.5214 78.1064 44.5214C78.7997 44.5214 79.3597 44.3987 79.7864 44.1534C80.2237 43.8974 80.5437 43.5507 80.7464 43.1134C80.949 42.6654 81.0504 42.1534 81.0504 41.5774V34.1854H82.4744V41.5774ZM90.8815 43.2414C90.8815 43.796 90.7428 44.26 90.4655 44.6334C90.1882 45.0067 89.7935 45.2894 89.2815 45.4814C88.7695 45.6734 88.1615 45.7694 87.4575 45.7694C86.8602 45.7694 86.3428 45.7214 85.9055 45.6254C85.4788 45.5294 85.1002 45.396 84.7695 45.2254V43.9454C85.1108 44.116 85.5215 44.276 86.0015 44.4254C86.4922 44.564 86.9882 44.6334 87.4895 44.6334C88.2042 44.6334 88.7215 44.5214 89.0415 44.2974C89.3615 44.0627 89.5215 43.7534 89.5215 43.3694C89.5215 43.156 89.4628 42.964 89.3455 42.7934C89.2282 42.6227 89.0148 42.452 88.7055 42.2814C88.4068 42.1107 87.9748 41.9187 87.4095 41.7054C86.8548 41.492 86.3802 41.2787 85.9855 41.0654C85.5908 40.852 85.2868 40.596 85.0735 40.2974C84.8602 39.9987 84.7535 39.6147 84.7535 39.1454C84.7535 38.42 85.0468 37.86 85.6335 37.4654C86.2308 37.0707 87.0095 36.8734 87.9695 36.8734C88.4922 36.8734 88.9775 36.9267 89.4255 37.0334C89.8842 37.1294 90.3108 37.268 90.7055 37.4494L90.2255 38.5694C89.9908 38.4627 89.7402 38.372 89.4735 38.2974C89.2175 38.212 88.9562 38.148 88.6895 38.1054C88.4228 38.052 88.1508 38.0254 87.8735 38.0254C87.2975 38.0254 86.8548 38.1214 86.5455 38.3134C86.2468 38.4947 86.0975 38.7454 86.0975 39.0654C86.0975 39.3 86.1668 39.5027 86.3055 39.6734C86.4442 39.8334 86.6735 39.9934 86.9935 40.1534C87.3242 40.3027 87.7615 40.484 88.3055 40.6974C88.8495 40.9 89.3135 41.108 89.6975 41.3214C90.0815 41.5347 90.3748 41.796 90.5775 42.1054C90.7802 42.404 90.8815 42.7827 90.8815 43.2414ZM104.566 41.3054C104.566 42.02 104.47 42.6547 104.278 43.2094C104.097 43.7534 103.83 44.2174 103.478 44.6014C103.137 44.9854 102.715 45.2787 102.214 45.4814C101.723 45.6734 101.174 45.7694 100.566 45.7694C100.001 45.7694 99.478 45.6734 98.998 45.4814C98.518 45.2787 98.102 44.9854 97.75 44.6014C97.398 44.2174 97.1207 43.7534 96.918 43.2094C96.726 42.6547 96.63 42.02 96.63 41.3054C96.63 40.356 96.79 39.556 97.11 38.9054C97.43 38.244 97.8887 37.7427 98.486 37.4014C99.0833 37.0494 99.7927 36.8734 100.614 36.8734C101.393 36.8734 102.075 37.0494 102.662 37.4014C103.259 37.7427 103.723 38.244 104.054 38.9054C104.395 39.556 104.566 40.356 104.566 41.3054ZM98.086 41.3054C98.086 41.9774 98.1713 42.564 98.342 43.0654C98.5233 43.556 98.8007 43.9347 99.174 44.2014C99.5473 44.468 100.022 44.6014 100.598 44.6014C101.174 44.6014 101.649 44.468 102.022 44.2014C102.395 43.9347 102.667 43.556 102.838 43.0654C103.019 42.564 103.11 41.9774 103.11 41.3054C103.11 40.6227 103.019 40.0414 102.838 39.5614C102.657 39.0814 102.379 38.7134 102.006 38.4574C101.643 38.1907 101.169 38.0574 100.582 38.0574C99.7073 38.0574 99.0727 38.3454 98.678 38.9214C98.2833 39.4974 98.086 40.292 98.086 41.3054ZM110.926 36.8734C111.95 36.8734 112.723 37.124 113.246 37.6254C113.768 38.116 114.03 38.916 114.03 40.0254V45.6094H112.638V40.1214C112.638 39.428 112.483 38.9107 112.174 38.5694C111.864 38.228 111.379 38.0574 110.718 38.0574C109.768 38.0574 109.112 38.324 108.75 38.8574C108.387 39.3907 108.206 40.1587 108.206 41.1614V45.6094H106.798V37.0334H107.934L108.142 38.2014H108.222C108.414 37.9027 108.648 37.6574 108.926 37.4654C109.214 37.2627 109.528 37.1134 109.87 37.0174C110.211 36.9214 110.563 36.8734 110.926 36.8734Z" fill="#3B3B3B"/>
<path d="M42.232 76.6094V59.4734H45.304V74.0174H52.456V76.6094H42.232ZM58.1633 63.6014V76.6094H55.1393V63.6014H58.1633ZM56.6513 58.5854C57.0993 58.5854 57.4913 58.7054 57.8273 58.9454C58.1633 59.1694 58.3313 59.5774 58.3313 60.1694C58.3313 60.7454 58.1633 61.1614 57.8273 61.4174C57.4913 61.6574 57.0993 61.7774 56.6513 61.7774C56.1873 61.7774 55.7873 61.6574 55.4513 61.4174C55.1313 61.1614 54.9713 60.7454 54.9713 60.1694C54.9713 59.5774 55.1313 59.1694 55.4513 58.9454C55.7873 58.7054 56.1873 58.5854 56.6513 58.5854ZM68.9899 63.3614C70.4459 63.3614 71.5819 63.7374 72.3979 64.4894C73.2299 65.2414 73.6459 66.4574 73.6459 68.1374V76.6094H70.6219V68.7374C70.6219 67.7614 70.4299 67.0334 70.0459 66.5534C69.6619 66.0574 69.0539 65.8094 68.2219 65.8094C67.0059 65.8094 66.1739 66.1934 65.7259 66.9614C65.2779 67.7134 65.0539 68.8094 65.0539 70.2494V76.6094H62.0299V63.6014H64.3579L64.7899 65.3054H64.9579C65.2459 64.8574 65.5979 64.4894 66.0139 64.2014C66.4299 63.9134 66.8939 63.7054 67.4059 63.5774C67.9179 63.4334 68.4459 63.3614 68.9899 63.3614ZM82.6604 63.3614C83.8284 63.3614 84.8284 63.6014 85.6604 64.0814C86.5084 64.5454 87.1644 65.2174 87.6284 66.0974C88.0924 66.9614 88.3244 68.0174 88.3244 69.2654V70.8014H79.7324C79.7644 71.9854 80.0924 72.9054 80.7164 73.5614C81.3404 74.2014 82.2044 74.5214 83.3084 74.5214C84.1564 74.5214 84.9084 74.4414 85.5644 74.2814C86.2364 74.1054 86.9244 73.8574 87.6284 73.5374V75.9614C86.9884 76.2654 86.3244 76.4894 85.6364 76.6334C84.9484 76.7774 84.1244 76.8494 83.1644 76.8494C81.9004 76.8494 80.7724 76.6094 79.7804 76.1294C78.8044 75.6334 78.0364 74.8894 77.4764 73.8974C76.9324 72.9054 76.6604 71.6734 76.6604 70.2014C76.6604 68.7134 76.9084 67.4654 77.4044 66.4574C77.9164 65.4334 78.6204 64.6654 79.5164 64.1534C80.4124 63.6254 81.4604 63.3614 82.6604 63.3614ZM82.6604 65.5934C81.8604 65.5934 81.2044 65.8574 80.6924 66.3854C80.1964 66.8974 79.9004 67.6654 79.8044 68.6894H85.3964C85.3964 68.0814 85.2924 67.5454 85.0844 67.0814C84.8924 66.6174 84.5964 66.2574 84.1964 66.0014C83.7964 65.7294 83.2844 65.5934 82.6604 65.5934Z" fill="#3B3B3B"/>
</g>
<path d="M24 0.5H197.333C210.312 0.5 220.833 11.0213 220.833 24V91.6074C220.833 104.586 210.312 115.107 197.333 115.107H24C11.0214 115.107 0.500153 104.586 0.5 91.6074V24C0.5 11.0213 11.0213 0.5 24 0.5Z" stroke="#3B3B3B"/>
<defs>
<radialGradient id="paint0_radial_9682_62034" cx="0" cy="0" r="1" gradientTransform="matrix(166.693 45.1447 45.61 156.362 54.2783 57.3095)" gradientUnits="userSpaceOnUse">
<stop offset="0.14" stop-color="white"/>
<stop offset="0.86" stop-color="#00C500"/>
</radialGradient>
<clipPath id="clip0_9682_62034">
<path d="M0 24C0 10.7452 10.7452 0 24 0H197.333C210.588 0 221.333 10.7452 221.333 24V91.6071C221.333 104.862 210.588 115.607 197.333 115.607H24C10.7452 115.607 0 104.862 0 91.6071V24Z" fill="white"/>
</clipPath>
</defs>
</svg>
