<svg width="222" height="116" viewBox="0 0 222 116" fill="none" xmlns="http://www.w3.org/2000/svg">
<g clip-path="url(#clip0_9682_62069)">
<path d="M0 24C0 10.7452 10.7452 0 24 0H197.333C210.588 0 221.333 10.7452 221.333 24V91.6071C221.333 104.862 210.588 115.607 197.333 115.607H24C10.7452 115.607 0 104.862 0 91.6071V24Z" fill="url(#paint0_radial_9682_62069)"/>
<g opacity="0.8">
<path d="M109.221 7.71449C105.883 7.24528 102.494 8.12155 99.8017 10.1505C97.1091 12.1795 95.3328 15.195 94.8636 18.5337C94.3944 21.8723 95.2707 25.2606 97.2997 27.9532C99.3287 30.6458 102.344 32.422 105.683 32.8913C109.021 33.3605 112.41 32.4842 115.102 30.4552C117.795 28.4262 119.571 25.4107 120.04 22.0721C120.51 18.7334 119.633 15.3451 117.604 12.6525C115.575 9.95998 112.56 8.18371 109.221 7.71449ZM92.378 41.5931C92.1816 41.5655 91.9823 41.617 91.8239 41.7364C91.6655 41.8557 91.561 42.0331 91.5334 42.2295L80.7102 119.241C80.6527 119.65 80.9378 120.028 81.3466 120.085L105.042 123.416C105.239 123.443 105.438 123.392 105.596 123.272C105.755 123.153 105.859 122.976 105.887 122.779L116.71 45.7678C116.738 45.5715 116.686 45.3721 116.567 45.2138C116.448 45.0554 116.27 44.9509 116.074 44.9233L92.378 41.5931ZM130.884 47.0047C130.687 46.9771 130.488 47.0286 130.33 47.148C130.171 47.2673 130.067 47.4447 130.039 47.6411L119.216 124.652C119.158 125.061 119.443 125.439 119.852 125.497L143.548 128.827C143.744 128.855 143.944 128.803 144.102 128.684C144.26 128.565 144.365 128.387 144.393 128.191L150.22 86.7231C150.634 83.7773 152.202 81.1165 154.578 79.3262C156.953 77.5359 159.943 76.7628 162.889 77.1768C165.835 77.5908 168.496 79.1581 170.286 81.5339C172.076 83.9097 172.849 86.8993 172.435 89.8452L166.607 131.313C166.55 131.722 166.835 132.1 167.244 132.157L190.94 135.488C191.136 135.515 191.335 135.464 191.494 135.344C191.652 135.225 191.757 135.048 191.784 134.851L198.961 83.7868C200.981 69.4094 190.062 56.409 175.573 55.6958C171.09 55.4798 166.601 55.9658 162.268 57.1363L154.065 59.3663L155.216 51.1795C155.243 50.9831 155.192 50.7838 155.073 50.6254C154.953 50.467 154.776 50.3625 154.579 50.3349L130.884 47.0047Z" fill="white"/>
</g>
<path d="M39.936 48.6494C39.68 48.6494 39.456 48.628 39.264 48.5854C39.072 48.5534 38.9013 48.5054 38.752 48.4414V47.2254C38.9227 47.268 39.104 47.3054 39.296 47.3374C39.488 47.3694 39.6907 47.3854 39.904 47.3854C40.1707 47.3854 40.4213 47.332 40.656 47.2254C40.9013 47.1187 41.0987 46.932 41.248 46.6654C41.3973 46.3987 41.472 46.0254 41.472 45.5454V34.1854H42.912V45.4334C42.912 46.1694 42.7893 46.772 42.544 47.2414C42.2987 47.7214 41.952 48.0734 41.504 48.2974C41.056 48.532 40.5333 48.6494 39.936 48.6494ZM53.191 41.3054C53.191 42.02 53.095 42.6547 52.903 43.2094C52.7217 43.7534 52.455 44.2174 52.103 44.6014C51.7617 44.9854 51.3403 45.2787 50.839 45.4814C50.3483 45.6734 49.799 45.7694 49.191 45.7694C48.6257 45.7694 48.103 45.6734 47.623 45.4814C47.143 45.2787 46.727 44.9854 46.375 44.6014C46.023 44.2174 45.7457 43.7534 45.543 43.2094C45.351 42.6547 45.255 42.02 45.255 41.3054C45.255 40.356 45.415 39.556 45.735 38.9054C46.055 38.244 46.5137 37.7427 47.111 37.4014C47.7083 37.0494 48.4177 36.8734 49.239 36.8734C50.0177 36.8734 50.7003 37.0494 51.287 37.4014C51.8843 37.7427 52.3483 38.244 52.679 38.9054C53.0203 39.556 53.191 40.356 53.191 41.3054ZM46.711 41.3054C46.711 41.9774 46.7963 42.564 46.967 43.0654C47.1483 43.556 47.4257 43.9347 47.799 44.2014C48.1723 44.468 48.647 44.6014 49.223 44.6014C49.799 44.6014 50.2737 44.468 50.647 44.2014C51.0203 43.9347 51.2923 43.556 51.463 43.0654C51.6443 42.564 51.735 41.9774 51.735 41.3054C51.735 40.6227 51.6443 40.0414 51.463 39.5614C51.2817 39.0814 51.0043 38.7134 50.631 38.4574C50.2683 38.1907 49.7937 38.0574 49.207 38.0574C48.3323 38.0574 47.6977 38.3454 47.303 38.9214C46.9083 39.4974 46.711 40.292 46.711 41.3054ZM56.8305 37.0334V45.6094H55.4225V37.0334H56.8305ZM56.1425 33.8174C56.3558 33.8174 56.5425 33.892 56.7025 34.0414C56.8732 34.18 56.9585 34.404 56.9585 34.7134C56.9585 35.012 56.8732 35.236 56.7025 35.3854C56.5425 35.5347 56.3558 35.6094 56.1425 35.6094C55.9078 35.6094 55.7105 35.5347 55.5505 35.3854C55.3905 35.236 55.3105 35.012 55.3105 34.7134C55.3105 34.404 55.3905 34.18 55.5505 34.0414C55.7105 33.892 55.9078 33.8174 56.1425 33.8174ZM63.6755 36.8734C64.6995 36.8734 65.4728 37.124 65.9955 37.6254C66.5182 38.116 66.7795 38.916 66.7795 40.0254V45.6094H65.3875V40.1214C65.3875 39.428 65.2328 38.9107 64.9235 38.5694C64.6142 38.228 64.1288 38.0574 63.4675 38.0574C62.5182 38.0574 61.8622 38.324 61.4995 38.8574C61.1368 39.3907 60.9555 40.1587 60.9555 41.1614V45.6094H59.5475V37.0334H60.6835L60.8915 38.2014H60.9715C61.1635 37.9027 61.3982 37.6574 61.6755 37.4654C61.9635 37.2627 62.2782 37.1134 62.6195 37.0174C62.9608 36.9214 63.3128 36.8734 63.6755 36.8734ZM82.4744 41.5774C82.4744 42.3667 82.3144 43.0814 81.9944 43.7214C81.6744 44.3507 81.1837 44.852 80.5224 45.2254C79.8717 45.588 79.0397 45.7694 78.0264 45.7694C76.6077 45.7694 75.525 45.3854 74.7784 44.6174C74.0424 43.8387 73.6744 42.8147 73.6744 41.5454V34.1854H75.1144V41.5934C75.1144 42.5214 75.3597 43.2414 75.8504 43.7534C76.3517 44.2654 77.1037 44.5214 78.1064 44.5214C78.7997 44.5214 79.3597 44.3987 79.7864 44.1534C80.2237 43.8974 80.5437 43.5507 80.7464 43.1134C80.949 42.6654 81.0504 42.1534 81.0504 41.5774V34.1854H82.4744V41.5774ZM90.8815 43.2414C90.8815 43.796 90.7428 44.26 90.4655 44.6334C90.1882 45.0067 89.7935 45.2894 89.2815 45.4814C88.7695 45.6734 88.1615 45.7694 87.4575 45.7694C86.8602 45.7694 86.3428 45.7214 85.9055 45.6254C85.4788 45.5294 85.1002 45.396 84.7695 45.2254V43.9454C85.1108 44.116 85.5215 44.276 86.0015 44.4254C86.4922 44.564 86.9882 44.6334 87.4895 44.6334C88.2042 44.6334 88.7215 44.5214 89.0415 44.2974C89.3615 44.0627 89.5215 43.7534 89.5215 43.3694C89.5215 43.156 89.4628 42.964 89.3455 42.7934C89.2282 42.6227 89.0148 42.452 88.7055 42.2814C88.4068 42.1107 87.9748 41.9187 87.4095 41.7054C86.8548 41.492 86.3802 41.2787 85.9855 41.0654C85.5908 40.852 85.2868 40.596 85.0735 40.2974C84.8602 39.9987 84.7535 39.6147 84.7535 39.1454C84.7535 38.42 85.0468 37.86 85.6335 37.4654C86.2308 37.0707 87.0095 36.8734 87.9695 36.8734C88.4922 36.8734 88.9775 36.9267 89.4255 37.0334C89.8842 37.1294 90.3108 37.268 90.7055 37.4494L90.2255 38.5694C89.9908 38.4627 89.7402 38.372 89.4735 38.2974C89.2175 38.212 88.9562 38.148 88.6895 38.1054C88.4228 38.052 88.1508 38.0254 87.8735 38.0254C87.2975 38.0254 86.8548 38.1214 86.5455 38.3134C86.2468 38.4947 86.0975 38.7454 86.0975 39.0654C86.0975 39.3 86.1668 39.5027 86.3055 39.6734C86.4442 39.8334 86.6735 39.9934 86.9935 40.1534C87.3242 40.3027 87.7615 40.484 88.3055 40.6974C88.8495 40.9 89.3135 41.108 89.6975 41.3214C90.0815 41.5347 90.3748 41.796 90.5775 42.1054C90.7802 42.404 90.8815 42.7827 90.8815 43.2414ZM104.566 41.3054C104.566 42.02 104.47 42.6547 104.278 43.2094C104.097 43.7534 103.83 44.2174 103.478 44.6014C103.137 44.9854 102.715 45.2787 102.214 45.4814C101.723 45.6734 101.174 45.7694 100.566 45.7694C100.001 45.7694 99.478 45.6734 98.998 45.4814C98.518 45.2787 98.102 44.9854 97.75 44.6014C97.398 44.2174 97.1207 43.7534 96.918 43.2094C96.726 42.6547 96.63 42.02 96.63 41.3054C96.63 40.356 96.79 39.556 97.11 38.9054C97.43 38.244 97.8887 37.7427 98.486 37.4014C99.0833 37.0494 99.7927 36.8734 100.614 36.8734C101.393 36.8734 102.075 37.0494 102.662 37.4014C103.259 37.7427 103.723 38.244 104.054 38.9054C104.395 39.556 104.566 40.356 104.566 41.3054ZM98.086 41.3054C98.086 41.9774 98.1713 42.564 98.342 43.0654C98.5233 43.556 98.8007 43.9347 99.174 44.2014C99.5473 44.468 100.022 44.6014 100.598 44.6014C101.174 44.6014 101.649 44.468 102.022 44.2014C102.395 43.9347 102.667 43.556 102.838 43.0654C103.019 42.564 103.11 41.9774 103.11 41.3054C103.11 40.6227 103.019 40.0414 102.838 39.5614C102.657 39.0814 102.379 38.7134 102.006 38.4574C101.643 38.1907 101.169 38.0574 100.582 38.0574C99.7073 38.0574 99.0727 38.3454 98.678 38.9214C98.2833 39.4974 98.086 40.292 98.086 41.3054ZM110.926 36.8734C111.95 36.8734 112.723 37.124 113.246 37.6254C113.768 38.116 114.03 38.916 114.03 40.0254V45.6094H112.638V40.1214C112.638 39.428 112.483 38.9107 112.174 38.5694C111.864 38.228 111.379 38.0574 110.718 38.0574C109.768 38.0574 109.112 38.324 108.75 38.8574C108.387 39.3907 108.206 40.1587 108.206 41.1614V45.6094H106.798V37.0334H107.934L108.142 38.2014H108.222C108.414 37.9027 108.648 37.6574 108.926 37.4654C109.214 37.2627 109.528 37.1134 109.87 37.0174C110.211 36.9214 110.563 36.8734 110.926 36.8734Z" fill="#3B3B3B"/>
<path d="M42.232 76.6094V59.4734H45.304V74.0174H52.456V76.6094H42.232ZM58.1633 63.6014V76.6094H55.1393V63.6014H58.1633ZM56.6513 58.5854C57.0993 58.5854 57.4913 58.7054 57.8273 58.9454C58.1633 59.1694 58.3313 59.5774 58.3313 60.1694C58.3313 60.7454 58.1633 61.1614 57.8273 61.4174C57.4913 61.6574 57.0993 61.7774 56.6513 61.7774C56.1873 61.7774 55.7873 61.6574 55.4513 61.4174C55.1313 61.1614 54.9713 60.7454 54.9713 60.1694C54.9713 59.5774 55.1313 59.1694 55.4513 58.9454C55.7873 58.7054 56.1873 58.5854 56.6513 58.5854ZM68.9899 63.3614C70.4459 63.3614 71.5819 63.7374 72.3979 64.4894C73.2299 65.2414 73.6459 66.4574 73.6459 68.1374V76.6094H70.6219V68.7374C70.6219 67.7614 70.4299 67.0334 70.0459 66.5534C69.6619 66.0574 69.0539 65.8094 68.2219 65.8094C67.0059 65.8094 66.1739 66.1934 65.7259 66.9614C65.2779 67.7134 65.0539 68.8094 65.0539 70.2494V76.6094H62.0299V63.6014H64.3579L64.7899 65.3054H64.9579C65.2459 64.8574 65.5979 64.4894 66.0139 64.2014C66.4299 63.9134 66.8939 63.7054 67.4059 63.5774C67.9179 63.4334 68.4459 63.3614 68.9899 63.3614ZM80.4284 67.0334C80.4284 67.4494 80.4124 67.8894 80.3804 68.3534C80.3484 68.8014 80.3164 69.2414 80.2844 69.6734H80.3564C80.4844 69.4814 80.6364 69.2734 80.8124 69.0494C80.9884 68.8094 81.1644 68.5774 81.3404 68.3534C81.5324 68.1134 81.7164 67.8974 81.8924 67.7054L85.7324 63.6014H89.1644L83.9564 69.2174L89.5004 76.6094H85.9724L81.9404 71.0414L80.4284 72.2894V76.6094H77.4284V58.3694H80.4284V67.0334ZM96.7698 63.3614C97.9378 63.3614 98.9378 63.6014 99.7698 64.0814C100.618 64.5454 101.274 65.2174 101.738 66.0974C102.202 66.9614 102.434 68.0174 102.434 69.2654V70.8014H93.8418C93.8738 71.9854 94.2018 72.9054 94.8258 73.5614C95.4498 74.2014 96.3138 74.5214 97.4178 74.5214C98.2658 74.5214 99.0178 74.4414 99.6738 74.2814C100.346 74.1054 101.034 73.8574 101.738 73.5374V75.9614C101.098 76.2654 100.434 76.4894 99.7458 76.6334C99.0578 76.7774 98.2338 76.8494 97.2738 76.8494C96.0098 76.8494 94.8818 76.6094 93.8898 76.1294C92.9138 75.6334 92.1458 74.8894 91.5858 73.8974C91.0418 72.9054 90.7698 71.6734 90.7698 70.2014C90.7698 68.7134 91.0178 67.4654 91.5138 66.4574C92.0258 65.4334 92.7298 64.6654 93.6258 64.1534C94.5218 63.6254 95.5698 63.3614 96.7698 63.3614ZM96.7698 65.5934C95.9698 65.5934 95.3138 65.8574 94.8018 66.3854C94.3058 66.8974 94.0098 67.6654 93.9138 68.6894H99.5058C99.5058 68.0814 99.4018 67.5454 99.1938 67.0814C99.0018 66.6174 98.7058 66.2574 98.3058 66.0014C97.9058 65.7294 97.3938 65.5934 96.7698 65.5934ZM109.779 76.8494C108.275 76.8494 107.051 76.2894 106.107 75.1694C105.179 74.0334 104.715 72.3534 104.715 70.1294C104.715 67.9054 105.187 66.2254 106.131 65.0894C107.075 63.9374 108.315 63.3614 109.851 63.3614C110.491 63.3614 111.051 63.4494 111.531 63.6254C112.027 63.7854 112.451 64.0094 112.803 64.2974C113.155 64.5854 113.451 64.9054 113.691 65.2574H113.835C113.787 65.0334 113.739 64.6894 113.691 64.2254C113.643 63.7614 113.619 63.3294 113.619 62.9294V58.3694H116.643V76.6094H114.291L113.739 74.9054H113.619C113.379 75.2574 113.083 75.5854 112.731 75.8894C112.379 76.1774 111.963 76.4094 111.483 76.5854C111.003 76.7614 110.435 76.8494 109.779 76.8494ZM110.691 74.4014C111.811 74.4014 112.603 74.0814 113.067 73.4414C113.531 72.8014 113.763 71.8334 113.763 70.5374V70.1534C113.763 68.7454 113.539 67.6734 113.091 66.9374C112.659 66.2014 111.843 65.8334 110.643 65.8334C109.731 65.8334 109.027 66.2174 108.531 66.9854C108.035 67.7374 107.787 68.8014 107.787 70.1774C107.787 71.5534 108.035 72.6014 108.531 73.3214C109.027 74.0414 109.747 74.4014 110.691 74.4014ZM126.603 76.6094H119.403V74.8574L121.467 74.0894V62.0174L119.403 61.2254V59.4734H126.603V61.2254L124.539 62.0174V74.0894L126.603 74.8574V76.6094ZM136.349 63.3614C137.805 63.3614 138.941 63.7374 139.757 64.4894C140.589 65.2414 141.005 66.4574 141.005 68.1374V76.6094H137.981V68.7374C137.981 67.7614 137.789 67.0334 137.405 66.5534C137.021 66.0574 136.413 65.8094 135.581 65.8094C134.365 65.8094 133.533 66.1934 133.085 66.9614C132.637 67.7134 132.413 68.8094 132.413 70.2494V76.6094H129.389V63.6014H131.717L132.149 65.3054H132.317C132.605 64.8574 132.957 64.4894 133.373 64.2014C133.789 63.9134 134.253 63.7054 134.765 63.5774C135.277 63.4334 135.805 63.3614 136.349 63.3614Z" fill="#3B3B3B"/>
</g>
<path d="M24 0.5H197.333C210.312 0.5 220.833 11.0213 220.833 24V91.6074C220.833 104.586 210.312 115.107 197.333 115.107H24C11.0214 115.107 0.500153 104.586 0.5 91.6074V24C0.5 11.0213 11.0213 0.5 24 0.5Z" stroke="#3B3B3B"/>
<defs>
<radialGradient id="paint0_radial_9682_62069" cx="0" cy="0" r="1" gradientTransform="matrix(166.693 45.1447 45.61 156.362 54.2783 57.3095)" gradientUnits="userSpaceOnUse">
<stop offset="0.14" stop-color="white"/>
<stop offset="0.86" stop-color="#0076B2"/>
</radialGradient>
<clipPath id="clip0_9682_62069">
<path d="M0 24C0 10.7452 10.7452 0 24 0H197.333C210.588 0 221.333 10.7452 221.333 24V91.6071C221.333 104.862 210.588 115.607 197.333 115.607H24C10.7452 115.607 0 104.862 0 91.6071V24Z" fill="white"/>
</clipPath>
</defs>
</svg>
