<svg width="222" height="116" viewBox="0 0 222 116" fill="none" xmlns="http://www.w3.org/2000/svg">
<g clip-path="url(#clip0_9682_62063)">
<path d="M0 24C0 10.7452 10.7452 0 24 0H197.333C210.588 0 221.333 10.7452 221.333 24V91.6071C221.333 104.862 210.588 115.607 197.333 115.607H24C10.7452 115.607 0 104.862 0 91.6071V24Z" fill="url(#paint0_radial_9682_62063)"/>
<g opacity="0.8">
<path fill-rule="evenodd" clip-rule="evenodd" d="M170.346 56.3339C158.569 40.706 154.143 -0.311797 154.143 -0.311797C154.143 -0.311797 138.582 37.8971 122.954 49.6735C107.326 61.4499 69.6868 63.3306 69.6868 63.3306C69.6868 63.3306 107.892 78.8862 119.672 94.5194C131.452 110.153 133.329 147.787 133.329 147.787C133.329 147.787 145.507 112.128 161.14 100.347C176.773 88.5668 217.785 84.1445 217.785 84.1445C217.785 84.1445 182.123 71.9618 170.346 56.3339Z" fill="white"/>
</g>
<path d="M39.936 48.6494C39.68 48.6494 39.456 48.628 39.264 48.5854C39.072 48.5534 38.9013 48.5054 38.752 48.4414V47.2254C38.9227 47.268 39.104 47.3054 39.296 47.3374C39.488 47.3694 39.6907 47.3854 39.904 47.3854C40.1707 47.3854 40.4213 47.332 40.656 47.2254C40.9013 47.1187 41.0987 46.932 41.248 46.6654C41.3973 46.3987 41.472 46.0254 41.472 45.5454V34.1854H42.912V45.4334C42.912 46.1694 42.7893 46.772 42.544 47.2414C42.2987 47.7214 41.952 48.0734 41.504 48.2974C41.056 48.532 40.5333 48.6494 39.936 48.6494ZM53.191 41.3054C53.191 42.02 53.095 42.6547 52.903 43.2094C52.7217 43.7534 52.455 44.2174 52.103 44.6014C51.7617 44.9854 51.3403 45.2787 50.839 45.4814C50.3483 45.6734 49.799 45.7694 49.191 45.7694C48.6257 45.7694 48.103 45.6734 47.623 45.4814C47.143 45.2787 46.727 44.9854 46.375 44.6014C46.023 44.2174 45.7457 43.7534 45.543 43.2094C45.351 42.6547 45.255 42.02 45.255 41.3054C45.255 40.356 45.415 39.556 45.735 38.9054C46.055 38.244 46.5137 37.7427 47.111 37.4014C47.7083 37.0494 48.4177 36.8734 49.239 36.8734C50.0177 36.8734 50.7003 37.0494 51.287 37.4014C51.8843 37.7427 52.3483 38.244 52.679 38.9054C53.0203 39.556 53.191 40.356 53.191 41.3054ZM46.711 41.3054C46.711 41.9774 46.7963 42.564 46.967 43.0654C47.1483 43.556 47.4257 43.9347 47.799 44.2014C48.1723 44.468 48.647 44.6014 49.223 44.6014C49.799 44.6014 50.2737 44.468 50.647 44.2014C51.0203 43.9347 51.2923 43.556 51.463 43.0654C51.6443 42.564 51.735 41.9774 51.735 41.3054C51.735 40.6227 51.6443 40.0414 51.463 39.5614C51.2817 39.0814 51.0043 38.7134 50.631 38.4574C50.2683 38.1907 49.7937 38.0574 49.207 38.0574C48.3323 38.0574 47.6977 38.3454 47.303 38.9214C46.9083 39.4974 46.711 40.292 46.711 41.3054ZM56.8305 37.0334V45.6094H55.4225V37.0334H56.8305ZM56.1425 33.8174C56.3558 33.8174 56.5425 33.892 56.7025 34.0414C56.8732 34.18 56.9585 34.404 56.9585 34.7134C56.9585 35.012 56.8732 35.236 56.7025 35.3854C56.5425 35.5347 56.3558 35.6094 56.1425 35.6094C55.9078 35.6094 55.7105 35.5347 55.5505 35.3854C55.3905 35.236 55.3105 35.012 55.3105 34.7134C55.3105 34.404 55.3905 34.18 55.5505 34.0414C55.7105 33.892 55.9078 33.8174 56.1425 33.8174ZM63.6755 36.8734C64.6995 36.8734 65.4728 37.124 65.9955 37.6254C66.5182 38.116 66.7795 38.916 66.7795 40.0254V45.6094H65.3875V40.1214C65.3875 39.428 65.2328 38.9107 64.9235 38.5694C64.6142 38.228 64.1288 38.0574 63.4675 38.0574C62.5182 38.0574 61.8622 38.324 61.4995 38.8574C61.1368 39.3907 60.9555 40.1587 60.9555 41.1614V45.6094H59.5475V37.0334H60.6835L60.8915 38.2014H60.9715C61.1635 37.9027 61.3982 37.6574 61.6755 37.4654C61.9635 37.2627 62.2782 37.1134 62.6195 37.0174C62.9608 36.9214 63.3128 36.8734 63.6755 36.8734ZM82.4744 41.5774C82.4744 42.3667 82.3144 43.0814 81.9944 43.7214C81.6744 44.3507 81.1837 44.852 80.5224 45.2254C79.8717 45.588 79.0397 45.7694 78.0264 45.7694C76.6077 45.7694 75.525 45.3854 74.7784 44.6174C74.0424 43.8387 73.6744 42.8147 73.6744 41.5454V34.1854H75.1144V41.5934C75.1144 42.5214 75.3597 43.2414 75.8504 43.7534C76.3517 44.2654 77.1037 44.5214 78.1064 44.5214C78.7997 44.5214 79.3597 44.3987 79.7864 44.1534C80.2237 43.8974 80.5437 43.5507 80.7464 43.1134C80.949 42.6654 81.0504 42.1534 81.0504 41.5774V34.1854H82.4744V41.5774ZM90.8815 43.2414C90.8815 43.796 90.7428 44.26 90.4655 44.6334C90.1882 45.0067 89.7935 45.2894 89.2815 45.4814C88.7695 45.6734 88.1615 45.7694 87.4575 45.7694C86.8602 45.7694 86.3428 45.7214 85.9055 45.6254C85.4788 45.5294 85.1002 45.396 84.7695 45.2254V43.9454C85.1108 44.116 85.5215 44.276 86.0015 44.4254C86.4922 44.564 86.9882 44.6334 87.4895 44.6334C88.2042 44.6334 88.7215 44.5214 89.0415 44.2974C89.3615 44.0627 89.5215 43.7534 89.5215 43.3694C89.5215 43.156 89.4628 42.964 89.3455 42.7934C89.2282 42.6227 89.0148 42.452 88.7055 42.2814C88.4068 42.1107 87.9748 41.9187 87.4095 41.7054C86.8548 41.492 86.3802 41.2787 85.9855 41.0654C85.5908 40.852 85.2868 40.596 85.0735 40.2974C84.8602 39.9987 84.7535 39.6147 84.7535 39.1454C84.7535 38.42 85.0468 37.86 85.6335 37.4654C86.2308 37.0707 87.0095 36.8734 87.9695 36.8734C88.4922 36.8734 88.9775 36.9267 89.4255 37.0334C89.8842 37.1294 90.3108 37.268 90.7055 37.4494L90.2255 38.5694C89.9908 38.4627 89.7402 38.372 89.4735 38.2974C89.2175 38.212 88.9562 38.148 88.6895 38.1054C88.4228 38.052 88.1508 38.0254 87.8735 38.0254C87.2975 38.0254 86.8548 38.1214 86.5455 38.3134C86.2468 38.4947 86.0975 38.7454 86.0975 39.0654C86.0975 39.3 86.1668 39.5027 86.3055 39.6734C86.4442 39.8334 86.6735 39.9934 86.9935 40.1534C87.3242 40.3027 87.7615 40.484 88.3055 40.6974C88.8495 40.9 89.3135 41.108 89.6975 41.3214C90.0815 41.5347 90.3748 41.796 90.5775 42.1054C90.7802 42.404 90.8815 42.7827 90.8815 43.2414ZM104.566 41.3054C104.566 42.02 104.47 42.6547 104.278 43.2094C104.097 43.7534 103.83 44.2174 103.478 44.6014C103.137 44.9854 102.715 45.2787 102.214 45.4814C101.723 45.6734 101.174 45.7694 100.566 45.7694C100.001 45.7694 99.478 45.6734 98.998 45.4814C98.518 45.2787 98.102 44.9854 97.75 44.6014C97.398 44.2174 97.1207 43.7534 96.918 43.2094C96.726 42.6547 96.63 42.02 96.63 41.3054C96.63 40.356 96.79 39.556 97.11 38.9054C97.43 38.244 97.8887 37.7427 98.486 37.4014C99.0833 37.0494 99.7927 36.8734 100.614 36.8734C101.393 36.8734 102.075 37.0494 102.662 37.4014C103.259 37.7427 103.723 38.244 104.054 38.9054C104.395 39.556 104.566 40.356 104.566 41.3054ZM98.086 41.3054C98.086 41.9774 98.1713 42.564 98.342 43.0654C98.5233 43.556 98.8007 43.9347 99.174 44.2014C99.5473 44.468 100.022 44.6014 100.598 44.6014C101.174 44.6014 101.649 44.468 102.022 44.2014C102.395 43.9347 102.667 43.556 102.838 43.0654C103.019 42.564 103.11 41.9774 103.11 41.3054C103.11 40.6227 103.019 40.0414 102.838 39.5614C102.657 39.0814 102.379 38.7134 102.006 38.4574C101.643 38.1907 101.169 38.0574 100.582 38.0574C99.7073 38.0574 99.0727 38.3454 98.678 38.9214C98.2833 39.4974 98.086 40.292 98.086 41.3054ZM110.926 36.8734C111.95 36.8734 112.723 37.124 113.246 37.6254C113.768 38.116 114.03 38.916 114.03 40.0254V45.6094H112.638V40.1214C112.638 39.428 112.483 38.9107 112.174 38.5694C111.864 38.228 111.379 38.0574 110.718 38.0574C109.768 38.0574 109.112 38.324 108.75 38.8574C108.387 39.3907 108.206 40.1587 108.206 41.1614V45.6094H106.798V37.0334H107.934L108.142 38.2014H108.222C108.414 37.9027 108.648 37.6574 108.926 37.4654C109.214 37.2627 109.528 37.1134 109.87 37.0174C110.211 36.9214 110.563 36.8734 110.926 36.8734Z" fill="#3B3B3B"/>
<path d="M42.232 76.6094V59.4734H45.304V74.0174H52.456V76.6094H42.232ZM66.6833 63.6014V76.6094H64.3073L63.8993 74.9294H63.7553C63.4833 75.3774 63.1313 75.7454 62.6993 76.0334C62.2673 76.3054 61.7953 76.5054 61.2833 76.6334C60.7713 76.7774 60.2433 76.8494 59.6993 76.8494C58.7393 76.8494 57.9073 76.6814 57.2033 76.3454C56.4993 76.0094 55.9633 75.4974 55.5953 74.8094C55.2273 74.1054 55.0433 73.2014 55.0433 72.0974V63.6014H58.0673V71.4974C58.0673 72.4574 58.2593 73.1854 58.6433 73.6814C59.0273 74.1614 59.6353 74.4014 60.4673 74.4014C61.2833 74.4014 61.9233 74.2334 62.3873 73.8974C62.8513 73.5454 63.1793 73.0414 63.3713 72.3854C63.5633 71.7294 63.6593 70.9214 63.6593 69.9614V63.6014H66.6833ZM85.4418 63.3614C86.9138 63.3614 88.0178 63.7374 88.7538 64.4894C89.5058 65.2414 89.8818 66.4574 89.8818 68.1374V76.6094H86.8578V68.7134C86.8578 67.7534 86.6818 67.0334 86.3298 66.5534C85.9778 66.0574 85.4178 65.8094 84.6498 65.8094C83.5938 65.8094 82.8418 66.1534 82.3938 66.8414C81.9458 67.5294 81.7218 68.5294 81.7218 69.8414V76.6094H78.6978V68.7134C78.6978 68.0734 78.6178 67.5374 78.4578 67.1054C78.2978 66.6734 78.0498 66.3534 77.7138 66.1454C77.3938 65.9214 76.9778 65.8094 76.4658 65.8094C75.7458 65.8094 75.1698 65.9854 74.7378 66.3374C74.3058 66.6734 74.0018 67.1694 73.8258 67.8254C73.6498 68.4814 73.5618 69.2894 73.5618 70.2494V76.6094H70.5378V63.6014H72.8658L73.2978 65.3054H73.4658C73.7378 64.8574 74.0658 64.4894 74.4498 64.2014C74.8498 63.9134 75.2898 63.7054 75.7698 63.5774C76.2658 63.4334 76.7618 63.3614 77.2578 63.3614C78.2338 63.3614 79.0578 63.5294 79.7298 63.8654C80.4018 64.1854 80.9058 64.6894 81.2418 65.3774H81.4818C81.8818 64.6734 82.4418 64.1614 83.1618 63.8414C83.8978 63.5214 84.6578 63.3614 85.4418 63.3614ZM98.8546 63.3614C100.535 63.3614 101.807 63.7294 102.671 64.4654C103.551 65.1854 103.991 66.3214 103.991 67.8734V76.6094H101.855L101.255 74.8094H101.159C100.791 75.2734 100.407 75.6654 100.007 75.9854C99.6226 76.2894 99.1746 76.5054 98.6626 76.6334C98.1666 76.7774 97.5586 76.8494 96.8386 76.8494C96.0706 76.8494 95.3746 76.7054 94.7506 76.4174C94.1426 76.1294 93.6626 75.6894 93.3106 75.0974C92.9586 74.4894 92.7826 73.7294 92.7826 72.8174C92.7826 71.4734 93.2706 70.4654 94.2466 69.7934C95.2386 69.1054 96.7346 68.7294 98.7346 68.6654L100.991 68.5934V67.9454C100.991 67.1134 100.791 66.5214 100.391 66.1694C99.9906 65.8174 99.4306 65.6414 98.7106 65.6414C98.0546 65.6414 97.4226 65.7374 96.8146 65.9294C96.2066 66.1214 95.6146 66.3454 95.0386 66.6014L94.0786 64.4894C94.7186 64.1534 95.4466 63.8814 96.2626 63.6734C97.0946 63.4654 97.9586 63.3614 98.8546 63.3614ZM99.4066 70.5134C98.0786 70.5614 97.1586 70.7934 96.6466 71.2094C96.1346 71.6094 95.8786 72.1534 95.8786 72.8414C95.8786 73.4494 96.0626 73.8894 96.4306 74.1614C96.7986 74.4334 97.2706 74.5694 97.8466 74.5694C98.7266 74.5694 99.4706 74.3214 100.079 73.8254C100.687 73.3134 100.991 72.5614 100.991 71.5694V70.4654L99.4066 70.5134Z" fill="#3B3B3B"/>
</g>
<path d="M24 0.5H197.333C210.312 0.5 220.833 11.0213 220.833 24V91.6074C220.833 104.586 210.312 115.107 197.333 115.107H24C11.0214 115.107 0.500153 104.586 0.5 91.6074V24C0.5 11.0213 11.0213 0.5 24 0.5Z" stroke="#3B3B3B"/>
<defs>
<radialGradient id="paint0_radial_9682_62063" cx="0" cy="0" r="1" gradientTransform="matrix(166.693 45.1447 45.61 156.362 54.2783 57.3095)" gradientUnits="userSpaceOnUse">
<stop offset="0.14" stop-color="white"/>
<stop offset="0.86" stop-color="#3B3B3B"/>
</radialGradient>
<clipPath id="clip0_9682_62063">
<path d="M0 24C0 10.7452 10.7452 0 24 0H197.333C210.588 0 221.333 10.7452 221.333 24V91.6071C221.333 104.862 210.588 115.607 197.333 115.607H24C10.7452 115.607 0 104.862 0 91.6071V24Z" fill="white"/>
</clipPath>
</defs>
</svg>
