<svg width="222" height="116" viewBox="0 0 222 116" fill="none" xmlns="http://www.w3.org/2000/svg">
<g clip-path="url(#clip0_9682_62087)">
<path d="M0 24C0 10.7452 10.7452 0 24 0H197.333C210.588 0 221.333 10.7452 221.333 24V91.6071C221.333 104.862 210.588 115.607 197.333 115.607H24C10.7452 115.607 0 104.862 0 91.6071V24Z" fill="url(#paint0_radial_9682_62087)"/>
<g opacity="0.8">
<path d="M115.461 18.0609L92.7269 105.843L107.663 110.541L124.266 47.8911L153.956 123.067L170.313 127.144L193.165 38.5226L178.111 34.6638L161.867 94.765L132.946 23.1176L115.461 18.0609ZM112.144 -1.42167L208.802 24.611C212.464 25.5973 215.584 27.998 217.476 31.285C219.368 34.572 219.877 38.476 218.891 42.1382L192.858 138.796C191.872 142.458 189.471 145.578 186.184 147.47C182.897 149.362 178.993 149.871 175.331 148.885L78.6736 122.852C75.0114 121.866 71.8911 119.465 69.999 116.178C68.1068 112.891 67.598 108.987 68.5843 105.325L94.617 8.66758C95.6033 5.00542 98.004 1.88506 101.291 -0.00703887C104.578 -1.89914 108.482 -2.408 112.144 -1.42167Z" fill="white"/>
</g>
<path d="M39.936 48.6494C39.68 48.6494 39.456 48.628 39.264 48.5854C39.072 48.5534 38.9013 48.5054 38.752 48.4414V47.2254C38.9227 47.268 39.104 47.3054 39.296 47.3374C39.488 47.3694 39.6907 47.3854 39.904 47.3854C40.1707 47.3854 40.4213 47.332 40.656 47.2254C40.9013 47.1187 41.0987 46.932 41.248 46.6654C41.3973 46.3987 41.472 46.0254 41.472 45.5454V34.1854H42.912V45.4334C42.912 46.1694 42.7893 46.772 42.544 47.2414C42.2987 47.7214 41.952 48.0734 41.504 48.2974C41.056 48.532 40.5333 48.6494 39.936 48.6494ZM53.191 41.3054C53.191 42.02 53.095 42.6547 52.903 43.2094C52.7217 43.7534 52.455 44.2174 52.103 44.6014C51.7617 44.9854 51.3403 45.2787 50.839 45.4814C50.3483 45.6734 49.799 45.7694 49.191 45.7694C48.6257 45.7694 48.103 45.6734 47.623 45.4814C47.143 45.2787 46.727 44.9854 46.375 44.6014C46.023 44.2174 45.7457 43.7534 45.543 43.2094C45.351 42.6547 45.255 42.02 45.255 41.3054C45.255 40.356 45.415 39.556 45.735 38.9054C46.055 38.244 46.5137 37.7427 47.111 37.4014C47.7083 37.0494 48.4177 36.8734 49.239 36.8734C50.0177 36.8734 50.7003 37.0494 51.287 37.4014C51.8843 37.7427 52.3483 38.244 52.679 38.9054C53.0203 39.556 53.191 40.356 53.191 41.3054ZM46.711 41.3054C46.711 41.9774 46.7963 42.564 46.967 43.0654C47.1483 43.556 47.4257 43.9347 47.799 44.2014C48.1723 44.468 48.647 44.6014 49.223 44.6014C49.799 44.6014 50.2737 44.468 50.647 44.2014C51.0203 43.9347 51.2923 43.556 51.463 43.0654C51.6443 42.564 51.735 41.9774 51.735 41.3054C51.735 40.6227 51.6443 40.0414 51.463 39.5614C51.2817 39.0814 51.0043 38.7134 50.631 38.4574C50.2683 38.1907 49.7937 38.0574 49.207 38.0574C48.3323 38.0574 47.6977 38.3454 47.303 38.9214C46.9083 39.4974 46.711 40.292 46.711 41.3054ZM56.8305 37.0334V45.6094H55.4225V37.0334H56.8305ZM56.1425 33.8174C56.3558 33.8174 56.5425 33.892 56.7025 34.0414C56.8732 34.18 56.9585 34.404 56.9585 34.7134C56.9585 35.012 56.8732 35.236 56.7025 35.3854C56.5425 35.5347 56.3558 35.6094 56.1425 35.6094C55.9078 35.6094 55.7105 35.5347 55.5505 35.3854C55.3905 35.236 55.3105 35.012 55.3105 34.7134C55.3105 34.404 55.3905 34.18 55.5505 34.0414C55.7105 33.892 55.9078 33.8174 56.1425 33.8174ZM63.6755 36.8734C64.6995 36.8734 65.4728 37.124 65.9955 37.6254C66.5182 38.116 66.7795 38.916 66.7795 40.0254V45.6094H65.3875V40.1214C65.3875 39.428 65.2328 38.9107 64.9235 38.5694C64.6142 38.228 64.1288 38.0574 63.4675 38.0574C62.5182 38.0574 61.8622 38.324 61.4995 38.8574C61.1368 39.3907 60.9555 40.1587 60.9555 41.1614V45.6094H59.5475V37.0334H60.6835L60.8915 38.2014H60.9715C61.1635 37.9027 61.3982 37.6574 61.6755 37.4654C61.9635 37.2627 62.2782 37.1134 62.6195 37.0174C62.9608 36.9214 63.3128 36.8734 63.6755 36.8734ZM82.4744 41.5774C82.4744 42.3667 82.3144 43.0814 81.9944 43.7214C81.6744 44.3507 81.1837 44.852 80.5224 45.2254C79.8717 45.588 79.0397 45.7694 78.0264 45.7694C76.6077 45.7694 75.525 45.3854 74.7784 44.6174C74.0424 43.8387 73.6744 42.8147 73.6744 41.5454V34.1854H75.1144V41.5934C75.1144 42.5214 75.3597 43.2414 75.8504 43.7534C76.3517 44.2654 77.1037 44.5214 78.1064 44.5214C78.7997 44.5214 79.3597 44.3987 79.7864 44.1534C80.2237 43.8974 80.5437 43.5507 80.7464 43.1134C80.949 42.6654 81.0504 42.1534 81.0504 41.5774V34.1854H82.4744V41.5774ZM90.8815 43.2414C90.8815 43.796 90.7428 44.26 90.4655 44.6334C90.1882 45.0067 89.7935 45.2894 89.2815 45.4814C88.7695 45.6734 88.1615 45.7694 87.4575 45.7694C86.8602 45.7694 86.3428 45.7214 85.9055 45.6254C85.4788 45.5294 85.1002 45.396 84.7695 45.2254V43.9454C85.1108 44.116 85.5215 44.276 86.0015 44.4254C86.4922 44.564 86.9882 44.6334 87.4895 44.6334C88.2042 44.6334 88.7215 44.5214 89.0415 44.2974C89.3615 44.0627 89.5215 43.7534 89.5215 43.3694C89.5215 43.156 89.4628 42.964 89.3455 42.7934C89.2282 42.6227 89.0148 42.452 88.7055 42.2814C88.4068 42.1107 87.9748 41.9187 87.4095 41.7054C86.8548 41.492 86.3802 41.2787 85.9855 41.0654C85.5908 40.852 85.2868 40.596 85.0735 40.2974C84.8602 39.9987 84.7535 39.6147 84.7535 39.1454C84.7535 38.42 85.0468 37.86 85.6335 37.4654C86.2308 37.0707 87.0095 36.8734 87.9695 36.8734C88.4922 36.8734 88.9775 36.9267 89.4255 37.0334C89.8842 37.1294 90.3108 37.268 90.7055 37.4494L90.2255 38.5694C89.9908 38.4627 89.7402 38.372 89.4735 38.2974C89.2175 38.212 88.9562 38.148 88.6895 38.1054C88.4228 38.052 88.1508 38.0254 87.8735 38.0254C87.2975 38.0254 86.8548 38.1214 86.5455 38.3134C86.2468 38.4947 86.0975 38.7454 86.0975 39.0654C86.0975 39.3 86.1668 39.5027 86.3055 39.6734C86.4442 39.8334 86.6735 39.9934 86.9935 40.1534C87.3242 40.3027 87.7615 40.484 88.3055 40.6974C88.8495 40.9 89.3135 41.108 89.6975 41.3214C90.0815 41.5347 90.3748 41.796 90.5775 42.1054C90.7802 42.404 90.8815 42.7827 90.8815 43.2414ZM104.566 41.3054C104.566 42.02 104.47 42.6547 104.278 43.2094C104.097 43.7534 103.83 44.2174 103.478 44.6014C103.137 44.9854 102.715 45.2787 102.214 45.4814C101.723 45.6734 101.174 45.7694 100.566 45.7694C100.001 45.7694 99.478 45.6734 98.998 45.4814C98.518 45.2787 98.102 44.9854 97.75 44.6014C97.398 44.2174 97.1207 43.7534 96.918 43.2094C96.726 42.6547 96.63 42.02 96.63 41.3054C96.63 40.356 96.79 39.556 97.11 38.9054C97.43 38.244 97.8887 37.7427 98.486 37.4014C99.0833 37.0494 99.7927 36.8734 100.614 36.8734C101.393 36.8734 102.075 37.0494 102.662 37.4014C103.259 37.7427 103.723 38.244 104.054 38.9054C104.395 39.556 104.566 40.356 104.566 41.3054ZM98.086 41.3054C98.086 41.9774 98.1713 42.564 98.342 43.0654C98.5233 43.556 98.8007 43.9347 99.174 44.2014C99.5473 44.468 100.022 44.6014 100.598 44.6014C101.174 44.6014 101.649 44.468 102.022 44.2014C102.395 43.9347 102.667 43.556 102.838 43.0654C103.019 42.564 103.11 41.9774 103.11 41.3054C103.11 40.6227 103.019 40.0414 102.838 39.5614C102.657 39.0814 102.379 38.7134 102.006 38.4574C101.643 38.1907 101.169 38.0574 100.582 38.0574C99.7073 38.0574 99.0727 38.3454 98.678 38.9214C98.2833 39.4974 98.086 40.292 98.086 41.3054ZM110.926 36.8734C111.95 36.8734 112.723 37.124 113.246 37.6254C113.768 38.116 114.03 38.916 114.03 40.0254V45.6094H112.638V40.1214C112.638 39.428 112.483 38.9107 112.174 38.5694C111.864 38.228 111.379 38.0574 110.718 38.0574C109.768 38.0574 109.112 38.324 108.75 38.8574C108.387 39.3907 108.206 40.1587 108.206 41.1614V45.6094H106.798V37.0334H107.934L108.142 38.2014H108.222C108.414 37.9027 108.648 37.6574 108.926 37.4654C109.214 37.2627 109.528 37.1134 109.87 37.0174C110.211 36.9214 110.563 36.8734 110.926 36.8734Z" fill="#3B3B3B"/>
<path d="M57.544 68.0174C57.544 69.3454 57.376 70.5534 57.04 71.6414C56.72 72.7134 56.224 73.6414 55.552 74.4254C54.896 75.2094 54.056 75.8014 53.032 76.2014L57.16 80.6894H53.08L49.888 76.8494C49.824 76.8494 49.752 76.8494 49.672 76.8494C49.608 76.8494 49.544 76.8494 49.48 76.8494C48.104 76.8494 46.904 76.6414 45.88 76.2254C44.872 75.7934 44.04 75.1934 43.384 74.4254C42.728 73.6414 42.232 72.7054 41.896 71.6174C41.576 70.5294 41.416 69.3214 41.416 67.9934C41.416 66.2174 41.704 64.6734 42.28 63.3614C42.872 62.0494 43.76 61.0334 44.944 60.3134C46.144 59.5774 47.664 59.2094 49.504 59.2094C51.312 59.2094 52.808 59.5774 53.992 60.3134C55.176 61.0334 56.064 62.0574 56.656 63.3854C57.248 64.6974 57.544 66.2414 57.544 68.0174ZM44.656 68.0174C44.656 69.3134 44.824 70.4254 45.16 71.3534C45.512 72.2814 46.04 72.9934 46.744 73.4894C47.464 73.9854 48.376 74.2334 49.48 74.2334C50.616 74.2334 51.536 73.9854 52.24 73.4894C52.944 72.9934 53.464 72.2814 53.8 71.3534C54.136 70.4254 54.304 69.3134 54.304 68.0174C54.304 66.0814 53.928 64.5614 53.176 63.4574C52.424 62.3534 51.2 61.8014 49.504 61.8014C48.384 61.8014 47.464 62.0494 46.744 62.5454C46.04 63.0414 45.512 63.7534 45.16 64.6814C44.824 65.6094 44.656 66.7214 44.656 68.0174ZM72.4489 63.6014V76.6094H70.0729L69.6649 74.9294H69.5209C69.2489 75.3774 68.8969 75.7454 68.4649 76.0334C68.0329 76.3054 67.5609 76.5054 67.0489 76.6334C66.5369 76.7774 66.0089 76.8494 65.4649 76.8494C64.5049 76.8494 63.6729 76.6814 62.9689 76.3454C62.2649 76.0094 61.7289 75.4974 61.3609 74.8094C60.9929 74.1054 60.8089 73.2014 60.8089 72.0974V63.6014H63.8329V71.4974C63.8329 72.4574 64.0249 73.1854 64.4089 73.6814C64.7929 74.1614 65.4009 74.4014 66.2329 74.4014C67.0489 74.4014 67.6889 74.2334 68.1529 73.8974C68.6169 73.5454 68.9449 73.0414 69.1369 72.3854C69.3289 71.7294 69.4249 70.9214 69.4249 69.9614V63.6014H72.4489ZM81.5354 63.3614C82.7034 63.3614 83.7034 63.6014 84.5354 64.0814C85.3834 64.5454 86.0394 65.2174 86.5034 66.0974C86.9674 66.9614 87.1994 68.0174 87.1994 69.2654V70.8014H78.6074C78.6394 71.9854 78.9674 72.9054 79.5914 73.5614C80.2154 74.2014 81.0794 74.5214 82.1834 74.5214C83.0314 74.5214 83.7834 74.4414 84.4394 74.2814C85.1114 74.1054 85.7994 73.8574 86.5034 73.5374V75.9614C85.8634 76.2654 85.1994 76.4894 84.5114 76.6334C83.8234 76.7774 82.9994 76.8494 82.0394 76.8494C80.7754 76.8494 79.6474 76.6094 78.6554 76.1294C77.6794 75.6334 76.9114 74.8894 76.3514 73.8974C75.8074 72.9054 75.5354 71.6734 75.5354 70.2014C75.5354 68.7134 75.7834 67.4654 76.2794 66.4574C76.7914 65.4334 77.4954 64.6654 78.3914 64.1534C79.2874 63.6254 80.3354 63.3614 81.5354 63.3614ZM81.5354 65.5934C80.7354 65.5934 80.0794 65.8574 79.5674 66.3854C79.0714 66.8974 78.7754 67.6654 78.6794 68.6894H84.2714C84.2714 68.0814 84.1674 67.5454 83.9594 67.0814C83.7674 66.6174 83.4714 66.2574 83.0714 66.0014C82.6714 65.7294 82.1594 65.5934 81.5354 65.5934ZM99.1047 72.8414C99.1047 73.7054 98.8967 74.4414 98.4807 75.0494C98.0647 75.6414 97.4487 76.0894 96.6327 76.3934C95.8327 76.6974 94.8487 76.8494 93.6807 76.8494C92.7687 76.8494 91.9847 76.7854 91.3287 76.6574C90.6727 76.5294 90.0487 76.3294 89.4567 76.0574V73.4894C90.0967 73.7934 90.8087 74.0494 91.5927 74.2574C92.3767 74.4654 93.1047 74.5694 93.7767 74.5694C94.6087 74.5694 95.2087 74.4414 95.5767 74.1854C95.9447 73.9294 96.1287 73.5854 96.1287 73.1534C96.1287 72.8974 96.0567 72.6654 95.9127 72.4574C95.7687 72.2494 95.4887 72.0334 95.0727 71.8094C94.6567 71.5694 94.0247 71.2734 93.1767 70.9214C92.3447 70.5854 91.6487 70.2494 91.0887 69.9134C90.5447 69.5774 90.1287 69.1774 89.8407 68.7134C89.5687 68.2334 89.4327 67.6334 89.4327 66.9134C89.4327 65.7454 89.8967 64.8654 90.8247 64.2734C91.7527 63.6654 92.9767 63.3614 94.4967 63.3614C95.2967 63.3614 96.0487 63.4414 96.7527 63.6014C97.4727 63.7454 98.1927 63.9854 98.9127 64.3214L97.9527 66.5534C97.5527 66.3774 97.1527 66.2254 96.7527 66.0974C96.3687 65.9534 95.9767 65.8414 95.5767 65.7614C95.1927 65.6814 94.8007 65.6414 94.4007 65.6414C93.7447 65.6414 93.2487 65.7454 92.9127 65.9534C92.5767 66.1454 92.4087 66.4174 92.4087 66.7694C92.4087 67.0414 92.4887 67.2814 92.6487 67.4894C92.8247 67.6814 93.1207 67.8814 93.5367 68.0894C93.9687 68.2814 94.5767 68.5374 95.3607 68.8574C96.1447 69.1614 96.8087 69.4814 97.3527 69.8174C97.9127 70.1374 98.3447 70.5374 98.6487 71.0174C98.9527 71.4974 99.1047 72.1054 99.1047 72.8414ZM107.054 74.4254C107.438 74.4254 107.806 74.3934 108.158 74.3294C108.51 74.2494 108.838 74.1614 109.142 74.0654V76.3214C108.822 76.4654 108.406 76.5854 107.894 76.6814C107.382 76.7934 106.846 76.8494 106.286 76.8494C105.55 76.8494 104.878 76.7294 104.27 76.4894C103.678 76.2334 103.198 75.8014 102.83 75.1934C102.478 74.5854 102.302 73.7374 102.302 72.6494V65.8814H100.55V64.5614L102.47 63.5054L103.43 60.7454H105.326V63.6014H109.022V65.8814H105.326V72.6254C105.326 73.2334 105.486 73.6894 105.806 73.9934C106.126 74.2814 106.542 74.4254 107.054 74.4254ZM126.62 76.6094H122.804L114.692 63.1694H114.596C114.612 63.5214 114.628 63.8974 114.644 64.2974C114.676 64.6814 114.7 65.0814 114.716 65.4974C114.732 65.8974 114.748 66.3054 114.764 66.7214C114.78 67.1374 114.796 67.5534 114.812 67.9694V76.6094H112.052V59.4734H115.844L123.932 72.8174H124.004C123.988 72.4974 123.972 72.1534 123.956 71.7854C123.94 71.4014 123.924 71.0094 123.908 70.6094C123.908 70.2094 123.9 69.8014 123.884 69.3854C123.868 68.9694 123.852 68.5694 123.836 68.1854V59.4734H126.62V76.6094Z" fill="#3B3B3B"/>
</g>
<path d="M24 0.5H197.333C210.312 0.5 220.833 11.0213 220.833 24V91.6074C220.833 104.586 210.312 115.107 197.333 115.107H24C11.0214 115.107 0.500153 104.586 0.5 91.6074V24C0.5 11.0213 11.0213 0.5 24 0.5Z" stroke="#3B3B3B"/>
<defs>
<radialGradient id="paint0_radial_9682_62087" cx="0" cy="0" r="1" gradientTransform="matrix(166.693 45.1447 45.61 156.362 54.2783 57.3095)" gradientUnits="userSpaceOnUse">
<stop offset="0.14" stop-color="white"/>
<stop offset="0.86" stop-color="#C8FF04"/>
</radialGradient>
<clipPath id="clip0_9682_62087">
<path d="M0 24C0 10.7452 10.7452 0 24 0H197.333C210.588 0 221.333 10.7452 221.333 24V91.6071C221.333 104.862 210.588 115.607 197.333 115.607H24C10.7452 115.607 0 104.862 0 91.6071V24Z" fill="white"/>
</clipPath>
</defs>
</svg>
