<svg width="222" height="116" viewBox="0 0 222 116" fill="none" xmlns="http://www.w3.org/2000/svg">
<g clip-path="url(#clip0_9682_62048)">
<path d="M0 24C0 10.7452 10.7452 0 24 0H197.333C210.588 0 221.333 10.7452 221.333 24V91.6071C221.333 104.862 210.588 115.607 197.333 115.607H24C10.7452 115.607 0 104.862 0 91.6071V24Z" fill="url(#paint0_radial_9682_62048)"/>
<g opacity="0.8">
<path fill-rule="evenodd" clip-rule="evenodd" d="M196.11 35.3678C197.66 34.9574 199.293 34.9701 200.836 35.4045C202.38 35.839 203.78 36.6793 204.889 37.8381C205.998 38.9968 206.776 40.4316 207.142 41.9932C207.508 43.5547 207.449 45.1859 206.971 46.7169L182.082 126.324C179.674 134.002 170.415 137.298 163.756 132.369C158.186 128.246 149.938 121.94 142.622 115.541C138.964 112.339 127.811 102.163 130.172 96.3692C132.197 91.4163 155.643 75.03 169.104 65.2204C174.388 61.3659 172.632 58.4672 166.558 61.8422C151.474 70.2215 127.379 82.8013 119.52 86.1914C112.588 89.18 109.166 89.3756 105.278 88.1526C98.185 85.9234 91.7126 83.1048 86.5357 80.0515C79.54 75.927 81.3367 65.7649 88.816 63.7835L196.11 35.3678Z" fill="white"/>
</g>
<path d="M39.936 48.6494C39.68 48.6494 39.456 48.628 39.264 48.5854C39.072 48.5534 38.9013 48.5054 38.752 48.4414V47.2254C38.9227 47.268 39.104 47.3054 39.296 47.3374C39.488 47.3694 39.6907 47.3854 39.904 47.3854C40.1707 47.3854 40.4213 47.332 40.656 47.2254C40.9013 47.1187 41.0987 46.932 41.248 46.6654C41.3973 46.3987 41.472 46.0254 41.472 45.5454V34.1854H42.912V45.4334C42.912 46.1694 42.7893 46.772 42.544 47.2414C42.2987 47.7214 41.952 48.0734 41.504 48.2974C41.056 48.532 40.5333 48.6494 39.936 48.6494ZM53.191 41.3054C53.191 42.02 53.095 42.6547 52.903 43.2094C52.7217 43.7534 52.455 44.2174 52.103 44.6014C51.7617 44.9854 51.3403 45.2787 50.839 45.4814C50.3483 45.6734 49.799 45.7694 49.191 45.7694C48.6257 45.7694 48.103 45.6734 47.623 45.4814C47.143 45.2787 46.727 44.9854 46.375 44.6014C46.023 44.2174 45.7457 43.7534 45.543 43.2094C45.351 42.6547 45.255 42.02 45.255 41.3054C45.255 40.356 45.415 39.556 45.735 38.9054C46.055 38.244 46.5137 37.7427 47.111 37.4014C47.7083 37.0494 48.4177 36.8734 49.239 36.8734C50.0177 36.8734 50.7003 37.0494 51.287 37.4014C51.8843 37.7427 52.3483 38.244 52.679 38.9054C53.0203 39.556 53.191 40.356 53.191 41.3054ZM46.711 41.3054C46.711 41.9774 46.7963 42.564 46.967 43.0654C47.1483 43.556 47.4257 43.9347 47.799 44.2014C48.1723 44.468 48.647 44.6014 49.223 44.6014C49.799 44.6014 50.2737 44.468 50.647 44.2014C51.0203 43.9347 51.2923 43.556 51.463 43.0654C51.6443 42.564 51.735 41.9774 51.735 41.3054C51.735 40.6227 51.6443 40.0414 51.463 39.5614C51.2817 39.0814 51.0043 38.7134 50.631 38.4574C50.2683 38.1907 49.7937 38.0574 49.207 38.0574C48.3323 38.0574 47.6977 38.3454 47.303 38.9214C46.9083 39.4974 46.711 40.292 46.711 41.3054ZM56.8305 37.0334V45.6094H55.4225V37.0334H56.8305ZM56.1425 33.8174C56.3558 33.8174 56.5425 33.892 56.7025 34.0414C56.8732 34.18 56.9585 34.404 56.9585 34.7134C56.9585 35.012 56.8732 35.236 56.7025 35.3854C56.5425 35.5347 56.3558 35.6094 56.1425 35.6094C55.9078 35.6094 55.7105 35.5347 55.5505 35.3854C55.3905 35.236 55.3105 35.012 55.3105 34.7134C55.3105 34.404 55.3905 34.18 55.5505 34.0414C55.7105 33.892 55.9078 33.8174 56.1425 33.8174ZM63.6755 36.8734C64.6995 36.8734 65.4728 37.124 65.9955 37.6254C66.5182 38.116 66.7795 38.916 66.7795 40.0254V45.6094H65.3875V40.1214C65.3875 39.428 65.2328 38.9107 64.9235 38.5694C64.6142 38.228 64.1288 38.0574 63.4675 38.0574C62.5182 38.0574 61.8622 38.324 61.4995 38.8574C61.1368 39.3907 60.9555 40.1587 60.9555 41.1614V45.6094H59.5475V37.0334H60.6835L60.8915 38.2014H60.9715C61.1635 37.9027 61.3982 37.6574 61.6755 37.4654C61.9635 37.2627 62.2782 37.1134 62.6195 37.0174C62.9608 36.9214 63.3128 36.8734 63.6755 36.8734ZM82.4744 41.5774C82.4744 42.3667 82.3144 43.0814 81.9944 43.7214C81.6744 44.3507 81.1837 44.852 80.5224 45.2254C79.8717 45.588 79.0397 45.7694 78.0264 45.7694C76.6077 45.7694 75.525 45.3854 74.7784 44.6174C74.0424 43.8387 73.6744 42.8147 73.6744 41.5454V34.1854H75.1144V41.5934C75.1144 42.5214 75.3597 43.2414 75.8504 43.7534C76.3517 44.2654 77.1037 44.5214 78.1064 44.5214C78.7997 44.5214 79.3597 44.3987 79.7864 44.1534C80.2237 43.8974 80.5437 43.5507 80.7464 43.1134C80.949 42.6654 81.0504 42.1534 81.0504 41.5774V34.1854H82.4744V41.5774ZM90.8815 43.2414C90.8815 43.796 90.7428 44.26 90.4655 44.6334C90.1882 45.0067 89.7935 45.2894 89.2815 45.4814C88.7695 45.6734 88.1615 45.7694 87.4575 45.7694C86.8602 45.7694 86.3428 45.7214 85.9055 45.6254C85.4788 45.5294 85.1002 45.396 84.7695 45.2254V43.9454C85.1108 44.116 85.5215 44.276 86.0015 44.4254C86.4922 44.564 86.9882 44.6334 87.4895 44.6334C88.2042 44.6334 88.7215 44.5214 89.0415 44.2974C89.3615 44.0627 89.5215 43.7534 89.5215 43.3694C89.5215 43.156 89.4628 42.964 89.3455 42.7934C89.2282 42.6227 89.0148 42.452 88.7055 42.2814C88.4068 42.1107 87.9748 41.9187 87.4095 41.7054C86.8548 41.492 86.3802 41.2787 85.9855 41.0654C85.5908 40.852 85.2868 40.596 85.0735 40.2974C84.8602 39.9987 84.7535 39.6147 84.7535 39.1454C84.7535 38.42 85.0468 37.86 85.6335 37.4654C86.2308 37.0707 87.0095 36.8734 87.9695 36.8734C88.4922 36.8734 88.9775 36.9267 89.4255 37.0334C89.8842 37.1294 90.3108 37.268 90.7055 37.4494L90.2255 38.5694C89.9908 38.4627 89.7402 38.372 89.4735 38.2974C89.2175 38.212 88.9562 38.148 88.6895 38.1054C88.4228 38.052 88.1508 38.0254 87.8735 38.0254C87.2975 38.0254 86.8548 38.1214 86.5455 38.3134C86.2468 38.4947 86.0975 38.7454 86.0975 39.0654C86.0975 39.3 86.1668 39.5027 86.3055 39.6734C86.4442 39.8334 86.6735 39.9934 86.9935 40.1534C87.3242 40.3027 87.7615 40.484 88.3055 40.6974C88.8495 40.9 89.3135 41.108 89.6975 41.3214C90.0815 41.5347 90.3748 41.796 90.5775 42.1054C90.7802 42.404 90.8815 42.7827 90.8815 43.2414ZM104.566 41.3054C104.566 42.02 104.47 42.6547 104.278 43.2094C104.097 43.7534 103.83 44.2174 103.478 44.6014C103.137 44.9854 102.715 45.2787 102.214 45.4814C101.723 45.6734 101.174 45.7694 100.566 45.7694C100.001 45.7694 99.478 45.6734 98.998 45.4814C98.518 45.2787 98.102 44.9854 97.75 44.6014C97.398 44.2174 97.1207 43.7534 96.918 43.2094C96.726 42.6547 96.63 42.02 96.63 41.3054C96.63 40.356 96.79 39.556 97.11 38.9054C97.43 38.244 97.8887 37.7427 98.486 37.4014C99.0833 37.0494 99.7927 36.8734 100.614 36.8734C101.393 36.8734 102.075 37.0494 102.662 37.4014C103.259 37.7427 103.723 38.244 104.054 38.9054C104.395 39.556 104.566 40.356 104.566 41.3054ZM98.086 41.3054C98.086 41.9774 98.1713 42.564 98.342 43.0654C98.5233 43.556 98.8007 43.9347 99.174 44.2014C99.5473 44.468 100.022 44.6014 100.598 44.6014C101.174 44.6014 101.649 44.468 102.022 44.2014C102.395 43.9347 102.667 43.556 102.838 43.0654C103.019 42.564 103.11 41.9774 103.11 41.3054C103.11 40.6227 103.019 40.0414 102.838 39.5614C102.657 39.0814 102.379 38.7134 102.006 38.4574C101.643 38.1907 101.169 38.0574 100.582 38.0574C99.7073 38.0574 99.0727 38.3454 98.678 38.9214C98.2833 39.4974 98.086 40.292 98.086 41.3054ZM110.926 36.8734C111.95 36.8734 112.723 37.124 113.246 37.6254C113.768 38.116 114.03 38.916 114.03 40.0254V45.6094H112.638V40.1214C112.638 39.428 112.483 38.9107 112.174 38.5694C111.864 38.228 111.379 38.0574 110.718 38.0574C109.768 38.0574 109.112 38.324 108.75 38.8574C108.387 39.3907 108.206 40.1587 108.206 41.1614V45.6094H106.798V37.0334H107.934L108.142 38.2014H108.222C108.414 37.9027 108.648 37.6574 108.926 37.4654C109.214 37.2627 109.528 37.1134 109.87 37.0174C110.211 36.9214 110.563 36.8734 110.926 36.8734Z" fill="#3B3B3B"/>
<path d="M48.376 76.6094H45.304V62.0654H40.384V59.4734H53.296V62.0654H48.376V76.6094ZM59.176 63.3614C60.344 63.3614 61.344 63.6014 62.176 64.0814C63.024 64.5454 63.68 65.2174 64.144 66.0974C64.608 66.9614 64.84 68.0174 64.84 69.2654V70.8014H56.248C56.28 71.9854 56.608 72.9054 57.232 73.5614C57.856 74.2014 58.72 74.5214 59.824 74.5214C60.672 74.5214 61.424 74.4414 62.08 74.2814C62.752 74.1054 63.44 73.8574 64.144 73.5374V75.9614C63.504 76.2654 62.84 76.4894 62.152 76.6334C61.464 76.7774 60.64 76.8494 59.68 76.8494C58.416 76.8494 57.288 76.6094 56.296 76.1294C55.32 75.6334 54.552 74.8894 53.992 73.8974C53.448 72.9054 53.176 71.6734 53.176 70.2014C53.176 68.7134 53.424 67.4654 53.92 66.4574C54.432 65.4334 55.136 64.6654 56.032 64.1534C56.928 63.6254 57.976 63.3614 59.176 63.3614ZM59.176 65.5934C58.376 65.5934 57.72 65.8574 57.208 66.3854C56.712 66.8974 56.416 67.6654 56.32 68.6894H61.912C61.912 68.0814 61.808 67.5454 61.6 67.0814C61.408 66.6174 61.112 66.2574 60.712 66.0014C60.312 65.7294 59.8 65.5934 59.176 65.5934ZM70.9133 76.6094H67.8893V58.3694H70.9133V76.6094ZM80.0119 63.3614C81.1799 63.3614 82.1799 63.6014 83.0119 64.0814C83.8599 64.5454 84.5159 65.2174 84.9799 66.0974C85.4439 66.9614 85.6759 68.0174 85.6759 69.2654V70.8014H77.0839C77.1159 71.9854 77.4439 72.9054 78.0679 73.5614C78.6919 74.2014 79.5559 74.5214 80.6599 74.5214C81.5079 74.5214 82.2599 74.4414 82.9159 74.2814C83.5879 74.1054 84.2759 73.8574 84.9799 73.5374V75.9614C84.3399 76.2654 83.6759 76.4894 82.9879 76.6334C82.2999 76.7774 81.4759 76.8494 80.5159 76.8494C79.2519 76.8494 78.1239 76.6094 77.1319 76.1294C76.1559 75.6334 75.3879 74.8894 74.8279 73.8974C74.2839 72.9054 74.0119 71.6734 74.0119 70.2014C74.0119 68.7134 74.2599 67.4654 74.7559 66.4574C75.2679 65.4334 75.9719 64.6654 76.8679 64.1534C77.7639 63.6254 78.8119 63.3614 80.0119 63.3614ZM80.0119 65.5934C79.2119 65.5934 78.5559 65.8574 78.0439 66.3854C77.5479 66.8974 77.2519 67.6654 77.1559 68.6894H82.7479C82.7479 68.0814 82.6439 67.5454 82.4359 67.0814C82.2439 66.6174 81.9479 66.2574 81.5479 66.0014C81.1479 65.7294 80.6359 65.5934 80.0119 65.5934ZM93.0933 63.3614C93.9093 63.3614 94.6453 63.5214 95.3013 63.8414C95.9573 64.1614 96.5093 64.6414 96.9573 65.2814H97.0773L97.3653 63.6014H99.8853V76.7054C99.8853 77.9374 99.6533 78.9694 99.1893 79.8014C98.7253 80.6494 98.0293 81.2894 97.1013 81.7214C96.1733 82.1534 95.0133 82.3694 93.6213 82.3694C92.6933 82.3694 91.8373 82.3054 91.0533 82.1774C90.2693 82.0654 89.5253 81.8654 88.8213 81.5774V79.0814C89.3173 79.2894 89.8293 79.4654 90.3573 79.6094C90.9013 79.7694 91.4613 79.8894 92.0373 79.9694C92.6133 80.0494 93.2053 80.0894 93.8133 80.0894C94.8053 80.0894 95.5573 79.8094 96.0693 79.2494C96.5973 78.6894 96.8613 77.8894 96.8613 76.8494V76.5134C96.8613 76.2734 96.8693 75.9934 96.8853 75.6734C96.9173 75.3534 96.9413 75.0974 96.9573 74.9054H96.8613C96.4133 75.5774 95.8693 76.0734 95.2293 76.3934C94.5893 76.6974 93.8533 76.8494 93.0213 76.8494C91.4373 76.8494 90.1973 76.2574 89.3013 75.0734C88.4053 73.8894 87.9573 72.2414 87.9573 70.1294C87.9573 68.7054 88.1573 67.4894 88.5573 66.4814C88.9733 65.4734 89.5653 64.7054 90.3333 64.1774C91.1013 63.6334 92.0213 63.3614 93.0933 63.3614ZM93.8853 65.8334C93.2773 65.8334 92.7573 66.0014 92.3253 66.3374C91.9093 66.6574 91.5893 67.1374 91.3653 67.7774C91.1573 68.4174 91.0533 69.2174 91.0533 70.1774C91.0533 71.5854 91.2933 72.6494 91.7733 73.3694C92.2533 74.0894 92.9733 74.4494 93.9333 74.4494C94.4773 74.4494 94.9413 74.3854 95.3253 74.2574C95.7093 74.1134 96.0213 73.8894 96.2613 73.5854C96.5173 73.2654 96.7093 72.8654 96.8373 72.3854C96.9653 71.8894 97.0293 71.2974 97.0293 70.6094V70.1534C97.0293 69.1134 96.9173 68.2814 96.6933 67.6574C96.4693 67.0174 96.1253 66.5534 95.6613 66.2654C95.2133 65.9774 94.6213 65.8334 93.8853 65.8334ZM110.565 63.3614C110.757 63.3614 110.981 63.3694 111.237 63.3854C111.493 63.4014 111.709 63.4334 111.885 63.4814L111.621 66.2894C111.477 66.2574 111.285 66.2334 111.045 66.2174C110.821 66.1854 110.621 66.1694 110.445 66.1694C109.965 66.1694 109.501 66.2494 109.053 66.4094C108.621 66.5534 108.229 66.7774 107.877 67.0814C107.541 67.3694 107.269 67.7454 107.061 68.2094C106.869 68.6734 106.773 69.2254 106.773 69.8654V76.6094H103.749V63.6014H106.077L106.509 65.8574H106.653C106.909 65.3934 107.229 64.9774 107.613 64.6094C107.997 64.2254 108.437 63.9214 108.933 63.6974C109.445 63.4734 109.989 63.3614 110.565 63.3614ZM119.011 63.3614C120.691 63.3614 121.963 63.7294 122.827 64.4654C123.707 65.1854 124.147 66.3214 124.147 67.8734V76.6094H122.011L121.411 74.8094H121.315C120.947 75.2734 120.563 75.6654 120.163 75.9854C119.779 76.2894 119.331 76.5054 118.819 76.6334C118.323 76.7774 117.715 76.8494 116.995 76.8494C116.227 76.8494 115.531 76.7054 114.907 76.4174C114.299 76.1294 113.819 75.6894 113.467 75.0974C113.115 74.4894 112.939 73.7294 112.939 72.8174C112.939 71.4734 113.427 70.4654 114.403 69.7934C115.395 69.1054 116.891 68.7294 118.891 68.6654L121.147 68.5934V67.9454C121.147 67.1134 120.947 66.5214 120.547 66.1694C120.147 65.8174 119.587 65.6414 118.867 65.6414C118.211 65.6414 117.579 65.7374 116.971 65.9294C116.363 66.1214 115.771 66.3454 115.195 66.6014L114.235 64.4894C114.875 64.1534 115.603 63.8814 116.419 63.6734C117.251 63.4654 118.115 63.3614 119.011 63.3614ZM119.563 70.5134C118.235 70.5614 117.315 70.7934 116.803 71.2094C116.291 71.6094 116.035 72.1534 116.035 72.8414C116.035 73.4494 116.219 73.8894 116.587 74.1614C116.955 74.4334 117.427 74.5694 118.003 74.5694C118.883 74.5694 119.627 74.3214 120.235 73.8254C120.843 73.3134 121.147 72.5614 121.147 71.5694V70.4654L119.563 70.5134ZM142.84 63.3614C144.312 63.3614 145.416 63.7374 146.152 64.4894C146.904 65.2414 147.28 66.4574 147.28 68.1374V76.6094H144.256V68.7134C144.256 67.7534 144.08 67.0334 143.728 66.5534C143.376 66.0574 142.816 65.8094 142.048 65.8094C140.992 65.8094 140.24 66.1534 139.792 66.8414C139.344 67.5294 139.12 68.5294 139.12 69.8414V76.6094H136.096V68.7134C136.096 68.0734 136.016 67.5374 135.856 67.1054C135.696 66.6734 135.448 66.3534 135.112 66.1454C134.792 65.9214 134.376 65.8094 133.864 65.8094C133.144 65.8094 132.568 65.9854 132.136 66.3374C131.704 66.6734 131.4 67.1694 131.224 67.8254C131.048 68.4814 130.96 69.2894 130.96 70.2494V76.6094H127.936V63.6014H130.264L130.696 65.3054H130.864C131.136 64.8574 131.464 64.4894 131.848 64.2014C132.248 63.9134 132.688 63.7054 133.168 63.5774C133.664 63.4334 134.16 63.3614 134.656 63.3614C135.632 63.3614 136.456 63.5294 137.128 63.8654C137.8 64.1854 138.304 64.6894 138.64 65.3774H138.88C139.28 64.6734 139.84 64.1614 140.56 63.8414C141.296 63.5214 142.056 63.3614 142.84 63.3614Z" fill="#3B3B3B"/>
</g>
<path d="M24 0.5H197.333C210.312 0.5 220.833 11.0213 220.833 24V91.6074C220.833 104.586 210.312 115.107 197.333 115.107H24C11.0214 115.107 0.500153 104.586 0.5 91.6074V24C0.5 11.0213 11.0213 0.5 24 0.5Z" stroke="#3B3B3B"/>
<defs>
<radialGradient id="paint0_radial_9682_62048" cx="0" cy="0" r="1" gradientTransform="matrix(166.693 45.1447 45.61 156.362 54.2783 57.3095)" gradientUnits="userSpaceOnUse">
<stop offset="0.14" stop-color="white"/>
<stop offset="0.86" stop-color="#36AEE2"/>
</radialGradient>
<clipPath id="clip0_9682_62048">
<path d="M0 24C0 10.7452 10.7452 0 24 0H197.333C210.588 0 221.333 10.7452 221.333 24V91.6071C221.333 104.862 210.588 115.607 197.333 115.607H24C10.7452 115.607 0 104.862 0 91.6071V24Z" fill="white"/>
</clipPath>
</defs>
</svg>
