<svg preserveAspectRatio="none" width="100%" height="100%" overflow="visible" style="display: block;" viewBox="0 0 20.5 20.5004" fill="none" xmlns="http://www.w3.org/2000/svg">
<g id="Group">
<path id="Union" d="M18.5 0C19.0304 0 19.539 0.210865 19.9141 0.585938C20.2891 0.96101 20.5 1.46957 20.5 2V14.75C20.5 15.2804 20.2891 15.789 19.9141 16.1641C19.539 16.5391 19.0304 16.75 18.5 16.75H9.85547L5.3125 20.3906C5.16248 20.5106 4.95641 20.5343 4.7832 20.4512C4.60995 20.3679 4.5 20.1922 4.5 20V16.75H2C1.46957 16.75 0.96101 16.5391 0.585938 16.1641C0.210865 15.789 0 15.2804 0 14.75V2C0 1.46957 0.210865 0.96101 0.585938 0.585938C0.96101 0.210865 1.46957 0 2 0H18.5ZM2 1C1.73478 1 1.48051 1.10543 1.29297 1.29297C1.10543 1.48051 1 1.73478 1 2V14.75C1 15.0152 1.10543 15.2695 1.29297 15.457C1.48051 15.6446 1.73478 15.75 2 15.75H5C5.27614 15.75 5.5 15.9739 5.5 16.25V18.958L9.36719 15.8594C9.45579 15.7884 9.56618 15.7501 9.67969 15.75H18.5C18.7652 15.75 19.0195 15.6446 19.207 15.457C19.3946 15.2695 19.5 15.0152 19.5 14.75V2C19.5 1.73478 19.3946 1.48051 19.207 1.29297C19.0195 1.10543 18.7652 1 18.5 1H2ZM10.25 12C10.7332 12 11.125 12.3918 11.125 12.875C11.125 13.3582 10.7332 13.75 10.25 13.75C9.76675 13.75 9.375 13.3582 9.375 12.875C9.375 12.3918 9.76675 12 10.25 12ZM9.19727 3.95898C9.69965 3.75089 10.2528 3.69672 10.7861 3.80273C11.3196 3.90884 11.8097 4.17107 12.1943 4.55566C12.5789 4.94026 12.8412 5.43042 12.9473 5.96387C13.0533 6.4972 12.9991 7.05035 12.791 7.55273C12.5829 8.05515 12.2295 8.48399 11.7773 8.78613C11.4654 8.99454 11.1155 9.13352 10.75 9.20117V9.5C10.75 9.77614 10.5261 10 10.25 10C9.97386 10 9.75 9.77614 9.75 9.5V8.75C9.75 8.47386 9.97386 8.25 10.25 8.25C10.5961 8.25 10.9349 8.14737 11.2227 7.95508C11.5103 7.76281 11.7348 7.48957 11.8672 7.16992C11.9996 6.85015 12.0343 6.49767 11.9668 6.1582C11.8992 5.81885 11.732 5.50737 11.4873 5.2627C11.2426 5.01802 10.9311 4.85076 10.5918 4.7832C10.2523 4.71568 9.89985 4.75036 9.58008 4.88281C9.26043 5.01523 8.98719 5.23971 8.79492 5.52734C8.60263 5.81513 8.5 6.15388 8.5 6.5C8.5 6.77614 8.27614 7 8 7C7.72386 7 7.5 6.77614 7.5 6.5C7.5 5.95616 7.66175 5.42486 7.96387 4.97266C8.26601 4.52047 8.69485 4.16713 9.19727 3.95898Z" fill="var(--fill-0, #00AA80)"/>
</g>
</svg>
